<svg width="318" height="147" viewBox="0 0 318 147" fill="none" xmlns="http://www.w3.org/2000/svg">
<mask id="path-1-outside-1_4842_14329" maskUnits="userSpaceOnUse" x="9.51943" y="37.8543" width="77.3094" height="86.8463" fill="black">
<rect fill="white" x="9.51943" y="37.8543" width="77.3094" height="86.8463"/>
<path d="M47.0658 68.7973C60.7842 63.7846 72.2428 69.1819 76.688 81.3472C81.7007 95.0655 74.0536 108.129 58.7822 113.709C48.5151 117.46 37.8015 116.779 30.5688 108.761L40.4825 99.7601C44.0831 103.726 49.3744 104.824 55.155 102.712C62.4887 100.032 66.0344 93.9441 63.4492 86.8693C60.8641 79.7944 55.0452 77.5197 47.7977 80.1679C42.1896 82.2171 38.5543 86.186 37.1507 91.98L25.946 93.4337L18.3927 55.9006L57.9084 41.4615L61.9753 52.5915L31.2601 63.8149L34.1872 78.7843C37.0443 74.024 41.544 70.815 47.0658 68.7973Z"/>
</mask>
<path d="M47.0658 68.7973C60.7842 63.7846 72.2428 69.1819 76.688 81.3472C81.7007 95.0655 74.0536 108.129 58.7822 113.709C48.5151 117.46 37.8015 116.779 30.5688 108.761L40.4825 99.7601C44.0831 103.726 49.3744 104.824 55.155 102.712C62.4887 100.032 66.0344 93.9441 63.4492 86.8693C60.8641 79.7944 55.0452 77.5197 47.7977 80.1679C42.1896 82.2171 38.5543 86.186 37.1507 91.98L25.946 93.4337L18.3927 55.9006L57.9084 41.4615L61.9753 52.5915L31.2601 63.8149L34.1872 78.7843C37.0443 74.024 41.544 70.815 47.0658 68.7973Z" fill="white"/>
<path d="M30.5688 108.761L29.8966 108.021L29.1586 108.691L29.8263 109.431L30.5688 108.761ZM40.4825 99.7601L41.2229 99.0878L40.5507 98.3475L39.8103 99.0197L40.4825 99.7601ZM37.1507 91.98L37.2794 92.9717L37.9608 92.8833L38.1226 92.2155L37.1507 91.98ZM25.946 93.4337L24.9657 93.631L25.1497 94.5454L26.0747 94.4254L25.946 93.4337ZM18.3927 55.9006L18.0495 54.9614L17.243 55.2561L17.4124 56.0979L18.3927 55.9006ZM57.9084 41.4615L58.8477 41.1183L58.5045 40.1791L57.5652 40.5223L57.9084 41.4615ZM61.9753 52.5915L62.3185 53.5308L63.2578 53.1876L62.9146 52.2483L61.9753 52.5915ZM31.2601 63.8149L30.9169 62.8756L30.1148 63.1687L30.2787 64.0068L31.2601 63.8149ZM34.1872 78.7843L33.2057 78.9762L33.7052 81.5305L35.0446 79.2989L34.1872 78.7843ZM47.4091 69.7366C54.074 67.3012 60.097 67.425 64.954 69.5469C69.8069 71.667 73.6074 75.8299 75.7488 81.6904L77.6273 81.004C75.3235 74.6992 71.172 70.0808 65.7547 67.7141C60.3415 65.3492 53.7761 65.2807 46.7226 67.858L47.4091 69.7366ZM75.7488 81.6904C78.1568 88.2805 77.5182 94.671 74.4701 100.09C71.4135 105.523 65.8934 110.046 58.439 112.77L59.1255 114.648C66.9424 111.792 72.8816 106.993 76.2132 101.07C79.5533 95.1325 80.232 88.1322 77.6273 81.004L75.7488 81.6904ZM58.439 112.77C48.3935 116.44 38.1716 115.696 31.3113 108.092L29.8263 109.431C37.4314 117.861 48.6366 118.481 59.1255 114.648L58.439 112.77ZM31.2411 109.502L41.1548 100.5L39.8103 99.0197L29.8966 108.021L31.2411 109.502ZM39.7422 100.432C43.6595 104.747 49.4002 105.879 55.4982 103.651L54.8118 101.772C49.3485 103.769 44.5067 102.704 41.2229 99.0878L39.7422 100.432ZM55.4982 103.651C59.3405 102.247 62.2807 99.916 63.9017 96.9137C65.5314 93.8949 65.7687 90.3034 64.3885 86.526L62.51 87.2125C63.7149 90.51 63.4719 93.4997 62.1418 95.9635C60.8027 98.4437 58.3033 100.497 54.8118 101.772L55.4982 103.651ZM64.3885 86.526C63.0228 82.7885 60.7535 80.2023 57.7575 78.9498C54.7762 77.7034 51.2384 77.846 47.4545 79.2286L48.1409 81.1072C51.6045 79.8416 54.5999 79.7974 56.9861 80.795C59.3577 81.7865 61.2905 83.8751 62.51 87.2125L64.3885 86.526ZM47.4545 79.2286C41.5417 81.3892 37.6635 85.6161 36.1788 91.7446L38.1226 92.2155C39.4452 86.7559 42.8375 83.045 48.1409 81.1072L47.4545 79.2286ZM37.022 90.9883L25.8174 92.442L26.0747 94.4254L37.2794 92.9717L37.022 90.9883ZM26.9264 93.2364L19.3731 55.7033L17.4124 56.0979L24.9657 93.631L26.9264 93.2364ZM18.7359 56.8399L58.2516 42.4008L57.5652 40.5223L18.0495 54.9614L18.7359 56.8399ZM56.9692 41.8047L61.0361 52.9347L62.9146 52.2483L58.8477 41.1183L56.9692 41.8047ZM61.6321 51.6522L30.9169 62.8756L31.6033 64.7542L62.3185 53.5308L61.6321 51.6522ZM30.2787 64.0068L33.2057 78.9762L35.1686 78.5924L32.2415 63.623L30.2787 64.0068ZM35.0446 79.2989C37.7559 74.7815 42.0448 71.6967 47.4091 69.7366L46.7226 67.858C41.0432 69.9333 36.3326 73.2665 33.3297 78.2697L35.0446 79.2989Z" fill="black" mask="url(#path-1-outside-1_4842_14329)"/>
<mask id="path-3-outside-2_4842_14329" maskUnits="userSpaceOnUse" x="81.7826" y="24.0695" width="71.0762" height="79.843" fill="black">
<rect fill="white" x="81.7826" y="24.0695" width="71.0762" height="79.843"/>
<path d="M121.107 98.3864C102.86 100.527 89.7916 88.4642 87.33 67.4807C84.8577 46.406 94.7905 31.7375 113.037 29.597C131.284 27.4565 144.341 39.4279 146.814 60.5027C149.275 81.4862 139.353 96.2459 121.107 98.3864ZM101.654 65.8004C103.473 81.31 109.996 88.0363 119.758 86.8911C129.52 85.7459 134.31 77.6925 132.49 62.183C130.66 46.5822 124.147 39.9471 114.386 41.0923C104.624 42.2375 99.8234 50.1996 101.654 65.8004Z"/>
</mask>
<path d="M121.107 98.3864C102.86 100.527 89.7916 88.4642 87.33 67.4807C84.8577 46.406 94.7905 31.7375 113.037 29.597C131.284 27.4565 144.341 39.4279 146.814 60.5027C149.275 81.4862 139.353 96.2459 121.107 98.3864ZM101.654 65.8004C103.473 81.31 109.996 88.0363 119.758 86.8911C129.52 85.7459 134.31 77.6925 132.49 62.183C130.66 46.5822 124.147 39.9471 114.386 41.0923C104.624 42.2375 99.8234 50.1996 101.654 65.8004Z" fill="white"/>
<path d="M120.99 97.3932C112.127 98.433 104.596 96.024 98.975 90.8681C93.3382 85.6979 89.5335 77.6816 88.3232 67.3642L86.3368 67.5972C87.5881 78.2634 91.5485 86.7702 97.623 92.342C103.713 97.9283 111.84 100.48 121.223 99.3796L120.99 97.3932ZM88.3232 67.3642C87.1074 57.0003 88.954 48.3219 93.2416 41.9998C97.5171 35.6953 104.289 31.6301 113.154 30.5902L112.921 28.6038C103.539 29.7043 96.2207 34.0436 91.5863 40.8772C86.9639 47.6932 85.0803 56.8864 86.3368 67.5972L88.3232 67.3642ZM113.154 30.5902C122.019 29.5502 129.547 31.9379 135.165 37.0817C140.8 42.2399 144.605 50.2553 145.821 60.6192L147.807 60.3862C146.55 49.6753 142.59 41.1676 136.516 35.6065C130.426 30.031 122.302 27.5032 112.921 28.6038L113.154 30.5902ZM145.821 60.6192C147.031 70.9366 145.185 79.6157 140.898 85.9502C136.622 92.267 129.853 96.3535 120.99 97.3932L121.223 99.3796C130.607 98.2788 137.922 93.9153 142.554 87.0712C147.174 80.2448 149.058 71.0523 147.807 60.3862L145.821 60.6192ZM100.66 65.9169C101.581 73.7655 103.707 79.5586 106.979 83.2542C110.298 87.0036 114.706 88.4906 119.875 87.8843L119.642 85.8979C115.048 86.4368 111.314 85.1333 108.476 81.9284C105.591 78.6697 103.545 73.3449 102.647 65.6839L100.66 65.9169ZM119.875 87.8843C125.043 87.278 128.987 84.8111 131.349 80.3953C133.677 76.0428 134.404 69.915 133.483 62.0665L131.497 62.2995C132.396 69.9605 131.638 75.6142 129.585 79.4521C127.567 83.2266 124.235 85.359 119.642 85.8979L119.875 87.8843ZM133.483 62.0665C132.557 54.1736 130.432 48.3791 127.16 44.694C123.84 40.9542 119.433 39.4933 114.269 40.0991L114.502 42.0855C119.1 41.5461 122.831 42.8301 125.664 46.0218C128.547 49.2682 130.593 54.5916 131.497 62.2995L133.483 62.0665ZM114.269 40.0991C109.105 40.7049 105.156 43.146 102.791 47.5526C100.461 51.895 99.7344 58.0241 100.66 65.9169L102.647 65.6839C101.743 57.976 102.501 52.3236 104.554 48.4984C106.572 44.7374 109.904 42.6248 114.502 42.0855L114.269 40.0991Z" fill="black" mask="url(#path-3-outside-2_4842_14329)"/>
<mask id="path-5-outside-3_4842_14329" maskUnits="userSpaceOnUse" x="158.548" y="24.0696" width="71.0762" height="79.843" fill="black">
<rect fill="white" x="158.548" y="24.0696" width="71.0762" height="79.843"/>
<path d="M189.809 98.3289C171.563 96.1884 161.64 81.4287 164.102 60.4452C166.574 39.3704 179.632 27.3989 197.879 29.5394C216.125 31.6799 226.058 46.3484 223.586 67.4232C221.124 88.4067 208.056 100.469 189.809 98.3289ZM178.426 62.1254C176.606 77.635 181.396 85.6884 191.158 86.8336C200.919 87.9788 207.443 81.2525 209.262 65.7429C211.092 50.1421 206.292 42.1799 196.53 41.0348C186.768 39.8896 180.256 46.5247 178.426 62.1254Z"/>
</mask>
<path d="M189.809 98.3289C171.563 96.1884 161.64 81.4287 164.102 60.4452C166.574 39.3704 179.632 27.3989 197.879 29.5394C216.125 31.6799 226.058 46.3484 223.586 67.4232C221.124 88.4067 208.056 100.469 189.809 98.3289ZM178.426 62.1254C176.606 77.635 181.396 85.6884 191.158 86.8336C200.919 87.9788 207.443 81.2525 209.262 65.7429C211.092 50.1421 206.292 42.1799 196.53 41.0348C186.768 39.8896 180.256 46.5247 178.426 62.1254Z" fill="white"/>
<path d="M189.926 97.3357C181.063 96.296 174.293 92.2095 170.018 85.8927C165.731 79.5582 163.885 70.879 165.095 60.5617L163.109 60.3286C161.858 70.9948 163.742 80.1873 168.362 87.0137C172.994 93.8577 180.309 98.2213 189.693 99.3221L189.926 97.3357ZM165.095 60.5617C166.311 50.1978 170.116 42.1824 175.75 37.0242C181.369 31.8804 188.897 29.4927 197.762 30.5326L197.995 28.5462C188.614 27.4457 180.49 29.9735 174.4 35.549C168.325 41.1101 164.365 49.6178 163.109 60.3286L165.095 60.5617ZM197.762 30.5326C206.627 31.5726 213.399 35.6378 217.674 41.9422C221.962 48.2644 223.808 56.9428 222.593 67.3067L224.579 67.5397C225.835 56.8288 223.952 47.6356 219.329 40.8197C214.695 33.9861 207.377 29.6468 197.995 28.5462L197.762 30.5326ZM222.593 67.3067C221.382 77.624 217.578 85.6403 211.941 90.8106C206.32 95.9665 198.788 98.3754 189.926 97.3357L189.693 99.3221C199.076 100.423 207.202 97.8707 213.293 92.2845C219.367 86.7127 223.328 78.2059 224.579 67.5397L222.593 67.3067ZM177.432 62.0089C176.512 69.8575 177.239 75.9853 179.567 80.3378C181.928 84.7536 185.873 87.2205 191.041 87.8268L191.274 85.8404C186.68 85.3015 183.349 83.1691 181.33 79.3946C179.278 75.5566 178.52 69.903 179.419 62.242L177.432 62.0089ZM191.041 87.8268C196.209 88.4331 200.618 86.946 203.937 83.1966C207.209 79.5011 209.335 73.708 210.255 65.8594L208.269 65.6264C207.37 73.2874 205.325 78.6122 202.44 81.8709C199.602 85.0758 195.868 86.3793 191.274 85.8404L191.041 87.8268ZM210.255 65.8594C211.181 57.9665 210.455 51.8374 208.124 47.4951C205.76 43.0885 201.811 40.6474 196.647 40.0416L196.414 42.0279C201.011 42.5673 204.344 44.6799 206.362 48.4408C208.415 52.2661 209.173 57.9185 208.269 65.6264L210.255 65.8594ZM196.647 40.0416C191.483 39.4358 187.076 40.8967 183.756 44.6364C180.484 48.3215 178.358 54.1161 177.432 62.0089L179.419 62.242C180.323 54.534 182.369 49.2106 185.251 45.9643C188.085 42.7726 191.816 41.4886 196.414 42.0279L196.647 40.0416Z" fill="black" mask="url(#path-5-outside-3_4842_14329)"/>
<mask id="path-7-outside-4_4842_14329" maskUnits="userSpaceOnUse" x="227.931" y="37.1975" width="82.2586" height="87.027" fill="black">
<rect fill="white" x="227.931" y="37.1975" width="82.2586" height="87.027"/>
<path d="M252.718 39.5453L265.66 44.2742L255.603 71.7972L290.94 53.5114L306.384 59.1547L272.98 75.8973L284.664 122.611L268.789 116.81L260.508 82.1955L249.866 87.4999L242.646 107.258L229.704 102.529L252.718 39.5453Z"/>
</mask>
<path d="M252.718 39.5453L265.66 44.2742L255.603 71.7972L290.94 53.5114L306.384 59.1547L272.98 75.8973L284.664 122.611L268.789 116.81L260.508 82.1955L249.866 87.4999L242.646 107.258L229.704 102.529L252.718 39.5453Z" fill="white"/>
<path d="M252.718 39.5453L253.062 38.606L252.122 38.2628L251.779 39.202L252.718 39.5453ZM265.66 44.2742L266.6 44.6174L266.943 43.6782L266.004 43.335L265.66 44.2742ZM255.603 71.7972L254.664 71.454L253.783 73.8651L256.063 72.6853L255.603 71.7972ZM290.94 53.5114L291.283 52.5722L290.871 52.4214L290.48 52.6233L290.94 53.5114ZM306.384 59.1547L306.832 60.0487L308.903 59.0105L306.727 58.2154L306.384 59.1547ZM272.98 75.8973L272.532 75.0034L271.816 75.3625L272.01 76.14L272.98 75.8973ZM284.664 122.611L284.321 123.55L286.091 124.197L285.634 122.368L284.664 122.611ZM268.789 116.81L267.816 117.043L267.941 117.565L268.445 117.75L268.789 116.81ZM260.508 82.1955L261.48 81.9629L261.188 80.7394L260.062 81.3006L260.508 82.1955ZM249.866 87.4999L249.419 86.6049L249.063 86.7826L248.926 87.1567L249.866 87.4999ZM242.646 107.258L242.303 108.197L243.242 108.54L243.585 107.601L242.646 107.258ZM229.704 102.529L228.765 102.186L228.422 103.125L229.361 103.468L229.704 102.529ZM252.375 40.4845L265.317 45.2135L266.004 43.335L253.062 38.606L252.375 40.4845ZM264.721 43.931L254.664 71.454L256.543 72.1404L266.6 44.6174L264.721 43.931ZM256.063 72.6853L291.4 54.3996L290.48 52.6233L255.144 70.909L256.063 72.6853ZM290.597 54.4507L306.041 60.0939L306.727 58.2154L291.283 52.5722L290.597 54.4507ZM305.936 58.2607L272.532 75.0034L273.428 76.7913L306.832 60.0487L305.936 58.2607ZM272.01 76.14L283.694 122.854L285.634 122.368L273.95 75.6547L272.01 76.14ZM285.007 121.672L269.132 115.871L268.445 117.75L284.321 123.55L285.007 121.672ZM269.761 116.578L261.48 81.9629L259.535 82.4282L267.816 117.043L269.761 116.578ZM260.062 81.3006L249.419 86.6049L250.312 88.3949L260.954 83.0905L260.062 81.3006ZM248.926 87.1567L241.707 106.915L243.585 107.601L250.805 87.8431L248.926 87.1567ZM242.989 106.319L230.047 101.59L229.361 103.468L242.303 108.197L242.989 106.319ZM230.643 102.872L253.658 39.8885L251.779 39.202L228.765 102.186L230.643 102.872Z" fill="black" mask="url(#path-7-outside-4_4842_14329)"/>
</svg>
