<svg width="221" height="131" viewBox="0 0 221 131" fill="none" xmlns="http://www.w3.org/2000/svg">
<mask id="path-1-outside-1_4839_14294" maskUnits="userSpaceOnUse" x="5.45006" y="29.0353" width="65.4755" height="79.093" fill="black">
<rect fill="white" x="5.45006" y="29.0353" width="65.4755" height="79.093"/>
<path d="M39.7142 56.1459C54.1775 54.1132 64.2539 61.7876 66.0565 74.6136C68.0892 89.0769 57.879 100.252 41.7784 102.515C30.9536 104.036 20.6195 101.128 15.2236 91.7759L26.8007 85.047C29.4923 89.6778 34.4368 91.8585 40.5314 91.0019C48.2634 89.9153 53.0038 84.7038 51.9555 77.2447C50.9072 69.7856 45.6928 66.3442 38.0518 67.4181C32.1391 68.249 27.7541 71.3699 25.1697 76.7422L13.9088 75.8202L14.3725 37.5375L56.0342 31.6823L57.6833 43.4167L25.3 47.9679L25.0316 63.2185C28.8211 59.161 33.8925 56.9641 39.7142 56.1459Z"/>
</mask>
<path d="M39.7142 56.1459C54.1775 54.1132 64.2539 61.7876 66.0565 74.6136C68.0892 89.0769 57.879 100.252 41.7784 102.515C30.9536 104.036 20.6195 101.128 15.2236 91.7759L26.8007 85.047C29.4923 89.6778 34.4368 91.8585 40.5314 91.0019C48.2634 89.9153 53.0038 84.7038 51.9555 77.2447C50.9072 69.7856 45.6928 66.3442 38.0518 67.4181C32.1391 68.249 27.7541 71.3699 25.1697 76.7422L13.9088 75.8202L14.3725 37.5375L56.0342 31.6823L57.6833 43.4167L25.3 47.9679L25.0316 63.2185C28.8211 59.161 33.8925 56.9641 39.7142 56.1459Z" fill="white"/>
<path d="M15.2236 91.7759L14.7211 90.9113L13.8593 91.4122L14.3575 92.2756L15.2236 91.7759ZM26.8007 85.047L27.6653 84.5445L27.1628 83.6799L26.2982 84.1824L26.8007 85.047ZM25.1697 76.7422L25.0881 77.7388L25.773 77.7949L26.0709 77.1757L25.1697 76.7422ZM13.9088 75.8202L12.9089 75.8081L12.8976 76.7408L13.8272 76.8169L13.9088 75.8202ZM14.3725 37.5375L14.2333 36.5472L13.383 36.6668L13.3726 37.5254L14.3725 37.5375ZM56.0342 31.6823L57.0244 31.5432L56.8853 30.5529L55.895 30.6921L56.0342 31.6823ZM57.6833 43.4167L57.8225 44.407L58.8128 44.2678L58.6736 43.2776L57.6833 43.4167ZM25.3 47.9679L25.1608 46.9777L24.3152 47.0965L24.3002 47.9503L25.3 47.9679ZM25.0316 63.2185L24.0317 63.2009L23.9859 65.8031L25.7624 63.901L25.0316 63.2185ZM39.8534 57.1361C46.8802 56.1486 52.7442 57.5293 57.05 60.6201C61.3522 63.7083 64.1979 68.574 65.0662 74.7528L67.0468 74.4744C66.1126 67.8272 63.0188 62.4427 58.2163 58.9954C53.4174 55.5506 47.0115 54.1105 39.575 55.1556L39.8534 57.1361ZM65.0662 74.7528C66.0427 81.7008 64.0817 87.8163 59.9677 92.4776C55.8422 97.1518 49.4984 100.42 41.6392 101.524L41.9175 103.505C50.159 102.347 56.9706 98.8957 61.4672 93.801C65.9753 88.6933 68.103 81.9897 67.0468 74.4744L65.0662 74.7528ZM41.6392 101.524C31.0481 103.013 21.2079 100.147 16.0898 91.2761L14.3575 92.2756C20.0312 102.11 30.8591 105.059 41.9175 103.505L41.6392 101.524ZM15.7261 92.6404L27.3032 85.9115L26.2982 84.1824L14.7211 90.9113L15.7261 92.6404ZM25.9361 85.5495C28.8645 90.5877 34.2414 92.8958 40.6706 91.9922L40.3922 90.0117C34.6322 90.8212 30.1201 88.7679 27.6653 84.5445L25.9361 85.5495ZM40.6706 91.9922C44.7215 91.4229 48.0842 89.7585 50.2972 87.1616C52.5223 84.5505 53.5055 81.088 52.9458 77.1055L50.9653 77.3838C51.4539 80.8604 50.591 83.7333 48.7749 85.8644C46.9468 88.0097 44.0733 89.4943 40.3922 90.0117L40.6706 91.9922ZM52.9458 77.1055C52.392 73.165 50.7138 70.1614 48.0461 68.31C45.3913 66.4676 41.902 65.8671 37.9126 66.4278L38.1909 68.4083C41.8425 67.8951 44.781 68.4785 46.9058 69.9531C49.0176 71.4186 50.4708 73.8653 50.9653 77.3838L52.9458 77.1055ZM37.9126 66.4278C31.6786 67.3039 27.0021 70.6262 24.2686 76.3087L26.0709 77.1757C28.5061 72.1135 32.5995 69.1942 38.1909 68.4083L37.9126 66.4278ZM25.2513 75.7455L13.9904 74.8236L13.8272 76.8169L25.0881 77.7388L25.2513 75.7455ZM14.9088 75.8323L15.3724 37.5496L13.3726 37.5254L12.9089 75.8081L14.9088 75.8323ZM14.5117 38.5278L56.1733 32.6726L55.895 30.6921L14.2333 36.5472L14.5117 38.5278ZM55.0439 31.8215L56.6931 43.5559L58.6736 43.2776L57.0244 31.5432L55.0439 31.8215ZM57.5442 42.4265L25.1608 46.9777L25.4392 48.9582L57.8225 44.407L57.5442 42.4265ZM24.3002 47.9503L24.0317 63.2009L26.0314 63.2361L26.2999 47.9855L24.3002 47.9503ZM25.7624 63.901C29.3586 60.0505 34.1978 57.931 39.8534 57.1361L39.575 55.1556C33.5872 55.9971 28.2836 58.2714 24.3007 62.5359L25.7624 63.901Z" fill="black" mask="url(#path-1-outside-1_4839_14294)"/>
<mask id="path-3-outside-2_4839_14294" maskUnits="userSpaceOnUse" x="76.9805" y="24" width="63" height="73" fill="black">
<rect fill="white" x="76.9805" y="24" width="63" height="73"/>
<path d="M108.233 95.1023C89.8615 95.1023 78.2874 81.5991 78.2874 60.4717C78.2874 39.2524 89.8615 25.8411 108.233 25.8411C126.605 25.8411 138.179 39.2524 138.179 60.4717C138.179 81.5991 126.605 95.1023 108.233 95.1023ZM92.7091 60.4717C92.7091 76.0876 98.4043 83.5281 108.233 83.5281C118.062 83.5281 123.757 76.0876 123.757 60.4717C123.757 44.7639 118.062 37.4153 108.233 37.4153C98.4043 37.4153 92.7091 44.7639 92.7091 60.4717Z"/>
</mask>
<path d="M108.233 95.1023C89.8615 95.1023 78.2874 81.5991 78.2874 60.4717C78.2874 39.2524 89.8615 25.8411 108.233 25.8411C126.605 25.8411 138.179 39.2524 138.179 60.4717C138.179 81.5991 126.605 95.1023 108.233 95.1023ZM92.7091 60.4717C92.7091 76.0876 98.4043 83.5281 108.233 83.5281C118.062 83.5281 123.757 76.0876 123.757 60.4717C123.757 44.7639 118.062 37.4153 108.233 37.4153C98.4043 37.4153 92.7091 44.7639 92.7091 60.4717Z" fill="white"/>
<path d="M108.233 94.1023C99.3095 94.1023 92.1102 90.8323 87.1281 85.0566C82.1321 79.2648 79.2874 70.8598 79.2874 60.4717L77.2874 60.4717C77.2874 71.211 80.2297 80.1213 85.6137 86.3629C91.0116 92.6207 98.7852 96.1023 108.233 96.1023L108.233 94.1023ZM79.2874 60.4717C79.2874 50.0368 82.1326 41.6326 87.1275 35.8531C92.1085 30.0897 99.3074 26.8411 108.233 26.8411L108.233 24.8411C98.7873 24.8411 91.0133 28.2982 85.6143 34.5453C80.2292 40.7762 77.2874 49.6874 77.2874 60.4717L79.2874 60.4717ZM108.233 26.8411C117.159 26.8411 124.358 30.0897 129.339 35.8531C134.334 41.6326 137.179 50.0368 137.179 60.4717L139.179 60.4717C139.179 49.6874 136.237 40.7762 130.852 34.5453C125.453 28.2982 117.679 24.8411 108.233 24.8411L108.233 26.8411ZM137.179 60.4717C137.179 70.8598 134.334 79.2648 129.338 85.0566C124.356 90.8323 117.157 94.1023 108.233 94.1023L108.233 96.1023C117.681 96.1023 125.455 92.6207 130.853 86.3629C136.237 80.1213 139.179 71.211 139.179 60.4717L137.179 60.4717ZM91.7091 60.4717C91.7091 68.3741 93.1454 74.3754 95.9645 78.427C98.8246 82.5376 103.03 84.5281 108.233 84.5281L108.233 82.5281C103.608 82.5281 100.051 80.7984 97.6062 77.2848C95.1204 73.7121 93.7091 68.1853 93.7091 60.4717L91.7091 60.4717ZM108.233 84.5281C113.437 84.5281 117.642 82.5376 120.502 78.427C123.321 74.3754 124.757 68.3741 124.757 60.4717L122.757 60.4717C122.757 68.1853 121.346 73.7121 118.86 77.2848C116.415 80.7984 112.858 82.5281 108.233 82.5281L108.233 84.5281ZM124.757 60.4717C124.757 52.5247 123.321 46.522 120.501 42.4808C117.639 38.3797 113.433 36.4153 108.233 36.4153L108.233 38.4153C112.862 38.4153 116.418 40.1252 118.861 43.6254C121.345 47.1854 122.757 52.7109 122.757 60.4717L124.757 60.4717ZM108.233 36.4153C103.034 36.4153 98.8274 38.3797 95.9653 42.4808C93.145 46.522 91.7091 52.5247 91.7091 60.4717L93.7091 60.4717C93.7091 52.7109 95.1209 47.1854 97.6054 43.6254C100.048 40.1252 103.604 38.4153 108.233 38.4153L108.233 36.4153Z" fill="black" mask="url(#path-3-outside-2_4839_14294)"/>
<mask id="path-5-outside-3_4839_14294" maskUnits="userSpaceOnUse" x="147.902" y="25.4253" width="70.1443" height="77.0988" fill="black">
<rect fill="white" x="147.902" y="25.4253" width="70.1443" height="77.0988"/>
<path d="M157.789 27.5413L171.463 29.2372L167.856 58.3172L198.173 32.5499L214.49 34.5737L185.71 58.4026L207.604 101.29L190.831 99.2097L174.975 67.3455L165.799 74.9083L163.209 95.7839L149.535 94.088L157.789 27.5413Z"/>
</mask>
<path d="M157.789 27.5413L171.463 29.2372L167.856 58.3172L198.173 32.5499L214.49 34.5737L185.71 58.4026L207.604 101.29L190.831 99.2097L174.975 67.3455L165.799 74.9083L163.209 95.7839L149.535 94.088L157.789 27.5413Z" fill="white"/>
<path d="M157.789 27.5413L157.912 26.5489L156.92 26.4258L156.797 27.4182L157.789 27.5413ZM171.463 29.2372L172.455 29.3603L172.578 28.3679L171.586 28.2448L171.463 29.2372ZM167.856 58.3172L166.864 58.1941L166.548 60.7416L168.504 59.0792L167.856 58.3172ZM198.173 32.5499L198.296 31.5575L197.86 31.5034L197.525 31.7879L198.173 32.5499ZM214.49 34.5737L215.128 35.3439L216.913 33.8664L214.613 33.5813L214.49 34.5737ZM185.71 58.4026L185.072 57.6324L184.455 58.1435L184.819 58.8573L185.71 58.4026ZM207.604 101.29L207.481 102.282L209.352 102.514L208.495 100.835L207.604 101.29ZM190.831 99.2097L189.936 99.6552L190.175 100.136L190.708 100.202L190.831 99.2097ZM174.975 67.3455L175.87 66.9L175.309 65.7737L174.339 66.5738L174.975 67.3455ZM165.799 74.9083L165.163 74.1366L164.855 74.3899L164.806 74.7852L165.799 74.9083ZM163.209 95.7839L163.086 96.7763L164.079 96.8994L164.202 95.907L163.209 95.7839ZM149.535 94.088L148.543 93.9649L148.42 94.9573L149.412 95.0804L149.535 94.088ZM157.666 28.5337L171.34 30.2296L171.586 28.2448L157.912 26.5489L157.666 28.5337ZM170.471 29.1141L166.864 58.1941L168.849 58.4403L172.455 29.3603L170.471 29.1141ZM168.504 59.0792L198.82 33.3119L197.525 31.7879L167.209 57.5552L168.504 59.0792ZM198.05 33.5423L214.367 35.5661L214.613 33.5813L198.296 31.5575L198.05 33.5423ZM213.853 33.8034L185.072 57.6324L186.348 59.1729L215.128 35.3439L213.853 33.8034ZM184.819 58.8573L206.714 101.745L208.495 100.835L186.601 57.9479L184.819 58.8573ZM207.727 100.298L190.954 98.2173L190.708 100.202L207.481 102.282L207.727 100.298ZM191.726 98.7642L175.87 66.9L174.079 67.791L189.936 99.6552L191.726 98.7642ZM174.339 66.5738L165.163 74.1366L166.435 75.68L175.611 68.1172L174.339 66.5738ZM164.806 74.7852L162.217 95.6608L164.202 95.907L166.791 75.0314L164.806 74.7852ZM163.333 94.7915L149.659 93.0956L149.412 95.0804L163.086 96.7763L163.333 94.7915ZM150.528 94.2111L158.781 27.6644L156.797 27.4182L148.543 93.9649L150.528 94.2111Z" fill="black" mask="url(#path-5-outside-3_4839_14294)"/>
</svg>
