<svg width="221" height="132" viewBox="0 0 221 132" fill="none" xmlns="http://www.w3.org/2000/svg">
<mask id="path-1-outside-1_4839_14294" maskUnits="userSpaceOnUse" x="6.30116" y="28.7666" width="66.3266" height="78.2419" fill="black">
<rect fill="white" x="6.30116" y="28.7666" width="66.3266" height="78.2419"/>
<path d="M11.3289 63.0831C11.7183 46.0531 20.2227 36.6022 35.7776 34.4161C49.6952 32.4601 61.3337 38.7091 63.3153 52.8086C64.7727 63.1785 59.627 69.4673 52.8598 74.7782L42.5007 82.9129C38.7396 85.8532 35.5898 88.5222 33.6083 91.5835L69.1753 86.5849L70.8245 98.3193L18.9748 105.606L18.3995 101.513C17.1722 92.7803 20.6564 85.8901 31.9267 76.9781L41.3619 69.5298C46.3723 65.579 50.0581 61.4433 49.1887 55.2577C48.2299 48.4354 43.3011 45.0466 36.5698 45.9926C28.9288 47.0665 24.8521 51.7209 24.3594 62.736L11.3289 63.0831Z"/>
</mask>
<path d="M11.3289 63.0831C11.7183 46.0531 20.2227 36.6022 35.7776 34.4161C49.6952 32.4601 61.3337 38.7091 63.3153 52.8086C64.7727 63.1785 59.627 69.4673 52.8598 74.7782L42.5007 82.9129C38.7396 85.8532 35.5898 88.5222 33.6083 91.5835L69.1753 86.5849L70.8245 98.3193L18.9748 105.606L18.3995 101.513C17.1722 92.7803 20.6564 85.8901 31.9267 76.9781L41.3619 69.5298C46.3723 65.579 50.0581 61.4433 49.1887 55.2577C48.2299 48.4354 43.3011 45.0466 36.5698 45.9926C28.9288 47.0665 24.8521 51.7209 24.3594 62.736L11.3289 63.0831Z" fill="white"/>
<path d="M11.3289 63.0831L10.3291 63.0603L10.3051 64.1108L11.3555 64.0828L11.3289 63.0831ZM52.8598 74.7782L52.2424 73.9915L52.2422 73.9917L52.8598 74.7782ZM42.5007 82.9129L43.1166 83.7007L43.1183 83.6994L42.5007 82.9129ZM33.6083 91.5835L32.7688 91.0401L31.5788 92.8786L33.7474 92.5738L33.6083 91.5835ZM69.1753 86.5849L70.1656 86.4457L70.0264 85.4554L69.0362 85.5946L69.1753 86.5849ZM70.8245 98.3193L70.9637 99.3095L71.9539 99.1704L71.8148 98.1801L70.8245 98.3193ZM18.9748 105.606L17.9845 105.745L18.1237 106.736L19.114 106.597L18.9748 105.606ZM31.9267 76.9781L31.307 76.1932L31.3064 76.1937L31.9267 76.9781ZM41.3619 69.5298L40.7427 68.7446L40.7423 68.7449L41.3619 69.5298ZM24.3594 62.736L24.386 63.7356L25.3168 63.7108L25.3584 62.7807L24.3594 62.736ZM12.3286 63.106C12.5197 54.7495 14.6976 48.3774 18.6227 43.8371C22.5443 39.3008 28.3122 36.4751 35.9168 35.4063L35.6385 33.4258C27.6882 34.5431 21.4263 37.5359 17.1097 42.5291C12.7965 47.5184 10.5275 54.3868 10.3291 63.0603L12.3286 63.106ZM35.9168 35.4063C42.7013 34.4529 48.8384 35.5122 53.49 38.438C58.1186 41.3494 61.372 46.1666 62.325 52.9477L64.3055 52.6694C63.277 45.3511 59.7203 39.9941 54.5549 36.7451C49.4124 33.5105 42.7716 32.4233 35.6385 33.4258L35.9168 35.4063ZM62.325 52.9477C63.0244 57.9245 62.1388 61.87 60.2963 65.2072C58.4401 68.5695 55.5813 71.3712 52.2424 73.9915L53.4771 75.5649C56.9055 72.8744 60.0032 69.8762 62.0472 66.1739C64.105 62.4465 65.0635 58.0626 64.3055 52.6694L62.325 52.9477ZM52.2422 73.9917L41.883 82.1264L43.1183 83.6994L53.4774 75.5647L52.2422 73.9917ZM41.8847 82.1251C38.1331 85.0581 34.8533 87.8197 32.7688 91.0401L34.4478 92.1269C36.3263 89.2247 39.3462 86.6484 43.1166 83.7007L41.8847 82.1251ZM33.7474 92.5738L69.3145 87.5751L69.0362 85.5946L33.4691 90.5932L33.7474 92.5738ZM68.1851 86.724L69.8342 98.4585L71.8148 98.1801L70.1656 86.4457L68.1851 86.724ZM70.6853 97.329L18.8356 104.616L19.114 106.597L70.9637 99.3095L70.6853 97.329ZM19.9651 105.467L19.3898 101.374L17.4093 101.652L17.9845 105.745L19.9651 105.467ZM19.3898 101.374C18.8028 97.1967 19.3415 93.51 21.3559 89.7888C23.3893 86.0325 26.9584 82.1817 32.5469 77.7625L31.3064 76.1937C25.6247 80.6865 21.8165 84.7368 19.5971 88.8367C17.3587 92.9717 16.769 97.0965 17.4093 101.652L19.3898 101.374ZM32.5463 77.763L41.9815 70.3147L40.7423 68.7449L31.307 76.1932L32.5463 77.763ZM41.9811 70.315C47.0251 66.3378 51.1297 61.8832 50.179 55.1186L48.1985 55.3969C48.9864 61.0034 45.7195 64.8202 40.7427 68.7446L41.9811 70.315ZM50.179 55.1186C49.6691 51.4902 48.0831 48.6707 45.6289 46.9009C43.1811 45.1358 39.9908 44.502 36.4306 45.0024L36.7089 46.9829C39.8801 46.5372 42.5199 47.1248 44.4591 48.5232C46.3918 49.9169 47.7496 52.2029 48.1985 55.3969L50.179 55.1186ZM36.4306 45.0024C32.4272 45.565 29.2259 47.091 26.9882 50.0307C24.7766 52.9363 23.611 57.0888 23.3604 62.6913L25.3584 62.7807C25.6005 57.3681 26.7195 53.6859 28.5797 51.242C30.4138 48.8324 33.0714 47.4941 36.7089 46.9829L36.4306 45.0024ZM24.3328 61.7364L11.3022 62.0835L11.3555 64.0828L24.386 63.7356L24.3328 61.7364Z" fill="black" mask="url(#path-1-outside-1_4839_14294)"/>
<mask id="path-3-outside-2_4839_14294" maskUnits="userSpaceOnUse" x="80.8133" y="25.0614" width="58.4786" height="73.9105" fill="black">
<rect fill="white" x="80.8133" y="25.0614" width="58.4786" height="73.9105"/>
<path d="M112.871 49.8085C127.467 49.2987 136.686 57.9844 137.138 70.9285C137.648 85.5251 126.326 95.5715 110.077 96.1389C99.1521 96.5204 89.1785 92.5487 84.7898 82.6833L97.0068 77.2014C99.1996 82.0882 103.889 84.7738 110.04 84.559C117.843 84.2865 123.102 79.599 122.839 72.0713C122.577 64.5435 117.75 60.5758 110.039 60.8451C104.072 61.0535 99.3846 63.6989 96.2529 68.7716L85.15 66.6776L89.6128 28.6531L131.658 27.1849L132.072 39.0274L99.3902 40.1686L97.5291 55.3076C101.722 51.6684 106.995 50.0136 112.871 49.8085Z"/>
</mask>
<path d="M112.871 49.8085C127.467 49.2987 136.686 57.9844 137.138 70.9285C137.648 85.5251 126.326 95.5715 110.077 96.1389C99.1521 96.5204 89.1785 92.5487 84.7898 82.6833L97.0068 77.2014C99.1996 82.0882 103.889 84.7738 110.04 84.559C117.843 84.2865 123.102 79.599 122.839 72.0713C122.577 64.5435 117.75 60.5758 110.039 60.8451C104.072 61.0535 99.3846 63.6989 96.2529 68.7716L85.15 66.6776L89.6128 28.6531L131.658 27.1849L132.072 39.0274L99.3902 40.1686L97.5291 55.3076C101.722 51.6684 106.995 50.0136 112.871 49.8085Z" fill="white"/>
<path d="M84.7898 82.6833L84.3804 81.771L83.471 82.179L83.8761 83.0898L84.7898 82.6833ZM97.0068 77.2014L97.9192 76.792L97.5098 75.8797L96.5974 76.289L97.0068 77.2014ZM96.2529 68.7716L96.0675 69.7543L96.7428 69.8816L97.1038 69.2969L96.2529 68.7716ZM85.15 66.6776L84.1568 66.5611L84.0481 67.4875L84.9647 67.6603L85.15 66.6776ZM89.6128 28.6531L89.5779 27.6537L88.7197 27.6837L88.6196 28.5365L89.6128 28.6531ZM131.658 27.1849L132.658 27.15L132.623 26.1506L131.623 26.1855L131.658 27.1849ZM132.072 39.0274L132.107 40.0267L133.106 39.9918L133.071 38.9925L132.072 39.0274ZM99.3902 40.1686L99.3553 39.1692L98.5018 39.199L98.3976 40.0466L99.3902 40.1686ZM97.5291 55.3076L96.5365 55.1855L96.219 57.7688L98.1845 56.0628L97.5291 55.3076ZM112.905 50.8078C119.997 50.5602 125.685 52.5463 129.644 56.0703C133.599 59.5912 135.921 64.7277 136.139 70.9634L138.138 70.8936C137.903 64.1852 135.389 58.5068 130.973 54.5763C126.561 50.6488 120.341 48.547 112.836 48.8091L112.905 50.8078ZM136.139 70.9634C136.384 77.9755 133.794 83.8525 129.215 88.0582C124.624 92.2756 117.973 94.8626 110.042 95.1395L110.111 97.1383C118.429 96.8479 125.564 94.1279 130.568 89.5311C135.586 84.9226 138.402 78.4782 138.138 70.8936L136.139 70.9634ZM110.042 95.1395C99.353 95.5128 89.8663 91.6343 85.7035 82.2769L83.8761 83.0898C88.4908 93.4631 98.9512 97.528 110.111 97.1383L110.042 95.1395ZM85.1992 83.5957L97.4162 78.1138L96.5974 76.289L84.3804 81.771L85.1992 83.5957ZM96.0944 77.6108C98.4801 82.9275 103.586 85.785 110.075 85.5584L110.005 83.5596C104.192 83.7626 99.919 81.2489 97.9192 76.792L96.0944 77.6108ZM110.075 85.5584C114.163 85.4156 117.681 84.1118 120.154 81.7605C122.639 79.3963 123.979 76.0555 123.839 72.0364L121.84 72.1062C121.963 75.6148 120.804 78.3817 118.775 80.3113C116.733 82.2537 113.72 83.4299 110.005 83.5596L110.075 85.5584ZM123.839 72.0364C123.7 68.0596 122.345 64.897 119.885 62.7768C117.438 60.667 114.03 59.7052 110.004 59.8457L110.074 61.8445C113.759 61.7158 116.62 62.6031 118.579 64.2917C120.527 65.97 121.716 68.5552 121.84 72.1062L123.839 72.0364ZM110.004 59.8457C103.713 60.0654 98.7145 62.8807 95.402 68.2463L97.1038 69.2969C100.055 64.517 104.431 62.0416 110.074 61.8445L110.004 59.8457ZM96.4382 67.7889L85.3353 65.695L84.9647 67.6603L96.0675 69.7543L96.4382 67.7889ZM86.1432 66.7942L90.606 28.7697L88.6196 28.5365L84.1568 66.5611L86.1432 66.7942ZM89.6477 29.6525L131.693 28.1842L131.623 26.1855L89.5779 27.6537L89.6477 29.6525ZM130.659 27.2197L131.072 39.0623L133.071 38.9925L132.658 27.15L130.659 27.2197ZM132.037 38.028L99.3553 39.1692L99.4251 41.168L132.107 40.0267L132.037 38.028ZM98.3976 40.0466L96.5365 55.1855L98.5216 55.4296L100.383 40.2906L98.3976 40.0466ZM98.1845 56.0628C102.164 52.6093 107.198 51.0072 112.905 50.8078L112.836 48.8091C106.793 49.0201 101.28 50.7275 96.8736 54.5523L98.1845 56.0628Z" fill="black" mask="url(#path-3-outside-2_4839_14294)"/>
<mask id="path-5-outside-3_4839_14294" maskUnits="userSpaceOnUse" x="147.902" y="26.4253" width="70.1443" height="77.0988" fill="black">
<rect fill="white" x="147.902" y="26.4253" width="70.1443" height="77.0988"/>
<path d="M157.789 28.5413L171.463 30.2372L167.856 59.3172L198.173 33.5499L214.49 35.5737L185.71 59.4026L207.604 102.29L190.831 100.21L174.975 68.3455L165.799 75.9083L163.209 96.7839L149.535 95.088L157.789 28.5413Z"/>
</mask>
<path d="M157.789 28.5413L171.463 30.2372L167.856 59.3172L198.173 33.5499L214.49 35.5737L185.71 59.4026L207.604 102.29L190.831 100.21L174.975 68.3455L165.799 75.9083L163.209 96.7839L149.535 95.088L157.789 28.5413Z" fill="white"/>
<path d="M157.789 28.5413L157.912 27.5489L156.92 27.4258L156.797 28.4182L157.789 28.5413ZM171.463 30.2372L172.455 30.3603L172.578 29.3679L171.586 29.2448L171.463 30.2372ZM167.856 59.3172L166.864 59.1941L166.548 61.7416L168.504 60.0792L167.856 59.3172ZM198.173 33.5499L198.296 32.5575L197.86 32.5034L197.525 32.7879L198.173 33.5499ZM214.49 35.5737L215.128 36.3439L216.913 34.8664L214.613 34.5813L214.49 35.5737ZM185.71 59.4026L185.072 58.6324L184.455 59.1435L184.819 59.8573L185.71 59.4026ZM207.604 102.29L207.481 103.282L209.352 103.514L208.495 101.835L207.604 102.29ZM190.831 100.21L189.936 100.655L190.175 101.136L190.708 101.202L190.831 100.21ZM174.975 68.3455L175.87 67.9L175.309 66.7737L174.339 67.5738L174.975 68.3455ZM165.799 75.9083L165.163 75.1366L164.855 75.3899L164.806 75.7852L165.799 75.9083ZM163.209 96.7839L163.086 97.7763L164.079 97.8994L164.202 96.907L163.209 96.7839ZM149.535 95.088L148.543 94.9649L148.42 95.9573L149.412 96.0804L149.535 95.088ZM157.666 29.5337L171.34 31.2296L171.586 29.2448L157.912 27.5489L157.666 29.5337ZM170.471 30.1141L166.864 59.1941L168.849 59.4403L172.455 30.3603L170.471 30.1141ZM168.504 60.0792L198.82 34.3119L197.525 32.7879L167.209 58.5552L168.504 60.0792ZM198.05 34.5423L214.367 36.5661L214.613 34.5813L198.296 32.5575L198.05 34.5423ZM213.853 34.8034L185.072 58.6324L186.348 60.1729L215.128 36.3439L213.853 34.8034ZM184.819 59.8573L206.714 102.745L208.495 101.835L186.601 58.9479L184.819 59.8573ZM207.727 101.298L190.954 99.2173L190.708 101.202L207.481 103.282L207.727 101.298ZM191.726 99.7642L175.87 67.9L174.079 68.791L189.936 100.655L191.726 99.7642ZM174.339 67.5738L165.163 75.1366L166.435 76.68L175.611 69.1172L174.339 67.5738ZM164.806 75.7852L162.217 96.6608L164.202 96.907L166.791 76.0314L164.806 75.7852ZM163.333 95.7915L149.659 94.0956L149.412 96.0804L163.086 97.7763L163.333 95.7915ZM150.528 95.2111L158.781 28.6644L156.797 28.4182L148.543 94.9649L150.528 95.2111Z" fill="black" mask="url(#path-5-outside-3_4839_14294)"/>
</svg>
