<svg width="291" height="148" viewBox="0 0 291 148" fill="none" xmlns="http://www.w3.org/2000/svg">
<mask id="path-1-outside-1_4839_14291" maskUnits="userSpaceOnUse" x="8.58017" y="43.6149" width="50.3238" height="75.358" fill="black">
<rect fill="white" x="8.58017" y="43.6149" width="50.3238" height="75.358"/>
<path d="M24.0871 49.6275L34.4406 45.8443L57.4549 108.828L44.4268 113.588L29.0734 71.5706L18.2885 75.5114L15.1359 66.8835C24.8771 63.0306 26.1198 59.7404 24.0871 49.6275Z"/>
</mask>
<path d="M24.0871 49.6275L34.4406 45.8443L57.4549 108.828L44.4268 113.588L29.0734 71.5706L18.2885 75.5114L15.1359 66.8835C24.8771 63.0306 26.1198 59.7404 24.0871 49.6275Z" fill="white"/>
<path d="M24.0871 49.6275L23.7439 48.6882L22.9376 48.9829L23.1067 49.8246L24.0871 49.6275ZM34.4406 45.8443L35.3798 45.5011L35.0366 44.5619L34.0974 44.9051L34.4406 45.8443ZM57.4549 108.828L57.7981 109.767L58.7373 109.424L58.3941 108.485L57.4549 108.828ZM44.4268 113.588L43.4875 113.932L43.8307 114.871L44.77 114.528L44.4268 113.588ZM29.0734 71.5706L30.0127 71.2274L29.6695 70.2881L28.7302 70.6313L29.0734 71.5706ZM18.2885 75.5114L17.3493 75.8546L17.6925 76.7938L18.6317 76.4506L18.2885 75.5114ZM15.1359 66.8835L14.7681 65.9536L13.8623 66.3118L14.1966 67.2267L15.1359 66.8835ZM24.4303 50.5668L34.7838 46.7836L34.0974 44.9051L23.7439 48.6882L24.4303 50.5668ZM33.5013 46.1875L56.5156 109.171L58.3941 108.485L35.3798 45.5011L33.5013 46.1875ZM57.1117 107.889L44.0835 112.649L44.77 114.528L57.7981 109.767L57.1117 107.889ZM45.366 113.245L30.0127 71.2274L28.1341 71.9138L43.4875 113.932L45.366 113.245ZM28.7302 70.6313L17.9453 74.5721L18.6317 76.4506L29.4166 72.5098L28.7302 70.6313ZM19.2278 75.1682L16.0752 66.5403L14.1966 67.2267L17.3493 75.8546L19.2278 75.1682ZM15.5037 67.8134C20.3899 65.8808 23.467 63.9811 24.9225 61.0475C26.365 58.1401 26.0806 54.4706 25.0675 49.4304L23.1067 49.8246C24.1264 54.8973 24.2369 57.9294 23.1309 60.1586C22.0379 62.3615 19.6231 64.0333 14.7681 65.9536L15.5037 67.8134Z" fill="black" mask="url(#path-1-outside-1_4839_14291)"/>
<mask id="path-3-outside-2_4839_14291" maskUnits="userSpaceOnUse" x="56.8764" y="27.173" width="71.0762" height="79.843" fill="black">
<rect fill="white" x="56.8764" y="27.173" width="71.0762" height="79.843"/>
<path d="M96.2005 101.49C77.9539 103.63 64.8853 91.5678 62.4238 70.5842C59.9515 49.5095 69.8842 34.841 88.1308 32.7005C106.377 30.56 119.435 42.5314 121.907 63.6062C124.369 84.5897 114.447 99.3495 96.2005 101.49ZM76.7473 68.9039C78.5667 84.4135 85.09 91.1398 94.8519 89.9946C104.614 88.8495 109.403 80.7961 107.584 65.2865C105.754 49.6857 99.2412 43.0506 89.4793 44.1958C79.7174 45.341 74.9172 53.3032 76.7473 68.9039Z"/>
</mask>
<path d="M96.2005 101.49C77.9539 103.63 64.8853 91.5678 62.4238 70.5842C59.9515 49.5095 69.8842 34.841 88.1308 32.7005C106.377 30.56 119.435 42.5314 121.907 63.6062C124.369 84.5897 114.447 99.3495 96.2005 101.49ZM76.7473 68.9039C78.5667 84.4135 85.09 91.1398 94.8519 89.9946C104.614 88.8495 109.403 80.7961 107.584 65.2865C105.754 49.6857 99.2412 43.0506 89.4793 44.1958C79.7174 45.341 74.9172 53.3032 76.7473 68.9039Z" fill="white"/>
<path d="M96.084 100.497C87.221 101.536 79.6898 99.1275 74.0687 93.9717C68.4319 88.8014 64.6273 80.7851 63.4169 70.4677L61.4306 70.7008C62.6818 81.3669 66.6422 89.8737 72.7168 95.4456C78.8071 101.032 86.9333 103.584 96.317 102.483L96.084 100.497ZM63.4169 70.4677C62.2012 60.1039 64.0478 51.4254 68.3353 45.1033C72.6109 38.7988 79.3823 34.7336 88.2473 33.6937L88.0143 31.7073C78.6327 32.8078 71.3145 37.1472 66.6801 43.9807C62.0577 50.7967 60.1741 59.9899 61.4306 70.7008L63.4169 70.4677ZM88.2473 33.6937C97.1123 32.6537 104.641 35.0414 110.259 40.1852C115.894 45.3434 119.699 53.3588 120.914 63.7227L122.901 63.4897C121.644 52.7788 117.684 44.2711 111.61 38.71C105.52 33.1345 97.3958 30.6067 88.0143 31.7073L88.2473 33.6937ZM120.914 63.7227C122.125 74.0401 120.279 82.7193 115.991 89.0537C111.716 95.3705 104.947 99.4571 96.084 100.497L96.317 102.483C105.701 101.382 113.016 97.0188 117.648 90.1747C122.268 83.3483 124.152 74.1559 122.901 63.4897L120.914 63.7227ZM75.7541 69.0205C76.6748 76.869 78.8006 82.6621 82.0725 86.3577C85.392 90.1071 89.8002 91.5941 94.9685 90.9878L94.7354 89.0014C90.1418 89.5403 86.4074 88.2368 83.5699 85.0319C80.6848 81.7732 78.6392 76.4484 77.7405 68.7874L75.7541 69.0205ZM94.9685 90.9878C100.137 90.3815 104.081 87.9147 106.443 83.4988C108.771 79.1464 109.498 73.0185 108.577 65.17L106.591 65.403C107.489 73.064 106.732 78.7177 104.679 82.5556C102.66 86.3302 99.3291 88.4626 94.7354 89.0014L94.9685 90.9878ZM108.577 65.17C107.651 57.2771 105.526 51.4826 102.254 47.7975C98.9334 44.0578 94.5269 42.5968 89.3628 43.2026L89.5958 45.189C94.1936 44.6496 97.9244 45.9336 100.758 49.1254C103.641 52.3717 105.687 57.6951 106.591 65.403L108.577 65.17ZM89.3628 43.2026C84.1987 43.8084 80.2499 46.2495 77.8851 50.6562C75.5549 54.9985 74.8282 61.1276 75.7541 69.0205L77.7405 68.7874C76.8363 61.0795 77.5946 55.4271 79.6474 51.6019C81.6657 47.8409 84.998 45.7284 89.5958 45.189L89.3628 43.2026Z" fill="black" mask="url(#path-3-outside-2_4839_14291)"/>
<mask id="path-5-outside-3_4839_14291" maskUnits="userSpaceOnUse" x="128.966" y="24.0696" width="71.0762" height="79.843" fill="black">
<rect fill="white" x="128.966" y="24.0696" width="71.0762" height="79.843"/>
<path d="M160.227 98.3289C141.98 96.1884 132.058 81.4287 134.52 60.4452C136.992 39.3704 150.05 27.3989 168.297 29.5394C186.543 31.6799 196.476 46.3484 194.004 67.4232C191.542 88.4067 178.474 100.469 160.227 98.3289ZM148.844 62.1254C147.024 77.635 151.814 85.6884 161.576 86.8336C171.337 87.9788 177.861 81.2525 179.68 65.7429C181.51 50.1421 176.71 42.1799 166.948 41.0348C157.186 39.8896 150.674 46.5247 148.844 62.1254Z"/>
</mask>
<path d="M160.227 98.3289C141.98 96.1884 132.058 81.4287 134.52 60.4452C136.992 39.3704 150.05 27.3989 168.297 29.5394C186.543 31.6799 196.476 46.3484 194.004 67.4232C191.542 88.4067 178.474 100.469 160.227 98.3289ZM148.844 62.1254C147.024 77.635 151.814 85.6884 161.576 86.8336C171.337 87.9788 177.861 81.2525 179.68 65.7429C181.51 50.1421 176.71 42.1799 166.948 41.0348C157.186 39.8896 150.674 46.5247 148.844 62.1254Z" fill="white"/>
<path d="M160.344 97.3357C151.481 96.296 144.711 92.2095 140.436 85.8927C136.149 79.5582 134.303 70.879 135.513 60.5617L133.527 60.3286C132.276 70.9948 134.16 80.1873 138.78 87.0137C143.412 93.8577 150.727 98.2213 160.111 99.3221L160.344 97.3357ZM135.513 60.5617C136.729 50.1978 140.534 42.1824 146.168 37.0242C151.787 31.8804 159.315 29.4927 168.18 30.5326L168.413 28.5462C159.032 27.4457 150.908 29.9735 144.818 35.549C138.743 41.1101 134.783 49.6178 133.527 60.3286L135.513 60.5617ZM168.18 30.5326C177.045 31.5726 183.817 35.6378 188.092 41.9422C192.38 48.2644 194.226 56.9428 193.011 67.3067L194.997 67.5397C196.253 56.8288 194.37 47.6356 189.747 40.8197C185.113 33.9861 177.795 29.6468 168.413 28.5462L168.18 30.5326ZM193.011 67.3067C191.8 77.624 187.996 85.6403 182.359 90.8106C176.738 95.9665 169.206 98.3754 160.344 97.3357L160.111 99.3221C169.494 100.423 177.62 97.8707 183.711 92.2845C189.785 86.7127 193.746 78.2059 194.997 67.5397L193.011 67.3067ZM147.85 62.0089C146.93 69.8575 147.657 75.9853 149.985 80.3378C152.346 84.7536 156.291 87.2205 161.459 87.8268L161.692 85.8404C157.098 85.3015 153.767 83.1691 151.748 79.3946C149.696 75.5566 148.938 69.903 149.837 62.242L147.85 62.0089ZM161.459 87.8268C166.627 88.4331 171.035 86.946 174.355 83.1966C177.627 79.5011 179.753 73.708 180.673 65.8594L178.687 65.6264C177.788 73.2874 175.743 78.6122 172.858 81.8709C170.02 85.0758 166.286 86.3793 161.692 85.8404L161.459 87.8268ZM180.673 65.8594C181.599 57.9665 180.873 51.8374 178.542 47.4951C176.178 43.0885 172.229 40.6474 167.065 40.0416L166.832 42.0279C171.429 42.5673 174.762 44.6799 176.78 48.4408C178.833 52.2661 179.591 57.9185 178.687 65.6264L180.673 65.8594ZM167.065 40.0416C161.901 39.4358 157.494 40.8967 154.174 44.6364C150.902 48.3215 148.776 54.1161 147.85 62.0089L149.837 62.242C150.741 54.534 152.787 49.2106 155.669 45.9643C158.503 42.7726 162.234 41.4886 166.832 42.0279L167.065 40.0416Z" fill="black" mask="url(#path-5-outside-3_4839_14291)"/>
<mask id="path-7-outside-4_4839_14291" maskUnits="userSpaceOnUse" x="200.779" y="37.8098" width="82.2586" height="87.027" fill="black">
<rect fill="white" x="200.779" y="37.8098" width="82.2586" height="87.027"/>
<path d="M225.566 40.1576L238.508 44.8865L228.451 72.4095L263.788 54.1238L279.232 59.767L245.828 76.5096L257.511 123.223L241.636 117.423L233.356 82.8079L222.713 88.1122L215.494 107.87L202.552 103.141L225.566 40.1576Z"/>
</mask>
<path d="M225.566 40.1576L238.508 44.8865L228.451 72.4095L263.788 54.1238L279.232 59.767L245.828 76.5096L257.511 123.223L241.636 117.423L233.356 82.8079L222.713 88.1122L215.494 107.87L202.552 103.141L225.566 40.1576Z" fill="white"/>
<path d="M225.566 40.1576L225.909 39.2183L224.97 38.8751L224.627 39.8143L225.566 40.1576ZM238.508 44.8865L239.447 45.2297L239.79 44.2905L238.851 43.9473L238.508 44.8865ZM228.451 72.4095L227.512 72.0663L226.631 74.4774L228.911 73.2976L228.451 72.4095ZM263.788 54.1238L264.131 53.1845L263.718 53.0337L263.328 53.2356L263.788 54.1238ZM279.232 59.767L279.68 60.661L281.751 59.6228L279.575 58.8277L279.232 59.767ZM245.828 76.5096L245.38 75.6157L244.663 75.9748L244.858 76.7523L245.828 76.5096ZM257.511 123.223L257.168 124.163L258.939 124.81L258.482 122.981L257.511 123.223ZM241.636 117.423L240.664 117.655L240.789 118.178L241.293 118.362L241.636 117.423ZM233.356 82.8079L234.328 82.5752L234.035 81.3517L232.909 81.9129L233.356 82.8079ZM222.713 88.1122L222.267 87.2172L221.911 87.3949L221.774 87.769L222.713 88.1122ZM215.494 107.87L215.15 108.809L216.09 109.153L216.433 108.213L215.494 107.87ZM202.552 103.141L201.613 102.798L201.269 103.737L202.209 104.08L202.552 103.141ZM225.223 41.0968L238.165 45.8258L238.851 43.9473L225.909 39.2183L225.223 41.0968ZM237.569 44.5433L227.512 72.0663L229.39 72.7527L239.447 45.2297L237.569 44.5433ZM228.911 73.2976L264.247 55.0119L263.328 53.2356L227.991 71.5213L228.911 73.2976ZM263.444 55.063L278.888 60.7062L279.575 58.8277L264.131 53.1845L263.444 55.063ZM278.783 58.873L245.38 75.6157L246.276 77.4036L279.68 60.661L278.783 58.873ZM244.858 76.7523L256.541 123.466L258.482 122.981L246.798 76.267L244.858 76.7523ZM257.855 122.284L241.979 116.483L241.293 118.362L257.168 124.163L257.855 122.284ZM242.609 117.19L234.328 82.5752L232.383 83.0405L240.664 117.655L242.609 117.19ZM232.909 81.9129L222.267 87.2172L223.159 89.0072L233.802 83.7028L232.909 81.9129ZM221.774 87.769L214.554 107.527L216.433 108.213L223.652 88.4554L221.774 87.769ZM215.837 106.931L202.895 102.202L202.209 104.08L215.15 108.809L215.837 106.931ZM203.491 103.484L226.505 40.5008L224.627 39.8143L201.613 102.798L203.491 103.484Z" fill="black" mask="url(#path-7-outside-4_4839_14291)"/>
</svg>
