<svg width="318" height="143" viewBox="0 0 318 143" fill="none" xmlns="http://www.w3.org/2000/svg">
<mask id="path-1-outside-1_4842_14329" maskUnits="userSpaceOnUse" x="10.1155" y="32.2286" width="77.9055" height="86.2502" fill="black">
<rect fill="white" x="10.1155" y="32.2286" width="77.9055" height="86.2502"/>
<path d="M20.5501 76.54C17.3691 59.8051 23.7088 48.7845 38.4625 43.3935C51.6632 38.57 64.3512 42.2466 69.2378 55.6198C72.8318 65.4556 69.1153 72.6816 63.6085 79.2903L55.1798 89.4117C52.1169 93.0736 49.595 96.3423 48.2975 99.7504L82.0325 87.4235L86.0994 98.5535L36.9205 116.524L35.5018 112.641C32.4753 104.358 34.4413 96.8917 43.5984 85.8196L51.2672 76.5627C55.3405 71.6514 58.0798 66.8363 55.936 60.9694C53.5715 54.4984 48.0429 52.2154 41.6583 54.5484C34.4109 57.1966 31.3978 62.6007 33.2198 73.4752L20.5501 76.54Z"/>
</mask>
<path d="M20.5501 76.54C17.3691 59.8051 23.7088 48.7845 38.4625 43.3935C51.6632 38.57 64.3512 42.2466 69.2378 55.6198C72.8318 65.4556 69.1153 72.6816 63.6085 79.2903L55.1798 89.4117C52.1169 93.0736 49.595 96.3423 48.2975 99.7504L82.0325 87.4235L86.0994 98.5535L36.9205 116.524L35.5018 112.641C32.4753 104.358 34.4413 96.8917 43.5984 85.8196L51.2672 76.5627C55.3405 71.6514 58.0798 66.8363 55.936 60.9694C53.5715 54.4984 48.0429 52.2154 41.6583 54.5484C34.4109 57.1966 31.3978 62.6007 33.2198 73.4752L20.5501 76.54Z" fill="white"/>
<path d="M20.5501 76.54L19.5677 76.7267L19.7639 77.759L20.7852 77.5119L20.5501 76.54ZM63.6085 79.2903L62.8402 78.6502L62.84 78.6504L63.6085 79.2903ZM55.1798 89.4117L55.9468 90.0532L55.9482 90.0516L55.1798 89.4117ZM48.2975 99.7504L47.3629 99.3946L46.5838 101.441L48.6407 100.69L48.2975 99.7504ZM82.0325 87.4235L82.9718 87.0803L82.6286 86.1411L81.6893 86.4843L82.0325 87.4235ZM86.0994 98.5535L86.4426 99.4928L87.3819 99.1496L87.0387 98.2103L86.0994 98.5535ZM36.9205 116.524L35.9812 116.867L36.3244 117.806L37.2637 117.463L36.9205 116.524ZM43.5984 85.8196L42.8283 85.1817L42.8278 85.1823L43.5984 85.8196ZM51.2672 76.5627L50.4974 75.9244L50.4971 75.9248L51.2672 76.5627ZM33.2198 73.4752L33.4549 74.4472L34.3599 74.2283L34.2061 73.31L33.2198 73.4752ZM21.5325 76.3532C19.9716 68.1415 20.7686 61.4549 23.6573 56.1941C26.5435 50.938 31.5928 46.9684 38.8057 44.3328L38.1193 42.4543C30.5785 45.2097 25.0811 49.4459 21.9042 55.2315C18.7299 61.0125 17.9476 68.2036 19.5677 76.7267L21.5325 76.3532ZM38.8057 44.3328C45.2407 41.9814 51.4637 41.7338 56.6243 43.622C61.7595 45.5009 65.9484 49.5312 68.2986 55.963L70.1771 55.2766C67.6407 48.3353 63.0423 43.8406 57.3116 41.7438C51.6063 39.6563 44.885 39.9821 38.1193 42.4543L38.8057 44.3328ZM68.2986 55.963C70.0234 60.6835 69.9825 64.7269 68.8788 68.3757C67.7668 72.0518 65.5572 75.3895 62.8402 78.6502L64.3767 79.9305C67.1665 76.5824 69.5686 73.0028 70.7931 68.9548C72.0259 64.8794 72.0463 60.392 70.1771 55.2766L68.2986 55.963ZM62.84 78.6504L54.4113 88.7717L55.9482 90.0516L64.3769 79.9302L62.84 78.6504ZM54.4127 88.7701C51.3575 92.4229 48.7278 95.8094 47.3629 99.3946L49.2321 100.106C50.4621 96.8752 52.8763 93.7243 55.9468 90.0532L54.4127 88.7701ZM48.6407 100.69L82.3757 88.3628L81.6893 86.4843L47.9543 98.8111L48.6407 100.69ZM81.0933 87.7667L85.1602 98.8967L87.0387 98.2103L82.9718 87.0803L81.0933 87.7667ZM85.7562 97.6142L36.5773 115.584L37.2637 117.463L86.4426 99.4928L85.7562 97.6142ZM37.8598 116.18L36.4411 112.298L34.5625 112.984L35.9812 116.867L37.8598 116.18ZM36.4411 112.298C34.9934 108.336 34.7492 104.618 35.9408 100.558C37.1436 96.4594 39.8283 91.9473 44.369 86.457L42.8278 85.1823C38.2114 90.7641 35.3346 95.5212 34.0217 99.9947C32.6976 104.506 32.9837 108.663 34.5625 112.984L36.4411 112.298ZM44.3685 86.4576L52.0372 77.2007L50.4971 75.9248L42.8283 85.1817L44.3685 86.4576ZM52.0369 77.2011C56.1375 72.2569 59.2197 67.0423 56.8752 60.6261L54.9967 61.3126C56.9398 66.6303 54.5434 71.0459 50.4974 75.9244L52.0369 77.2011ZM56.8752 60.6261C55.6177 57.1847 53.4771 54.7593 50.707 53.5419C47.9442 52.3278 44.6919 52.3752 41.3151 53.6091L42.0015 55.4876C45.0093 54.3886 47.7136 54.4111 49.9024 55.3729C52.0838 56.3316 53.8897 58.2831 54.9967 61.3126L56.8752 60.6261ZM41.3151 53.6091C37.5179 54.9966 34.7065 57.1584 33.1332 60.5011C31.5782 63.805 31.3069 68.1095 32.2336 73.6405L34.2061 73.31C33.3108 67.9665 33.6349 64.1316 34.9428 61.3528C36.2324 58.6128 38.5513 56.7484 42.0015 55.4876L41.3151 53.6091ZM32.9847 72.5032L20.315 75.568L20.7852 77.5119L33.4549 74.4472L32.9847 72.5032Z" fill="black" mask="url(#path-1-outside-1_4842_14329)"/>
<mask id="path-3-outside-2_4842_14329" maskUnits="userSpaceOnUse" x="88.906" y="27.0626" width="64.0074" height="78.0343" fill="black">
<rect fill="white" x="88.906" y="27.0626" width="64.0074" height="78.0343"/>
<path d="M122.72 53.682C137.226 51.9803 147.124 59.8829 148.633 72.7468C150.335 87.2528 139.872 98.1914 123.724 100.086C112.867 101.359 102.602 98.2166 97.4216 88.7431L109.149 82.2805C111.734 86.9716 116.628 89.2647 122.74 88.5476C130.495 87.6379 135.353 82.5361 134.476 75.055C133.598 67.5739 128.464 64.0143 120.8 64.9133C114.87 65.6089 110.415 68.6287 107.709 73.9406L96.4716 72.7616L97.8099 34.4995L139.594 29.5977L140.975 41.3667L108.496 45.1768L107.879 60.4173C111.761 56.4474 116.881 54.3669 122.72 53.682Z"/>
</mask>
<path d="M122.72 53.682C137.226 51.9803 147.124 59.8829 148.633 72.7468C150.335 87.2528 139.872 98.1914 123.724 100.086C112.867 101.359 102.602 98.2166 97.4216 88.7431L109.149 82.2805C111.734 86.9716 116.628 89.2647 122.74 88.5476C130.495 87.6379 135.353 82.5361 134.476 75.055C133.598 67.5739 128.464 64.0143 120.8 64.9133C114.87 65.6089 110.415 68.6287 107.709 73.9406L96.4716 72.7616L97.8099 34.4995L139.594 29.5977L140.975 41.3667L108.496 45.1768L107.879 60.4173C111.761 56.4474 116.881 54.3669 122.72 53.682Z" fill="white"/>
<path d="M97.4216 88.7431L96.9389 87.8673L96.0659 88.3484L96.5442 89.2229L97.4216 88.7431ZM109.149 82.2805L110.025 81.7979L109.543 80.922L108.667 81.4047L109.149 82.2805ZM107.709 73.9406L107.604 74.9351L108.288 75.0068L108.6 74.3946L107.709 73.9406ZM96.4716 72.7616L95.4723 72.7267L95.4397 73.6588L96.3673 73.7562L96.4716 72.7616ZM97.8099 34.4995L97.6934 33.5063L96.8405 33.6063L96.8105 34.4645L97.8099 34.4995ZM139.594 29.5977L140.588 29.4812L140.471 28.488L139.478 28.6045L139.594 29.5977ZM140.975 41.3667L141.092 42.3599L142.085 42.2434L141.968 41.2502L140.975 41.3667ZM108.496 45.1768L108.38 44.1837L107.532 44.2831L107.497 45.1364L108.496 45.1768ZM107.879 60.4173L106.88 60.3768L106.775 62.9774L108.594 61.1164L107.879 60.4173ZM122.836 54.6752C129.884 53.8484 135.715 55.3628 139.949 58.5511C144.179 61.7368 146.913 66.6663 147.64 72.8633L149.626 72.6302C148.844 65.9634 145.874 60.5096 141.152 56.9535C136.433 53.4 130.062 51.8138 122.603 52.6888L122.836 54.6752ZM147.64 72.8633C148.458 79.8318 146.357 85.9009 142.138 90.4669C137.907 95.0457 131.49 98.1679 123.607 99.0926L123.84 101.079C132.106 100.109 138.995 96.815 143.607 91.8243C148.23 86.8209 150.511 80.1677 149.626 72.6302L147.64 72.8633ZM123.607 99.0926C112.985 100.339 103.213 97.249 98.2989 88.2633L96.5442 89.2229C101.992 99.1841 112.749 102.38 123.84 101.079L123.607 99.0926ZM97.9042 89.619L109.632 83.1563L108.667 81.4047L96.9389 87.8673L97.9042 89.619ZM108.274 82.7631C111.086 87.8669 116.409 90.2973 122.857 89.5408L122.624 87.5544C116.847 88.2321 112.383 86.0763 110.025 81.7979L108.274 82.7631ZM122.857 89.5408C126.92 89.0642 130.32 87.477 132.591 84.9314C134.876 82.3718 135.938 78.9327 135.469 74.9385L133.483 75.1715C133.892 78.6583 132.963 81.5107 131.099 83.5997C129.222 85.7027 126.316 87.1213 122.624 87.5544L122.857 89.5408ZM135.469 74.9385C135.005 70.9863 133.396 67.9452 130.772 66.0333C128.16 64.1307 124.685 63.4507 120.684 63.9201L120.917 65.9065C124.579 65.4768 127.503 66.1271 129.594 67.6499C131.672 69.1633 133.069 71.6425 133.483 75.1715L135.469 74.9385ZM120.684 63.9201C114.431 64.6535 109.68 67.8681 106.818 73.4866L108.6 74.3946C111.15 69.3894 115.309 66.5643 120.917 65.9065L120.684 63.9201ZM107.813 72.9461L96.576 71.7671L96.3673 73.7562L107.604 74.9351L107.813 72.9461ZM97.471 72.7966L98.8093 34.5344L96.8105 34.4645L95.4723 72.7267L97.471 72.7966ZM97.9264 35.4927L139.711 30.5909L139.478 28.6045L97.6934 33.5063L97.9264 35.4927ZM138.601 29.7142L139.982 41.4833L141.968 41.2502L140.588 29.4812L138.601 29.7142ZM140.859 40.3736L108.38 44.1837L108.613 46.17L141.092 42.3599L140.859 40.3736ZM107.497 45.1364L106.88 60.3768L108.879 60.4577L109.495 45.2173L107.497 45.1364ZM108.594 61.1164C112.278 57.349 117.164 55.3406 122.836 54.6752L122.603 52.6888C116.598 53.3933 111.244 55.5458 107.164 59.7182L108.594 61.1164Z" fill="black" mask="url(#path-3-outside-2_4842_14329)"/>
<mask id="path-5-outside-3_4842_14329" maskUnits="userSpaceOnUse" x="159.548" y="24.0696" width="71.0762" height="79.843" fill="black">
<rect fill="white" x="159.548" y="24.0696" width="71.0762" height="79.843"/>
<path d="M190.809 98.3289C172.563 96.1884 162.64 81.4287 165.102 60.4452C167.574 39.3704 180.632 27.3989 198.879 29.5394C217.125 31.6799 227.058 46.3484 224.586 67.4232C222.124 88.4067 209.056 100.469 190.809 98.3289ZM179.426 62.1254C177.606 77.635 182.396 85.6884 192.158 86.8336C201.919 87.9788 208.443 81.2525 210.262 65.7429C212.092 50.1421 207.292 42.1799 197.53 41.0348C187.768 39.8896 181.256 46.5247 179.426 62.1254Z"/>
</mask>
<path d="M190.809 98.3289C172.563 96.1884 162.64 81.4287 165.102 60.4452C167.574 39.3704 180.632 27.3989 198.879 29.5394C217.125 31.6799 227.058 46.3484 224.586 67.4232C222.124 88.4067 209.056 100.469 190.809 98.3289ZM179.426 62.1254C177.606 77.635 182.396 85.6884 192.158 86.8336C201.919 87.9788 208.443 81.2525 210.262 65.7429C212.092 50.1421 207.292 42.1799 197.53 41.0348C187.768 39.8896 181.256 46.5247 179.426 62.1254Z" fill="white"/>
<path d="M190.926 97.3357C182.063 96.296 175.293 92.2095 171.018 85.8927C166.731 79.5582 164.885 70.879 166.095 60.5617L164.109 60.3286C162.858 70.9948 164.742 80.1873 169.362 87.0137C173.994 93.8577 181.309 98.2213 190.693 99.3221L190.926 97.3357ZM166.095 60.5617C167.311 50.1978 171.116 42.1824 176.75 37.0242C182.369 31.8804 189.897 29.4927 198.762 30.5326L198.995 28.5462C189.614 27.4457 181.49 29.9735 175.4 35.549C169.325 41.1101 165.365 49.6178 164.109 60.3286L166.095 60.5617ZM198.762 30.5326C207.627 31.5726 214.399 35.6378 218.674 41.9422C222.962 48.2644 224.808 56.9428 223.593 67.3067L225.579 67.5397C226.835 56.8288 224.952 47.6356 220.329 40.8197C215.695 33.9861 208.377 29.6468 198.995 28.5462L198.762 30.5326ZM223.593 67.3067C222.382 77.624 218.578 85.6403 212.941 90.8106C207.32 95.9665 199.788 98.3754 190.926 97.3357L190.693 99.3221C200.076 100.423 208.202 97.8707 214.293 92.2845C220.367 86.7127 224.328 78.2059 225.579 67.5397L223.593 67.3067ZM178.432 62.0089C177.512 69.8575 178.239 75.9853 180.567 80.3378C182.928 84.7536 186.873 87.2205 192.041 87.8268L192.274 85.8404C187.68 85.3015 184.349 83.1691 182.33 79.3946C180.278 75.5566 179.52 69.903 180.419 62.242L178.432 62.0089ZM192.041 87.8268C197.209 88.4331 201.618 86.946 204.937 83.1966C208.209 79.5011 210.335 73.708 211.255 65.8594L209.269 65.6264C208.37 73.2874 206.325 78.6122 203.44 81.8709C200.602 85.0758 196.868 86.3793 192.274 85.8404L192.041 87.8268ZM211.255 65.8594C212.181 57.9665 211.455 51.8374 209.124 47.4951C206.76 43.0885 202.811 40.6474 197.647 40.0416L197.414 42.0279C202.011 42.5673 205.344 44.6799 207.362 48.4408C209.415 52.2661 210.173 57.9185 209.269 65.6264L211.255 65.8594ZM197.647 40.0416C192.483 39.4358 188.076 40.8967 184.756 44.6364C181.484 48.3215 179.358 54.1161 178.432 62.0089L180.419 62.242C181.323 54.534 183.369 49.2106 186.251 45.9643C189.085 42.7726 192.816 41.4886 197.414 42.0279L197.647 40.0416Z" fill="black" mask="url(#path-5-outside-3_4842_14329)"/>
<mask id="path-7-outside-4_4842_14329" maskUnits="userSpaceOnUse" x="227.931" y="33.1975" width="82.2586" height="87.027" fill="black">
<rect fill="white" x="227.931" y="33.1975" width="82.2586" height="87.027"/>
<path d="M252.718 35.5453L265.66 40.2742L255.603 67.7972L290.94 49.5114L306.384 55.1547L272.98 71.8973L284.664 118.611L268.789 112.81L260.508 78.1955L249.866 83.4999L242.646 103.258L229.704 98.5288L252.718 35.5453Z"/>
</mask>
<path d="M252.718 35.5453L265.66 40.2742L255.603 67.7972L290.94 49.5114L306.384 55.1547L272.98 71.8973L284.664 118.611L268.789 112.81L260.508 78.1955L249.866 83.4999L242.646 103.258L229.704 98.5288L252.718 35.5453Z" fill="white"/>
<path d="M252.718 35.5453L253.062 34.606L252.122 34.2628L251.779 35.202L252.718 35.5453ZM265.66 40.2742L266.6 40.6174L266.943 39.6782L266.004 39.335L265.66 40.2742ZM255.603 67.7972L254.664 67.454L253.783 69.8651L256.063 68.6853L255.603 67.7972ZM290.94 49.5114L291.283 48.5722L290.871 48.4214L290.48 48.6233L290.94 49.5114ZM306.384 55.1547L306.832 56.0487L308.903 55.0105L306.727 54.2154L306.384 55.1547ZM272.98 71.8973L272.532 71.0034L271.816 71.3625L272.01 72.14L272.98 71.8973ZM284.664 118.611L284.321 119.55L286.091 120.197L285.634 118.368L284.664 118.611ZM268.789 112.81L267.816 113.043L267.941 113.565L268.445 113.75L268.789 112.81ZM260.508 78.1955L261.48 77.9629L261.188 76.7394L260.062 77.3006L260.508 78.1955ZM249.866 83.4999L249.419 82.6049L249.063 82.7826L248.926 83.1567L249.866 83.4999ZM242.646 103.258L242.303 104.197L243.242 104.54L243.585 103.601L242.646 103.258ZM229.704 98.5288L228.765 98.1856L228.422 99.1249L229.361 99.4681L229.704 98.5288ZM252.375 36.4845L265.317 41.2135L266.004 39.335L253.062 34.606L252.375 36.4845ZM264.721 39.931L254.664 67.454L256.543 68.1404L266.6 40.6174L264.721 39.931ZM256.063 68.6853L291.4 50.3996L290.48 48.6233L255.144 66.909L256.063 68.6853ZM290.597 50.4507L306.041 56.0939L306.727 54.2154L291.283 48.5722L290.597 50.4507ZM305.936 54.2607L272.532 71.0034L273.428 72.7913L306.832 56.0487L305.936 54.2607ZM272.01 72.14L283.694 118.854L285.634 118.368L273.95 71.6547L272.01 72.14ZM285.007 117.672L269.132 111.871L268.445 113.75L284.321 119.55L285.007 117.672ZM269.761 112.578L261.48 77.9629L259.535 78.4282L267.816 113.043L269.761 112.578ZM260.062 77.3006L249.419 82.6049L250.312 84.3949L260.954 79.0905L260.062 77.3006ZM248.926 83.1567L241.707 102.915L243.585 103.601L250.805 83.8431L248.926 83.1567ZM242.989 102.319L230.047 97.5895L229.361 99.4681L242.303 104.197L242.989 102.319ZM230.643 98.872L253.658 35.8885L251.779 35.202L228.765 98.1856L230.643 98.872Z" fill="black" mask="url(#path-7-outside-4_4842_14329)"/>
</svg>
