<svg width="300" height="145" viewBox="0 0 300 145" fill="none" xmlns="http://www.w3.org/2000/svg">
<mask id="path-1-outside-1_4839_14292" maskUnits="userSpaceOnUse" x="8.58017" y="41.5407" width="50.3238" height="75.358" fill="black">
<rect fill="white" x="8.58017" y="41.5407" width="50.3238" height="75.358"/>
<path d="M24.0871 47.5533L34.4406 43.7701L57.4549 106.754L44.4268 111.514L29.0734 69.4964L18.2885 73.4372L15.1359 64.8093C24.8771 60.9564 26.1198 57.6662 24.0871 47.5533Z"/>
</mask>
<path d="M24.0871 47.5533L34.4406 43.7701L57.4549 106.754L44.4268 111.514L29.0734 69.4964L18.2885 73.4372L15.1359 64.8093C24.8771 60.9564 26.1198 57.6662 24.0871 47.5533Z" fill="white"/>
<path d="M24.0871 47.5533L23.7439 46.614L22.9376 46.9087L23.1067 47.7503L24.0871 47.5533ZM34.4406 43.7701L35.3798 43.4269L35.0366 42.4876L34.0974 42.8309L34.4406 43.7701ZM57.4549 106.754L57.7981 107.693L58.7373 107.35L58.3941 106.41L57.4549 106.754ZM44.4268 111.514L43.4875 111.857L43.8307 112.797L44.77 112.453L44.4268 111.514ZM29.0734 69.4964L30.0127 69.1532L29.6695 68.2139L28.7302 68.5571L29.0734 69.4964ZM18.2885 73.4372L17.3493 73.7804L17.6925 74.7196L18.6317 74.3764L18.2885 73.4372ZM15.1359 64.8093L14.7681 63.8794L13.8623 64.2376L14.1966 65.1525L15.1359 64.8093ZM24.4303 48.4925L34.7838 44.7094L34.0974 42.8309L23.7439 46.614L24.4303 48.4925ZM33.5013 44.1133L56.5156 107.097L58.3941 106.41L35.3798 43.4269L33.5013 44.1133ZM57.1117 105.814L44.0835 110.575L44.77 112.453L57.7981 107.693L57.1117 105.814ZM45.366 111.171L30.0127 69.1532L28.1341 69.8396L43.4875 111.857L45.366 111.171ZM28.7302 68.5571L17.9453 72.4979L18.6317 74.3764L29.4166 70.4356L28.7302 68.5571ZM19.2278 73.094L16.0752 64.4661L14.1966 65.1525L17.3493 73.7804L19.2278 73.094ZM15.5037 65.7392C20.3899 63.8066 23.467 61.9069 24.9225 58.9732C26.365 56.0659 26.0806 52.3964 25.0675 47.3562L23.1067 47.7503C24.1264 52.8231 24.2369 55.8551 23.1309 58.0843C22.0379 60.2873 19.6231 61.9591 14.7681 63.8794L15.5037 65.7392Z" fill="black" mask="url(#path-1-outside-1_4839_14292)"/>
<mask id="path-3-outside-2_4839_14292" maskUnits="userSpaceOnUse" x="66.9997" y="27.1071" width="64.0074" height="78.0343" fill="black">
<rect fill="white" x="66.9997" y="27.1071" width="64.0074" height="78.0343"/>
<path d="M100.814 53.7264C115.32 52.0247 125.218 59.9274 126.727 72.7912C128.429 87.2972 117.966 98.2358 101.818 100.13C90.961 101.404 80.6961 98.261 75.5153 88.7876L87.2431 82.3249C89.8281 87.016 94.7216 89.3091 100.834 88.5921C108.589 87.6823 113.447 82.5805 112.57 75.0994C111.692 67.6183 106.558 64.0587 98.894 64.9577C92.9639 65.6534 88.5087 68.6732 85.8023 73.985L74.5654 72.806L75.9036 34.5439L117.688 29.6422L119.069 41.4112L86.59 45.2213L85.9731 60.4617C89.8544 56.4918 94.9746 54.4114 100.814 53.7264Z"/>
</mask>
<path d="M100.814 53.7264C115.32 52.0247 125.218 59.9274 126.727 72.7912C128.429 87.2972 117.966 98.2358 101.818 100.13C90.961 101.404 80.6961 98.261 75.5153 88.7876L87.2431 82.3249C89.8281 87.016 94.7216 89.3091 100.834 88.5921C108.589 87.6823 113.447 82.5805 112.57 75.0994C111.692 67.6183 106.558 64.0587 98.894 64.9577C92.9639 65.6534 88.5087 68.6732 85.8023 73.985L74.5654 72.806L75.9036 34.5439L117.688 29.6422L119.069 41.4112L86.59 45.2213L85.9731 60.4617C89.8544 56.4918 94.9746 54.4114 100.814 53.7264Z" fill="white"/>
<path d="M75.5153 88.7876L75.0327 87.9117L74.1597 88.3928L74.6379 89.2674L75.5153 88.7876ZM87.2431 82.3249L88.1189 81.8423L87.6363 80.9665L86.7605 81.4491L87.2431 82.3249ZM85.8023 73.985L85.6979 74.9796L86.3814 75.0513L86.6933 74.439L85.8023 73.985ZM74.5654 72.806L73.566 72.7711L73.5334 73.7033L74.4611 73.8006L74.5654 72.806ZM75.9036 34.5439L75.7871 33.5507L74.9343 33.6508L74.9042 34.509L75.9036 34.5439ZM117.688 29.6422L118.681 29.5257L118.565 28.5325L117.572 28.649L117.688 29.6422ZM119.069 41.4112L119.185 42.4044L120.179 42.2879L120.062 41.2947L119.069 41.4112ZM86.59 45.2213L86.4735 44.2281L85.6253 44.3276L85.5908 45.1808L86.59 45.2213ZM85.9731 60.4617L84.974 60.4213L84.8687 63.0218L86.6882 61.1608L85.9731 60.4617ZM100.93 54.7196C107.978 53.8929 113.809 55.4072 118.043 58.5956C122.273 61.7813 125.007 66.7107 125.734 72.9077L127.72 72.6747C126.938 66.0079 123.968 60.5541 119.246 56.9979C114.527 53.4444 108.155 51.8583 100.697 52.7332L100.93 54.7196ZM125.734 72.9077C126.551 79.8762 124.451 85.9454 120.232 90.5114C116 95.0902 109.584 98.2123 101.701 99.137L101.934 101.123C110.2 100.154 117.089 96.8594 121.701 91.8687C126.324 86.8653 128.604 80.2122 127.72 72.6747L125.734 72.9077ZM101.701 99.137C91.0789 100.383 81.3068 97.2935 76.3927 88.3078L74.6379 89.2674C80.0855 99.2286 90.8432 102.424 101.934 101.123L101.701 99.137ZM75.9979 89.6634L87.7257 83.2008L86.7605 81.4491L75.0327 87.9117L75.9979 89.6634ZM86.3673 82.8076C89.1797 87.9113 94.5025 90.3417 100.951 89.5852L100.718 87.5989C94.9406 88.2766 90.4766 86.1208 88.1189 81.8423L86.3673 82.8076ZM100.951 89.5852C105.014 89.1086 108.413 87.5215 110.685 84.9758C112.969 82.4162 114.031 78.9771 113.563 74.9829L111.576 75.2159C111.985 78.7028 111.057 81.5551 109.193 83.6442C107.316 85.7471 104.41 87.1658 100.718 87.5989L100.951 89.5852ZM113.563 74.9829C113.099 71.0308 111.49 67.9896 108.865 66.0777C106.253 64.1751 102.779 63.4951 98.7775 63.9645L99.0105 65.9509C102.673 65.5213 105.597 66.1716 107.688 67.6943C109.766 69.2078 111.162 71.687 111.576 75.2159L113.563 74.9829ZM98.7775 63.9645C92.5251 64.698 87.774 67.9126 84.9113 73.5311L86.6933 74.439C89.2435 69.4338 93.4026 66.6087 99.0105 65.9509L98.7775 63.9645ZM85.9066 72.9905L74.6697 71.8115L74.4611 73.8006L85.6979 74.9796L85.9066 72.9905ZM75.5648 72.841L76.903 34.5789L74.9042 34.509L73.566 72.7711L75.5648 72.841ZM76.0201 35.5371L117.805 30.6354L117.572 28.649L75.7871 33.5507L76.0201 35.5371ZM116.695 29.7587L118.076 41.5277L120.062 41.2947L118.681 29.5257L116.695 29.7587ZM118.952 40.418L86.4735 44.2281L86.7065 46.2145L119.185 42.4044L118.952 40.418ZM85.5908 45.1808L84.974 60.4213L86.9723 60.5021L87.5892 45.2617L85.5908 45.1808ZM86.6882 61.1608C90.3714 57.3935 95.2578 55.385 100.93 54.7196L100.697 52.7332C94.6915 53.4377 89.3374 55.5902 85.2581 59.7626L86.6882 61.1608Z" fill="black" mask="url(#path-3-outside-2_4839_14292)"/>
<mask id="path-5-outside-3_4839_14292" maskUnits="userSpaceOnUse" x="142.395" y="24.0674" width="66.3566" height="75.8763" fill="black">
<rect fill="white" x="142.395" y="24.0674" width="66.3566" height="75.8763"/>
<path d="M173.702 96.5581C155.351 95.6959 144.423 81.6644 145.414 60.5603C146.41 39.3644 158.601 26.511 176.953 27.3733C195.304 28.2355 206.236 42.1752 205.24 63.3711C204.248 84.4753 192.053 97.4203 173.702 96.5581ZM159.82 61.2371C159.087 76.8358 164.427 84.5354 174.245 84.9967C184.063 85.458 190.101 78.293 190.834 62.6943C191.571 47.0038 186.227 39.3959 176.409 38.9347C166.591 38.4734 160.557 45.5467 159.82 61.2371Z"/>
</mask>
<path d="M173.702 96.5581C155.351 95.6959 144.423 81.6644 145.414 60.5603C146.41 39.3644 158.601 26.511 176.953 27.3733C195.304 28.2355 206.236 42.1752 205.24 63.3711C204.248 84.4753 192.053 97.4203 173.702 96.5581ZM159.82 61.2371C159.087 76.8358 164.427 84.5354 174.245 84.9967C184.063 85.458 190.101 78.293 190.834 62.6943C191.571 47.0038 186.227 39.3959 176.409 38.9347C166.591 38.4734 160.557 45.5467 159.82 61.2371Z" fill="white"/>
<path d="M173.749 95.5592C164.835 95.1404 157.797 91.5361 153.092 85.533C148.373 79.5131 145.926 70.9839 146.413 60.6072L144.416 60.5133C143.911 71.2408 146.432 80.2794 151.518 86.7668C156.616 93.271 164.217 97.1136 173.655 97.557L173.749 95.5592ZM146.413 60.6072C146.903 50.1838 150.14 41.9224 155.4 36.3837C160.646 30.8604 167.99 27.9533 176.906 28.3722L176.999 26.3744C167.564 25.9311 159.636 29.0195 153.95 35.0063C148.278 40.9777 144.922 49.7409 144.416 60.5133L146.413 60.6072ZM176.906 28.3722C185.822 28.7911 192.86 32.3739 197.565 38.3647C202.283 44.3723 204.731 52.9007 204.241 63.3242L206.239 63.418C206.745 52.6456 204.225 43.6062 199.138 37.1294C194.038 30.6358 186.435 26.8177 176.999 26.3744L176.906 28.3722ZM204.241 63.3242C203.754 73.7009 200.518 81.9631 195.255 87.514C190.008 93.0495 182.663 95.978 173.749 95.5592L173.655 97.557C183.093 98.0004 191.021 94.8875 196.707 88.89C202.378 82.9079 205.735 74.1455 206.239 63.418L204.241 63.3242ZM158.821 61.1902C158.451 69.0838 159.604 75.146 162.229 79.3254C164.893 83.5657 169 85.7514 174.198 85.9956L174.292 83.9978C169.672 83.7808 166.2 81.886 163.923 78.2615C161.608 74.5761 160.457 68.9891 160.819 61.2841L158.821 61.1902ZM174.198 85.9956C179.396 86.2398 183.69 84.4489 186.74 80.477C189.746 76.5622 191.462 70.6349 191.833 62.7412L189.835 62.6473C189.473 70.3524 187.804 75.8069 185.153 79.259C182.546 82.654 178.912 84.2149 174.292 83.9978L174.198 85.9956ZM191.833 62.7412C192.206 54.803 191.054 48.7395 188.426 44.5703C185.759 40.3394 181.65 38.1798 176.456 37.9358L176.362 39.9336C180.987 40.1508 184.458 42.0258 186.734 45.6367C189.049 49.3094 190.2 54.8951 189.835 62.6473L191.833 62.7412ZM176.456 37.9358C171.262 37.6917 166.969 39.4566 163.917 43.4188C160.91 47.3233 159.194 53.2519 158.821 61.1902L160.819 61.2841C161.183 53.5318 162.853 48.0786 165.502 44.6391C168.106 41.2575 171.738 39.7163 176.362 39.9336L176.456 37.9358Z" fill="black" mask="url(#path-5-outside-3_4839_14292)"/>
<mask id="path-7-outside-4_4839_14292" maskUnits="userSpaceOnUse" x="213.073" y="36.6335" width="79.8165" height="85.1158" fill="black">
<rect fill="white" x="213.073" y="36.6335" width="79.8165" height="85.1158"/>
<path d="M234.505 38.938L247.677 42.9826L239.076 70.9946L273.406 50.8831L289.124 55.7097L256.643 74.179L270.758 120.217L254.6 115.255L244.518 81.1218L234.168 86.9763L227.993 107.085L214.822 103.041L234.505 38.938Z"/>
</mask>
<path d="M234.505 38.938L247.677 42.9826L239.076 70.9946L273.406 50.8831L289.124 55.7097L256.643 74.179L270.758 120.217L254.6 115.255L244.518 81.1218L234.168 86.9763L227.993 107.085L214.822 103.041L234.505 38.938Z" fill="white"/>
<path d="M234.505 38.938L234.799 37.9821L233.843 37.6885L233.549 38.6445L234.505 38.938ZM247.677 42.9826L248.633 43.2762L248.927 42.3202L247.971 42.0267L247.677 42.9826ZM239.076 70.9946L238.12 70.701L237.366 73.155L239.581 71.8574L239.076 70.9946ZM273.406 50.8831L273.699 49.9272L273.28 49.7982L272.9 50.0203L273.406 50.8831ZM289.124 55.7097L289.619 56.579L291.632 55.4338L289.418 54.7537L289.124 55.7097ZM256.643 74.179L256.149 73.3097L255.452 73.7058L255.687 74.4721L256.643 74.179ZM270.758 120.217L270.464 121.173L272.266 121.726L271.714 119.924L270.758 120.217ZM254.6 115.255L253.641 115.539L253.793 116.054L254.307 116.211L254.6 115.255ZM244.518 81.1218L245.477 80.8385L245.121 79.632L244.026 80.2514L244.518 81.1218ZM234.168 86.9763L233.676 86.1059L233.329 86.302L233.212 86.6827L234.168 86.9763ZM227.993 107.085L227.7 108.041L228.656 108.335L228.949 107.379L227.993 107.085ZM214.822 103.041L213.866 102.747L213.572 103.703L214.528 103.996L214.822 103.041ZM234.212 39.894L247.384 43.9386L247.971 42.0267L234.799 37.9821L234.212 39.894ZM246.721 42.6891L238.12 70.701L240.032 71.2881L248.633 43.2762L246.721 42.6891ZM239.581 71.8574L273.911 51.7459L272.9 50.0203L238.57 70.1317L239.581 71.8574ZM273.112 51.8391L288.831 56.6656L289.418 54.7537L273.699 49.9272L273.112 51.8391ZM288.63 54.8404L256.149 73.3097L257.138 75.0482L289.619 56.579L288.63 54.8404ZM255.687 74.4721L269.802 120.51L271.714 119.924L257.599 73.8858L255.687 74.4721ZM271.051 119.261L254.894 114.299L254.307 116.211L270.464 121.173L271.051 119.261ZM255.559 114.972L245.477 80.8385L243.559 81.4051L253.641 115.539L255.559 114.972ZM244.026 80.2514L233.676 86.1059L234.66 87.8467L245.01 81.9922L244.026 80.2514ZM233.212 86.6827L227.037 106.792L228.949 107.379L235.124 87.2698L233.212 86.6827ZM228.287 106.129L215.115 102.085L214.528 103.996L227.7 108.041L228.287 106.129ZM215.778 103.334L235.461 39.2316L233.549 38.6445L213.866 102.747L215.778 103.334Z" fill="black" mask="url(#path-7-outside-4_4839_14292)"/>
</svg>
