<svg width="16" height="19" viewBox="0 0 16 19" fill="none" xmlns="http://www.w3.org/2000/svg">
<path d="M13.2172 17.28C12.2372 18.23 11.1672 18.08 10.1372 17.63C9.04716 17.17 8.04716 17.15 6.89716 17.63C5.45716 18.25 4.69716 18.07 3.83716 17.28C-1.04284 12.25 -0.322844 4.59 5.21716 4.31C6.56716 4.38 7.50716 5.05 8.29716 5.11C9.47716 4.87 10.6072 4.18 11.8672 4.27C13.3772 4.39 14.5172 4.99 15.2672 6.07C12.1472 7.94 12.8872 12.05 15.7472 13.2C15.1772 14.7 14.4372 16.19 13.2072 17.29L13.2172 17.28ZM8.19716 4.25C8.04716 2.02 9.85716 0.18 11.9372 0C12.2272 2.58 9.59716 4.5 8.19716 4.25Z" fill="white"/>
</svg>
