<svg width="25" height="24" viewBox="0 0 25 24" fill="none" xmlns="http://www.w3.org/2000/svg">
<g clip-path="url(#clip0_349_10603)">
<path d="M24.8223 12.2244C24.8223 11.2412 24.7406 10.5236 24.5639 9.77954H13.0728V14.2175H19.8178C19.6818 15.3204 18.9475 16.9814 17.3156 18.0975L17.2927 18.246L20.926 20.9962L21.1777 21.0208C23.4895 18.9346 24.8223 15.8652 24.8223 12.2244Z" fill="#4285F4"/>
<path d="M13.0728 23.9176C16.3773 23.9176 19.1514 22.8545 21.1777 21.0209L17.3156 18.0976C16.2821 18.8018 14.895 19.2934 13.0728 19.2934C9.83622 19.2934 7.08925 17.2074 6.11003 14.324L5.9665 14.3359L2.18857 17.1927L2.13916 17.3269C4.15179 21.2334 8.28588 23.9176 13.0728 23.9176Z" fill="#34A853"/>
<path d="M6.10984 14.324C5.85147 13.58 5.70193 12.7826 5.70193 11.9589C5.70193 11.135 5.85147 10.3378 6.09625 9.59366L6.0894 9.43519L2.26412 6.53247L2.13897 6.59064C1.30946 8.21174 0.833496 10.0322 0.833496 11.9589C0.833496 13.8855 1.30946 15.7059 2.13897 17.327L6.10984 14.324Z" fill="#FBBC05"/>
<path d="M13.0728 4.62403C15.3709 4.62403 16.9212 5.59402 17.8052 6.40461L21.2593 3.10928C19.1379 1.1826 16.3773 0 13.0728 0C8.28588 0 4.15179 2.68406 2.13916 6.59056L6.09644 9.59359C7.08925 6.7102 9.83622 4.62403 13.0728 4.62403Z" fill="#EB4335"/>
</g>
<defs>
<clipPath id="clip0_349_10603">
<rect width="24" height="24" fill="white" transform="translate(0.833496)"/>
</clipPath>
</defs>
</svg>
