<svg width="60" height="60" viewBox="0 0 60 60" fill="none" xmlns="http://www.w3.org/2000/svg">
<path d="M33.3334 14.1668V18.0002C33.3334 19.8671 33.3334 20.8005 33.6967 21.5135C34.0163 22.1407 34.5262 22.6507 35.1534 22.9702C35.8665 23.3335 36.7999 23.3335 38.6667 23.3335H42.5001M25.0001 30.0002H35.0001M25.0001 36.6668H31.6667M43.3334 27.1897V37.0668C43.3334 40.4271 43.3334 42.1073 42.6795 43.3908C42.1042 44.5197 41.1863 45.4376 40.0574 46.0129C38.7739 46.6668 37.0937 46.6668 33.7334 46.6668H26.2667C22.9064 46.6668 21.2263 46.6668 19.9428 46.0129C18.8138 45.4376 17.8959 44.5197 17.3207 43.3908C16.6667 42.1073 16.6667 40.4271 16.6667 37.0668V22.9335C16.6667 19.5732 16.6667 17.893 17.3207 16.6096C17.8959 15.4806 18.8138 14.5627 19.9428 13.9875C21.2263 13.3335 22.9064 13.3335 26.2667 13.3335H29.4772C31.5155 13.3335 32.5346 13.3335 33.4937 13.5637C34.344 13.7679 35.1569 14.1046 35.9025 14.5615C36.7434 15.0768 37.4641 15.7975 38.9053 17.2387L39.4282 17.7616C40.8694 19.2029 41.5901 19.9235 42.1054 20.7645C42.5623 21.5101 42.899 22.3229 43.1032 23.1732C43.3334 24.1323 43.3334 25.1514 43.3334 27.1897Z" stroke="#E0650D" stroke-width="2.5" stroke-linecap="round" stroke-linejoin="round"/>
</svg>
