<svg width="60" height="60" viewBox="0 0 60 60" fill="none" xmlns="http://www.w3.org/2000/svg">
<path d="M14.6211 39.1549V30.5257V30.5257C14.6211 28.8419 14.6211 28 14.7845 27.2119C15.0445 25.9585 15.6071 24.7878 16.4235 23.8019C16.9368 23.1819 17.5942 22.656 18.909 21.6041L27.1742 14.992C28.2935 14.0965 28.8532 13.6488 29.4739 13.4771C30.0214 13.3256 30.5997 13.3256 31.1472 13.4771C31.7679 13.6488 32.3276 14.0965 33.4469 14.992L41.2893 21.2659C43.0192 22.6499 43.8842 23.3418 44.5068 24.2007C45.0583 24.9616 45.4687 25.8153 45.7183 26.7214C46 27.7441 46 28.8517 46 31.0671V41.9791C46 43.7365 46 44.6152 45.658 45.2864C45.3571 45.8768 44.8771 46.3569 44.2867 46.6577C43.6154 46.9997 42.7368 46.9997 40.9794 46.9997H19.6417C17.8843 46.9997 17.0056 46.9997 16.3344 46.6577C15.744 46.3569 15.2639 45.8768 14.9631 45.2864C14.6211 44.6152 14.6211 43.7365 14.6211 41.9791V38.3704V37.5859M35.0174 46.9997V36.0171C35.0174 34.555 35.0174 33.824 34.7785 33.2473C34.46 32.4785 33.8492 31.8676 33.0803 31.5491C32.5037 31.3103 31.7726 31.3103 30.3105 31.3103V31.3103C28.8485 31.3103 28.1174 31.3103 27.5408 31.5491C26.7719 31.8676 26.161 32.4785 25.8426 33.2473C25.6037 33.824 25.6037 34.555 25.6037 36.0171V46.9997" stroke="#E0650D" stroke-width="2.6966" stroke-linecap="round" stroke-linejoin="round"/>
<rect x="31.668" y="12.667" width="17" height="17" rx="8.5" fill="#FFF3EA" stroke="#E0650D" stroke-width="2.5" stroke-linecap="round" stroke-linejoin="round"/>
<path d="M36.668 21.6255L38.4862 23.5005L43.3346 18.5005" stroke="#E0650D" stroke-width="2.5" stroke-linecap="round" stroke-linejoin="round"/>
</svg>
