<svg width="39" height="45" viewBox="0 0 39 45" fill="none" xmlns="http://www.w3.org/2000/svg">
<path d="M2.49963 14.7578L2.49963 2.80508" stroke="white" stroke-width="4.29809"/>
<mask id="mask0_150_1134" style="mask-type:alpha" maskUnits="userSpaceOnUse" x="2" y="1" width="35" height="40">
<path d="M2.49963 12.9228L19.6266 1L36.7536 12.9228V40.6233H2.49963V12.9228Z" fill="black"/>
</mask>
<g mask="url(#mask0_150_1134)">
<path d="M47.7384 37.5241C44.6244 35.5519 37.2546 32.1006 28.5354 32.1006C17.6364 32.1006 13.4844 39.0033 3.62338 39.0033C-6.23762 39.0033 -10.3896 35.0589 -10.3896 35.0589" stroke="white" stroke-width="4.29809"/>
<path d="M47.7384 23.685C44.6244 21.7128 37.2546 18.2615 28.5354 18.2615C17.6364 18.2615 13.4844 25.1642 3.62338 25.1642C-6.23762 25.1642 -10.3896 21.2198 -10.3896 21.2198" stroke="white" stroke-width="4.29809"/>
<path d="M-9.35046 32.1019C-6.92846 29.801 0.0953408 25.1992 8.81454 25.1992C19.7135 25.1992 23.8656 32.1019 33.7266 32.1019C43.5876 32.1019 48.7776 28.1575 48.7776 28.1575" stroke="white" stroke-width="4.29809"/>
<path d="M-9.34943 32.1019C-6.92743 29.801 0.0963784 25.1992 8.81558 25.1992C19.7146 25.1992 23.8666 32.1019 33.7276 32.1019C43.5886 32.1019 48.7786 28.1575 48.7786 28.1575" stroke="white" stroke-width="4.29809"/>
</g>
<path d="M2.49963 14.5505L19.6266 2.71729L36.7536 14.5505V42.1613H2.49963V14.5505Z" stroke="white" stroke-width="4.29809"/>
</svg>
