<svg width="198" height="35" viewBox="0 0 198 35" fill="none" xmlns="http://www.w3.org/2000/svg">
<path d="M20.9159 33.454H34.4052V32.2869C30.7194 32.0552 29.9398 31.772 29.9398 28.2279V6.02759C29.9398 2.43196 30.7194 2.20026 34.4052 1.96856V0.810059H20.9159V1.97714C24.6017 2.20884 25.3813 2.44054 25.3813 6.03617V15.3642H9.8584V6.02759C9.8584 2.43196 10.6379 2.20026 14.3238 1.96856V0.810059H0.834473V1.97714C4.5203 2.20884 5.29984 2.44054 5.29984 6.03617V28.2364C5.29984 31.7806 4.5203 32.0638 0.834473 32.2955V33.4626H14.3238V32.2955C10.6379 32.0638 9.8584 31.7806 9.8584 28.2364V17.4581H25.3813V28.2364C25.3813 31.7806 24.6017 32.0638 20.9159 32.2955V33.4626V33.454Z" fill="white"/>
<path d="M44.8921 11.717C38.4471 11.717 34.1476 16.5656 34.1476 22.9073C34.1476 29.249 38.4471 34.149 44.8921 34.149C51.3372 34.149 55.6871 29.3005 55.6871 22.9073C55.6871 16.5141 51.3456 11.717 44.8921 11.717ZM44.8921 32.3297C40.2729 32.3297 38.5397 28.3222 38.5397 22.9073C38.5397 17.4924 40.2813 13.5363 44.8921 13.5363C49.5029 13.5363 51.2951 17.501 51.2951 22.9073C51.2951 28.3136 49.5114 32.3297 44.8921 32.3297Z" fill="white"/>
<path d="M90.2318 20.35C86.5504 19.5605 84.0961 18.8568 84.0961 16.5227C84.0961 14.7978 85.6064 13.4934 87.769 13.4934C93.3469 13.4934 93.1753 17.827 96.7109 17.827H97.3888C97.3888 14.772 96.3333 11.717 88.4812 11.717C83.3573 11.717 80.4576 14.4717 80.4576 17.827C80.4576 22.2551 84.4908 23.3793 88.4555 24.3061C92.1369 25.0956 95.3979 25.7992 95.3979 28.5539C95.3979 31.3085 92.5488 32.3297 90.0774 32.3297C83.1607 32.3297 86.1213 26.0824 81.29 26.0824H80.0199C80.0199 31.0768 83.3667 34.149 90.2233 34.149C94.9774 34.149 98.8391 31.4973 98.8391 27.2924C98.8391 22.6241 94.3252 21.3626 90.2233 20.3414L90.2318 20.35Z" fill="white"/>
<path d="M105.464 20.6761H120.619C120.619 14.9351 116.886 11.717 111.428 11.717C104.855 11.717 100.89 16.5656 100.89 22.9073C100.89 29.249 104.906 34.149 112.364 34.149C116.792 34.149 119.778 31.4888 121.408 27.6185L119.684 26.829C118.285 30.1415 115.676 32.1924 112.638 32.1924C107.275 32.1924 105.361 28.3222 105.361 22.9073C105.361 22.1607 105.404 21.4141 105.455 20.6675L105.464 20.6761ZM105.696 18.8139C106.305 15.5959 107.884 13.5449 111.48 13.5449C114.329 13.5449 116.474 15.4071 116.474 18.8139H105.696Z" fill="white"/>
<path d="M160.78 20.6761H175.944C175.944 14.9351 172.211 11.717 166.753 11.717C160.179 11.717 156.215 16.5656 156.215 22.9073C156.215 29.249 160.222 34.149 167.688 34.149C172.116 34.149 175.103 31.4888 176.733 27.6185L175.008 26.829C173.609 30.1415 170.992 32.1924 167.963 32.1924C162.599 32.1924 160.686 28.3222 160.686 22.9073C160.686 22.1607 160.729 21.4141 160.78 20.6675V20.6761ZM161.012 18.8139C161.621 15.5959 163.2 13.5449 166.796 13.5449C169.636 13.5449 171.782 15.4071 171.782 18.8139H161.012Z" fill="white"/>
<path d="M177.359 33.454H187.76V32.287C185.237 32.0553 184.637 31.5404 184.637 29.8584V0.106445C184.637 0.106445 183.873 0.106445 183.195 0.106445C183.195 0.106445 178.143 3.30519 177.368 3.74499V4.68037H179.093C180.123 4.68037 180.535 5.10086 180.535 6.21645V29.867C180.535 31.549 179.925 32.0553 177.359 32.2955V33.4626V33.454Z" fill="white"/>
<path d="M138.743 19.0885L144.759 33.4539H147.556L151.641 21.56C152.533 19.3888 153.735 15.7331 157.116 12.721V12.4207H148.303C147.522 15.1239 152.121 14.5746 150.911 17.6468L147.23 28.4251L142.613 17.6468C141.489 14.7549 141.446 13.8195 144.759 13.5878V12.4207H134.169V13.5878C135.937 13.7251 136.778 14.5232 137.619 16.3853L133.285 28.3222L128.668 17.6382C127.553 14.7892 127.553 13.8109 130.857 13.5792V12.4121H120.55V13.5792C122.738 13.8109 123.159 14.8407 124.232 17.6382L130.899 33.4539H133.654L138.734 19.0885H138.743Z" fill="white"/>
<path d="M135.422 12.4209H129.08V13.6395H135.422V12.4209Z" fill="white"/>
<path d="M187.1 33.454H197.5V32.287C194.977 32.0553 194.377 31.5404 194.377 29.8584V0.106445C194.377 0.106445 193.613 0.106445 192.935 0.106445C192.935 0.106445 187.883 3.30519 187.108 3.74499V4.68037H188.833C189.863 4.68037 190.275 5.10086 190.275 6.21645V29.867C190.275 31.549 189.665 32.0553 187.1 32.2955V33.4626V33.454Z" fill="white"/>
<path d="M69.6502 12.4724V13.6309L71.1757 13.8828C72.3387 14.1176 72.7644 14.3763 72.7644 15.4918V29.7555C70.8875 30.9655 68.918 31.7636 66.8138 31.7636C64.7096 31.7636 63.2031 30.5965 63.2031 27.8418V12.4724H61.8311L56.1162 12.4896V13.6223L57.7659 13.8828C58.7862 14.0437 59.1799 14.1973 59.1799 15.3215V27.8504C59.1799 33.0765 62.9758 34.1492 65.6776 34.1492C68.1436 34.1492 70.9801 32.9821 72.7644 31.8665C73.2452 33.6589 74.0577 34.0119 76.089 34.0119H77.7166V33.3252C76.7991 33.3252 76.796 32.5788 76.796 29.8585V12.4724H69.6587H69.6502Z" fill="white"/>
<rect x="78.8772" y="33.1267" width="0.628785" height="0.735375" fill="white"/>
</svg>
