<svg width="160" height="159" viewBox="0 0 160 159" fill="none" xmlns="http://www.w3.org/2000/svg">
<path d="M16.4004 88.9999C16.4004 106.398 23.3118 123.084 35.6142 135.386C47.9166 147.688 64.6022 154.6 82.0004 154.6C99.3986 154.6 116.084 147.688 128.387 135.386C140.689 123.084 147.6 106.398 147.6 88.9999C147.6 71.6017 140.689 54.9161 128.387 42.6137C116.084 30.3113 99.3986 23.3999 82.0004 23.3999C64.6022 23.3999 47.9166 30.3113 35.6142 42.6137C23.3118 54.9161 16.4004 71.6017 16.4004 88.9999Z" fill="#E9FFF3"/>
<mask id="mask0_307_3477" style="mask-type:alpha" maskUnits="userSpaceOnUse" x="16" y="22" width="132" height="132">
<path d="M16.4004 87.9999C16.4004 105.398 23.3118 122.084 35.6142 134.386C47.9166 146.688 64.6022 153.6 82.0004 153.6C99.3986 153.6 116.084 146.688 128.387 134.386C140.689 122.084 147.6 105.398 147.6 87.9999C147.6 70.6017 140.689 53.9161 128.387 41.6137C116.084 29.3113 99.3986 22.3999 82.0004 22.3999C64.6022 22.3999 47.9166 29.3113 35.6142 41.6137C23.3118 53.9161 16.4004 70.6017 16.4004 87.9999Z" fill="#D2FFE7"/>
</mask>
<g mask="url(#mask0_307_3477)">
<path d="M17.9902 123H142.01" stroke="#1F3121" stroke-width="1.64" stroke-linecap="round" stroke-linejoin="round"/>
<path d="M58.0003 63C58.0003 60.7909 59.7912 59 62.0003 59H110C112.209 59 114 60.7909 114 63V95C114 97.2091 112.209 99 110 99H62.0003C59.7912 99 58.0003 97.2091 58.0003 95V63Z" fill="#B0FFD4" stroke="#1F3121" stroke-width="1.64" stroke-linejoin="round"/>
<path d="M69.4222 58.9634V46" stroke="#1F3121" stroke-width="1.64" stroke-linejoin="round"/>
<path d="M104.606 58.9634V46" stroke="#1F3121" stroke-width="1.64" stroke-linejoin="round"/>
<path d="M76.6819 80.4824H95.2004" stroke="#1F3121" stroke-width="1.64" stroke-linecap="round" stroke-linejoin="round"/>
<path d="M71.1253 89.7402H100.756" stroke="#1F3121" stroke-width="1.64" stroke-linecap="round" stroke-linejoin="round"/>
</g>
<path d="M130.191 43.7206C129.878 44.3841 129.279 44.9612 128.477 45.3702C127.676 45.7793 126.713 45.9996 125.725 46H26.2774C25.2891 46.0003 24.3258 45.7802 23.5241 45.3711C22.7223 44.962 22.123 44.3845 21.8109 43.7206L20.2403 40.3873C20.005 39.8859 19.9413 39.3521 20.0545 38.8299C20.1676 38.3076 20.4544 37.8119 20.8912 37.3835C21.328 36.9551 21.9023 36.6062 22.5668 36.3657C23.2313 36.1252 23.967 35.9998 24.7133 36H127.302C128.046 36.0015 128.78 36.1279 129.442 36.3688C130.104 36.6097 130.676 36.9583 131.111 37.3859C131.546 37.8135 131.832 38.308 131.945 38.8289C132.058 39.3498 131.996 39.8823 131.762 40.3827L130.191 43.7206Z" fill="white" stroke="#1F3121" stroke-width="1.64" stroke-linejoin="round"/>
<path d="M45.8635 29.4777C45.8635 28.7655 45.6325 28.0725 45.2052 27.5027L43.5594 25.3106C43.2526 24.9035 42.8555 24.5732 42.3993 24.3458C41.9431 24.1184 41.4403 24 40.9306 24C40.4209 24 39.9181 24.1184 39.4619 24.3458C39.0058 24.5732 38.6086 24.9035 38.3019 25.3106L36.6583 27.5027C36.231 28.0725 36 28.7655 36 29.4777V134.17H45.8681L45.8635 29.4777Z" fill="white" stroke="#1F3121" stroke-width="1.64" stroke-linejoin="round"/>
</svg>
