<svg width="60" height="60" viewBox="0 0 60 60" fill="none" xmlns="http://www.w3.org/2000/svg">
<path d="M23.3333 11.6665V16.6665M36.6666 11.6665V16.6665M38.3333 23.3332H21.6666M38.3333 38.3332H34.9999M22.9333 46.6665H37.0666C40.4269 46.6665 42.1071 46.6665 43.3905 46.0125C44.5195 45.4373 45.4374 44.5194 46.0126 43.3904C46.6666 42.107 46.6666 40.4268 46.6666 37.0665V22.9332C46.6666 19.5729 46.6666 17.8927 46.0126 16.6092C45.4374 15.4803 44.5195 14.5624 43.3905 13.9871C42.1071 13.3332 40.4269 13.3332 37.0666 13.3332H22.9333C19.5729 13.3332 17.8928 13.3332 16.6093 13.9871C15.4803 14.5624 14.5625 15.4803 13.9872 16.6092C13.3333 17.8927 13.3333 19.5729 13.3333 22.9332V37.0665C13.3333 40.4268 13.3333 42.107 13.9872 43.3904C14.5625 44.5194 15.4803 45.4373 16.6093 46.0125C17.8928 46.6665 19.5729 46.6665 22.9333 46.6665Z" stroke="#E0650D" stroke-width="2.5" stroke-linecap="round" stroke-linejoin="round"/>
</svg>
