<svg width="164" height="164" viewBox="0 0 164 164" fill="none" xmlns="http://www.w3.org/2000/svg">
<path d="M16.4004 89.5507C16.4004 106.949 23.3118 123.634 35.6142 135.937C47.9166 148.239 64.6022 155.151 82.0004 155.151C99.3986 155.151 116.084 148.239 128.387 135.937C140.689 123.634 147.6 106.949 147.6 89.5507C147.6 72.1525 140.689 55.4669 128.387 43.1645C116.084 30.8621 99.3986 23.9507 82.0004 23.9507C64.6022 23.9507 47.9166 30.8621 35.6142 43.1645C23.3118 55.4669 16.4004 72.1525 16.4004 89.5507Z" fill="#E9FFF3"/>
<path d="M126.346 16.0001H42.6526C41.3904 15.995 40.1395 16.2259 38.9713 16.6799C37.8031 17.1338 36.7405 17.8017 35.8442 18.6456C34.9478 19.4894 34.2353 20.4926 33.7473 21.5979C33.2593 22.7032 33.0054 23.889 33 25.0875V133.7C39.5356 140.797 47.6815 146.393 56.8245 150.069C65.9676 153.744 75.8695 155.402 85.785 154.918C95.7005 154.434 105.371 151.82 114.069 147.274C122.767 142.728 130.265 136.367 136 128.672V25.0812C135.987 22.6617 134.963 20.3461 133.152 18.6433C131.342 16.9404 128.894 15.9897 126.346 16.0001Z" fill="white"/>
<path d="M136 128.002V25.0272C135.987 22.6221 134.963 20.3202 133.152 18.6275C131.342 16.9348 128.894 15.9898 126.346 16.0001H42.6526C41.3904 15.995 40.1395 16.2246 38.9713 16.6758C37.8031 17.127 36.7405 17.791 35.8442 18.6298C34.9478 19.4687 34.2353 20.4659 33.7473 21.5646C33.2593 22.6634 33.0054 23.8421 33 25.0334V133" stroke="#1F3121" stroke-width="1.64" stroke-linecap="round" stroke-linejoin="round"/>
<path d="M126 26.5284C125.999 26.1954 125.938 25.8659 125.821 25.5586C125.703 25.2513 125.532 24.9724 125.316 24.7376C125.1 24.5028 124.843 24.3168 124.561 24.1903C124.279 24.0637 123.977 23.9991 123.673 24H44.3273C44.0225 23.9991 43.7206 24.0637 43.4387 24.1903C43.1568 24.3168 42.9005 24.5028 42.6844 24.7376C42.4683 24.9724 42.2966 25.2513 42.1792 25.5586C42.0617 25.8659 42.0009 26.1954 42 26.5284V140.296C54.1919 150.435 69.2369 155.614 84.5461 154.942C99.8553 154.27 114.472 147.789 125.88 136.615L126 26.5284Z" fill="#B0FFD4"/>
<path d="M125.878 138.264L126 26.5654C125.999 26.2274 125.938 25.8929 125.821 25.581C125.703 25.2691 125.531 24.986 125.315 24.7477C125.099 24.5095 124.842 24.3208 124.56 24.1925C124.278 24.0642 123.976 23.9988 123.671 24H44.3272C44.0225 23.9991 43.7206 24.0647 43.4387 24.1931C43.1568 24.3215 42.9005 24.5102 42.6844 24.7484C42.4683 24.9866 42.2966 25.2697 42.1792 25.5815C42.0617 25.8932 42.0009 26.2276 42 26.5654V142" stroke="#1F3121" stroke-width="1.64" stroke-linecap="round" stroke-linejoin="round"/>
<path d="M71.0449 31.8065C71.0449 32.2415 71.2177 32.6586 71.5253 32.9662C71.8328 33.2737 72.25 33.4465 72.6849 33.4465C73.1199 33.4465 73.537 33.2737 73.8446 32.9662C74.1521 32.6586 74.3249 32.2415 74.3249 31.8065C74.3249 31.3715 74.1521 30.9544 73.8446 30.6468C73.537 30.3393 73.1199 30.1665 72.6849 30.1665C72.25 30.1665 71.8328 30.3393 71.5253 30.6468C71.2177 30.9544 71.0449 31.3715 71.0449 31.8065Z" fill="#1F3121"/>
<path d="M79 32H94" stroke="#1F3121" stroke-width="1.64" stroke-linecap="round" stroke-linejoin="round"/>
<path d="M53.2988 101H112.339V115H53.2988V101Z" fill="white" stroke="#1F3121" stroke-width="1.64" stroke-linecap="round" stroke-linejoin="round"/>
<path d="M53.2988 120.369H112.339V133.489H53.2988V120.369Z" fill="#B0FFD4" stroke="#1F3121" stroke-width="1.64"/>
<path d="M53.2988 120.369H69.6988V133.489H53.2988V120.369Z" fill="white" stroke="#1F3121" stroke-width="1.64" stroke-linecap="round" stroke-linejoin="round"/>
<path d="M60.9954 130C60.798 129.999 60.6053 129.94 60.4415 129.829C60.2778 129.719 60.1503 129.562 60.0752 129.379C60.0001 129.196 59.9807 128.994 60.0195 128.8C60.0582 128.606 60.1534 128.428 60.293 128.288L61.5807 126.996L60.293 125.698C60.1117 125.508 60.0117 125.255 60.0144 124.993C60.0171 124.73 60.1223 124.479 60.3075 124.293C60.4926 124.108 60.7429 124.003 61.0046 124C61.2663 123.998 61.5185 124.098 61.7071 124.28L63.7066 126.286C63.7996 126.379 63.8734 126.49 63.9237 126.612C63.9741 126.733 64 126.864 64 126.996C64 127.127 63.9741 127.258 63.9237 127.38C63.8734 127.501 63.7996 127.612 63.7066 127.705L61.7024 129.706C61.6096 129.8 61.4994 129.874 61.3781 129.924C61.2567 129.974 61.1267 130 60.9954 130Z" fill="#1F3121"/>
<path d="M59.8594 70.3151C59.8594 76.1961 62.1956 81.8362 66.3541 85.9948C70.5126 90.1533 76.1528 92.4895 82.0338 92.4895C87.9148 92.4895 93.555 90.1533 97.7135 85.9948C101.872 81.8362 104.208 76.1961 104.208 70.3151C104.208 64.434 101.872 58.7939 97.7135 54.6354C93.555 50.4769 87.9148 48.1406 82.0338 48.1406C76.1528 48.1406 70.5126 50.4769 66.3541 54.6354C62.1956 58.7939 59.8594 64.434 59.8594 70.3151Z" fill="white" stroke="#1F3121" stroke-width="1.64" stroke-linecap="round" stroke-linejoin="round"/>
<path d="M74.8981 69.8014C74.9381 71.667 75.7073 73.4427 77.0408 74.7479C78.3744 76.0531 80.1661 76.7841 82.0321 76.7841C83.8981 76.7841 85.6899 76.0531 87.0234 74.7479C88.3569 73.4427 89.1261 71.667 89.1661 69.8014V66.2344C89.1865 65.2847 89.017 64.3405 88.6677 63.4571C88.3183 62.5737 87.7961 61.769 87.1316 61.0902C86.4671 60.4113 85.6738 59.8719 84.7981 59.5037C83.9224 59.1355 82.9821 58.9458 82.0321 58.9458C81.0822 58.9458 80.1418 59.1355 79.2661 59.5037C78.3905 59.8719 77.5971 60.4113 76.9327 61.0902C76.2682 61.769 75.746 62.5737 75.3966 63.4571C75.0472 64.3405 74.8778 65.2847 74.8981 66.2344V69.8014Z" fill="white" stroke="#1F3121" stroke-width="1.64" stroke-linecap="round" stroke-linejoin="round"/>
<path d="M96.8568 86.8069C92.787 90.4636 87.509 92.4864 82.0378 92.4864C76.5666 92.4864 71.2885 90.4636 67.2188 86.8069C68.4367 83.884 70.4919 81.3866 73.1259 79.6291C75.7599 77.8715 78.8549 76.9323 82.0214 76.9297C85.1879 76.9271 88.2845 77.8611 90.9214 79.6143C93.5583 81.3675 95.6177 83.8614 96.8404 86.7823" fill="#B0FFD4"/>
<path d="M96.8568 86.8069C92.787 90.4636 87.509 92.4864 82.0378 92.4864C76.5666 92.4864 71.2885 90.4636 67.2188 86.8069C68.4367 83.884 70.4919 81.3866 73.1259 79.6291C75.7599 77.8715 78.8549 76.9323 82.0214 76.9297C85.1879 76.9271 88.2845 77.8611 90.9214 79.6143C93.5583 81.3675 95.6177 83.8614 96.8404 86.7823" stroke="#1F3121" stroke-width="1.64"/>
<path d="M74.957 65.3132C75.1441 63.8742 75.7655 62.5264 76.7383 61.4497C77.7112 60.3731 78.9893 59.6187 80.4021 59.2872C81.8148 58.9558 83.295 59.063 84.6453 59.5947C85.9955 60.1263 87.1514 61.0571 87.9589 62.2628C86.2703 63.8998 84.1693 65.048 81.8796 65.5852C79.59 66.1223 77.1975 66.0284 74.957 65.3132Z" fill="white" stroke="#1F3121" stroke-width="1.64"/>
<circle cx="65" cy="108" r="3" fill="#1F3121"/>
<circle cx="77" cy="108" r="3" fill="#1F3121"/>
<circle cx="89" cy="108" r="3" fill="#1F3121"/>
<circle cx="101" cy="108" r="3" fill="#1F3121"/>
</svg>
