<svg width="164" height="164" viewBox="0 0 164 164" fill="none" xmlns="http://www.w3.org/2000/svg">
<path d="M16.4 89.3686C16.4 106.767 23.3114 123.452 35.6138 135.755C47.9162 148.057 64.6018 154.969 82 154.969C99.3982 154.969 116.084 148.057 128.386 135.755C140.689 123.452 147.6 106.767 147.6 89.3686C147.6 71.9704 140.689 55.2847 128.386 42.9823C116.084 30.68 99.3982 23.7686 82 23.7686C64.6018 23.7686 47.9162 30.68 35.6138 42.9823C23.3114 55.2847 16.4 71.9704 16.4 89.3686Z" fill="#E9FFF3"/>
<path d="M61.4774 67.6321C60.8985 68.2126 60.2107 68.6731 59.4536 68.9873C58.6964 69.3015 57.8847 69.4632 57.0649 69.4632C56.2452 69.4632 55.4335 69.3015 54.6763 68.9873C53.9192 68.6731 53.2314 68.2126 52.6525 67.6321L43.8277 58.8073C43.2482 58.2279 42.7886 57.54 42.475 56.7829C42.1614 56.0258 42 55.2144 42 54.3949C42 53.5754 42.1614 52.764 42.475 52.0069C42.7886 51.2498 43.2482 50.5619 43.8277 49.9825C44.4071 49.403 45.095 48.9434 45.8521 48.6298C46.6092 48.3162 47.4206 48.1548 48.2401 48.1548C49.0596 48.1548 49.871 48.3162 50.6281 48.6298C51.3852 48.9434 52.0731 49.403 52.6525 49.9825L61.4774 58.8073C62.0578 59.3862 62.5183 60.0739 62.8325 60.8311C63.1467 61.5883 63.3084 62.4 63.3084 63.2197C63.3084 64.0395 63.1467 64.8512 62.8325 65.6084C62.5183 66.3655 62.0578 67.0532 61.4774 67.6321Z" fill="white" stroke="#1F3121" stroke-width="1.64" stroke-linecap="round" stroke-linejoin="round"/>
<path d="M106.054 103.669C106.054 104.628 105.865 105.578 105.498 106.464C105.131 107.35 104.593 108.155 103.915 108.833C103.237 109.511 102.432 110.049 101.546 110.416C100.66 110.783 99.7103 110.972 98.7513 110.972H60.8804C59.9209 110.973 58.9706 110.785 58.0839 110.418C57.1972 110.052 56.3915 109.514 55.7129 108.836C55.0343 108.157 54.4961 107.352 54.1291 106.465C53.7621 105.579 53.5736 104.629 53.5742 103.669V22.4531C53.5742 20.5167 54.3435 18.6596 55.7127 17.2903C57.082 15.9211 58.9391 15.1519 60.8755 15.1519H98.7497C99.7087 15.1516 100.658 15.3403 101.544 15.7071C102.431 16.0739 103.236 16.6117 103.914 17.2897C104.592 17.9677 105.13 18.7726 105.498 19.6586C105.865 20.5445 106.054 21.4941 106.054 22.4531V103.669Z" fill="white" stroke="#1F3121" stroke-width="1.64" stroke-linecap="round" stroke-linejoin="round"/>
<path d="M58.2305 23C58.2305 21.3431 59.5736 20 61.2305 20H98.2305C99.8873 20 101.23 21.3431 101.23 23V102C101.23 103.657 99.8873 105 98.2305 105H61.2305C59.5736 105 58.2305 103.657 58.2305 102V23Z" fill="#B0FFD4" stroke="#1F3121" stroke-width="1.64" stroke-linecap="round" stroke-linejoin="round"/>
<path d="M98.7123 31H60.7486C59.9102 31 59.2305 31.9123 59.2305 33.0376V101.962C59.2305 103.088 59.9102 104 60.7486 104H98.7123C99.5508 104 100.23 103.088 100.23 101.962V33.0376C100.23 31.9123 99.5508 31 98.7123 31Z" fill="white"/>
<path d="M62.5859 38.6187H84.6489" stroke="#1F3121" stroke-width="1.64" stroke-linecap="round" stroke-linejoin="round"/>
<path d="M62.5859 43.1167H84.6489" stroke="#1F3121" stroke-width="1.64" stroke-linecap="round" stroke-linejoin="round"/>
<path d="M62.5859 53.3379H77.9633" stroke="#1F3121" stroke-width="1.64" stroke-linecap="round" stroke-linejoin="round"/>
<path d="M69.7864 71.8423C69.413 72.2154 69.1375 72.6748 68.9841 73.1798C68.8308 73.6849 68.8044 74.22 68.9072 74.7376C69.0101 75.2553 69.239 75.7396 69.5738 76.1476C69.9086 76.5557 70.3388 76.8749 70.8264 77.0769C71.314 77.2789 71.844 77.3576 72.3692 77.3059C72.8945 77.2541 73.3989 77.0737 73.8377 76.7805C74.2766 76.4871 74.6363 76.0903 74.8851 75.6247C75.1338 75.1593 75.264 74.6395 75.2639 74.1117V74.7527C75.257 75.0942 75.3183 75.4338 75.4443 75.7513C75.5702 76.0688 75.7582 76.358 75.9974 76.602C76.2365 76.8459 76.5218 77.0398 76.8368 77.172C77.1517 77.3044 77.4898 77.3726 77.8315 77.3726C78.1731 77.3726 78.5113 77.3044 78.8261 77.172C79.1411 77.0398 79.4264 76.8459 79.6655 76.602C79.9047 76.358 80.0927 76.0688 80.2186 75.7513C80.3446 75.4338 80.4059 75.0942 80.399 74.7527C80.399 75.4336 80.6695 76.0865 81.1509 76.5679C81.6323 77.0494 82.2853 77.3198 82.9661 77.3198H84.8911" stroke="#1F3121" stroke-width="1.64" stroke-linecap="round" stroke-linejoin="round"/>
<path d="M62.1923 104.015C61.5996 105.56 60.4174 106.807 58.9058 107.48C57.3942 108.154 55.6769 108.199 54.1317 107.607L51.2191 106.49C49.6737 105.897 48.427 104.715 47.7533 103.203C47.0796 101.691 47.034 99.9739 47.6266 98.4285C48.2193 96.8831 49.4015 95.6365 50.9133 94.9628C52.4251 94.289 54.1427 94.2435 55.6881 94.8361L58.6007 95.953C60.146 96.546 61.3924 97.7285 62.0659 99.2404C62.7394 100.752 62.7849 102.47 62.1923 104.015Z" fill="white" stroke="#1F3121" stroke-width="1.64" stroke-linecap="round" stroke-linejoin="round"/>
<path d="M111.217 112.34C112.596 109.489 113.312 106.362 113.311 103.195V78.041C113.311 76.386 112.654 74.7988 111.484 73.6285C110.314 72.4582 108.726 71.8008 107.071 71.8008C105.416 71.8008 103.829 72.4582 102.659 73.6285C101.489 74.7988 100.831 76.386 100.831 78.041V83.7318V95.7136C94.5187 95.7136 88.9591 99.9497 87.2699 110.592H67.1766C63.7007 110.592 60.2542 109.954 57.0086 108.709L51.2211 106.49C50.5406 106.23 49.9111 105.852 49.3613 105.373L65.3316 124.412C67.5492 127.143 70.4365 129.253 73.712 130.536C78.0056 132.213 84.2179 134.308 87.324 139.392L96.6245 154.949C98.2448 154.914 99.8493 154.821 101.438 154.672L125.979 137.22C114.546 122.159 113.21 121.33 111.401 118.134C110.904 117.255 110.627 116.269 110.595 115.26C110.563 114.25 110.777 113.249 111.217 112.34Z" fill="white"/>
<path d="M124.979 136.22C113.546 121.159 113.21 121.33 111.401 118.134C110.904 117.255 110.627 116.268 110.595 115.259C110.563 114.249 110.777 113.247 111.217 112.338C112.596 109.487 113.312 106.361 113.311 103.194V78.041C113.311 76.386 112.654 74.7988 111.484 73.6285C110.314 72.4582 108.726 71.8008 107.071 71.8008C105.416 71.8008 103.829 72.4582 102.659 73.6285C101.489 74.7988 100.831 76.386 100.831 78.041V83.7318V95.7136C94.5187 95.7136 88.9591 99.9497 87.2699 110.592H67.1766C63.7007 110.592 60.2542 109.954 57.0086 108.709L51.2211 106.49C50.5406 106.23 49.9111 105.852 49.3613 105.373L65.3316 124.412C67.5492 127.143 70.4365 129.253 73.712 130.536C78.0056 132.213 84.2179 134.308 87.324 139.392L94.8484 151.977" stroke="#1F3121" stroke-width="1.64" stroke-linecap="round" stroke-linejoin="round"/>
<path d="M100.832 95.7139C93.2451 95.7139 86.7441 101.825 86.7441 117.823" stroke="#1F3121" stroke-width="1.64" stroke-linecap="round" stroke-linejoin="round"/>
<rect x="64.2305" y="86" width="31" height="8" rx="3" fill="#B0FFD4" stroke="#1F3121" stroke-width="1.64" stroke-linecap="round" stroke-linejoin="round"/>
<path d="M66.4632 78.6099C66.1699 79.3752 65.7288 80.0751 65.1649 80.6698C64.6011 81.2645 63.9257 81.7424 63.1772 82.076C62.4287 82.4097 61.6218 82.5927 60.8025 82.6145C59.9833 82.6363 59.1678 82.4965 58.4026 82.2032L52.5757 79.9679C51.8106 79.6744 51.1108 79.2332 50.5163 78.6693C49.9217 78.1054 49.444 77.4299 49.1105 76.6814C48.777 75.9329 48.5942 75.1261 48.5725 74.3069C48.5508 73.4878 48.6907 72.6724 48.9841 71.9073C49.2776 71.1422 49.7188 70.4424 50.2827 69.8478C50.8466 69.2532 51.5221 68.7756 52.2706 68.4421C53.0191 68.1085 53.8259 67.9257 54.6451 67.904C55.4642 67.8824 56.2796 68.0222 57.0447 68.3157L62.8716 70.5493C64.4168 71.142 65.6632 72.3242 66.3367 73.8358C67.0103 75.3475 67.0558 77.0648 66.4632 78.6099Z" fill="white" stroke="#1F3121" stroke-width="1.64" stroke-linecap="round" stroke-linejoin="round"/>
<path d="M65.3129 91.9743C64.7202 93.5194 63.5381 94.7658 62.0264 95.4394C60.5148 96.1129 58.7975 96.1584 57.2523 95.5659L51.4254 93.3305C50.6609 93.0371 49.9616 92.5959 49.3675 92.0323C48.7735 91.4686 48.2962 90.7934 47.9631 90.0453C47.63 89.2972 47.4475 88.4908 47.426 87.6721C47.4045 86.8535 47.5445 86.0386 47.8379 85.274C48.1313 84.5095 48.5725 83.8102 49.1362 83.2161C49.6999 82.6221 50.375 82.1449 51.1232 81.8117C51.8713 81.4786 52.6777 81.2961 53.4963 81.2746C54.315 81.2531 55.1298 81.3931 55.8944 81.6865L61.7213 83.9202C63.2646 84.5133 64.5095 85.6945 65.1828 87.2044C65.8562 88.7144 65.903 90.4298 65.3129 91.9743Z" fill="white" stroke="#1F3121" stroke-width="1.64" stroke-linecap="round" stroke-linejoin="round"/>
<line x1="76.0505" y1="25.18" x2="83.4105" y2="25.18" stroke="#1F3121" stroke-width="1.64" stroke-linecap="round" stroke-linejoin="round"/>
<path d="M86.743 117.822C86.7285 115.402 86.9034 112.984 87.2662 110.592C88.9554 99.9496 94.515 95.7151 100.827 95.7135V83.7316V78.0408C100.826 76.5054 101.391 75.0234 102.413 73.8783C103.436 72.7331 104.845 72.0053 106.371 71.8339C107.897 71.6626 109.432 72.0598 110.684 72.9496C111.935 73.8393 112.814 75.1592 113.154 76.6567" stroke="#1F3121" stroke-width="1.64" stroke-linecap="round" stroke-linejoin="round"/>
<mask id="mask0_307_3514" style="mask-type:alpha" maskUnits="userSpaceOnUse" x="16" y="23" width="132" height="132">
<path d="M16.4004 89.3686C16.4004 106.767 23.3118 123.452 35.6142 135.755C47.9166 148.057 64.6022 154.969 82.0004 154.969C99.3986 154.969 116.084 148.057 128.387 135.755C140.689 123.452 147.6 106.767 147.6 89.3686C147.6 71.9704 140.689 55.2847 128.387 42.9823C116.084 30.68 99.3986 23.7686 82.0004 23.7686C64.6022 23.7686 47.9166 30.68 35.6142 42.9823C23.3118 55.2847 16.4004 71.9704 16.4004 89.3686Z" fill="#D9EDFF"/>
</mask>
<g mask="url(#mask0_307_3514)">
<path d="M84 144.5L117.5 121.5L123 128L90 151.5L84 144.5Z" fill="white"/>
<path d="M94.948 147.951L123.064 127.943L118.636 121.729C118.37 121.354 117.965 121.101 117.511 121.024C117.058 120.948 116.592 121.054 116.217 121.321L84.7292 143.73C84.3544 143.997 84.1008 144.401 84.0242 144.855C83.9476 145.308 84.0543 145.774 84.3208 146.149L94.948 156.776" stroke="#1F3121" stroke-width="1.64" stroke-linecap="round" stroke-linejoin="round"/>
<path d="M89 153.067L125.936 127L132 134.367L95.6154 161L89 153.067Z" fill="#B0FFD4"/>
<path d="M102.551 159.811L133.5 138L127.126 127.795C126.832 127.386 126.387 127.11 125.888 127.026C125.388 126.943 124.876 127.059 124.463 127.35L89.8027 151.778C89.3901 152.069 89.1109 152.51 89.0267 153.004C88.9424 153.499 89.0598 154.006 89.3532 154.415L101.051 166" stroke="#1F3121" stroke-width="1.64" stroke-linecap="round" stroke-linejoin="round"/>
</g>
</svg>
