<svg width="251" height="45" viewBox="0 0 251 45" fill="none" xmlns="http://www.w3.org/2000/svg">
<path d="M2.49963 14.7578L2.49963 2.80508" stroke="white" stroke-width="4.29809"/>
<mask id="mask0_150_1131" style="mask-type:alpha" maskUnits="userSpaceOnUse" x="2" y="1" width="35" height="40">
<path d="M2.49963 12.9228L19.6266 1L36.7536 12.9228V40.6233H2.49963V12.9228Z" fill="black"/>
</mask>
<g mask="url(#mask0_150_1131)">
<path d="M47.7384 37.5241C44.6244 35.5519 37.2546 32.1006 28.5354 32.1006C17.6364 32.1006 13.4844 39.0033 3.62338 39.0033C-6.23762 39.0033 -10.3896 35.0589 -10.3896 35.0589" stroke="white" stroke-width="4.29809"/>
<path d="M47.7384 23.685C44.6244 21.7128 37.2546 18.2615 28.5354 18.2615C17.6364 18.2615 13.4844 25.1642 3.62338 25.1642C-6.23762 25.1642 -10.3896 21.2198 -10.3896 21.2198" stroke="white" stroke-width="4.29809"/>
<path d="M-9.35046 32.1019C-6.92846 29.801 0.0953408 25.1992 8.81454 25.1992C19.7135 25.1992 23.8656 32.1019 33.7266 32.1019C43.5876 32.1019 48.7776 28.1575 48.7776 28.1575" stroke="white" stroke-width="4.29809"/>
<path d="M-9.34943 32.1019C-6.92743 29.801 0.0963784 25.1992 8.81558 25.1992C19.7146 25.1992 23.8666 32.1019 33.7276 32.1019C43.5886 32.1019 48.7786 28.1575 48.7786 28.1575" stroke="white" stroke-width="4.29809"/>
</g>
<path d="M2.49963 14.5505L19.6266 2.71729L36.7536 14.5505V42.1613H2.49963V14.5505Z" stroke="white" stroke-width="4.29809"/>
<path d="M73.9159 41.454H87.4052V40.2869C83.7194 40.0552 82.9398 39.772 82.9398 36.2279V14.0276C82.9398 10.432 83.7194 10.2003 87.4052 9.96856V8.81006H73.9159V9.97714C77.6017 10.2088 78.3813 10.4405 78.3813 14.0362V23.3642H62.8584V14.0276C62.8584 10.432 63.6379 10.2003 67.3238 9.96856V8.81006H53.8345V9.97714C57.5203 10.2088 58.2998 10.4405 58.2998 14.0362V36.2364C58.2998 39.7806 57.5203 40.0638 53.8345 40.2955V41.4626H67.3238V40.2955C63.6379 40.0638 62.8584 39.7806 62.8584 36.2364V25.4581H78.3813V36.2364C78.3813 39.7806 77.6017 40.0638 73.9159 40.2955V41.4626V41.454Z" fill="white"/>
<path d="M97.8921 19.717C91.4471 19.717 87.1476 24.5656 87.1476 30.9073C87.1476 37.249 91.4471 42.149 97.8921 42.149C104.337 42.149 108.687 37.3005 108.687 30.9073C108.687 24.5141 104.346 19.717 97.8921 19.717ZM97.8921 40.3297C93.2729 40.3297 91.5397 36.3222 91.5397 30.9073C91.5397 25.4924 93.2813 21.5363 97.8921 21.5363C102.503 21.5363 104.295 25.501 104.295 30.9073C104.295 36.3136 102.511 40.3297 97.8921 40.3297Z" fill="white"/>
<path d="M143.232 28.35C139.55 27.5605 137.096 26.8568 137.096 24.5227C137.096 22.7978 138.606 21.4934 140.769 21.4934C146.347 21.4934 146.175 25.827 149.711 25.827H150.389C150.389 22.772 149.333 19.717 141.481 19.717C136.357 19.717 133.458 22.4717 133.458 25.827C133.458 30.2551 137.491 31.3793 141.455 32.3061C145.137 33.0956 148.398 33.7992 148.398 36.5539C148.398 39.3085 145.549 40.3297 143.077 40.3297C136.161 40.3297 139.121 34.0824 134.29 34.0824H133.02C133.02 39.0768 136.367 42.149 143.223 42.149C147.977 42.149 151.839 39.4973 151.839 35.2924C151.839 30.6241 147.325 29.3626 143.223 28.3414L143.232 28.35Z" fill="white"/>
<path d="M158.464 28.6761H173.619C173.619 22.9351 169.886 19.717 164.428 19.717C157.855 19.717 153.89 24.5656 153.89 30.9073C153.89 37.249 157.906 42.149 165.364 42.149C169.792 42.149 172.778 39.4888 174.408 35.6185L172.684 34.829C171.285 38.1415 168.676 40.1924 165.638 40.1924C160.275 40.1924 158.361 36.3222 158.361 30.9073C158.361 30.1607 158.404 29.4141 158.455 28.6675L158.464 28.6761ZM158.696 26.8139C159.305 23.5959 160.884 21.5449 164.48 21.5449C167.329 21.5449 169.474 23.4071 169.474 26.8139H158.696Z" fill="white"/>
<path d="M213.78 28.6761H228.944C228.944 22.9351 225.211 19.717 219.753 19.717C213.179 19.717 209.215 24.5656 209.215 30.9073C209.215 37.249 213.222 42.149 220.688 42.149C225.116 42.149 228.103 39.4888 229.733 35.6185L228.008 34.829C226.609 38.1415 223.992 40.1924 220.963 40.1924C215.599 40.1924 213.686 36.3222 213.686 30.9073C213.686 30.1607 213.729 29.4141 213.78 28.6675V28.6761ZM214.012 26.8139C214.621 23.5959 216.2 21.5449 219.796 21.5449C222.636 21.5449 224.782 23.4071 224.782 26.8139H214.012Z" fill="white"/>
<path d="M230.359 41.454H240.76V40.287C238.237 40.0553 237.637 39.5404 237.637 37.8584V8.10645C237.637 8.10645 236.873 8.10645 236.195 8.10645C236.195 8.10645 231.143 11.3052 230.368 11.745V12.6804H232.093C233.123 12.6804 233.535 13.1009 233.535 14.2165V37.867C233.535 39.549 232.925 40.0553 230.359 40.2955V41.4626V41.454Z" fill="white"/>
<path d="M191.743 27.0885L197.759 41.4539H200.556L204.641 29.56C205.533 27.3888 206.735 23.7331 210.116 20.721V20.4207H201.303C200.522 23.1239 205.121 22.5746 203.911 25.6468L200.23 36.4251L195.613 25.6468C194.489 22.7549 194.446 21.8195 197.759 21.5878V20.4207H187.169V21.5878C188.937 21.7251 189.778 22.5232 190.619 24.3853L186.285 36.3222L181.668 25.6382C180.553 22.7892 180.553 21.8109 183.857 21.5792V20.4121H173.55V21.5792C175.738 21.8109 176.159 22.8407 177.232 25.6382L183.899 41.4539H186.654L191.734 27.0885H191.743Z" fill="white"/>
<path d="M188.422 20.4209H182.08V21.6395H188.422V20.4209Z" fill="white"/>
<path d="M240.1 41.454H250.5V40.287C247.977 40.0553 247.377 39.5404 247.377 37.8584V8.10645C247.377 8.10645 246.613 8.10645 245.935 8.10645C245.935 8.10645 240.883 11.3052 240.108 11.745V12.6804H241.833C242.863 12.6804 243.275 13.1009 243.275 14.2165V37.867C243.275 39.549 242.665 40.0553 240.1 40.2955V41.4626V41.454Z" fill="white"/>
<path d="M122.65 20.4724V21.6309L124.176 21.8828C125.339 22.1176 125.764 22.3763 125.764 23.4918V37.7555C123.887 38.9655 121.918 39.7636 119.814 39.7636C117.71 39.7636 116.203 38.5965 116.203 35.8418V20.4724H114.831L109.116 20.4896V21.6223L110.766 21.8828C111.786 22.0437 112.18 22.1973 112.18 23.3215V35.8504C112.18 41.0765 115.976 42.1492 118.678 42.1492C121.144 42.1492 123.98 40.9821 125.764 39.8665C126.245 41.6589 127.058 42.0119 129.089 42.0119H130.717V41.3252C129.799 41.3252 129.796 40.5788 129.796 37.8585V20.4724H122.659H122.65Z" fill="white"/>
<rect x="131.877" y="41.1267" width="0.628785" height="0.735375" fill="white"/>
</svg>
