<svg width="301" height="200" viewBox="0 0 301 200" fill="none" xmlns="http://www.w3.org/2000/svg">
<rect width="300" height="200" transform="translate(0.693359)" fill="white"/>
<g filter="url(#filter0_d_4078_23329)">
<path d="M10.6934 34.8032C10.6934 31.0459 13.7392 28 17.4965 28H213.025C216.783 28 219.829 31.0459 219.829 34.8031V172.705H10.6934V34.8032Z" fill="white"/>
<path d="M219.829 173.705H220.829V172.705V34.8031C220.829 30.4936 217.335 27 213.025 27H17.4965C13.1869 27 9.69336 30.4936 9.69336 34.8032V172.705V173.705H10.6934H219.829Z" stroke="#1B311C" stroke-width="2"/>
</g>
<path d="M100.116 62.893C90.3127 107.84 86.0376 124.709 66.2848 166.141C66.2848 166.141 62.2081 179.042 68.3959 160.909C73.7609 145.187 76.4462 126.367 68.7626 110.983C59.7043 92.8471 28.7446 106.349 51.8025 116.536C65.8383 118.83 79.9327 117.865 93.7902 114.93C163.645 94.6932 133.942 48.4384 124.041 76.1087C120.494 86.0204 104.552 132.167 108.777 136.818C113.333 141.836 149.933 109.391 155.486 106.349C161.657 102.967 152.458 131.403 159.932 126.906C167.406 122.409 178.633 109.331 184.272 110.983C189.911 112.635 186.335 126.906 201.599 116.536C216.863 106.165 225.526 126.906 251.517 114.93" stroke="#7DFFB9" stroke-width="5.13913"/>
<line x1="43.4375" y1="129.955" x2="179.692" y2="129.955" stroke="black"/>
<rect x="39.7" y="61.2321" width="39.1351" height="10.0018" rx="4.56756" fill="white" stroke="#1B311C" stroke-width="1.13511"/>
<path d="M18.1934 37.7496C18.1934 36.5072 19.2005 35.5 20.443 35.5H208.944C210.186 35.5 211.193 36.5072 211.193 37.7496V155.25C211.193 156.493 210.186 157.5 208.944 157.5H20.443C19.2005 157.5 18.1934 156.493 18.1934 155.25V37.7496Z" stroke="#1B311C"/>
<path d="M98.3613 35.3937H130.697V38.7465C130.697 39.7968 129.846 40.6483 128.795 40.6483H100.263C99.2128 40.6483 98.3613 39.7968 98.3613 38.7465V35.3937Z" fill="#1B311C"/>
<path d="M30.1934 51.7496C30.1934 50.5072 31.2005 49.5 32.443 49.5H198.054C199.297 49.5 200.304 50.5072 200.304 51.7496V155.043C200.304 156.285 199.297 157.293 198.054 157.293H32.443C31.2005 157.293 30.1934 156.285 30.1934 155.043V51.7496Z" stroke="#1B311C"/>
<mask id="path-9-outside-1_4078_23329" maskUnits="userSpaceOnUse" x="1.69141" y="164.999" width="296" height="17" fill="black">
<rect fill="white" x="1.69141" y="164.999" width="296" height="17"/>
<path d="M32.6914 169.834C32.6914 168.268 33.9605 166.999 35.5261 166.999H292.857C294.422 166.999 295.691 168.268 295.691 169.834V177.165C295.691 178.73 294.422 179.999 292.857 179.999H35.5261C33.9605 179.999 32.6914 178.73 32.6914 177.165V169.834Z"/>
</mask>
<path d="M32.6914 169.834C32.6914 168.268 33.9605 166.999 35.5261 166.999H292.857C294.422 166.999 295.691 168.268 295.691 169.834V177.165C295.691 178.73 294.422 179.999 292.857 179.999H35.5261C33.9605 179.999 32.6914 178.73 32.6914 177.165V169.834Z" fill="white"/>
<path d="M1.89141 169.834C1.89141 167.164 4.05595 164.999 6.72605 164.999H292.857C295.527 164.999 297.691 167.164 297.691 169.834L293.691 169.834C293.691 169.373 293.318 168.999 292.857 168.999H63.4914C63.4914 168.999 63.4914 169.373 63.4914 169.834L1.89141 169.834ZM297.691 177.165C297.691 179.835 295.527 181.999 292.857 181.999H6.72605C4.05595 181.999 1.89141 179.835 1.89141 177.165H63.4914C63.4914 177.626 63.4914 177.999 63.4914 177.999H292.857C293.318 177.999 293.691 177.626 293.691 177.165H297.691ZM6.72605 181.999C4.05595 181.999 1.89141 179.835 1.89141 177.165V169.834C1.89141 167.164 4.05595 164.999 6.72605 164.999L63.4914 168.999C63.4914 168.999 63.4914 169.373 63.4914 169.834V177.165C63.4914 177.626 63.4914 177.999 63.4914 177.999L6.72605 181.999ZM292.857 164.999C295.527 164.999 297.691 167.164 297.691 169.834V177.165C297.691 179.835 295.527 181.999 292.857 181.999V177.999C293.318 177.999 293.691 177.626 293.691 177.165V169.834C293.691 169.373 293.318 168.999 292.857 168.999V164.999Z" fill="#1B311C" mask="url(#path-9-outside-1_4078_23329)"/>
<path d="M148.566 166.523H181.501C181.501 168.838 179.624 170.714 177.309 170.714H152.758C150.443 170.714 148.566 168.838 148.566 166.523Z" fill="#1B311C"/>
<rect x="158.193" y="135.5" width="24" height="8" rx="4" fill="#7DFFB9" stroke="black"/>
<defs>
<filter id="filter0_d_4078_23329" x="1.89021" y="26" width="219.938" height="148.705" filterUnits="userSpaceOnUse" color-interpolation-filters="sRGB">
<feFlood flood-opacity="0" result="BackgroundImageFix"/>
<feColorMatrix in="SourceAlpha" type="matrix" values="0 0 0 0 0 0 0 0 0 0 0 0 0 0 0 0 0 0 127 0" result="hardAlpha"/>
<feOffset dx="-6.80315"/>
<feComposite in2="hardAlpha" operator="out"/>
<feColorMatrix type="matrix" values="0 0 0 0 0.105882 0 0 0 0 0.192157 0 0 0 0 0.109804 0 0 0 1 0"/>
<feBlend mode="normal" in2="BackgroundImageFix" result="effect1_dropShadow_4078_23329"/>
<feBlend mode="normal" in="SourceGraphic" in2="effect1_dropShadow_4078_23329" result="shape"/>
</filter>
</defs>
</svg>
