<svg width="301" height="200" viewBox="0 0 301 200" fill="none" xmlns="http://www.w3.org/2000/svg">
<g clip-path="url(#clip0_4078_23322)">
<rect width="300" height="200" transform="translate(0.693359)" fill="white"/>
<g filter="url(#filter0_d_4078_23322)">
<g clip-path="url(#clip1_4078_23322)">
<rect x="46.6934" y="175" width="105.345" height="23.7876" rx="6" fill="white"/>
<line x1="48.6646" y1="199.132" x2="48.6646" y2="171" stroke="#1B311C" stroke-width="0.83871"/>
<line x1="52.8521" y1="199.132" x2="52.8521" y2="171" stroke="#1B311C" stroke-width="0.83871"/>
<line x1="57.0474" y1="199.132" x2="57.0474" y2="171" stroke="#1B311C" stroke-width="0.83871"/>
<line x1="61.2428" y1="199.132" x2="61.2428" y2="171" stroke="#1B311C" stroke-width="0.83871"/>
<line x1="65.4381" y1="199.132" x2="65.4381" y2="171" stroke="#1B311C" stroke-width="0.83871"/>
<line x1="83.274" y1="199.132" x2="83.274" y2="171" stroke="#1B311C" stroke-width="0.83871"/>
<line x1="87.4693" y1="199.132" x2="87.4693" y2="171" stroke="#1B311C" stroke-width="0.83871"/>
<line x1="91.6646" y1="199.132" x2="91.6646" y2="171" stroke="#1B311C" stroke-width="0.83871"/>
<line x1="95.8521" y1="199.132" x2="95.8521" y2="171" stroke="#1B311C" stroke-width="0.83871"/>
<line x1="100.047" y1="199.132" x2="100.047" y2="171" stroke="#1B311C" stroke-width="0.83871"/>
<line x1="104.243" y1="199.132" x2="104.243" y2="171" stroke="#1B311C" stroke-width="0.83871"/>
<line x1="108.438" y1="199.132" x2="108.438" y2="171" stroke="#1B311C" stroke-width="0.83871"/>
<line x1="126.274" y1="199.132" x2="126.274" y2="171" stroke="#1B311C" stroke-width="0.83871"/>
<line x1="130.469" y1="199.132" x2="130.469" y2="171" stroke="#1B311C" stroke-width="0.83871"/>
<line x1="134.665" y1="199.132" x2="134.665" y2="171" stroke="#1B311C" stroke-width="0.83871"/>
<line x1="138.852" y1="199.132" x2="138.852" y2="171" stroke="#1B311C" stroke-width="0.83871"/>
<line x1="143.047" y1="199.132" x2="143.047" y2="171" stroke="#1B311C" stroke-width="0.83871"/>
<line x1="147.243" y1="199.132" x2="147.243" y2="171" stroke="#1B311C" stroke-width="0.83871"/>
<line x1="151.438" y1="199.132" x2="151.438" y2="171" stroke="#1B311C" stroke-width="0.83871"/>
</g>
<rect x="46.1934" y="174.5" width="106.345" height="24.7876" rx="6.5" stroke="#1B311C"/>
</g>
<g filter="url(#filter1_d_4078_23322)">
<g clip-path="url(#clip2_4078_23322)">
<rect x="31.6934" y="151.461" width="105.345" height="22.6549" rx="6" fill="white"/>
<line x1="32.3105" y1="175.132" x2="32.3105" y2="147" stroke="#1B311C"/>
<line x1="36.5059" y1="175.132" x2="36.5059" y2="147" stroke="#1B311C"/>
<line x1="40.7012" y1="175.132" x2="40.7012" y2="147" stroke="#1B311C"/>
<line x1="53.5371" y1="175.132" x2="53.5371" y2="147" stroke="#1B311C"/>
<line x1="57.7324" y1="175.132" x2="57.7324" y2="147" stroke="#1B311C"/>
<line x1="61.9277" y1="175.132" x2="61.9277" y2="147" stroke="#1B311C"/>
<line x1="66.1152" y1="175.132" x2="66.1152" y2="147" stroke="#1B311C"/>
<line x1="70.3105" y1="175.132" x2="70.3105" y2="147" stroke="#1B311C"/>
<line x1="74.5059" y1="175.132" x2="74.5059" y2="147" stroke="#1B311C"/>
<line x1="78.7012" y1="175.132" x2="78.7012" y2="147" stroke="#1B311C"/>
<line x1="91.5371" y1="175.132" x2="91.5371" y2="147" stroke="#1B311C"/>
<line x1="95.7324" y1="175.132" x2="95.7324" y2="147" stroke="#1B311C"/>
<line x1="99.9277" y1="175.132" x2="99.9277" y2="147" stroke="#1B311C"/>
<line x1="104.115" y1="175.132" x2="104.115" y2="147" stroke="#1B311C"/>
<line x1="108.311" y1="175.132" x2="108.311" y2="147" stroke="#1B311C"/>
<line x1="112.506" y1="175.132" x2="112.506" y2="147" stroke="#1B311C"/>
<line x1="116.701" y1="175.132" x2="116.701" y2="147" stroke="#1B311C"/>
<line x1="129.537" y1="175.132" x2="129.537" y2="147" stroke="#1B311C"/>
<line x1="133.732" y1="175.132" x2="133.732" y2="147" stroke="#1B311C"/>
</g>
<rect x="31.1934" y="150.961" width="106.345" height="23.6549" rx="6.5" stroke="#1B311C"/>
</g>
<path d="M83.1754 150.532C117.792 150.532 145.665 118.973 145.665 80.2913C145.665 41.6098 117.792 10.0507 83.1754 10.0507C48.5583 10.0507 20.6855 41.6098 20.6855 80.2913C20.6855 118.973 48.5583 150.532 83.1754 150.532Z" fill="#FDF6F1" stroke="#1B311C" stroke-width="1.93767"/>
<path d="M78.5688 150.532H79.5377V149.563V11.0195V10.0507H78.5688H68.6383C34.0212 10.0507 6.14835 41.6098 6.14835 80.2913C6.14835 118.973 34.0212 150.532 68.6383 150.532H78.5688Z" fill="#1B311C" stroke="#1B311C" stroke-width="1.93767"/>
<mask id="mask0_4078_23322" style="mask-type:alpha" maskUnits="userSpaceOnUse" x="4" y="11" width="124" height="140">
<path d="M126.767 81.2614C126.767 119.095 99.5517 149.564 66.2144 149.564C32.8772 149.564 5.6622 119.095 5.6622 81.2614C5.6622 43.4275 32.8772 12.9585 66.2144 12.9585C99.5517 12.9585 126.767 43.4275 126.767 81.2614Z" fill="#D9D9D9" stroke="#1B311C" stroke-width="1.93767"/>
</mask>
<g mask="url(#mask0_4078_23322)">
<line x1="82.6836" y1="14.6513" x2="-16.6221" y2="14.6513" stroke="#F0FFF7" stroke-width="1.45325"/>
<line x1="82.6836" y1="21.4366" x2="-16.6221" y2="21.4366" stroke="#F0FFF7" stroke-width="1.45325"/>
<line x1="82.6836" y1="29.1895" x2="-16.6221" y2="29.1895" stroke="#F0FFF7" stroke-width="1.45325"/>
<line x1="82.6836" y1="29.1895" x2="-16.6221" y2="29.1895" stroke="#F0FFF7" stroke-width="1.45325"/>
<line x1="82.6836" y1="41.7799" x2="-16.6221" y2="41.7799" stroke="#F0FFF7" stroke-width="1.45325"/>
<line x1="82.6836" y1="50.5002" x2="-16.6221" y2="50.5003" stroke="#F0FFF7" stroke-width="1.45325"/>
<line x1="82.6836" y1="75.2058" x2="-16.6221" y2="75.2058" stroke="#F0FFF7" stroke-width="1.45325"/>
<line x1="82.6836" y1="104.274" x2="-16.6221" y2="104.274" stroke="#F0FFF7" stroke-width="1.45325"/>
<line x1="82.6836" y1="117.352" x2="-16.6221" y2="117.352" stroke="#F0FFF7" stroke-width="1.45325"/>
<line x1="82.6836" y1="137.212" x2="-16.6221" y2="137.212" stroke="#F0FFF7" stroke-width="1.45325"/>
<line x1="82.6836" y1="143.509" x2="-16.6221" y2="143.509" stroke="#F0FFF7" stroke-width="1.45325"/>
<line x1="82.6836" y1="147.383" x2="-16.6221" y2="147.383" stroke="#F0FFF7" stroke-width="1.45325"/>
</g>
<path d="M81.77 41.059H86.6629V48.7867C91.7464 49.7628 96.6392 52.7726 100.325 59.2802L95.2413 64.4862C92.6995 60.175 89.7765 57.8973 86.6629 56.8398V75.061L86.9806 75.1424C94.9871 76.8506 101.087 80.5111 101.087 91.33C101.087 101.498 95.4319 107.924 86.6629 109.307V116.628H81.77V109.551C73.8906 109.307 68.8706 106.623 63.7871 98.0816L68.9342 92.5501C72.6832 98.8137 76.6865 101.254 81.77 101.579V82.8701L77.5126 81.894C69.9509 80.1857 64.9944 75.7931 64.9944 66.0318C64.9944 55.1316 72.302 48.624 81.77 48.38V41.059ZM72.0478 65.381C72.0478 70.4244 74.526 72.458 79.6095 73.5155L81.77 74.0036V56.1891C75.924 56.4331 72.0478 60.0936 72.0478 65.381ZM86.6629 101.335C91.6828 100.278 93.9704 96.7801 93.9704 92.2248C93.9704 87.1814 91.3016 85.1478 86.6629 84.0089V101.335Z" fill="black"/>
<path d="M83.1656 150.571C117.803 150.571 145.687 118.995 145.687 80.2995C145.687 41.6043 117.803 10.0277 83.1656 10.0277C48.5279 10.0277 20.6445 41.6043 20.6445 80.2995C20.6445 118.995 48.5279 150.571 83.1656 150.571Z" fill="white" stroke="#1B311C" stroke-width="2"/>
<path d="M83.2781 140.371C112.823 140.371 136.679 113.422 136.679 80.3032C136.679 47.1843 112.823 20.2354 83.2781 20.2354C53.733 20.2354 29.8769 47.1843 29.8769 80.3032C29.8769 113.422 53.733 140.371 83.2781 140.371Z" fill="#F5FEF6" stroke="#1B311C" stroke-width="0.968836"/>
<path d="M83.1684 135.52C110.244 135.52 132.095 110.739 132.095 80.2967C132.095 49.8548 110.244 25.073 83.1684 25.073C56.0932 25.073 34.2421 49.8548 34.2421 80.2967C34.2421 110.739 56.0932 135.52 83.1684 135.52Z" stroke="#1B311C" stroke-width="0.968836"/>
<path d="M81.77 41.5462H81.2856V42.0306V48.8847C76.6349 49.1063 72.4962 50.8224 69.4886 53.8394C66.3773 56.9607 64.51 61.4407 64.51 67.0034C64.51 71.9677 65.772 75.6292 68.0511 78.2709C70.3256 80.9073 73.5634 82.4699 77.4047 83.3379C77.405 83.3379 77.4054 83.338 77.4058 83.3381L81.2856 84.2277V102.027C79.0277 101.812 77.0062 101.145 75.1244 99.8628C73.0947 98.4803 71.2007 96.3652 69.3498 93.273L69.0187 92.7198L68.5795 93.1918L63.4325 98.7232L63.1852 98.989L63.3708 99.3009C65.9355 103.61 68.5106 106.487 71.4762 108.312C74.3291 110.067 77.5011 110.823 81.2856 110.989V117.6V118.084H81.77H86.6629H87.1473V117.6V110.689C91.4502 109.926 95.0219 107.95 97.5375 104.892C100.131 101.74 101.572 97.4764 101.572 92.3016C101.572 86.7947 100.015 83.0383 97.3758 80.4457C94.7668 77.883 91.1577 76.5164 87.1473 75.6543V58.5068C89.898 59.6089 92.5094 61.7779 94.824 65.7039L95.1455 66.2493L95.5879 65.7963L100.671 60.5902L100.926 60.3298L100.746 60.0131C97.0872 53.5522 92.2324 50.4441 87.1473 49.3621V42.0306V41.5462H86.6629H81.77ZM79.7162 74.0146L79.7163 74.0145L79.7082 74.0128C77.1978 73.4906 75.4212 72.7431 74.267 71.5742C73.1295 70.4222 72.5322 68.7931 72.5322 66.3526C72.5322 63.8338 73.4523 61.7269 75.0494 60.2175C76.5539 58.7954 78.6872 57.8781 81.2856 57.6749V74.3691L79.7162 74.0146ZM93.486 93.1964C93.486 95.3941 92.9347 97.2969 91.8136 98.77C90.7879 100.118 89.2577 101.142 87.1473 101.695V85.6067C89.1377 86.1527 90.659 86.8834 91.709 87.9622C92.8461 89.1304 93.486 90.7656 93.486 93.1964Z" fill="#7DFFB9" stroke="#031603" stroke-width="0.968836"/>
<path d="M144.475 26C147.192 40.62 165.193 53 176.322 48.8C158.948 58.5 147.693 78 183.553 85.34C153.193 85.34 153.193 113 162.948 124.47C148.475 118 142.441 131.35 136.698 138.23" stroke="#7DFFB9" stroke-width="4"/>
</g>
<defs>
<filter id="filter0_d_4078_23322" x="15.3376" y="174" width="137.701" height="25.7876" filterUnits="userSpaceOnUse" color-interpolation-filters="sRGB">
<feFlood flood-opacity="0" result="BackgroundImageFix"/>
<feColorMatrix in="SourceAlpha" type="matrix" values="0 0 0 0 0 0 0 0 0 0 0 0 0 0 0 0 0 0 127 0" result="hardAlpha"/>
<feOffset dx="-30.3558"/>
<feComposite in2="hardAlpha" operator="out"/>
<feColorMatrix type="matrix" values="0 0 0 0 0.105882 0 0 0 0 0.192157 0 0 0 0 0.109804 0 0 0 1 0"/>
<feBlend mode="normal" in2="BackgroundImageFix" result="effect1_dropShadow_4078_23322"/>
<feBlend mode="normal" in="SourceGraphic" in2="effect1_dropShadow_4078_23322" result="shape"/>
</filter>
<filter id="filter1_d_4078_23322" x="0.337608" y="150.461" width="137.701" height="24.6549" filterUnits="userSpaceOnUse" color-interpolation-filters="sRGB">
<feFlood flood-opacity="0" result="BackgroundImageFix"/>
<feColorMatrix in="SourceAlpha" type="matrix" values="0 0 0 0 0 0 0 0 0 0 0 0 0 0 0 0 0 0 127 0" result="hardAlpha"/>
<feOffset dx="-30.3558"/>
<feComposite in2="hardAlpha" operator="out"/>
<feColorMatrix type="matrix" values="0 0 0 0 0.105882 0 0 0 0 0.192157 0 0 0 0 0.109804 0 0 0 1 0"/>
<feBlend mode="normal" in2="BackgroundImageFix" result="effect1_dropShadow_4078_23322"/>
<feBlend mode="normal" in="SourceGraphic" in2="effect1_dropShadow_4078_23322" result="shape"/>
</filter>
<clipPath id="clip0_4078_23322">
<rect width="300" height="200" fill="white" transform="translate(0.693359)"/>
</clipPath>
<clipPath id="clip1_4078_23322">
<rect x="46.6934" y="175" width="105.345" height="23.7876" rx="6" fill="white"/>
</clipPath>
<clipPath id="clip2_4078_23322">
<rect x="31.6934" y="151.461" width="105.345" height="22.6549" rx="6" fill="white"/>
</clipPath>
</defs>
</svg>
