<svg width="300" height="200" viewBox="0 0 300 200" fill="none" xmlns="http://www.w3.org/2000/svg">
<rect width="300" height="200" fill="white"/>
<g filter="url(#filter0_d_4078_23315)">
<rect x="18" y="20" width="225" height="159" fill="white"/>
<rect x="17" y="19" width="227" height="161" stroke="#1B311C" stroke-width="2"/>
</g>
<g filter="url(#filter1_i_4078_23315)">
<path d="M43 44H219V155H43V44Z" fill="white"/>
</g>
<path d="M43 43.4324H42.4324V44V155V155.568H43H219H219.568V155V44V43.4324H219H43Z" stroke="#1B311C" stroke-width="1.13511"/>
<g clip-path="url(#clip0_4078_23315)">
<path d="M148.853 -69.4307C129.879 -74.9213 111.181 -80.5616 91.1593 -81.2375C67.74 -82.0282 50.7456 -80.7891 31.1858 -67.2249C20.1718 -59.587 13.2586 -49.4736 13.9767 -36.0951C16.3497 8.11003 101.634 25.7649 137.25 33.7909C154.494 37.6766 171.819 41.006 188.079 48.1971C199.435 53.2193 209.349 59.6211 216.92 69.5641C221.174 75.1513 226.004 82.2861 226.421 89.5669C226.668 93.8663 224.445 97.0382 220.813 99.2463C209.226 106.291 194.301 105.119 181.545 103.376C159.703 100.392 138.093 94.8315 117.266 87.692C97.6058 80.9528 79.1338 71.5783 60.011 63.5568C48.3148 58.6506 36.311 54.0963 23.9176 51.2527C17.3644 49.7492 7.7116 47.6338 2.05622 52.9616C-4.31573 58.9645 -3.7752 69.0436 -1.35086 76.6532C4.19104 94.0485 17.1294 109.2 29.9539 121.682C62.1119 152.98 102.671 173.324 146.192 183.454C158.368 186.287 170.716 187.759 183.013 189.881C193.34 191.664 204.847 193.418 213.674 199.562C217.057 201.917 220.308 205.466 220.542 209.794C220.887 216.173 214.327 220.357 209.451 222.891C197.553 229.076 184.151 230.747 170.917 231.094C153.217 231.558 135.618 229.323 118.123 226.941C104.537 225.092 90.8847 222.649 77.1818 221.781C70.1989 221.339 61.6009 221.422 56.2686 226.883C52.759 230.478 52.4864 235.655 52.9648 240.335C53.9683 250.152 58.4942 259.373 64.4034 267.152C75.7447 282.082 91.5537 291.505 109.297 296.756C109.974 296.956 122.399 300.072 121.932 300.779" stroke="#1B311C" stroke-linecap="round"/>
<path d="M148.853 -69.4307C129.879 -74.9213 111.181 -80.5616 91.1593 -81.2375C67.74 -82.0282 50.7456 -80.7891 31.1858 -67.2249C20.1718 -59.587 13.2586 -49.4736 13.9767 -36.0951C16.3497 8.11003 101.634 25.7649 137.25 33.7909C154.494 37.6766 171.819 41.006 188.079 48.1971C199.435 53.2193 209.349 59.6211 216.92 69.5641C221.174 75.1513 226.004 82.2861 226.421 89.5669C226.668 93.8663 224.445 97.0382 220.813 99.2463C209.226 106.291 194.301 105.119 181.545 103.376C159.703 100.392 138.093 94.8315 117.266 87.692C97.6058 80.9528 79.1338 71.5783 60.011 63.5568C48.3148 58.6506 36.311 54.0963 23.9176 51.2527C17.3644 49.7492 7.7116 47.6338 2.05622 52.9616C-4.31573 58.9645 -3.7752 69.0436 -1.35086 76.6532C4.19104 94.0485 17.1294 109.2 29.9539 121.682C62.1119 152.98 102.671 173.324 146.192 183.454C158.368 186.287 170.716 187.759 183.013 189.881C193.34 191.664 204.847 193.418 213.674 199.562C217.057 201.917 220.308 205.466 220.542 209.794C220.887 216.173 214.327 220.357 209.451 222.891C197.553 229.076 184.151 230.747 170.917 231.094C153.217 231.558 135.618 229.323 118.123 226.941C104.537 225.092 90.8847 222.649 77.1818 221.781C70.1989 221.339 61.6009 221.422 56.2686 226.883C52.759 230.478 52.4864 235.655 52.9648 240.335C53.9683 250.152 58.4942 259.373 64.4034 267.152C75.7447 282.082 91.5537 291.505 109.297 296.756C109.974 296.956 122.399 300.072 121.932 300.779" stroke="#1B311C" stroke-linecap="round"/>
<path d="M208.838 -29.4346C189.863 -34.9252 171.165 -40.5655 151.144 -41.2415C127.724 -42.0321 110.73 -40.793 91.1702 -27.2288C80.1562 -19.5909 73.2429 -9.47755 73.9611 3.90095C76.334 48.1061 161.618 65.761 197.235 73.787C214.478 77.6727 231.803 81.0021 248.064 88.1932C259.42 93.2154 269.333 99.6172 276.904 109.56C281.158 115.147 285.988 122.282 286.405 129.563C286.652 133.862 284.429 137.034 280.797 139.242C269.211 146.287 254.285 145.115 241.53 143.372C219.687 140.388 198.078 134.828 177.25 127.688C157.59 120.949 139.118 111.574 119.995 103.553C108.299 98.6467 96.2954 94.0924 83.902 91.2488C77.3488 89.7453 67.696 87.6298 62.0406 92.9577C55.6686 98.9606 56.2092 109.04 58.6335 116.649C64.1754 134.045 77.1138 149.196 89.9383 161.678C122.096 192.976 162.655 213.32 206.177 223.45C218.352 226.283 230.7 227.755 242.997 229.878C253.325 231.66 264.831 233.414 273.659 239.558C277.041 241.913 280.292 245.462 280.526 249.79C280.871 256.17 274.311 260.353 269.436 262.887C257.537 269.072 244.135 270.743 230.902 271.09C213.201 271.554 195.603 269.319 178.107 266.938C164.521 265.088 150.869 262.645 137.166 261.777C130.183 261.335 121.585 261.418 116.253 266.88C112.743 270.474 112.471 275.652 112.949 280.331C113.953 290.148 118.479 299.369 124.388 307.148C135.729 322.078 151.538 331.501 169.282 336.752C169.958 336.952 182.383 340.068 181.916 340.775" stroke="#1B311C" stroke-linecap="round"/>
<path d="M158.998 -59.3466C148.937 -60.4089 139.475 -63.9745 129.387 -64.7336C112.938 -65.9714 38.7214 -67.7089 48.1557 -36.3808C58.5463 -1.87729 110.089 -6.04989 138.002 1.14929C143.352 2.52912 148.839 3.40161 154.123 5.03139C159.209 6.60024 164.238 8.28899 169.209 10.1801C179.01 13.9081 188.94 18.2863 197.973 23.6247C207.354 29.1687 216.876 35.5637 224.821 43.0653C231.745 49.6028 236.616 57.2944 241.299 65.4902C246.317 74.2735 251.342 83.8189 251.664 94.1631C251.848 100.065 249.928 105.589 245.576 109.731C241.161 113.934 235.415 117.957 229.709 120.17C221.705 123.275 212.598 123.796 204.169 124.75C199.758 125.25 195.279 125.774 190.896 126.468C185.582 127.31 180.105 127.831 174.885 129.137C168.105 130.835 157.826 134.291 155.421 141.816C154.5 144.695 155.057 148.326 156.272 151.023C159.247 157.623 165.07 160.522 171.259 163.555C178.509 167.108 185.727 170.72 192.964 174.298C200.488 178.018 208.746 180.239 216.87 182.247C227.28 184.821 238.433 186.24 248.467 190.16C252.784 191.847 255.598 196.291 256.143 200.785C256.696 205.34 254.856 211.11 252.413 214.849C242.733 229.665 226.84 237.752 211.155 244.818C199.219 250.195 186.226 251.084 173.264 251.272C163.948 251.408 154.828 250.11 145.544 249.827C137.405 249.578 129.267 247.465 121.109 248.695C113.321 249.87 106.945 252.474 100.777 257.411C97.4538 260.07 94.7067 263.154 92.5711 266.815C92.4048 267.1 92.3976 267.46 92.4707 267.766C92.9707 269.858 92.6438 271.939 92.3592 274.04C91.5225 280.215 90.3722 287.949 95.5147 292.509" stroke="#1B311C" stroke-linecap="round"/>
<line x1="64" y1="121.5" x2="193" y2="121.5" stroke="black"/>
<path d="M104.48 93.5C97.4637 107.645 94.5959 112.35 86.5911 125.972C85.34 128.101 83.9978 130.175 82.7022 132.278C82.0349 133.361 81.3246 134.418 80.7022 135.528C80.4708 135.94 79.6752 136.796 80.1467 136.833C81.3135 136.927 87.4829 128.314 87.7022 128.056C93.0546 121.761 98.57 115.612 104.48 109.833C104.833 109.488 110.386 103.234 111.869 103.778C113.015 104.198 110.813 111.81 110.786 111.944C110.395 113.856 108.642 118.844 111.258 120.333C115.707 122.867 124.219 120.127 128.647 119.167C135.811 117.613 143.078 115.008 150.369 114.111C158.836 113.069 168.66 118.5 177.48 118.5" stroke="#1B311C" stroke-linecap="round"/>
<rect x="193.27" y="112.793" width="45.3773" height="14.4591" transform="rotate(-45 193.27 112.793)" fill="#7DFFB9" stroke="black"/>
<rect x="140.707" y="160.715" width="45.3773" height="14.4591" transform="rotate(-45 140.707 160.715)" fill="#7DFFB9" stroke="black"/>
<path d="M192.541 106.544L199.549 101.355L199.259 110.07L199.239 110.674L199.835 110.581L208.452 109.243L204.145 116.825L203.847 117.349L204.418 117.545L212.669 120.364L205.333 125.076L204.825 125.402L205.24 125.841L211.236 132.172L202.549 132.934L201.948 132.987L202.112 133.568L204.479 141.96L196.433 138.599L195.876 138.366L195.751 138.957L193.947 147.488L188.385 140.772L188 140.308L187.615 140.772L182.053 147.488L180.249 138.957L180.124 138.366L179.567 138.599L171.521 141.96L173.888 133.568L174.052 132.987L173.451 132.934L164.764 132.172L170.76 125.841L171.175 125.402L170.667 125.076L163.331 120.364L171.582 117.545L172.153 117.349L171.855 116.825L167.548 109.243L176.165 110.581L176.761 110.674L176.741 110.07L176.451 101.355L183.459 106.544L183.944 106.904L184.207 106.36L188 98.5087L191.793 106.36L192.056 106.904L192.541 106.544Z" fill="#7DFFB9" stroke="black"/>
</g>
<line x1="18.3536" y1="19.6464" x2="42.3952" y2="43.6881" stroke="black"/>
<line x1="43.3145" y1="155.397" x2="18.3145" y2="180.397" stroke="black"/>
<line y1="-0.5" x2="33.9411" y2="-0.5" transform="matrix(-0.707107 0.707107 0.707107 0.707107 243 20)" stroke="black"/>
<line x1="219.354" y1="155.646" x2="243.354" y2="179.646" stroke="black"/>
<rect x="109.432" y="56.4324" width="39.1351" height="10.0018" rx="4.56756" fill="white" stroke="#1B311C" stroke-width="1.13511"/>
<rect x="98.4324" y="73.2991" width="61.1351" height="10.1351" rx="4.56756" fill="white" stroke="#1B311C" stroke-width="1.13511"/>
<defs>
<filter id="filter0_d_4078_23315" x="1" y="18" width="244" height="163" filterUnits="userSpaceOnUse" color-interpolation-filters="sRGB">
<feFlood flood-opacity="0" result="BackgroundImageFix"/>
<feColorMatrix in="SourceAlpha" type="matrix" values="0 0 0 0 0 0 0 0 0 0 0 0 0 0 0 0 0 0 127 0" result="hardAlpha"/>
<feOffset dx="-15"/>
<feComposite in2="hardAlpha" operator="out"/>
<feColorMatrix type="matrix" values="0 0 0 0 0.105882 0 0 0 0 0.192157 0 0 0 0 0.109804 0 0 0 1 0"/>
<feBlend mode="normal" in2="BackgroundImageFix" result="effect1_dropShadow_4078_23315"/>
<feBlend mode="normal" in="SourceGraphic" in2="effect1_dropShadow_4078_23315" result="shape"/>
</filter>
<filter id="filter1_i_4078_23315" x="41.8652" y="42.8649" width="178.27" height="113.27" filterUnits="userSpaceOnUse" color-interpolation-filters="sRGB">
<feFlood flood-opacity="0" result="BackgroundImageFix"/>
<feBlend mode="normal" in="SourceGraphic" in2="BackgroundImageFix" result="shape"/>
<feColorMatrix in="SourceAlpha" type="matrix" values="0 0 0 0 0 0 0 0 0 0 0 0 0 0 0 0 0 0 127 0" result="hardAlpha"/>
<feOffset dx="-5.93696"/>
<feComposite in2="hardAlpha" operator="arithmetic" k2="-1" k3="1"/>
<feColorMatrix type="matrix" values="0 0 0 0 0.105882 0 0 0 0 0.192157 0 0 0 0 0.109804 0 0 0 1 0"/>
<feBlend mode="normal" in2="shape" result="effect1_innerShadow_4078_23315"/>
</filter>
<clipPath id="clip0_4078_23315">
<rect width="172" height="112" fill="white" transform="translate(42 43)"/>
</clipPath>
</defs>
</svg>
