<svg width="1142" height="763" viewBox="0 0 1142 763" fill="none" xmlns="http://www.w3.org/2000/svg">
<g filter="url(#filter0_d_4254_13830)">
<path d="M193.627 292.845C196.807 281.692 206.998 274 218.597 274V274C235.841 274 248.295 290.501 243.567 307.085L119.373 742.655C116.193 753.808 106.002 761.5 94.4034 761.5V761.5C77.1585 761.5 64.7049 744.999 69.4334 728.415L193.627 292.845Z" fill="white"/>
<path d="M119.854 742.792L244.047 307.222C248.867 290.319 236.174 273.5 218.597 273.5C206.775 273.5 196.387 281.34 193.146 292.708L68.9526 728.278C64.133 745.181 76.8265 762 94.4034 762C106.225 762 116.613 754.16 119.854 742.792Z" stroke="#1B311C"/>
</g>
<path d="M87.5 660C174 387 187 324 246.5 311.5H179.5C163.167 334.833 104.269 605.5 87.5 660Z" fill="#1B311C"/>
<g filter="url(#filter1_d_4254_13830)">
<path d="M244.744 310.369C240.795 293.861 253.309 278 270.282 278V278C282.431 278 292.994 286.334 295.82 298.149L383.256 663.631C387.205 680.139 374.691 696 357.718 696V696C345.569 696 335.006 687.666 332.18 675.851L244.744 310.369Z" fill="white"/>
<path d="M383.743 663.515L296.307 298.033C293.426 285.993 282.662 277.5 270.282 277.5C252.985 277.5 240.233 293.663 244.257 310.485L331.693 675.967C334.574 688.007 345.338 696.5 357.718 696.5C375.015 696.5 387.767 680.337 383.743 663.515Z" stroke="#1B311C"/>
</g>
<path d="M268.999 411.5C256.599 365.5 282.499 325.667 296.999 311.5H235.5C238.5 336.667 249.399 391.9 268.999 411.5Z" fill="#1B311C"/>
<g filter="url(#filter2_d_4254_13830)">
<path d="M911.627 292.845C914.807 281.692 924.998 274 936.597 274V274C953.841 274 966.295 290.501 961.567 307.085L837.373 742.655C834.193 753.808 824.002 761.5 812.403 761.5V761.5C795.159 761.5 782.705 744.999 787.433 728.415L911.627 292.845Z" fill="white"/>
<path d="M837.854 742.792L962.047 307.222C966.867 290.319 954.174 273.5 936.597 273.5C924.775 273.5 914.387 281.34 911.146 292.708L786.953 728.278C782.133 745.181 794.826 762 812.403 762C824.225 762 834.613 754.16 837.854 742.792Z" stroke="#1B311C"/>
</g>
<path d="M805.5 660C892 387 905 324 964.5 311.5H897.5C881.167 334.833 822.269 605.5 805.5 660Z" fill="#1B311C"/>
<g filter="url(#filter3_d_4254_13830)">
<path d="M962.744 310.369C958.795 293.861 971.309 278 988.282 278V278C1000.43 278 1010.99 286.334 1013.82 298.149L1101.26 663.631C1105.21 680.139 1092.69 696 1075.72 696V696C1063.57 696 1053.01 687.666 1050.18 675.851L962.744 310.369Z" fill="white"/>
<path d="M1101.74 663.515L1014.31 298.033C1011.43 285.993 1000.66 277.5 988.282 277.5C970.985 277.5 958.233 293.663 962.257 310.485L1049.69 675.967C1052.57 688.007 1063.34 696.5 1075.72 696.5C1093.01 696.5 1105.77 680.337 1101.74 663.515Z" stroke="#1B311C"/>
</g>
<path d="M986.999 411.5C974.599 365.5 1000.5 325.667 1015 311.5H953.5C956.5 336.667 967.399 391.9 986.999 411.5Z" fill="#1B311C"/>
<mask id="path-13-outside-1_4254_13830" maskUnits="userSpaceOnUse" x="0" y="255" width="1142" height="57" fill="black">
<rect fill="white" y="255" width="1142" height="57"/>
<path d="M80 276.878C80 265.9 88.8998 257 99.8783 257H1120.12C1131.1 257 1140 265.9 1140 276.878V290.122C1140 301.1 1131.1 310 1120.12 310H99.8783C88.8998 310 80 301.1 80 290.122V276.878Z"/>
</mask>
<path d="M80 276.878C80 265.9 88.8998 257 99.8783 257H1120.12C1131.1 257 1140 265.9 1140 276.878V290.122C1140 301.1 1131.1 310 1120.12 310H99.8783C88.8998 310 80 301.1 80 290.122V276.878Z" fill="#308546"/>
<path d="M0.0599976 276.878C0.0599976 264.985 9.70145 255.343 21.5948 255.343H1120.12C1132.02 255.343 1141.66 264.985 1141.66 276.878L1138.34 276.878C1138.34 266.815 1130.19 258.657 1120.12 258.657H159.94C159.94 258.657 159.94 266.815 159.94 276.878L0.0599976 276.878ZM1141.66 290.122C1141.66 302.015 1132.02 311.657 1120.12 311.657H21.5948C9.70145 311.657 0.0599976 302.015 0.0599976 290.122L159.94 290.122C159.94 300.185 159.94 308.343 159.94 308.343H1120.12C1130.19 308.343 1138.34 300.185 1138.34 290.122L1141.66 290.122ZM21.5948 311.657C9.70145 311.657 0.0599976 302.015 0.0599976 290.122V276.878C0.0599976 264.985 9.70145 255.343 21.5948 255.343L159.94 258.657C159.94 258.657 159.94 266.815 159.94 276.878V290.122C159.94 300.185 159.94 308.343 159.94 308.343L21.5948 311.657ZM1120.12 255.343C1132.02 255.343 1141.66 264.985 1141.66 276.878V290.122C1141.66 302.015 1132.02 311.657 1120.12 311.657L1120.12 308.343C1130.19 308.343 1138.34 300.185 1138.34 290.122V276.878C1138.34 266.815 1130.19 258.657 1120.12 258.657L1120.12 255.343Z" fill="#1B311C" mask="url(#path-13-outside-1_4254_13830)"/>
<g clip-path="url(#clip0_4254_13830)">
<rect x="80" y="257" width="1060" height="53" rx="24" fill="#308546"/>
<path d="M279.955 224C234.929 267.271 189.93 309.549 156.43 363.297C117.246 426.167 93.7749 474.655 99.9936 549.65C103.495 591.878 120.257 626.793 158.021 645.974C282.802 709.354 465.951 503.762 544.226 418.933C582.122 377.864 618.624 335.693 664.016 302.541C695.717 279.387 728.915 262.365 768.106 257.354C790.128 254.538 817.297 252.593 837.891 262.959C850.052 269.08 855.223 280.179 855.527 293.614C856.499 336.473 829.696 375.485 804.762 407.654C762.065 462.739 712.682 513.115 660.212 558.853C610.683 602.027 555.818 637.783 503.627 677.46C471.706 701.727 440.262 727.394 412.886 756.831C398.41 772.396 377.36 795.481 383.008 819.387C389.371 846.321 417.821 860.774 442.487 866.165C498.874 878.489 560.81 867.016 615.256 851.633C751.781 813.062 871.595 734.175 968.124 631.027C995.128 602.172 1018.68 570.691 1043.93 540.377C1065.13 514.919 1088.12 486.187 1118.9 471.732C1130.69 466.193 1145.55 462.902 1157.77 469.102C1175.78 478.242 1176.87 502.816 1176.1 520.171C1174.22 562.524 1157.61 601.86 1137.64 638.639C1110.93 687.835 1077 732.486 1042.82 776.622C1016.28 810.897 988.01 844.412 963.975 880.558C951.726 898.978 938.361 922.649 944.886 945.882C949.18 961.173 962.924 970.104 976.493 976.191C1004.96 988.962 1037.36 991.145 1068 987.263C1126.8 979.812 1177.59 951.424 1220.02 911.144C1221.63 909.609 1249.8 880.515 1251 882.911" stroke="#EBFDEF" stroke-width="3" stroke-linecap="round"/>
<path d="M316.003 235C297.191 260.866 272.472 281.136 254.447 307.556C225.056 350.636 102.983 551.087 203.669 574.778C314.562 600.87 384.613 453.156 448.447 388.111C460.682 375.644 471.744 362 484.558 350.111C496.893 338.667 509.466 327.567 522.503 316.945C548.202 296.005 575.885 275.738 604.78 259.445C634.789 242.524 667.349 226.562 700.447 216.667C729.292 208.043 758.05 206.866 787.892 207C819.872 207.144 853.95 208.475 882.781 223.945C899.228 232.77 911.319 246.76 915.781 265.222C920.307 283.954 922.24 306.046 919.281 325.167C915.13 351.988 902.159 377.746 891.447 402.333C885.842 415.2 880.197 428.292 875.169 441.389C869.075 457.267 861.843 473.088 857.169 489.445C851.099 510.69 844.313 544.297 861.114 562.778C867.542 569.849 878.362 574.064 887.669 575C910.441 577.29 927.583 565.928 945.669 553.778C966.857 539.545 988.155 525.491 1009.39 511.333C1031.47 496.613 1050.61 477.514 1068.95 458.445C1092.45 434.012 1113.97 405.719 1140.56 384.445C1152 375.292 1168.62 374.612 1181.78 380.222C1195.13 385.911 1208.02 400.067 1214.39 412.667C1239.65 462.591 1236.67 518.888 1231.22 573C1227.08 614.18 1208.98 651.158 1189 686.945C1174.65 712.667 1156.68 735.585 1141.22 760.556C1127.68 782.445 1109.03 801.386 1099.5 825.667C1090.41 848.847 1087.46 870.419 1091.22 895.111C1093.25 908.415 1097.35 920.81 1104 932.445C1104.52 933.35 1105.49 933.939 1106.45 934.222C1112.96 936.16 1118.14 940.344 1123.45 944.445C1139.03 956.496 1158.39 971.872 1179 965" stroke="#EBFDEF" stroke-width="3" stroke-linecap="round"/>
</g>
<g filter="url(#filter4_d_4254_13830)">
<path d="M321 13C321 6.37258 326.373 1 333 1H659C665.627 1 671 6.37258 671 13V243H321V13Z" fill="white"/>
<path d="M671 243.5H671.5V243V13C671.5 6.09644 665.904 0.5 659 0.5H333C326.096 0.5 320.5 6.09644 320.5 13V243V243.5H321H671Z" stroke="#1B311C"/>
</g>
<path d="M336.85 13.5H654.15C656.552 13.5 658.5 15.4476 658.5 17.85V215.15C658.5 217.552 656.552 219.5 654.15 219.5H336.85C334.448 219.5 332.5 217.552 332.5 215.15V17.85C332.5 15.4476 334.448 13.5 336.85 13.5Z" fill="#E0FCE8" stroke="#1B311C"/>
<path d="M469 12.9248H523V18.3453C523 20.198 521.498 21.6998 519.646 21.6998H472.354C470.502 21.6998 469 20.198 469 18.3453V12.9248Z" fill="#1B311C"/>
<path d="M346 46C346 39.9249 350.925 35 357 35H624C630.075 35 635 39.9249 635 46V218H346V46Z" fill="white"/>
<line x1="393.5" y1="72" x2="393.5" y2="220" stroke="#308546"/>
<line x1="434.5" y1="72" x2="434.5" y2="220" stroke="#308546"/>
<line x1="475.5" y1="72" x2="475.5" y2="220" stroke="#308546"/>
<line x1="516.5" y1="72" x2="516.5" y2="220" stroke="#308546"/>
<line x1="557.5" y1="72" x2="557.5" y2="220" stroke="#308546"/>
<line x1="598.5" y1="72" x2="598.5" y2="220" stroke="#308546"/>
<line x1="346" y1="186" x2="635" y2="186" stroke="#308546"/>
<line x1="346" y1="148" x2="635" y2="148" stroke="#308546"/>
<line x1="346" y1="110" x2="635" y2="110" stroke="#308546"/>
<line x1="346" y1="72" x2="635" y2="72" stroke="#308546"/>
<rect x="358" y="49" width="105" height="8" rx="4" fill="#BDDACB"/>
<mask id="path-34-outside-2_4254_13830" maskUnits="userSpaceOnUse" x="348" y="232" width="454" height="25" fill="black">
<rect fill="white" x="348" y="232" width="454" height="25"/>
<path d="M360 239C360 236.239 362.239 234 365 234H795C797.761 234 800 236.239 800 239V250C800 252.761 797.761 255 795 255H365C362.239 255 360 252.761 360 250V239Z"/>
</mask>
<path d="M360 239C360 236.239 362.239 234 365 234H795C797.761 234 800 236.239 800 239V250C800 252.761 797.761 255 795 255H365C362.239 255 360 252.761 360 250V239Z" fill="white"/>
<path d="M348 239C348 235.324 350.98 232.343 354.657 232.343H795C798.676 232.343 801.657 235.324 801.657 239H798.343C798.343 237.153 796.847 235.657 795 235.657H372C372 235.657 372 237.153 372 239H348ZM801.657 250C801.657 253.676 798.676 256.657 795 256.657H354.657C350.98 256.657 348 253.676 348 250H372C372 251.847 372 253.343 372 253.343H795C796.847 253.343 798.343 251.847 798.343 250H801.657ZM354.657 256.657C350.98 256.657 348 253.676 348 250V239C348 235.324 350.98 232.343 354.657 232.343L372 235.657C372 235.657 372 237.153 372 239V250C372 251.847 372 253.343 372 253.343L354.657 256.657ZM795 232.343C798.676 232.343 801.657 235.324 801.657 239V250C801.657 253.676 798.676 256.657 795 256.657V253.343C796.847 253.343 798.343 251.847 798.343 250V239C798.343 237.153 796.847 235.657 795 235.657V232.343Z" fill="#1B311C" mask="url(#path-34-outside-2_4254_13830)"/>
<mask id="path-36-outside-3_4254_13830" maskUnits="userSpaceOnUse" x="308" y="232" width="52" height="25" fill="black">
<rect fill="white" x="308" y="232" width="52" height="25"/>
<path d="M320 239C320 236.239 322.239 234 325 234H353C355.761 234 358 236.239 358 239V250C358 252.761 355.761 255 353 255H325C322.239 255 320 252.761 320 250V239Z"/>
</mask>
<path d="M320 239C320 236.239 322.239 234 325 234H353C355.761 234 358 236.239 358 239V250C358 252.761 355.761 255 353 255H325C322.239 255 320 252.761 320 250V239Z" fill="#1B311C"/>
<path d="M308 239C308 235.324 310.98 232.343 314.657 232.343H353C356.676 232.343 359.657 235.324 359.657 239H356.343C356.343 237.153 354.847 235.657 353 235.657H332C332 235.657 332 237.153 332 239H308ZM359.657 250C359.657 253.676 356.676 256.657 353 256.657H314.657C310.98 256.657 308 253.676 308 250H332C332 251.847 332 253.343 332 253.343H353C354.847 253.343 356.343 251.847 356.343 250H359.657ZM314.657 256.657C310.98 256.657 308 253.676 308 250V239C308 235.324 310.98 232.343 314.657 232.343L332 235.657C332 235.657 332 237.153 332 239V250C332 251.847 332 253.343 332 253.343L314.657 256.657ZM353 232.343C356.676 232.343 359.657 235.324 359.657 239V250C359.657 253.676 356.676 256.657 353 256.657V253.343C354.847 253.343 356.343 251.847 356.343 250V239C356.343 237.153 354.847 235.657 353 235.657V232.343Z" fill="#1B311C" mask="url(#path-36-outside-3_4254_13830)"/>
<path d="M552 234H607V234C607 237.866 603.866 241 600 241H559C555.134 241 552 237.866 552 234V234Z" fill="#1B311C"/>
<rect x="397" y="78" width="34" height="8" rx="3" fill="#308546"/>
<rect x="479" y="114" width="34" height="8" rx="3" fill="#308546"/>
<rect x="479" y="125" width="34" height="8" rx="3" fill="#EBFDEF"/>
<rect x="479" y="125" width="12" height="8" rx="3" fill="#7DFFB9"/>
<defs>
<filter id="filter0_d_4254_13830" x="55.4219" y="273" width="190.156" height="489.5" filterUnits="userSpaceOnUse" color-interpolation-filters="sRGB">
<feFlood flood-opacity="0" result="BackgroundImageFix"/>
<feColorMatrix in="SourceAlpha" type="matrix" values="0 0 0 0 0 0 0 0 0 0 0 0 0 0 0 0 0 0 127 0" result="hardAlpha"/>
<feOffset dx="-12"/>
<feComposite in2="hardAlpha" operator="out"/>
<feColorMatrix type="matrix" values="0 0 0 0 0.105882 0 0 0 0 0.192157 0 0 0 0 0.109804 0 0 0 1 0"/>
<feBlend mode="normal" in2="BackgroundImageFix" result="effect1_dropShadow_4254_13830"/>
<feBlend mode="normal" in="SourceGraphic" in2="effect1_dropShadow_4254_13830" result="shape"/>
</filter>
<filter id="filter1_d_4254_13830" x="231.012" y="277" width="153.977" height="420" filterUnits="userSpaceOnUse" color-interpolation-filters="sRGB">
<feFlood flood-opacity="0" result="BackgroundImageFix"/>
<feColorMatrix in="SourceAlpha" type="matrix" values="0 0 0 0 0 0 0 0 0 0 0 0 0 0 0 0 0 0 127 0" result="hardAlpha"/>
<feOffset dx="-12"/>
<feComposite in2="hardAlpha" operator="out"/>
<feColorMatrix type="matrix" values="0 0 0 0 0.105882 0 0 0 0 0.192157 0 0 0 0 0.109804 0 0 0 1 0"/>
<feBlend mode="normal" in2="BackgroundImageFix" result="effect1_dropShadow_4254_13830"/>
<feBlend mode="normal" in="SourceGraphic" in2="effect1_dropShadow_4254_13830" result="shape"/>
</filter>
<filter id="filter2_d_4254_13830" x="773.422" y="273" width="190.156" height="489.5" filterUnits="userSpaceOnUse" color-interpolation-filters="sRGB">
<feFlood flood-opacity="0" result="BackgroundImageFix"/>
<feColorMatrix in="SourceAlpha" type="matrix" values="0 0 0 0 0 0 0 0 0 0 0 0 0 0 0 0 0 0 127 0" result="hardAlpha"/>
<feOffset dx="-12"/>
<feComposite in2="hardAlpha" operator="out"/>
<feColorMatrix type="matrix" values="0 0 0 0 0.105882 0 0 0 0 0.192157 0 0 0 0 0.109804 0 0 0 1 0"/>
<feBlend mode="normal" in2="BackgroundImageFix" result="effect1_dropShadow_4254_13830"/>
<feBlend mode="normal" in="SourceGraphic" in2="effect1_dropShadow_4254_13830" result="shape"/>
</filter>
<filter id="filter3_d_4254_13830" x="949.012" y="277" width="153.977" height="420" filterUnits="userSpaceOnUse" color-interpolation-filters="sRGB">
<feFlood flood-opacity="0" result="BackgroundImageFix"/>
<feColorMatrix in="SourceAlpha" type="matrix" values="0 0 0 0 0 0 0 0 0 0 0 0 0 0 0 0 0 0 127 0" result="hardAlpha"/>
<feOffset dx="-12"/>
<feComposite in2="hardAlpha" operator="out"/>
<feColorMatrix type="matrix" values="0 0 0 0 0.105882 0 0 0 0 0.192157 0 0 0 0 0.109804 0 0 0 1 0"/>
<feBlend mode="normal" in2="BackgroundImageFix" result="effect1_dropShadow_4254_13830"/>
<feBlend mode="normal" in="SourceGraphic" in2="effect1_dropShadow_4254_13830" result="shape"/>
</filter>
<filter id="filter4_d_4254_13830" x="308" y="0" width="364" height="244" filterUnits="userSpaceOnUse" color-interpolation-filters="sRGB">
<feFlood flood-opacity="0" result="BackgroundImageFix"/>
<feColorMatrix in="SourceAlpha" type="matrix" values="0 0 0 0 0 0 0 0 0 0 0 0 0 0 0 0 0 0 127 0" result="hardAlpha"/>
<feOffset dx="-12"/>
<feComposite in2="hardAlpha" operator="out"/>
<feColorMatrix type="matrix" values="0 0 0 0 0.105882 0 0 0 0 0.192157 0 0 0 0 0.109804 0 0 0 1 0"/>
<feBlend mode="normal" in2="BackgroundImageFix" result="effect1_dropShadow_4254_13830"/>
<feBlend mode="normal" in="SourceGraphic" in2="effect1_dropShadow_4254_13830" result="shape"/>
</filter>
<clipPath id="clip0_4254_13830">
<rect x="80" y="257" width="1060" height="53" rx="24" fill="white"/>
</clipPath>
</defs>
</svg>
