<svg xmlns="http://www.w3.org/2000/svg" width="154" height="153" viewBox="0 0 154 153" fill="none">
  <path d="M85.3184 151.84C122.4 151.84 152.325 118.02 152.325 76.4784C152.325 34.937 122.4 1.11707 85.3184 1.11707C48.2366 1.11707 18.3117 34.937 18.3117 76.4784C18.3117 118.02 48.2366 151.84 85.3184 151.84Z" fill="#FDF6F1" stroke="#1B311C" stroke-width="1.38451"/>
  <path d="M80.3508 151.84H81.0431V151.147V1.80933V1.11707H80.3508H69.6465C32.5648 1.11707 2.63978 34.937 2.63978 76.4784C2.63978 118.02 32.5648 151.84 69.6465 151.84H80.3508Z" fill="#1B311C" stroke="#1B311C" stroke-width="1.38451"/>
  <mask id="mask0_4277_13951" style="mask-type:alpha" maskUnits="userSpaceOnUse" x="0" y="2" width="134" height="151">
    <path d="M132.663 77.5216C132.663 118.457 103.208 151.498 67.041 151.498C30.8738 151.498 1.41882 118.457 1.41882 77.5216C1.41882 36.5858 30.8738 3.54479 67.041 3.54479C103.208 3.54479 132.663 36.5858 132.663 77.5216Z" fill="#D9D9D9" stroke="#1B311C" stroke-width="1.38451"/>
  </mask>
  <g mask="url(#mask0_4277_13951)">
    <line x1="84.8047" y1="5.62707" x2="-22.2383" y2="5.62708" stroke="#F0FFF7" stroke-width="1.38451"/>
    <line x1="84.8047" y1="12.9388" x2="-22.2383" y2="12.9388" stroke="#F0FFF7" stroke-width="1.38451"/>
    <line x1="84.8047" y1="21.2999" x2="-22.2383" y2="21.2999" stroke="#F0FFF7" stroke-width="1.38451"/>
    <line x1="84.8047" y1="21.2999" x2="-22.2383" y2="21.2999" stroke="#F0FFF7" stroke-width="1.38451"/>
    <line x1="84.8047" y1="34.8746" x2="-22.2383" y2="34.8746" stroke="#F0FFF7" stroke-width="1.38451"/>
    <line x1="84.8047" y1="44.2743" x2="-22.2383" y2="44.2743" stroke="#F0FFF7" stroke-width="1.38451"/>
    <line x1="84.8047" y1="70.899" x2="-22.2383" y2="70.899" stroke="#F0FFF7" stroke-width="1.38451"/>
    <line x1="84.8047" y1="102.24" x2="-22.2383" y2="102.24" stroke="#F0FFF7" stroke-width="1.38451"/>
    <line x1="84.8047" y1="116.334" x2="-22.2383" y2="116.334" stroke="#F0FFF7" stroke-width="1.38451"/>
    <line x1="84.8047" y1="137.739" x2="-22.2383" y2="137.739" stroke="#F0FFF7" stroke-width="1.38451"/>
    <line x1="84.8047" y1="144.527" x2="-22.2383" y2="144.527" stroke="#F0FFF7" stroke-width="1.38451"/>
    <line x1="84.8047" y1="148.702" x2="-22.2383" y2="148.702" stroke="#F0FFF7" stroke-width="1.38451"/>
  </g>
  <path d="M83.802 34.1831H89.0761V42.5129C94.5556 43.5651 99.8297 46.8094 103.802 53.824L98.3229 59.4357C95.5831 54.7885 92.4323 52.3334 89.0761 51.1935V70.8344L89.4185 70.9221C98.0489 72.7634 104.624 76.7092 104.624 88.3709C104.624 99.3313 98.5283 106.258 89.0761 107.749V115.64H83.802V108.012C75.3086 107.749 69.8975 104.855 64.418 95.6486L69.966 89.6862C74.0072 96.4377 78.3224 99.0682 83.802 99.419V79.252L79.2128 78.1998C71.062 76.3584 65.7194 71.6236 65.7194 61.1017C65.7194 49.3522 73.5963 42.3376 83.802 42.0745V34.1831ZM73.3223 60.4002C73.3223 65.8365 75.9936 68.0286 81.4732 69.1685L83.802 69.6946V50.4921C77.5005 50.7551 73.3223 54.7008 73.3223 60.4002ZM89.0761 99.1559C94.4871 98.016 96.953 94.2457 96.953 89.3355C96.953 83.8991 94.0762 81.7071 89.0761 80.4795V99.1559Z" fill="black"/>
  <path d="M150.925 76.484C150.925 117.42 121.47 150.461 85.3027 150.461C49.1355 150.461 19.6805 117.42 19.6805 76.484C19.6805 35.5482 49.1355 2.5072 85.3027 2.5072C121.47 2.5072 150.925 35.5482 150.925 76.484Z" fill="white" stroke="#1B311C" stroke-width="1.38451"/>
  <path d="M85.4264 141.402C117.386 141.402 143.158 112.258 143.158 76.4841C143.158 40.7104 117.386 11.566 85.4264 11.566C53.467 11.566 27.6945 40.7104 27.6945 76.4841C27.6945 112.258 53.467 141.402 85.4264 141.402Z" fill="#F5FEF6" stroke="#1B311C" stroke-width="1.38451"/>
  <path d="M85.3099 136.178C114.607 136.178 138.218 109.369 138.218 76.4815C138.218 43.594 114.607 16.785 85.3099 16.785C56.0123 16.785 32.4015 43.594 32.4015 76.4815C32.4015 109.369 56.0123 136.178 85.3099 136.178Z" stroke="#1B311C" stroke-width="1.38451"/>
  <path d="M83.802 34.5402H83.1097V35.2324V42.4589C78.1253 42.7315 73.6836 44.5907 70.4433 47.8413C67.054 51.2412 65.0271 56.1153 65.0271 62.151C65.0271 67.5314 66.3955 71.5214 68.8854 74.4074C71.3689 77.2861 74.8971 78.9836 79.059 79.924C79.0594 79.9241 79.0599 79.9242 79.0603 79.9243L83.1097 80.8528V99.7151C80.7761 99.4679 78.6845 98.7584 76.7343 97.43C74.5729 95.9578 72.5468 93.6992 70.56 90.38L70.0869 89.5895L69.4593 90.2639L63.9112 96.2263L63.5578 96.6061L63.8231 97.052C66.5956 101.71 69.3886 104.836 72.617 106.823C75.683 108.71 79.0827 109.532 83.1097 109.727V116.69V117.382H83.802H89.0761H89.7683V116.69V109.382C94.3786 108.536 98.2163 106.397 100.929 103.1C103.755 99.6663 105.317 95.0301 105.317 89.4203C105.317 83.4501 103.628 79.3531 100.743 76.5193C97.926 73.7524 94.0499 72.2722 89.7683 71.3387V53.2464C92.6082 54.4465 95.3136 56.7439 97.7265 60.8366L98.186 61.616L98.8181 60.9686L104.298 55.357L104.661 54.9848L104.405 54.5322C100.47 47.5838 95.2495 44.2008 89.7683 42.998V35.2324V34.5402H89.0761H83.802ZM81.6257 69.5425L81.6257 69.5424L81.6141 69.54C78.9192 68.9794 77.0442 68.1825 75.8355 66.9584C74.6505 65.7584 74.0145 64.0516 74.0145 61.4495C74.0145 58.7783 74.9891 56.5529 76.6746 54.9599C78.2285 53.4913 80.4248 52.5252 83.1097 52.2807V69.8778L81.6257 69.5425ZM96.2607 90.3848C96.2607 92.7256 95.6737 94.7379 94.4928 96.2897C93.4479 97.6627 91.9013 98.7238 89.7683 99.3234V82.4279C91.7932 83.0056 93.329 83.7677 94.3935 84.8614C95.5806 86.081 96.2607 87.7965 96.2607 90.3848Z" fill="#7DFFB9" stroke="#031603" stroke-width="1.38451"/>
</svg>