<svg width="1145" height="899" viewBox="0 0 1145 899" fill="none" xmlns="http://www.w3.org/2000/svg">
<rect x="225.5" y="33.5" width="836" height="471" rx="12" fill="white" stroke="black"/>
<g clip-path="url(#clip0_5070_14366)">
<rect width="811" height="451" transform="translate(240.5 43.5)" fill="white"/>
<mask id="path-2-inside-1_5070_14366" fill="white">
<path d="M240.5 48.5C240.5 46.8431 241.843 45.5 243.5 45.5H1048.5C1050.16 45.5 1051.5 46.8431 1051.5 48.5V493.5C1051.5 495.157 1050.16 496.5 1048.5 496.5H243.5C241.843 496.5 240.5 495.157 240.5 493.5V48.5Z"/>
</mask>
<path d="M240.5 48.5C240.5 46.8431 241.843 45.5 243.5 45.5H1048.5C1050.16 45.5 1051.5 46.8431 1051.5 48.5V493.5C1051.5 495.157 1050.16 496.5 1048.5 496.5H243.5C241.843 496.5 240.5 495.157 240.5 493.5V48.5Z" fill="url(#paint0_linear_5070_14366)"/>
<path d="M239.672 48.5C239.672 46.3857 241.386 44.6717 243.5 44.6717H1056.78C1058.9 44.6717 1060.61 46.3857 1060.61 48.5H1042.39C1042.39 47.3006 1042.39 46.3283 1042.39 46.3283H243.5C242.301 46.3283 241.328 47.3006 241.328 48.5H239.672ZM1060.61 493.5C1060.61 495.614 1058.9 497.328 1056.78 497.328H243.5C241.386 497.328 239.672 495.614 239.672 493.5H241.328C241.328 494.699 242.301 495.672 243.5 495.672H1042.39C1042.39 495.672 1042.39 494.699 1042.39 493.5H1060.61ZM243.5 497.328C241.386 497.328 239.672 495.614 239.672 493.5V48.5C239.672 46.3857 241.386 44.6717 243.5 44.6717V46.3283C242.301 46.3283 241.328 47.3006 241.328 48.5V493.5C241.328 494.699 242.301 495.672 243.5 495.672V497.328ZM1056.78 44.6717C1058.9 44.6717 1060.61 46.3857 1060.61 48.5V493.5C1060.61 495.614 1058.9 497.328 1056.78 497.328L1042.39 495.672C1042.39 495.672 1042.39 494.699 1042.39 493.5V48.5C1042.39 47.3006 1042.39 46.3283 1042.39 46.3283L1056.78 44.6717Z" fill="#1B311C" mask="url(#path-2-inside-1_5070_14366)"/>
<circle cx="622" cy="507" r="313" fill="#FFF06E" stroke="black"/>
<line x1="410" y1="44.5" x2="410" y2="510.5" stroke="black"/>
<line x1="632" y1="44.5" x2="632" y2="510.5" stroke="black"/>
<line x1="1051.5" y1="277" x2="240.5" y2="277" stroke="black"/>
<line x1="834" y1="44.5" x2="834" y2="510.5" stroke="black"/>
</g>
<path d="M168 -4.13293e-05L168 601.5M168 601.5L0.999966 768.499M168 601.5L1113.5 601.5" stroke="black"/>
<path d="M308.972 587.993H456.009C475.786 587.993 489.964 607.066 484.265 626.003L427.517 814.57C423.764 827.039 412.283 835.574 399.262 835.574H361.364C348.11 835.574 336.482 826.736 332.934 813.966L280.542 625.399C275.318 606.597 289.457 587.993 308.972 587.993Z" fill="#1B311C" stroke="#1B311C" stroke-width="0.986377"/>
<path d="M735.972 587.993H883.009C902.786 587.993 916.964 607.066 911.265 626.003L854.517 814.57C850.764 827.039 839.283 835.574 826.262 835.574H788.364C775.11 835.574 763.482 826.736 759.934 813.966L707.542 625.399C702.318 606.597 716.457 587.993 735.972 587.993Z" fill="#1B311C" stroke="#1B311C" stroke-width="0.986377"/>
<mask id="path-12-inside-2_5070_14366" fill="white">
<path fill-rule="evenodd" clip-rule="evenodd" d="M873.055 443.646L1003.94 385.355C1009.44 382.906 1015.75 383.102 1021.09 385.888L1027.56 389.263C1033.28 392.251 1034.64 399.845 1030.3 404.631L944.759 499.028C944.444 500.144 944.017 501.224 943.475 502.263C936.039 516.51 909.654 517.433 884.541 504.326C859.428 491.218 845.098 469.043 852.534 454.797C852.997 453.911 853.533 453.076 854.137 452.293L853.907 452.173L854.409 451.95C858.342 447.114 864.963 444.332 873.055 443.646Z"/>
</mask>
<path fill-rule="evenodd" clip-rule="evenodd" d="M873.055 443.646L1003.94 385.355C1009.44 382.906 1015.75 383.102 1021.09 385.888L1027.56 389.263C1033.28 392.251 1034.64 399.845 1030.3 404.631L944.759 499.028C944.444 500.144 944.017 501.224 943.475 502.263C936.039 516.51 909.654 517.433 884.541 504.326C859.428 491.218 845.098 469.043 852.534 454.797C852.997 453.911 853.533 453.076 854.137 452.293L853.907 452.173L854.409 451.95C858.342 447.114 864.963 444.332 873.055 443.646Z" fill="white"/>
<path d="M1003.94 385.355L1003.53 384.454L1003.53 384.454L1003.94 385.355ZM873.055 443.646L873.138 444.628L873.304 444.614L873.456 444.547L873.055 443.646ZM1021.09 385.888L1020.63 386.762L1021.09 385.888ZM1027.56 389.263L1028.01 388.388L1027.56 389.263ZM1030.3 404.631L1031.03 405.293L1031.03 405.293L1030.3 404.631ZM944.759 499.028L944.028 498.365L943.872 498.537L943.81 498.76L944.759 499.028ZM854.137 452.293L854.918 452.896L855.637 451.964L854.593 451.419L854.137 452.293ZM853.907 452.173L853.506 451.272L851.641 452.103L853.451 453.048L853.907 452.173ZM854.409 451.95L854.81 452.851L855.026 452.755L855.174 452.572L854.409 451.95ZM1003.53 384.454L872.654 442.744L873.456 444.547L1004.34 386.256L1003.53 384.454ZM1021.55 385.013C1015.94 382.088 1009.31 381.882 1003.53 384.454L1004.34 386.256C1009.56 383.929 1015.56 384.116 1020.63 386.762L1021.55 385.013ZM1028.01 388.388L1021.55 385.013L1020.63 386.762L1027.1 390.137L1028.01 388.388ZM1031.03 405.293C1035.8 400.029 1034.31 391.676 1028.01 388.388L1027.1 390.137C1032.25 392.827 1033.47 399.661 1029.57 403.968L1031.03 405.293ZM945.49 499.69L1031.03 405.293L1029.57 403.968L944.028 498.365L945.49 499.69ZM943.81 498.76C943.513 499.812 943.111 500.829 942.601 501.807L944.35 502.719C944.924 501.62 945.375 500.476 945.708 499.295L943.81 498.76ZM942.601 501.807C939.119 508.477 931.101 512.199 920.602 512.566C910.137 512.933 897.431 509.941 884.997 503.451L884.085 505.2C896.764 511.818 909.807 514.918 920.671 514.538C931.503 514.159 940.396 510.295 944.35 502.719L942.601 501.807ZM884.997 503.451C872.564 496.962 862.844 488.248 857.16 479.453C851.459 470.63 849.927 461.924 853.409 455.253L851.66 454.34C847.706 461.916 849.621 471.421 855.503 480.524C861.404 489.655 871.405 498.582 884.085 505.2L884.997 503.451ZM853.409 455.253C853.844 454.419 854.349 453.633 854.918 452.896L853.356 451.69C852.717 452.519 852.15 453.402 851.66 454.34L853.409 455.253ZM853.451 453.048L853.681 453.168L854.593 451.419L854.364 451.299L853.451 453.048ZM854.008 451.049L853.506 451.272L854.309 453.074L854.81 452.851L854.008 451.049ZM855.174 452.572C858.879 448.018 865.201 445.302 873.138 444.628L872.971 442.663C864.725 443.362 857.806 446.211 853.644 451.327L855.174 452.572Z" fill="#1B311C" mask="url(#path-12-inside-2_5070_14366)"/>
<path d="M922.252 459.713L1021.45 394.726C1022.94 393.747 1024.85 393.653 1026.43 394.479L1028.34 395.473C1031.18 396.955 1031.87 400.711 1029.75 403.111L937.144 507.874C936.558 508.536 935.806 509.029 934.964 509.301L922.559 513.307C920.84 513.862 918.946 513.425 917.637 512.18C901.972 497.282 904.169 471.56 922.252 459.713Z" fill="#1B311C"/>
<mask id="mask0_5070_14366" style="mask-type:alpha" maskUnits="userSpaceOnUse" x="121" y="511" width="99" height="71">
<path d="M163.491 512.687C182.745 510.031 204.924 512.425 218.453 516.237L212.983 535.191C201.884 532.086 182.515 529.977 166.187 532.23C157.883 533.375 151.363 535.521 147.171 538.398C145.308 539.676 143.938 541.05 143.037 542.636C142.134 544.226 141.721 545.997 141.721 548.043C141.721 553.609 143.521 556.694 145.291 558.381C147.176 560.179 149.857 561.184 152.835 561.115C155.395 561.055 157.982 560.233 160.065 558.524C161.269 557.535 162.445 556.414 163.613 555.301L163.665 555.252C164.855 554.117 166.039 552.991 167.263 551.99C169.715 549.985 172.264 548.536 175.213 548.536C180.189 548.536 184.202 552.607 183.021 557.246C179.223 572.152 166.287 580.535 153.293 580.837C145.666 581.014 137.744 578.444 131.677 572.659C125.495 566.764 121.993 558.26 121.993 548.043C121.993 536.4 127.777 527.781 136.009 522.132C143.802 516.783 153.773 514.028 163.491 512.687Z" fill="white" stroke="#1B311C" stroke-width="0.986377"/>
</mask>
<g mask="url(#mask0_5070_14366)">
<path d="M163.491 512.687C182.745 510.031 204.924 512.425 218.453 516.237L212.983 535.191C201.884 532.086 182.515 529.977 166.187 532.23C157.883 533.375 151.363 535.521 147.171 538.398C145.308 539.676 143.938 541.05 143.037 542.636C142.134 544.226 141.721 545.997 141.721 548.043C141.721 553.609 143.521 556.694 145.291 558.381C147.176 560.179 149.857 561.184 152.835 561.115C155.395 561.055 157.982 560.233 160.065 558.524C161.269 557.535 162.445 556.414 163.613 555.301L163.665 555.252C164.855 554.117 166.039 552.991 167.263 551.99C169.715 549.985 172.264 548.536 175.213 548.536C180.189 548.536 184.202 552.607 183.021 557.246C179.223 572.152 166.287 580.535 153.293 580.837C145.666 581.014 137.744 578.444 131.677 572.659C125.495 566.764 121.993 558.26 121.993 548.043C121.993 536.4 127.777 527.781 136.009 522.132C143.802 516.783 153.773 514.028 163.491 512.687Z" fill="white" stroke="#1B311C" stroke-width="0.986377"/>
<path d="M150.6 532.769C165.198 520.537 203.044 525.7 221.128 530.796L207.812 538.687H158.986L148.629 558.414C142.546 554.304 136.002 545 150.6 532.769Z" fill="#1B311C"/>
<path d="M164.9 573.703C180.868 567.296 183.806 556.113 184.628 547.564L188.08 544.605L181.18 608.719C181.18 608.719 120.027 573.821 130.38 564.826C140.732 555.83 143.693 582.212 164.9 573.703Z" fill="#1B311C"/>
</g>
<mask id="path-19-inside-3_5070_14366" fill="white">
<path fill-rule="evenodd" clip-rule="evenodd" d="M913.562 809.941C1023.06 809.941 1111.82 721.176 1111.82 611.679C1111.82 502.182 1023.06 413.417 913.562 413.417C874.645 413.417 838.348 424.629 807.724 444H340.926C340.12 443.988 339.313 443.981 338.504 443.981C337.695 443.981 336.888 443.988 336.082 444H332.506V444.095C249.758 447.247 183.643 515.324 183.643 598.843C183.643 628.784 192.14 656.74 206.854 680.432L261.398 876.746C265.005 889.729 276.828 898.715 290.303 898.715H328.201C341.44 898.715 353.113 890.037 356.928 877.36L378.705 805H709.216L742.047 887.378C744.775 894.223 751.399 898.715 758.768 898.715H786.184C794.127 898.715 801.131 893.508 803.42 885.902L831.601 792.26C856.581 803.616 884.333 809.941 913.562 809.941Z"/>
</mask>
<path fill-rule="evenodd" clip-rule="evenodd" d="M913.562 809.941C1023.06 809.941 1111.82 721.176 1111.82 611.679C1111.82 502.182 1023.06 413.417 913.562 413.417C874.645 413.417 838.348 424.629 807.724 444H340.926C340.12 443.988 339.313 443.981 338.504 443.981C337.695 443.981 336.888 443.988 336.082 444H332.506V444.095C249.758 447.247 183.643 515.324 183.643 598.843C183.643 628.784 192.14 656.74 206.854 680.432L261.398 876.746C265.005 889.729 276.828 898.715 290.303 898.715H328.201C341.44 898.715 353.113 890.037 356.928 877.36L378.705 805H709.216L742.047 887.378C744.775 894.223 751.399 898.715 758.768 898.715H786.184C794.127 898.715 801.131 893.508 803.42 885.902L831.601 792.26C856.581 803.616 884.333 809.941 913.562 809.941Z" fill="white"/>
<path d="M807.724 444V444.986H808.009L808.251 444.834L807.724 444ZM340.926 444L340.911 444.986L340.918 444.986H340.926V444ZM336.082 444V444.986H336.089L336.097 444.986L336.082 444ZM332.506 444V443.014H331.52V444H332.506ZM332.506 444.095L332.544 445.081L333.492 445.045V444.095H332.506ZM206.854 680.432L207.804 680.168L207.766 680.032L207.692 679.912L206.854 680.432ZM261.398 876.746L262.348 876.482L262.348 876.482L261.398 876.746ZM356.928 877.36L357.873 877.644L357.873 877.644L356.928 877.36ZM378.705 805V804.014H377.971L377.76 804.716L378.705 805ZM709.216 805L710.132 804.635L709.885 804.014H709.216V805ZM742.047 887.378L742.963 887.013L742.963 887.013L742.047 887.378ZM803.42 885.902L802.476 885.617L802.476 885.617L803.42 885.902ZM831.601 792.26L832.009 791.362L830.982 790.895L830.657 791.975L831.601 792.26ZM1110.84 611.679C1110.84 720.631 1022.51 808.954 913.562 808.954V810.927C1023.6 810.927 1112.81 721.721 1112.81 611.679H1110.84ZM913.562 414.403C1022.51 414.403 1110.84 502.727 1110.84 611.679H1112.81C1112.81 501.637 1023.6 412.431 913.562 412.431V414.403ZM808.251 444.834C838.722 425.56 874.838 414.403 913.562 414.403V412.431C874.453 412.431 837.974 423.699 807.196 443.166L808.251 444.834ZM340.926 444.986H807.724V443.014H340.926V444.986ZM338.504 444.968C339.308 444.968 340.11 444.974 340.911 444.986L340.941 443.014C340.13 443.001 339.318 442.995 338.504 442.995V444.968ZM336.097 444.986C336.898 444.974 337.7 444.968 338.504 444.968V442.995C337.69 442.995 336.878 443.001 336.067 443.014L336.097 444.986ZM332.506 444.986H336.082V443.014H332.506V444.986ZM333.492 444.095V444H331.52V444.095H333.492ZM184.629 598.843C184.629 515.856 250.323 448.212 332.544 445.081L332.468 443.11C249.193 446.281 182.656 514.791 182.656 598.843H184.629ZM207.692 679.912C193.072 656.372 184.629 628.595 184.629 598.843H182.656C182.656 628.973 191.207 657.109 206.016 680.953L207.692 679.912ZM262.348 876.482L207.804 680.168L205.903 680.696L260.448 877.01L262.348 876.482ZM290.303 897.728C277.271 897.728 265.837 889.038 262.348 876.482L260.448 877.01C264.174 890.42 276.384 899.701 290.303 899.701V897.728ZM328.201 897.728H290.303V899.701H328.201V897.728ZM355.984 877.076C352.294 889.336 341.005 897.728 328.201 897.728V899.701C341.875 899.701 353.933 890.738 357.873 877.644L355.984 877.076ZM377.76 804.716L355.984 877.076L357.873 877.644L379.649 805.284L377.76 804.716ZM709.216 804.014H378.705V805.986H709.216V804.014ZM742.963 887.013L710.132 804.635L708.3 805.365L741.13 887.744L742.963 887.013ZM758.768 897.728C751.803 897.728 745.541 893.483 742.963 887.013L741.13 887.744C744.008 894.964 750.995 899.701 758.768 899.701V897.728ZM786.184 897.728H758.768V899.701H786.184V897.728ZM802.476 885.617C800.312 892.807 793.692 897.728 786.184 897.728V899.701C794.562 899.701 801.95 894.209 804.365 886.186L802.476 885.617ZM830.657 791.975L802.476 885.617L804.365 886.186L832.546 792.544L830.657 791.975ZM913.562 808.954C884.477 808.954 856.864 802.661 832.009 791.362L831.193 793.158C856.299 804.571 884.189 810.927 913.562 810.927V808.954Z" fill="#1B311C" mask="url(#path-19-inside-3_5070_14366)"/>
<path d="M818.5 778.486C820.1 770.086 827.167 791.319 832.5 786.986L803 886.5L801.862 871.709C801.29 864.265 801.64 856.793 803.14 849.48C807.832 826.602 817.164 785.501 818.5 778.486Z" fill="#7DFFB9" stroke="#1B311C"/>
<mask id="path-22-inside-4_5070_14366" fill="white">
<path fill-rule="evenodd" clip-rule="evenodd" d="M283.658 745.728C235.884 705.74 205.5 645.663 205.5 578.489C205.5 551.565 210.381 525.781 219.307 501.974C197.028 528.797 183.633 563.262 183.633 600.856C183.633 667.075 225.196 723.587 283.658 745.728Z"/>
</mask>
<path fill-rule="evenodd" clip-rule="evenodd" d="M283.658 745.728C235.884 705.74 205.5 645.663 205.5 578.489C205.5 551.565 210.381 525.781 219.307 501.974C197.028 528.797 183.633 563.262 183.633 600.856C183.633 667.075 225.196 723.587 283.658 745.728Z" fill="#1B311C"/>
<path d="M283.658 745.728L283.308 746.65L284.291 744.972L283.658 745.728ZM219.307 501.974L220.231 502.32L218.548 501.343L219.307 501.974ZM284.291 744.972C236.731 705.163 206.486 645.359 206.486 578.489H204.514C204.514 645.967 235.036 706.317 283.024 746.484L284.291 744.972ZM206.486 578.489C206.486 551.685 211.346 526.018 220.231 502.32L218.383 501.627C209.417 525.544 204.514 551.445 204.514 578.489H206.486ZM184.619 600.856C184.619 563.501 197.929 529.257 220.066 502.604L218.548 501.343C196.128 528.337 182.646 563.024 182.646 600.856H184.619ZM284.007 744.806C225.916 722.805 184.619 666.652 184.619 600.856H182.646C182.646 667.499 224.476 724.369 283.308 746.65L284.007 744.806Z" fill="#1B311C" mask="url(#path-22-inside-4_5070_14366)"/>
<path d="M462.645 465.018C464.417 463.544 466.649 462.736 468.954 462.736H765.314C767.988 462.736 769.29 466 767.352 467.841L751.691 482.712C749.858 484.453 747.427 485.423 744.899 485.423H446.309C443.54 485.423 442.288 481.96 444.416 480.189L462.645 465.018Z" fill="#1B311C"/>
<mask id="path-25-inside-5_5070_14366" fill="white">
<path fill-rule="evenodd" clip-rule="evenodd" d="M832.746 496.31L961.418 433.294C966.824 430.646 973.145 430.612 978.58 433.202L985.165 436.339C990.995 439.117 992.627 446.657 988.467 451.597L906.421 549.042C906.146 550.17 905.759 551.267 905.255 552.325C898.343 566.833 872.008 568.716 846.435 556.532C820.862 544.347 805.734 522.709 812.646 508.201C813.076 507.299 813.581 506.446 814.156 505.642L813.921 505.53L814.417 505.287C818.171 500.312 824.685 497.291 832.746 496.31Z"/>
</mask>
<path fill-rule="evenodd" clip-rule="evenodd" d="M832.746 496.31L961.418 433.294C966.824 430.646 973.145 430.612 978.58 433.202L985.165 436.339C990.995 439.117 992.627 446.657 988.467 451.597L906.421 549.042C906.146 550.17 905.759 551.267 905.255 552.325C898.343 566.833 872.008 568.716 846.435 556.532C820.862 544.347 805.734 522.709 812.646 508.201C813.076 507.299 813.581 506.446 814.156 505.642L813.921 505.53L814.417 505.287C818.171 500.312 824.685 497.291 832.746 496.31Z" fill="white"/>
<path d="M961.418 433.294L960.984 432.409L960.984 432.409L961.418 433.294ZM832.746 496.31L832.865 497.289L833.03 497.269L833.18 497.196L832.746 496.31ZM988.467 451.597L989.222 452.232L989.222 452.232L988.467 451.597ZM906.421 549.042L905.666 548.407L905.517 548.584L905.462 548.809L906.421 549.042ZM814.156 505.642L814.958 506.216L815.643 505.258L814.58 504.751L814.156 505.642ZM813.921 505.53L813.487 504.644L811.653 505.542L813.496 506.42L813.921 505.53ZM814.417 505.287L814.851 506.173L815.062 506.069L815.204 505.881L814.417 505.287ZM960.984 432.409L832.312 495.424L833.18 497.196L961.851 434.18L960.984 432.409ZM979.004 432.311C973.297 429.592 966.661 429.628 960.984 432.409L961.851 434.18C966.988 431.665 972.992 431.632 978.155 434.092L979.004 432.311ZM985.589 435.449L979.004 432.311L978.155 434.092L984.74 437.23L985.589 435.449ZM989.222 452.232C993.798 446.798 992.003 438.505 985.589 435.449L984.74 437.23C989.988 439.73 991.457 446.515 987.713 450.962L989.222 452.232ZM907.175 549.677L989.222 452.232L987.713 450.962L905.666 548.407L907.175 549.677ZM905.462 548.809C905.204 549.872 904.839 550.905 904.365 551.901L906.146 552.749C906.68 551.629 907.089 550.468 907.379 549.275L905.462 548.809ZM904.365 551.901C901.128 558.694 893.251 562.705 882.772 563.454C872.327 564.201 859.52 561.674 846.859 555.641L846.011 557.422C858.922 563.574 872.069 566.198 882.913 565.422C893.723 564.649 902.47 560.464 906.146 552.749L904.365 551.901ZM846.859 555.641C834.198 549.609 824.167 541.255 818.167 532.672C812.148 524.063 810.3 515.418 813.537 508.625L811.756 507.777C808.08 515.491 810.34 524.92 816.55 533.803C822.779 542.713 833.099 551.27 846.011 557.422L846.859 555.641ZM813.537 508.625C813.941 507.776 814.417 506.973 814.958 506.216L813.354 505.068C812.745 505.919 812.211 506.822 811.756 507.777L813.537 508.625ZM813.496 506.42L813.732 506.532L814.58 504.751L814.345 504.639L813.496 506.42ZM813.983 504.401L813.487 504.644L814.354 506.416L814.851 506.173L813.983 504.401ZM815.204 505.881C818.74 501.196 824.958 498.252 832.865 497.289L832.627 495.331C824.413 496.331 817.602 499.429 813.63 504.693L815.204 505.881Z" fill="#1B311C" mask="url(#path-25-inside-5_5070_14366)"/>
<path d="M883.853 510.219L979.072 442.758C980.601 441.674 982.647 441.668 984.183 442.743L986.781 444.562C988.919 446.058 989.311 449.066 987.628 451.061L906.717 546.938C906.049 547.729 905.642 548.68 905.375 549.625C904.738 551.882 902.908 556.337 898.053 558.765C893.455 561.065 888.403 562.484 885.583 563.168C884.34 563.469 883.034 563.138 882.028 562.313C865.294 548.602 866.201 522.725 883.853 510.219Z" fill="#1B311C" stroke="#1B311C" stroke-width="0.986377"/>
<ellipse cx="974.856" cy="588.785" rx="10.0658" ry="14.7305" transform="rotate(-40.6264 974.856 588.785)" fill="#1B311C"/>
<path d="M811.5 512.873C811.504 521.373 812 521.373 814.921 527.643C814.921 527.643 815 517.145 825.5 518.145C836 519.145 978.66 433.938 978.66 433.938L975.701 432.951C975.701 432.951 851.865 500.86 840.5 505.645C829.135 510.429 820 504.373 811.5 512.873Z" fill="#1B311C"/>
<mask id="path-30-inside-6_5070_14366" fill="white">
<path fill-rule="evenodd" clip-rule="evenodd" d="M923.826 815.317C926.165 815.208 926.235 811.967 923.936 811.523C840.813 795.481 774.512 732.219 754.053 650.758C753.674 649.249 751.498 649.444 751.498 651V651C751.498 741.851 825.147 815.5 915.998 815.5C918.622 815.5 921.232 815.439 923.826 815.317Z"/>
</mask>
<path fill-rule="evenodd" clip-rule="evenodd" d="M923.826 815.317C926.165 815.208 926.235 811.967 923.936 811.523C840.813 795.481 774.512 732.219 754.053 650.758C753.674 649.249 751.498 649.444 751.498 651V651C751.498 741.851 825.147 815.5 915.998 815.5C918.622 815.5 921.232 815.439 923.826 815.317Z" fill="#1B311C"/>
<path d="M923.936 811.523L923.749 812.492L923.936 811.523ZM923.826 815.317L923.78 814.332L923.826 815.317ZM924.123 810.555C841.378 794.586 775.376 731.609 755.01 650.518L753.097 650.999C773.648 732.829 840.248 796.377 923.749 812.492L924.123 810.555ZM915.998 814.514C825.692 814.514 752.484 741.306 752.484 651H750.512C750.512 742.396 824.602 816.487 915.998 816.487V814.514ZM923.78 814.332C921.201 814.453 918.607 814.514 915.998 814.514V816.487C918.638 816.487 921.263 816.425 923.872 816.302L923.78 814.332ZM755.01 650.518C754.688 649.237 753.56 648.653 752.543 648.747C751.512 648.842 750.512 649.647 750.512 651H752.484C752.484 650.856 752.528 650.804 752.547 650.785C752.578 650.754 752.636 650.72 752.724 650.712C752.812 650.704 752.893 650.726 752.951 650.764C752.998 650.795 753.061 650.855 753.097 650.999L755.01 650.518ZM923.749 812.492C924.381 812.614 924.645 813.077 924.634 813.52C924.628 813.747 924.548 813.941 924.427 814.073C924.315 814.195 924.124 814.316 923.78 814.332L923.872 816.302C924.698 816.264 925.392 815.939 925.88 815.408C926.357 814.888 926.59 814.223 926.606 813.571C926.64 812.256 925.79 810.877 924.123 810.555L923.749 812.492Z" fill="#1B311C" mask="url(#path-30-inside-6_5070_14366)"/>
<path d="M1036.94 607.587C1032.77 587.312 1042.98 561.031 1059.74 548.889C1065.17 544.959 1070.61 542.991 1075.64 542.815C1086.15 542.446 1094.83 549.9 1097.65 563.614L1110.52 625.861C1114.69 646.136 1104.49 672.417 1087.72 684.56C1082.3 688.489 1076.85 690.457 1071.82 690.633C1061.31 691.002 1052.63 683.548 1049.81 669.834L1036.94 607.587Z" fill="#1B311C"/>
<path d="M1075.66 543.407L1101.4 542.508C1098.52 543.517 1095.6 545.057 1092.69 547.145L1061.75 548.226C1066.53 545.115 1071.28 543.561 1075.66 543.407C1075.66 543.407 1075.66 543.407 1075.66 543.407Z" fill="#1B311C" stroke="#1B311C" stroke-width="1.1848"/>
<path d="M1086.21 670.29C1089.04 684.001 1097.71 691.455 1108.22 691.09L1075.07 692.247C1064.56 692.616 1055.88 685.162 1053.06 671.448L1086.21 670.29Z" fill="#1B311C"/>
<path d="M1059.94 549.474L1091.05 548.388C1083.25 554.563 1077 563.749 1073.09 573.816C1069.03 584.282 1067.47 595.754 1069.38 605.862L1037.42 606.977C1035.51 597.09 1037.01 585.771 1041.04 575.402C1045.11 564.924 1051.74 555.47 1059.94 549.474Z" fill="white" stroke="#1B311C" stroke-width="1.1848"/>
<path d="M1070.09 606.43L1077.67 643.238L1044.52 644.396L1036.94 607.587L1070.09 606.43Z" fill="#1B311C"/>
<rect x="0.599223" y="0.232737" width="73.7792" height="138.93" rx="36.8896" transform="matrix(0.809883 -0.586591 0.20163 0.979462 1062.61 570.073)" fill="white" stroke="#1B311C" stroke-width="1.1848"/>
<ellipse cx="10.6442" cy="26.3382" rx="10.6442" ry="26.3382" transform="matrix(0.45879 -0.888545 0.244737 0.96959 1089.79 608.944)" fill="#1B311C"/>
<ellipse cx="9.58669" cy="23.7215" rx="9.58669" ry="23.7215" transform="matrix(0.45879 -0.888545 0.244737 0.96959 1110.1 586.618)" fill="#1B311C"/>
<path d="M1038.84 582.615H1070.83L1069.65 584.984H1037.66L1038.84 582.615Z" fill="#1B311C"/>
<path d="M1038.25 587.354H1070.24L1068.46 595.648H1036.47L1038.25 587.354Z" fill="#1B311C"/>
<path d="M310.67 533.862L324.31 519.616C336.311 507.082 352.911 499.993 370.264 499.993H426.692C432.215 499.993 435.262 506.406 431.773 510.688C430.879 511.785 429.654 512.563 428.281 512.906L364.468 528.859L314.952 541.238C310.634 542.318 307.591 537.078 310.67 533.862Z" fill="#7DFFB9" stroke="black" stroke-width="0.986377"/>
<path d="M921.272 422.949C921.516 424.398 920.812 426.031 919.108 427.777C917.414 429.513 914.803 431.281 911.45 432.97C904.747 436.345 895.179 439.356 884.336 441.185C873.493 443.015 863.467 443.311 856.029 442.322C852.306 441.827 849.261 441.014 847.09 439.93C844.908 438.84 843.706 437.528 843.462 436.079C843.217 434.63 843.922 432.997 845.625 431.251C847.32 429.515 849.93 427.747 853.284 426.058C859.986 422.683 869.554 419.672 880.397 417.842C891.24 416.013 901.266 415.717 908.705 416.706C912.427 417.201 915.473 418.014 917.644 419.098C919.826 420.188 921.027 421.5 921.272 422.949Z" fill="#7DFFB9" stroke="black" stroke-width="0.986377"/>
<path d="M278.5 895.32L240.502 702.5C240.502 702.5 225.833 698.607 218.501 691.229C211.169 683.851 206.453 675.319 206.453 675.319L263.738 885.017C265.527 891.565 271.738 895.899 278.5 895.32Z" fill="#1B311C" stroke="#1B311C"/>
<path d="M360 828C361.6 819.6 368.5 804.5 378 804.5L356 880L349.5 887.5C352.333 871.167 358.4 836.4 360 828Z" fill="#7DFFB9" stroke="#1B311C"/>
<rect x="441.993" y="499.993" width="23.0136" height="12.0136" rx="6.00681" fill="#7DFFB9" stroke="black" stroke-width="0.986377"/>
<path d="M736.081 819.015C722.463 816.908 714.209 808.435 710 803.5C720.333 831.667 741.4 888.3 747 893.5C752.6 898.7 731.5 849 731.5 849C725.772 829.952 729.2 824.744 736.422 821.633C737.471 821.182 737.21 819.19 736.081 819.015Z" fill="#1B311C" stroke="#1B311C"/>
<defs>
<linearGradient id="paint0_linear_5070_14366" x1="646" y1="45.5" x2="646" y2="496.5" gradientUnits="userSpaceOnUse">
<stop stop-color="#FFD7C2"/>
<stop offset="0.505208" stop-color="#FAEAC8"/>
<stop offset="1" stop-color="#FFF06E"/>
</linearGradient>
<clipPath id="clip0_5070_14366">
<rect width="811" height="451" fill="white" transform="translate(240.5 43.5)"/>
</clipPath>
</defs>
</svg>
