<svg width="24" height="24" viewBox="0 0 24 24" fill="none" xmlns="http://www.w3.org/2000/svg">
<g id="heart">
<path id="Vector" d="M20.2887 5.26499C19.8099 4.78593 19.2413 4.40591 18.6156 4.14663C17.9899 3.88736 17.3192 3.75391 16.6418 3.75391C15.9645 3.75391 15.2938 3.88736 14.6681 4.14663C14.0423 4.40591 13.4738 4.78593 12.995 5.26499L12.0012 6.25874L11.0075 5.26499C10.0402 4.29778 8.72843 3.75441 7.36059 3.75441C5.99274 3.75441 4.68092 4.29778 3.71371 5.26499C2.7465 6.2322 2.20313 7.54402 2.20312 8.91187C2.20312 10.2797 2.7465 11.5915 3.71371 12.5587L4.70746 13.5525L12.0012 20.8462L19.295 13.5525L20.2887 12.5587C20.7678 12.0799 21.1478 11.5114 21.4071 10.8856C21.6663 10.2599 21.7998 9.5892 21.7998 8.91187C21.7998 8.23454 21.6663 7.56384 21.4071 6.9381C21.1478 6.31235 20.7678 5.74383 20.2887 5.26499Z" fill="white" fill-opacity="0.25" stroke="white" stroke-width="2" stroke-linecap="round" stroke-linejoin="round"/>
</g>
</svg>
