<svg width="222" height="91" viewBox="0 0 222 91" fill="none" xmlns="http://www.w3.org/2000/svg">
<rect width="222" height="90" fill="white"/>
<rect x="10" y="61" width="15" height="12" rx="5" fill="#1B311C"/>
<rect x="7" y="68" width="28" height="19" rx="5" fill="#1B311C"/>
<rect x="4" y="80" width="21" height="10" rx="5" fill="#1B311C"/>
<rect width="15" height="12" rx="5" transform="matrix(-1 0 0 1 215 61)" fill="#1B311C"/>
<rect width="28" height="19" rx="5" transform="matrix(-1 0 0 1 218 68)" fill="#1B311C"/>
<rect width="21" height="10" rx="5" transform="matrix(-1 0 0 1 221 80)" fill="#1B311C"/>
<rect width="78" height="57" transform="matrix(1 0 0 -1 14 90)" fill="#1B311C"/>
<path d="M14 85.5H92V29.1504L53 1L14 29.1504V85.5Z" fill="#1B311C"/>
<path d="M0 89.5156H222" stroke="#1B311C"/>
<path d="M162.639 34.828L162.639 26.7789L123.479 1.15542L53.4746 1.15543L91.5847 29.3892L91.5847 34.828L162.639 34.828Z" fill="#E0FCE8"/>
<path d="M162.639 26.7789L163.139 26.7789L163.139 26.5086L162.913 26.3605L162.639 26.7789ZM162.639 34.828L162.639 35.328L163.139 35.328L163.139 34.828L162.639 34.828ZM91.5847 34.828L91.0847 34.828L91.0847 35.328L91.5847 35.328L91.5847 34.828ZM91.5847 29.3892L92.0847 29.3892L92.0847 29.1374L91.8824 28.9875L91.5847 29.3892ZM53.4746 1.15543L53.4746 0.655429C53.2589 0.655426 53.0675 0.793824 52.9998 0.99871C52.9322 1.20359 53.0036 1.42875 53.177 1.55719L53.4746 1.15543ZM123.479 1.15542L123.753 0.737026L123.628 0.65542L123.479 0.655419L123.479 1.15542ZM162.139 26.7789L162.139 34.828L163.139 34.828L163.139 26.7789L162.139 26.7789ZM162.639 34.328L91.5847 34.328L91.5847 35.328L162.639 35.328L162.639 34.328ZM92.0847 34.828L92.0847 29.3892L91.0847 29.3892L91.0847 34.828L92.0847 34.828ZM91.8824 28.9875L53.7723 0.753669L53.177 1.55719L91.2871 29.791L91.8824 28.9875ZM123.205 1.57381L162.365 27.1973L162.913 26.3605L123.753 0.737026L123.205 1.57381ZM53.4746 1.65543L123.479 1.65542L123.479 0.655419L53.4746 0.655429L53.4746 1.65543Z" fill="#1B311C"/>
<path d="M91.5781 29.6094H160.49" stroke="#1B311C"/>
<path d="M15 29.5L53 2V5.5L15 32.5V29.5Z" fill="#E0FCE8"/>
<path d="M15 31L18 29V89H15V31Z" fill="#E0FCE8"/>
<rect x="160.5" y="38" width="10" height="52" fill="#1B311C"/>
<path d="M170 38.8281H213.853V89.4678H170V38.8281Z" fill="#E0FCE8" stroke="#1B311C"/>
<rect x="176" y="47" width="30" height="42" stroke="#1B311C"/>
<line x1="176.234" y1="54.3438" x2="203.903" y2="54.3438" stroke="#1B311C"/>
<line x1="176.234" y1="61.3438" x2="203.903" y2="61.3438" stroke="#1B311C"/>
<line x1="176.234" y1="68.3438" x2="203.903" y2="68.3438" stroke="#1B311C"/>
<line x1="176.234" y1="75.3438" x2="203.903" y2="75.3438" stroke="#1B311C"/>
<line x1="176.234" y1="82.3438" x2="203.903" y2="82.3438" stroke="#1B311C"/>
<path d="M174 35H217V40H174V35Z" fill="#E0FCE8" stroke="#1B311C"/>
<rect x="161" y="35" width="13" height="5" fill="#1B311C" stroke="#1B311C"/>
<rect x="34.5" y="85.5" width="57" height="4" fill="#1B311C" stroke="#1B311C"/>
<path d="M28 89H92V38.9131L60 16L28 38.9131V89Z" fill="#D1EEF0"/>
<line x1="27" y1="43" x2="92" y2="43" stroke="#1B311C"/>
<line x1="60.5" y1="15" x2="60.5" y2="43" stroke="#1B311C"/>
<line x1="72.5" y1="24" x2="72.5" y2="39" stroke="#1B311C"/>
<line x1="47.5" y1="24" x2="47.5" y2="39" stroke="#1B311C"/>
<line x1="47.5" y1="39" x2="47.5" y2="85" stroke="#1B311C"/>
<line x1="72.5" y1="39" x2="72.5" y2="85" stroke="#1B311C"/>
<line x1="28" y1="65.5" x2="92" y2="65.5" stroke="black"/>
<rect x="121" y="54" width="33" height="36" fill="#1B311C"/>
<rect x="123" y="57" width="26" height="30" fill="#D1EEF0"/>
<line x1="135.5" y1="62" x2="135.5" y2="87" stroke="#1B311C"/>
<line x1="137.5" y1="59" x2="137.5" y2="88" stroke="#1B311C"/>
<line x1="139.5" y1="75" x2="139.5" y2="72" stroke="#1B311C"/>
<line x1="91.5" y1="38" x2="91.5" y2="89" stroke="#1B311C"/>
<path d="M71.3181 6.79129C70.5635 6.20812 70.9758 5 71.9296 5H91V22L71.3181 6.79129Z" fill="#1B311C"/>
<path d="M92.0078 5.5H91.5078V6V21V21.5H92.0078H153.008H153.508V21V6V5.5H153.008H92.0078Z" fill="white" stroke="#1B311C"/>
<rect x="94.5078" y="8.5" width="56" height="10" fill="#D1EEF0" stroke="#1B311C"/>
<line x1="106.266" y1="10" x2="106.266" y2="19" stroke="#1B311C"/>
<line x1="123" y1="10" x2="123" y2="19" stroke="#1B311C"/>
<line x1="138.734" y1="10" x2="138.734" y2="19" stroke="#1B311C"/>
<rect x="146.008" y="9" width="5" height="10" fill="#1B311C"/>
<rect x="121.5" y="39.5" width="32" height="10" fill="#D1EEF0" stroke="#1B311C"/>
<line x1="128.33" y1="39.275" x2="123.274" y2="44.3305" stroke="#1B311C" stroke-width="0.777778"/>
<line x1="131.052" y1="39.275" x2="125.997" y2="44.3305" stroke="#1B311C" stroke-width="0.777778"/>
<line x1="114.408" y1="8.35355" x2="109.353" y2="13.4091" stroke="#1B311C"/>
<line x1="117.131" y1="8.35355" x2="112.075" y2="13.4091" stroke="#1B311C"/>
<rect x="149" y="40" width="5" height="10" fill="#1B311C"/>
<rect x="113" y="39" width="5" height="45" fill="#1B311C"/>
<rect x="101" y="39" width="5" height="45" fill="#1B311C"/>
<rect x="-0.5" y="0.5" width="74" height="4" transform="matrix(-1 0 0 1 85 85)" fill="#E0FCE8" stroke="#1B311C"/>
<rect x="108.5" y="39.5" width="7" height="44" fill="#D1EEF0" stroke="#1B311C"/>
<rect x="97.5" y="39.5" width="7" height="44" fill="#D1EEF0" stroke="#1B311C"/>
<rect x="97" y="78" width="15" height="12" rx="5" fill="#1B311C"/>
<rect x="93" y="63" width="10" height="22" rx="5" fill="#1B311C"/>
<rect x="87" y="68" width="8" height="15" rx="4" fill="#1B311C"/>
<rect x="101" y="68" width="8" height="15" rx="4" fill="#1B311C"/>
<rect x="83" y="80" width="21" height="10" rx="5" fill="#1B311C"/>
<path d="M128 86.5H127.5V87V89V89.5H128H163H163.5V89V87V86.5H163H128Z" fill="#E0FCE8" stroke="#1B311C"/>
<path d="M129 86.5H129.5V87V89V89.5H129H122H121.5V89V87V86.5H122H129Z" fill="#1B311C" stroke="#1B311C"/>
</svg>
