<svg width="222" height="90" viewBox="0 0 222 90" fill="none" xmlns="http://www.w3.org/2000/svg">
<rect width="222" height="90" fill="white"/>
<rect x="28.2344" y="1.32812" width="11.4853" height="26.1029" fill="#1B311C"/>
<path d="M27 36H31V74H27V36Z" fill="#1B311C"/>
<mask id="path-3-inside-1_4712_23682" fill="white">
<path d="M113 73H114V77H113V73Z"/>
</mask>
<path d="M113 73H114V77H113V73Z" fill="#E0F6F7"/>
<path d="M113 73V71.4338H111.956V73H113ZM114 73H115.566V71.4338H114V73ZM114 77V78.0441H115.566V77H114ZM113 77H111.956V78.0441H113V77ZM113 74.5662H114V71.4338H113V74.5662ZM112.434 73V77H115.566V73H112.434ZM114 75.9559H113V78.0441H114V75.9559ZM114.044 77V73H111.956V77H114.044Z" fill="#1B311C" mask="url(#path-3-inside-1_4712_23682)"/>
<path d="M166.016 33.6016H209.347" stroke="#1B311C" stroke-width="2.08824"/>
<rect x="24.9688" y="72.8086" width="16.1838" height="4.17647" fill="#1B311C"/>
<rect x="20.7969" y="76.9844" width="16.1838" height="4.17647" fill="#1B311C"/>
<rect x="16.6172" y="81.1602" width="16.1838" height="4.17647" fill="#1B311C"/>
<rect x="13.4844" y="85.3359" width="16.1838" height="4.17647" fill="#1B311C"/>
<path d="M27.6719 36.8281H96.5836V88.5119H27.6719V36.8281Z" fill="#1B311C"/>
<rect width="77.7868" height="4.69853" transform="matrix(1 0 0 -1 18.7969 36.8281)" fill="#1B311C"/>
<path d="M18.7969 32.1328H96.5836V30.5666L57.6903 2.37546L18.7969 30.5666V32.1328Z" fill="#1B311C"/>
<path d="M27.8776 29.5234H88.5305H91.8768L57.7858 5.50873L24.5312 29.5234H27.8776Z" fill="#1B311C"/>
<path fill-rule="evenodd" clip-rule="evenodd" d="M92.8199 33.1798H24.6442H20.8828L58.2619 6.03271L96.5813 33.1798H92.8199ZM97 38.0001H28V87.0001H97V38.0001Z" fill="#1B311C"/>
<rect x="96.5781" y="36.8281" width="68.9118" height="51.6838" fill="#1B311C"/>
<path d="M165.492 36.8281H209.345V87.4678H165.492V36.8281Z" fill="#D1EEF0" stroke="#1B311C"/>
<rect x="96.5781" y="36.8281" width="52.7279" height="8.875" fill="#1B311C"/>
<rect x="97.1016" y="39.8672" width="57.9485" height="48.5515" fill="white"/>
<rect x="103.367" y="52.4922" width="16.1838" height="36.0221" fill="#00300D"/>
<rect x="105.453" y="58.7578" width="9.91912" height="27.6691" fill="white"/>
<rect x="126.844" y="52.9922" width="15.1838" height="14.1397" fill="#E0FCE8" stroke="#1B311C"/>
<rect x="123.203" y="66.5859" width="22.4485" height="3.65441" fill="#1B311C"/>
<rect x="108.5" y="61.5" width="4" height="9" fill="#E0F6F7" stroke="#1B311C"/>
<g filter="url(#filter0_d_4712_23682)">
<path fill-rule="evenodd" clip-rule="evenodd" d="M61.6829 87.511C64.1468 87.5101 66.1438 85.5125 66.1438 83.0485C66.1438 80.5839 64.1459 78.5859 61.6813 78.5859C61.3255 78.5859 60.9795 78.6276 60.6478 78.7062C59.8292 77.7255 58.5977 77.1016 57.2203 77.1016C56.2626 77.1016 55.3754 77.4033 54.6485 77.9168C53.5927 76.7311 52.0547 75.9844 50.3422 75.9844C48.1641 75.9844 46.2682 77.1925 45.2879 78.9751C44.7307 78.7251 44.1129 78.5859 43.4625 78.5859C40.9979 78.5859 39 80.5839 39 83.0485C39 85.5125 40.9971 87.5101 43.4609 87.511V87.5141H61.6829V87.511Z" fill="white"/>
<path d="M61.6829 87.511L61.6828 87.011L61.1829 87.0112V87.511H61.6829ZM60.6478 78.7062L60.264 79.0266L60.4622 79.2641L60.7632 79.1927L60.6478 78.7062ZM54.6485 77.9168L54.275 78.2493L54.5721 78.5829L54.937 78.3252L54.6485 77.9168ZM45.2879 78.9751L45.0832 79.4313L45.5039 79.6201L45.7261 79.2161L45.2879 78.9751ZM43.4609 87.511H43.9609V87.0112L43.4611 87.011L43.4609 87.511ZM43.4609 87.5141H42.9609V88.0141H43.4609V87.5141ZM61.6829 87.5141V88.0141H62.1829V87.5141H61.6829ZM61.6831 88.011C64.423 88.01 66.6438 85.7886 66.6438 83.0485H65.6438C65.6438 85.2364 63.8705 87.0102 61.6828 87.011L61.6831 88.011ZM66.6438 83.0485C66.6438 80.3077 64.422 78.0859 61.6813 78.0859V79.0859C63.8697 79.0859 65.6438 80.86 65.6438 83.0485H66.6438ZM61.6813 78.0859C61.2864 78.0859 60.9017 78.1322 60.5325 78.2197L60.7632 79.1927C61.0574 79.123 61.3647 79.0859 61.6813 79.0859V78.0859ZM61.0317 78.3858C60.1222 77.2962 58.7521 76.6016 57.2203 76.6016V77.6016C58.4432 77.6016 59.5363 78.1549 60.264 79.0266L61.0317 78.3858ZM57.2203 76.6016C56.156 76.6016 55.1685 76.9372 54.36 77.5084L54.937 78.3252C55.5823 77.8693 56.3693 77.6016 57.2203 77.6016V76.6016ZM55.0219 77.5843C53.8753 76.2966 52.2033 75.4844 50.3422 75.4844V76.4844C51.9061 76.4844 53.3102 77.1657 54.275 78.2493L55.0219 77.5843ZM50.3422 75.4844C47.9745 75.4844 45.9144 76.7982 44.8498 78.7342L45.7261 79.2161C46.622 77.5867 48.3537 76.4844 50.3422 76.4844V75.4844ZM45.4927 78.519C44.8723 78.2406 44.1848 78.0859 43.4625 78.0859V79.0859C44.0409 79.0859 44.5891 79.2095 45.0832 79.4313L45.4927 78.519ZM43.4625 78.0859C40.7218 78.0859 38.5 80.3077 38.5 83.0485H39.5C39.5 80.86 41.2741 79.0859 43.4625 79.0859V78.0859ZM38.5 83.0485C38.5 85.7886 40.7208 88.01 43.4608 88.011L43.4611 87.011C41.2733 87.0102 39.5 85.2364 39.5 83.0485H38.5ZM43.9609 87.5141V87.511H42.9609V87.5141H43.9609ZM61.6829 87.0141H43.4609V88.0141H61.6829V87.0141ZM61.1829 87.511V87.5141H62.1829V87.511H61.1829Z" fill="#1B311C"/>
</g>
<path fill-rule="evenodd" clip-rule="evenodd" d="M151.636 88.5579C154.1 88.557 156.097 86.5594 156.097 84.0953C156.097 81.6308 154.099 79.6328 151.634 79.6328C151.279 79.6328 150.933 79.6744 150.601 79.7531C149.782 78.7724 148.551 78.1484 147.173 78.1484C146.216 78.1484 145.329 78.4501 144.602 78.9637C143.546 77.778 142.008 77.0312 140.295 77.0312C138.117 77.0312 136.221 78.2393 135.241 80.022C134.684 79.7719 134.066 79.6328 133.416 79.6328C130.951 79.6328 128.953 81.6308 128.953 84.0953C128.953 86.5594 130.95 88.557 133.414 88.5579V88.561H151.636V88.5579Z" fill="#1B311C"/>
<path d="M0 88.5156H222" stroke="#1B311C"/>
<path d="M165.637 36.8297L165.637 28.7806L126.477 3.15707L58.4727 3.15706L96.5827 31.3909L96.5827 36.8297L165.637 36.8297Z" fill="#D1EEF0"/>
<path d="M165.637 28.7806L166.137 28.7806L166.137 28.5102L165.911 28.3622L165.637 28.7806ZM165.637 36.8297L165.637 37.3297L166.137 37.3297L166.137 36.8297L165.637 36.8297ZM96.5827 36.8297L96.0827 36.8297L96.0827 37.3297L96.5827 37.3297L96.5827 36.8297ZM96.5827 31.3909L97.0827 31.3909L97.0827 31.139L96.8804 30.9891L96.5827 31.3909ZM58.4727 3.15706L58.4727 2.65707C58.2569 2.65706 58.0655 2.79546 57.9978 3.00035C57.9302 3.20523 58.0016 3.43038 58.175 3.55882L58.4727 3.15706ZM126.477 3.15707L126.751 2.73867L126.626 2.65707L126.477 2.65706L126.477 3.15707ZM165.137 28.7806L165.137 36.8297L166.137 36.8297L166.137 28.7806L165.137 28.7806ZM165.637 36.3297L96.5827 36.3297L96.5827 37.3297L165.637 37.3297L165.637 36.3297ZM97.0827 36.8297L97.0827 31.3909L96.0827 31.3909L96.0827 36.8297L97.0827 36.8297ZM96.8804 30.9891L58.7703 2.75531L58.175 3.55882L96.2851 31.7926L96.8804 30.9891ZM126.203 3.57546L165.363 29.199L165.911 28.3622L126.751 2.73867L126.203 3.57546ZM58.4727 3.65706L126.477 3.65707L126.477 2.65706L58.4727 2.65707L58.4727 3.65706Z" fill="#1B311C"/>
<mask id="mask0_4712_23682" style="mask-type:alpha" maskUnits="userSpaceOnUse" x="148" y="17" width="62" height="21">
<path d="M209.311 36.829L209.311 32.3919L191.33 18.2962L148.907 18.2962L165.837 31.3479L165.837 36.829L209.311 36.829Z" fill="#1B311C"/>
<path d="M209.311 32.3919L209.811 32.3919L209.811 32.1486L209.62 31.9984L209.311 32.3919ZM209.311 36.829L209.311 37.329L209.811 37.329L209.811 36.8291L209.311 36.829ZM165.837 36.829L165.337 36.829L165.337 37.329L165.837 37.329L165.837 36.829ZM165.837 31.3479L166.337 31.3479L166.337 31.102L166.143 30.9519L165.837 31.3479ZM148.907 18.2962L148.907 17.7962C148.693 17.7962 148.503 17.9324 148.434 18.1349C148.365 18.3375 148.432 18.5615 148.602 18.6922L148.907 18.2962ZM191.33 18.2962L191.639 17.9027L191.503 17.7962L191.33 17.7962L191.33 18.2962ZM208.811 32.3919L208.811 36.829L209.811 36.8291L209.811 32.3919L208.811 32.3919ZM209.311 36.329L165.837 36.329L165.837 37.329L209.311 37.329L209.311 36.329ZM166.337 36.829L166.337 31.3479L165.337 31.3479L165.337 36.829L166.337 36.829ZM166.143 30.9519L149.212 17.9002L148.602 18.6922L165.532 31.7439L166.143 30.9519ZM191.022 18.6897L209.003 32.7854L209.62 31.9984L191.639 17.9027L191.022 18.6897ZM148.907 18.7962L191.33 18.7962L191.33 17.7962L148.907 17.7962L148.907 18.7962Z" fill="#1B311C"/>
</mask>
<g mask="url(#mask0_4712_23682)">
<path d="M209.319 36.829L209.319 32.3919L191.338 18.2962L148.915 18.2962L165.845 31.3479L165.845 36.829L209.319 36.829Z" fill="white"/>
<path d="M209.319 32.3919L209.819 32.3919L209.819 32.1486L209.628 31.9984L209.319 32.3919ZM209.319 36.829L209.319 37.329L209.819 37.329L209.819 36.8291L209.319 36.829ZM165.845 36.829L165.345 36.829L165.345 37.329L165.845 37.329L165.845 36.829ZM165.845 31.3479L166.345 31.3479L166.345 31.102L166.15 30.9519L165.845 31.3479ZM148.915 18.2962L148.915 17.7962C148.701 17.7962 148.511 17.9324 148.442 18.1349C148.373 18.3375 148.44 18.5615 148.61 18.6922L148.915 18.2962ZM191.338 18.2962L191.647 17.9027L191.511 17.7962L191.338 17.7962L191.338 18.2962ZM208.819 32.3919L208.819 36.829L209.819 36.8291L209.819 32.3919L208.819 32.3919ZM209.319 36.329L165.845 36.329L165.845 37.329L209.319 37.329L209.319 36.329ZM166.345 36.829L166.345 31.3479L165.345 31.3479L165.345 36.829L166.345 36.829ZM166.15 30.9519L149.22 17.9002L148.61 18.6922L165.54 31.7439L166.15 30.9519ZM191.03 18.6897L209.011 32.7854L209.628 31.9984L191.647 17.9027L191.03 18.6897ZM148.915 18.7962L191.338 18.7962L191.338 17.7962L148.915 17.7962L148.915 18.7962Z" fill="#1B311C"/>
<line x1="151.251" y1="13.3604" x2="176.31" y2="33.7207" stroke="#1B311C" stroke-width="1.04412"/>
<line x1="158.036" y1="13.3604" x2="183.095" y2="33.7207" stroke="#1B311C" stroke-width="1.04412"/>
<line x1="164.825" y1="13.3604" x2="189.884" y2="33.7207" stroke="#1B311C" stroke-width="1.04412"/>
<line x1="171.61" y1="13.3604" x2="196.669" y2="33.7207" stroke="#1B311C" stroke-width="1.04412"/>
<line x1="178.4" y1="13.3604" x2="203.458" y2="33.7207" stroke="#1B311C" stroke-width="1.04412"/>
</g>
<rect x="-0.5" y="0.5" width="9.44118" height="27.1912" transform="matrix(-1 0 0 1 53.2969 36.8281)" fill="#E0FCE8" stroke="#1B311C"/>
<path d="M43.0703 36.8281L43.0703 65.0193" stroke="#1B311C"/>
<line x1="43.8516" y1="40.5039" x2="53.2486" y2="40.5039" stroke="#1B311C"/>
<line x1="43.8516" y1="61.3867" x2="53.2486" y2="61.3867" stroke="#1B311C"/>
<rect x="-0.5" y="0.5" width="9.44118" height="27.1912" transform="matrix(-1 0 0 1 78.3516 36.8281)" fill="#E0FCE8" stroke="#1B311C"/>
<path d="M69.1719 36.8281L69.1719 65.0193" stroke="#1B311C"/>
<line x1="69.9531" y1="40.5039" x2="79.3502" y2="40.5039" stroke="#1B311C"/>
<line x1="69.9531" y1="61.3867" x2="79.3502" y2="61.3867" stroke="#1B311C"/>
<path d="M68.6484 36.8281L68.6484 65.0193" stroke="#1B311C"/>
<g filter="url(#filter1_i_4712_23682)">
<path d="M107.816 7.59766L100.246 15.1675V18.9524V22.7374H115.386V15.1675L107.816 7.59766Z" fill="#E0F6F7"/>
</g>
<path d="M100.246 22.7374H115.386V15.1675L107.816 7.59766L100.246 15.1675V18.9524V22.7374ZM100.246 22.7374L88.5 15.9506" stroke="#1B311C" stroke-linejoin="round"/>
<path d="M105.203 10.7266L105.203 22.2119" stroke="#1B311C"/>
<line x1="100.766" y1="19.625" x2="114.339" y2="19.625" stroke="#1B311C"/>
<path d="M95.8042 7.07422L88.2344 14.6441V16.4713H100.503V13.861L107.812 7.07422H95.8042Z" fill="#1B311C" stroke="#1B311C" stroke-linejoin="round"/>
<path d="M114.335 14.6441L106.766 7.07422H108.854L116.424 14.6441H114.335Z" fill="#1B311C" stroke="#1B311C" stroke-linejoin="round"/>
<rect x="171.234" y="52.4922" width="29.7574" height="34.4559" stroke="#1B311C"/>
<path d="M96.5781 31.6094H165.49" stroke="#1B311C"/>
<g filter="url(#filter2_i_4712_23682)">
<circle cx="188.197" cy="43.7826" r="3.91544" fill="#E0F6F7"/>
</g>
<circle cx="188.197" cy="43.7826" r="3.91544" stroke="#1B311C" stroke-linejoin="round"/>
<line x1="188.5" y1="40.7891" x2="188.5" y2="47.7956" stroke="#1B311C"/>
<line x1="184.281" y1="43.5859" x2="192.112" y2="43.5859" stroke="#1B311C"/>
<ellipse cx="59.5635" cy="21.6921" rx="5.26665" ry="6.39522" fill="#E0F6F7"/>
<line x1="171.234" y1="60.3438" x2="198.903" y2="60.3438" stroke="#1B311C"/>
<line x1="171.234" y1="67.1328" x2="198.903" y2="67.1328" stroke="#1B311C"/>
<line x1="171.234" y1="73.918" x2="198.903" y2="73.918" stroke="#1B311C"/>
<line x1="171.234" y1="80.7031" x2="198.903" y2="80.7031" stroke="#1B311C"/>
<g filter="url(#filter3_i_4712_23682)">
<ellipse cx="60.9494" cy="21.756" rx="5.09007" ry="5.87316" fill="#E0F6F7"/>
</g>
<ellipse cx="60.9494" cy="21.756" rx="5.09007" ry="5.87316" stroke="#1B311C" stroke-linejoin="round"/>
<path d="M61.6016 16.3711L61.6016 27.3343" stroke="#1B311C"/>
<line x1="55.8594" y1="21.6172" x2="66.3006" y2="21.6172" stroke="#1B311C"/>
<g filter="url(#filter4_i_4712_23682)">
<path d="M141.754 7.59766L134.184 15.1675V18.9524V22.7374H149.324V15.1675L141.754 7.59766Z" fill="#E0F6F7"/>
</g>
<path d="M134.184 22.7374H149.324V15.1675L141.754 7.59766L134.184 15.1675V18.9524V22.7374ZM134.184 22.7374L122.438 15.9506" stroke="#1B311C" stroke-linejoin="round"/>
<path d="M139.141 10.7266L139.141 22.2119" stroke="#1B311C"/>
<line x1="134.703" y1="19.625" x2="148.277" y2="19.625" stroke="#1B311C"/>
<path d="M129.742 7.07422L122.172 14.6441V16.4713H134.44V13.861L141.749 7.07422H129.742Z" fill="#1B311C" stroke="#1B311C" stroke-linejoin="round"/>
<path d="M148.273 14.6441L140.703 7.07422H142.791L150.361 14.6441H148.273Z" fill="#1B311C" stroke="#1B311C" stroke-linejoin="round"/>
<path d="M209.311 32.3919L209.811 32.3919L209.811 32.1486L209.62 31.9984L209.311 32.3919ZM209.311 36.829L209.311 37.329L209.811 37.329L209.811 36.8291L209.311 36.829ZM165.837 36.829L165.337 36.829L165.337 37.329L165.837 37.329L165.837 36.829ZM165.837 31.3479L166.337 31.3479L166.337 31.102L166.143 30.9519L165.837 31.3479ZM148.907 18.2962L148.907 17.7962C148.693 17.7962 148.503 17.9324 148.434 18.1349C148.365 18.3375 148.432 18.5615 148.602 18.6922L148.907 18.2962ZM191.33 18.2962L191.639 17.9027L191.503 17.7962L191.33 17.7962L191.33 18.2962ZM208.811 32.3919L208.811 36.829L209.811 36.8291L209.811 32.3919L208.811 32.3919ZM209.311 36.329L165.837 36.329L165.837 37.329L209.311 37.329L209.311 36.329ZM166.337 36.829L166.337 31.3479L165.337 31.3479L165.337 36.829L166.337 36.829ZM166.143 30.9519L149.212 17.9002L148.602 18.6922L165.532 31.7439L166.143 30.9519ZM191.022 18.6897L209.003 32.7854L209.62 31.9984L191.639 17.9027L191.022 18.6897ZM148.907 18.7962L191.33 18.7962L191.33 17.7962L148.907 17.7962L148.907 18.7962Z" fill="#1B311C"/>
<path d="M19.5 31L57.5 3.5V7L19.5 34V31Z" fill="#D1EEF0"/>
<defs>
<filter id="filter0_d_4712_23682" x="36.4118" y="75.4844" width="30.2328" height="12.5298" filterUnits="userSpaceOnUse" color-interpolation-filters="sRGB">
<feFlood flood-opacity="0" result="BackgroundImageFix"/>
<feColorMatrix in="SourceAlpha" type="matrix" values="0 0 0 0 0 0 0 0 0 0 0 0 0 0 0 0 0 0 127 0" result="hardAlpha"/>
<feOffset dx="-2.08824"/>
<feComposite in2="hardAlpha" operator="out"/>
<feColorMatrix type="matrix" values="0 0 0 0 0.105882 0 0 0 0 0.192157 0 0 0 0 0.109804 0 0 0 1 0"/>
<feBlend mode="normal" in2="BackgroundImageFix" result="effect1_dropShadow_4712_23682"/>
<feBlend mode="normal" in="SourceGraphic" in2="effect1_dropShadow_4712_23682" result="shape"/>
</filter>
<filter id="filter1_i_4712_23682" x="88.25" y="7.09766" width="27.6367" height="16.1396" filterUnits="userSpaceOnUse" color-interpolation-filters="sRGB">
<feFlood flood-opacity="0" result="BackgroundImageFix"/>
<feBlend mode="normal" in="SourceGraphic" in2="BackgroundImageFix" result="shape"/>
<feColorMatrix in="SourceAlpha" type="matrix" values="0 0 0 0 0 0 0 0 0 0 0 0 0 0 0 0 0 0 127 0" result="hardAlpha"/>
<feOffset dx="-4.69853" dy="2.61029"/>
<feComposite in2="hardAlpha" operator="arithmetic" k2="-1" k3="1"/>
<feColorMatrix type="matrix" values="0 0 0 0 0.105882 0 0 0 0 0.192157 0 0 0 0 0.109804 0 0 0 1 0"/>
<feBlend mode="normal" in2="shape" result="effect1_innerShadow_4712_23682"/>
</filter>
<filter id="filter2_i_4712_23682" x="183.781" y="39.3672" width="8.83203" height="8.83081" filterUnits="userSpaceOnUse" color-interpolation-filters="sRGB">
<feFlood flood-opacity="0" result="BackgroundImageFix"/>
<feBlend mode="normal" in="SourceGraphic" in2="BackgroundImageFix" result="shape"/>
<feColorMatrix in="SourceAlpha" type="matrix" values="0 0 0 0 0 0 0 0 0 0 0 0 0 0 0 0 0 0 127 0" result="hardAlpha"/>
<feOffset dx="-2.08824" dy="1.04412"/>
<feComposite in2="hardAlpha" operator="arithmetic" k2="-1" k3="1"/>
<feColorMatrix type="matrix" values="0 0 0 0 0.105882 0 0 0 0 0.192157 0 0 0 0 0.109804 0 0 0 1 0"/>
<feBlend mode="normal" in2="shape" result="effect1_innerShadow_4712_23682"/>
</filter>
<filter id="filter3_i_4712_23682" x="55.3594" y="15.3828" width="11.1797" height="12.7463" filterUnits="userSpaceOnUse" color-interpolation-filters="sRGB">
<feFlood flood-opacity="0" result="BackgroundImageFix"/>
<feBlend mode="normal" in="SourceGraphic" in2="BackgroundImageFix" result="shape"/>
<feColorMatrix in="SourceAlpha" type="matrix" values="0 0 0 0 0 0 0 0 0 0 0 0 0 0 0 0 0 0 127 0" result="hardAlpha"/>
<feOffset dx="2.08824" dy="1.04412"/>
<feComposite in2="hardAlpha" operator="arithmetic" k2="-1" k3="1"/>
<feColorMatrix type="matrix" values="0 0 0 0 0.105882 0 0 0 0 0.192157 0 0 0 0 0.109804 0 0 0 1 0"/>
<feBlend mode="normal" in2="shape" result="effect1_innerShadow_4712_23682"/>
</filter>
<filter id="filter4_i_4712_23682" x="122.188" y="7.09766" width="27.6367" height="16.1396" filterUnits="userSpaceOnUse" color-interpolation-filters="sRGB">
<feFlood flood-opacity="0" result="BackgroundImageFix"/>
<feBlend mode="normal" in="SourceGraphic" in2="BackgroundImageFix" result="shape"/>
<feColorMatrix in="SourceAlpha" type="matrix" values="0 0 0 0 0 0 0 0 0 0 0 0 0 0 0 0 0 0 127 0" result="hardAlpha"/>
<feOffset dx="-4.69853" dy="2.61029"/>
<feComposite in2="hardAlpha" operator="arithmetic" k2="-1" k3="1"/>
<feColorMatrix type="matrix" values="0 0 0 0 0.105882 0 0 0 0 0.192157 0 0 0 0 0.109804 0 0 0 1 0"/>
<feBlend mode="normal" in2="shape" result="effect1_innerShadow_4712_23682"/>
</filter>
</defs>
</svg>
