<svg width="220" height="90" viewBox="0 0 220 90" fill="none" xmlns="http://www.w3.org/2000/svg">
<rect x="9.5" y="62.5" width="5" height="27" fill="white" stroke="#1B311C"/>
<rect x="5.5" y="62.5" width="4" height="27" fill="white" stroke="#1B311C"/>
<rect x="206.5" y="62.5" width="5" height="27" fill="white" stroke="#1B311C"/>
<rect x="211.5" y="62.5" width="4" height="27" fill="white" stroke="#1B311C"/>
<path d="M12 90H86V21.1504L51 3L12 21.1504V90Z" fill="#1B311C"/>
<rect x="20" y="57" width="27" height="33" fill="#E0FCE8"/>
<rect x="20" y="56.5" width="27" height="33" fill="white" stroke="#1B311C"/>
<rect x="22" y="58.5" width="23" height="31" fill="white" stroke="#1B311C"/>
<rect x="22" y="59" width="2" height="30" fill="#1B311C"/>
<line x1="24" y1="64.5" x2="43" y2="64.5" stroke="black"/>
<line x1="24" y1="70.5" x2="43" y2="70.5" stroke="black"/>
<line x1="24" y1="76.5" x2="43" y2="76.5" stroke="black"/>
<line x1="24" y1="82.5" x2="43" y2="82.5" stroke="black"/>
<rect x="55" y="57" width="27" height="33" fill="#E0FCE8"/>
<rect x="55" y="56.5" width="27" height="33" fill="white" stroke="#1B311C"/>
<rect x="57" y="58.5" width="23" height="31" fill="white" stroke="#1B311C"/>
<rect x="57" y="59" width="2" height="30" fill="#1B311C"/>
<line x1="59" y1="64.5" x2="78" y2="64.5" stroke="black"/>
<line x1="59" y1="70.5" x2="78" y2="70.5" stroke="black"/>
<line x1="59" y1="76.5" x2="78" y2="76.5" stroke="black"/>
<line x1="59" y1="82.5" x2="78" y2="82.5" stroke="black"/>
<rect x="26" y="30" width="16" height="19" fill="#E0FCE8" stroke="#1B311C"/>
<rect width="3" height="19" transform="matrix(-1 0 0 1 26 30)" fill="#E0FCE8" stroke="#1B311C"/>
<line x1="33.5" y1="30" x2="33.5" y2="49" stroke="#1B311C"/>
<line x1="44.5" y1="40" x2="25.5" y2="40" stroke="#1B311C"/>
<rect x="20" y="49" width="18" height="2" fill="white" stroke="#1B311C"/>
<rect x="62" y="30" width="16" height="19" fill="#E0FCE8" stroke="#1B311C"/>
<rect width="3" height="19" transform="matrix(-1 0 0 1 62 30)" fill="#E0FCE8" stroke="#1B311C"/>
<line x1="69.5" y1="30" x2="69.5" y2="49" stroke="#1B311C"/>
<line x1="80.5" y1="40" x2="61.5" y2="40" stroke="#1B311C"/>
<rect x="56" y="49" width="18" height="2" fill="white" stroke="#1B311C"/>
<rect x="130" y="52" width="19" height="2" fill="white" stroke="#1B311C"/>
<rect x="86" y="22.5" width="119" height="67" fill="white" stroke="#1B311C"/>
<path d="M216.169 25.3532L216.169 21.1285L177.009 2.50496L48.5028 2.50497L86.1149 20.7388L86.1148 25.3532L216.169 25.3532Z" fill="#D1EEF0"/>
<path d="M216.169 21.1285L216.669 21.1285L216.669 20.8126L216.384 20.6769L216.169 21.1285ZM216.169 25.3532L216.169 25.8532L216.669 25.8532L216.669 25.3532L216.169 25.3532ZM86.1148 25.3532L85.6148 25.3532L85.6148 25.8533L86.1148 25.8533L86.1148 25.3532ZM86.1149 20.7388L86.6149 20.7388L86.6149 20.4255L86.333 20.2888L86.1149 20.7388ZM48.5028 2.50497L48.5028 2.00497C48.2698 2.00497 48.0677 2.16595 48.0155 2.39307C47.9634 2.62019 48.075 2.85323 48.2847 2.95489L48.5028 2.50497ZM177.009 2.50496L177.224 2.05341L177.122 2.00495L177.009 2.00495L177.009 2.50496ZM215.669 21.1285L215.669 25.3532L216.669 25.3532L216.669 21.1285L215.669 21.1285ZM216.169 24.8532L86.1148 24.8532L86.1148 25.8533L216.169 25.8532L216.169 24.8532ZM86.6148 25.3532L86.6149 20.7388L85.6149 20.7388L85.6148 25.3532L86.6148 25.3532ZM86.333 20.2888L48.7209 2.05505L48.2847 2.95489L85.8967 21.1887L86.333 20.2888ZM176.794 2.9565L215.955 21.58L216.384 20.6769L177.224 2.05341L176.794 2.9565ZM48.5028 3.00497L177.009 3.00496L177.009 2.00495L48.5028 2.00497L48.5028 3.00497Z" fill="#1B311C"/>
<path d="M51 3.81592C51.765 4.77211 53.0654 6.6845 56.7372 6.6845C60.4089 6.6845 60.3707 4.77211 59.032 3.81592" stroke="#1B311C" stroke-width="1.14743"/>
<path d="M59.125 3.97778C59.8036 4.82608 60.9573 6.52269 64.2148 6.52269C67.4723 6.52269 67.4384 4.82608 66.2507 3.97778" stroke="#1B311C" stroke-width="1.01796"/>
<path d="M66.25 3.97778C66.9286 4.82608 68.0823 6.52269 71.3398 6.52269C74.5973 6.52269 74.5634 4.82608 73.3757 3.97778" stroke="#1B311C" stroke-width="1.01796"/>
<path d="M73.3789 3.97778C74.0575 4.82608 75.2112 6.52269 78.4687 6.52269C81.7262 6.52269 81.6923 4.82608 80.5046 3.97778" stroke="#1B311C" stroke-width="1.01796"/>
<path d="M80.5039 3.97778C81.1825 4.82608 82.3362 6.52269 85.5937 6.52269C88.8512 6.52269 88.8173 4.82608 87.6296 3.97778" stroke="#1B311C" stroke-width="1.01796"/>
<path d="M87.6289 3.97778C88.3075 4.82608 89.4612 6.52269 92.7187 6.52269C95.9762 6.52269 95.9423 4.82608 94.7546 3.97778" stroke="#1B311C" stroke-width="1.01796"/>
<path d="M94.7539 3.97778C95.4325 4.82608 96.5862 6.52269 99.8437 6.52269C103.101 6.52269 103.067 4.82608 101.88 3.97778" stroke="#1B311C" stroke-width="1.01796"/>
<path d="M101.879 3.97778C102.558 4.82608 103.711 6.52269 106.969 6.52269C110.226 6.52269 110.192 4.82608 109.005 3.97778" stroke="#1B311C" stroke-width="1.01796"/>
<path d="M109.008 3.97778C109.686 4.82608 110.84 6.52269 114.098 6.52269C117.355 6.52269 117.321 4.82608 116.134 3.97778" stroke="#1B311C" stroke-width="1.01796"/>
<path d="M116.133 3.97778C116.811 4.82608 117.965 6.52269 121.223 6.52269C124.48 6.52269 124.446 4.82608 123.259 3.97778" stroke="#1B311C" stroke-width="1.01796"/>
<path d="M123.258 3.97778C123.936 4.82608 125.09 6.52269 128.348 6.52269C131.605 6.52269 131.571 4.82608 130.384 3.97778" stroke="#1B311C" stroke-width="1.01796"/>
<path d="M130.383 3.97778C131.061 4.82608 132.215 6.52269 135.473 6.52269C138.73 6.52269 138.696 4.82608 137.509 3.97778" stroke="#1B311C" stroke-width="1.01796"/>
<path d="M137.508 3.97778C138.186 4.82608 139.34 6.52269 142.598 6.52269C145.855 6.52269 145.821 4.82608 144.634 3.97778" stroke="#1B311C" stroke-width="1.01796"/>
<path d="M144.633 3.97778C145.311 4.82608 146.465 6.52269 149.723 6.52269C152.98 6.52269 152.946 4.82608 151.759 3.97778" stroke="#1B311C" stroke-width="1.01796"/>
<path d="M151.762 3.97778C152.44 4.82608 153.594 6.52269 156.852 6.52269C160.109 6.52269 160.075 4.82608 158.887 3.97778" stroke="#1B311C" stroke-width="1.01796"/>
<path d="M158.887 3.97778C159.565 4.82608 160.719 6.52269 163.977 6.52269C167.234 6.52269 167.2 4.82608 166.012 3.97778" stroke="#1B311C" stroke-width="1.01796"/>
<path d="M166.012 3.97778C166.69 4.82608 167.844 6.52269 171.102 6.52269C174.359 6.52269 174.325 4.82608 173.137 3.97778" stroke="#1B311C" stroke-width="1.01796"/>
<path d="M173.137 3.97778C173.815 4.82608 174.969 6.52269 178.227 6.52269C181.484 6.52269 181.45 4.82608 180.262 3.97778" stroke="#1B311C" stroke-width="1.01796"/>
<path d="M61 9C61.6839 9.83333 62.8465 11.5 66.1293 11.5C69.412 11.5 69.3778 9.83333 68.181 9" stroke="#1B311C"/>
<path d="M68.1797 9C68.8636 9.83333 70.0262 11.5 73.309 11.5C76.5917 11.5 76.5575 9.83333 75.3607 9" stroke="#1B311C"/>
<path d="M75.3594 9C76.0433 9.83333 77.2059 11.5 80.4886 11.5C83.7714 11.5 83.7372 9.83333 82.5403 9" stroke="#1B311C"/>
<path d="M82.5391 9C83.223 9.83333 84.3856 11.5 87.6683 11.5C90.9511 11.5 90.9169 9.83333 89.72 9" stroke="#1B311C"/>
<path d="M89.7188 9C90.4027 9.83333 91.5653 11.5 94.848 11.5C98.1307 11.5 98.0965 9.83333 96.8997 9" stroke="#1B311C"/>
<path d="M96.8984 9C97.5823 9.83333 98.745 11.5 102.028 11.5C105.31 11.5 105.276 9.83333 104.079 9" stroke="#1B311C"/>
<path d="M104.086 9C104.77 9.83333 105.932 11.5 109.215 11.5C112.498 11.5 112.464 9.83333 111.267 9" stroke="#1B311C"/>
<path d="M111.266 9C111.95 9.83333 113.112 11.5 116.395 11.5C119.678 11.5 119.643 9.83333 118.447 9" stroke="#1B311C"/>
<path d="M118.453 9C119.137 9.83333 120.3 11.5 123.582 11.5C126.865 11.5 126.831 9.83333 125.634 9" stroke="#1B311C"/>
<path d="M125.633 9C126.317 9.83333 127.479 11.5 130.762 11.5C134.045 11.5 134.011 9.83333 132.814 9" stroke="#1B311C"/>
<path d="M132.812 9C133.496 9.83333 134.659 11.5 137.942 11.5C141.224 11.5 141.19 9.83333 139.993 9" stroke="#1B311C"/>
<path d="M139.992 9C140.676 9.83333 141.839 11.5 145.121 11.5C148.404 11.5 148.37 9.83333 147.173 9" stroke="#1B311C"/>
<path d="M147.172 9C147.856 9.83333 149.018 11.5 152.301 11.5C155.584 11.5 155.55 9.83333 154.353 9" stroke="#1B311C"/>
<path d="M154.352 9C155.035 9.83333 156.198 11.5 159.481 11.5C162.764 11.5 162.729 9.83333 161.533 9" stroke="#1B311C"/>
<path d="M161.531 9C162.215 9.83333 163.378 11.5 166.661 11.5C169.943 11.5 169.909 9.83333 168.712 9" stroke="#1B311C"/>
<path d="M168.711 9C169.395 9.83333 170.557 11.5 173.84 11.5C177.123 11.5 177.089 9.83333 175.892 9" stroke="#1B311C"/>
<path d="M175.898 9C176.582 9.83333 177.745 11.5 181.028 11.5C184.31 11.5 184.276 9.83333 183.079 9" stroke="#1B311C"/>
<path d="M183.078 9C183.762 9.83333 184.925 11.5 188.207 11.5C191.49 11.5 191.456 9.83333 190.259 9" stroke="#1B311C"/>
<path d="M72 14C72.6839 14.8333 73.8465 16.5 77.1293 16.5C80.412 16.5 80.3778 14.8333 79.181 14" stroke="#1B311C"/>
<path d="M79.1797 14C79.8636 14.8333 81.0262 16.5 84.309 16.5C87.5917 16.5 87.5575 14.8333 86.3607 14" stroke="#1B311C"/>
<path d="M86.3594 14C87.0433 14.8333 88.2059 16.5 91.4886 16.5C94.7714 16.5 94.7372 14.8333 93.5403 14" stroke="#1B311C"/>
<path d="M93.5391 14C94.223 14.8333 95.3856 16.5 98.6683 16.5C101.951 16.5 101.917 14.8333 100.72 14" stroke="#1B311C"/>
<path d="M100.719 14C101.403 14.8333 102.565 16.5 105.848 16.5C109.131 16.5 109.097 14.8333 107.9 14" stroke="#1B311C"/>
<path d="M107.898 14C108.582 14.8333 109.745 16.5 113.028 16.5C116.31 16.5 116.276 14.8333 115.079 14" stroke="#1B311C"/>
<path d="M115.086 14C115.77 14.8333 116.932 16.5 120.215 16.5C123.498 16.5 123.464 14.8333 122.267 14" stroke="#1B311C"/>
<path d="M122.266 14C122.95 14.8333 124.112 16.5 127.395 16.5C130.678 16.5 130.643 14.8333 129.447 14" stroke="#1B311C"/>
<path d="M129.453 14C130.137 14.8333 131.3 16.5 134.582 16.5C137.865 16.5 137.831 14.8333 136.634 14" stroke="#1B311C"/>
<path d="M136.633 14C137.317 14.8333 138.479 16.5 141.762 16.5C145.045 16.5 145.011 14.8333 143.814 14" stroke="#1B311C"/>
<path d="M143.812 14C144.496 14.8333 145.659 16.5 148.942 16.5C152.224 16.5 152.19 14.8333 150.993 14" stroke="#1B311C"/>
<path d="M150.992 14C151.676 14.8333 152.839 16.5 156.121 16.5C159.404 16.5 159.37 14.8333 158.173 14" stroke="#1B311C"/>
<path d="M158.172 14C158.856 14.8333 160.018 16.5 163.301 16.5C166.584 16.5 166.55 14.8333 165.353 14" stroke="#1B311C"/>
<path d="M165.352 14C166.035 14.8333 167.198 16.5 170.481 16.5C173.764 16.5 173.729 14.8333 172.533 14" stroke="#1B311C"/>
<path d="M172.531 14C173.215 14.8333 174.378 16.5 177.661 16.5C180.943 16.5 180.909 14.8333 179.712 14" stroke="#1B311C"/>
<path d="M179.711 14C180.395 14.8333 181.557 16.5 184.84 16.5C188.123 16.5 188.089 14.8333 186.892 14" stroke="#1B311C"/>
<path d="M186.898 14C187.582 14.8333 188.745 16.5 192.028 16.5C195.31 16.5 195.276 14.8333 194.079 14" stroke="#1B311C"/>
<path d="M194.078 14C194.762 14.8333 195.925 16.5 199.207 16.5C202.49 16.5 202.456 14.8333 201.259 14" stroke="#1B311C"/>
<path d="M82 19C82.6839 19.8333 83.8465 21.5 87.1293 21.5C90.412 21.5 90.3778 19.8333 89.181 19" stroke="#1B311C"/>
<path d="M89.1797 19C89.8636 19.8333 91.0262 21.5 94.309 21.5C97.5917 21.5 97.5575 19.8333 96.3607 19" stroke="#1B311C"/>
<path d="M96.3594 19C97.0433 19.8333 98.2059 21.5 101.489 21.5C104.771 21.5 104.737 19.8333 103.54 19" stroke="#1B311C"/>
<path d="M103.539 19C104.223 19.8333 105.386 21.5 108.668 21.5C111.951 21.5 111.917 19.8333 110.72 19" stroke="#1B311C"/>
<path d="M110.719 19C111.403 19.8333 112.565 21.5 115.848 21.5C119.131 21.5 119.097 19.8333 117.9 19" stroke="#1B311C"/>
<path d="M117.898 19C118.582 19.8333 119.745 21.5 123.028 21.5C126.31 21.5 126.276 19.8333 125.079 19" stroke="#1B311C"/>
<path d="M125.086 19C125.77 19.8333 126.932 21.5 130.215 21.5C133.498 21.5 133.464 19.8333 132.267 19" stroke="#1B311C"/>
<path d="M132.266 19C132.95 19.8333 134.112 21.5 137.395 21.5C140.678 21.5 140.643 19.8333 139.447 19" stroke="#1B311C"/>
<path d="M139.453 19C140.137 19.8333 141.3 21.5 144.582 21.5C147.865 21.5 147.831 19.8333 146.634 19" stroke="#1B311C"/>
<path d="M146.633 19C147.317 19.8333 148.479 21.5 151.762 21.5C155.045 21.5 155.011 19.8333 153.814 19" stroke="#1B311C"/>
<path d="M153.812 19C154.496 19.8333 155.659 21.5 158.942 21.5C162.224 21.5 162.19 19.8333 160.993 19" stroke="#1B311C"/>
<path d="M160.992 19C161.676 19.8333 162.839 21.5 166.121 21.5C169.404 21.5 169.37 19.8333 168.173 19" stroke="#1B311C"/>
<path d="M168.172 19C168.856 19.8333 170.018 21.5 173.301 21.5C176.584 21.5 176.55 19.8333 175.353 19" stroke="#1B311C"/>
<path d="M175.352 19C176.035 19.8333 177.198 21.5 180.481 21.5C183.764 21.5 183.729 19.8333 182.533 19" stroke="#1B311C"/>
<path d="M182.531 19C183.215 19.8333 184.378 21.5 187.661 21.5C190.943 21.5 190.909 19.8333 189.712 19" stroke="#1B311C"/>
<path d="M189.711 19C190.395 19.8333 191.557 21.5 194.84 21.5C198.123 21.5 198.089 19.8333 196.892 19" stroke="#1B311C"/>
<path d="M196.898 19C197.582 19.8333 198.745 21.5 202.028 21.5C205.31 21.5 205.276 19.8333 204.079 19" stroke="#1B311C"/>
<path d="M204.078 19C204.762 19.8333 205.925 21.5 209.207 21.5C212.49 21.5 212.456 19.8333 211.259 19" stroke="#1B311C"/>
<rect width="12" height="4" transform="matrix(-1 0 0 1 98 85.5)" fill="#1B311C" stroke="#1B311C"/>
<rect x="100" y="31" width="15" height="19" fill="#E0FCE8" stroke="#1B311C"/>
<rect x="116" y="31" width="4" height="19" fill="#1B311C" stroke="#1B311C"/>
<rect x="100" y="29" width="20" height="1" fill="#1B311C" stroke="#1B311C"/>
<line x1="106.5" y1="31" x2="106.5" y2="50" stroke="#1B311C"/>
<line x1="118" y1="41.5" x2="100" y2="41.5" stroke="#1B311C"/>
<rect x="100" y="60" width="15" height="19" fill="#E0FCE8" stroke="#1B311C"/>
<rect x="116" y="60" width="4" height="19" fill="#1B311C" stroke="#1B311C"/>
<line x1="106.5" y1="60" x2="106.5" y2="79" stroke="#1B311C"/>
<line x1="118" y1="70.5" x2="100" y2="70.5" stroke="#1B311C"/>
<rect x="176" y="60" width="15" height="19" fill="#E0FCE8" stroke="#1B311C"/>
<rect x="192" y="60" width="4" height="19" fill="#1B311C" stroke="#1B311C"/>
<line x1="182.5" y1="60" x2="182.5" y2="79" stroke="#1B311C"/>
<line x1="194" y1="70.5" x2="176" y2="70.5" stroke="#1B311C"/>
<rect x="176" y="31" width="15" height="19" fill="#E0FCE8" stroke="#1B311C"/>
<rect x="192" y="31" width="4" height="19" fill="#1B311C" stroke="#1B311C"/>
<rect x="176" y="29" width="20" height="1" fill="#1B311C" stroke="#1B311C"/>
<line x1="182.5" y1="31" x2="182.5" y2="50" stroke="#1B311C"/>
<line x1="194" y1="41.5" x2="176" y2="41.5" stroke="#1B311C"/>
<rect x="127" y="25.9775" width="6" height="63.0226" fill="white" stroke="#1B311C"/>
<rect x="125" y="25.9775" width="2" height="62.5487" fill="#1B311C" stroke="#1B311C"/>
<rect x="127" y="25.9775" width="6" height="58.5564" fill="white" stroke="#1B311C"/>
<rect x="125" y="25.9775" width="2" height="62.5487" fill="#1B311C" stroke="#1B311C"/>
<path d="M125.5 25.9775H136C136 27.6219 134.667 28.955 133.023 28.955H128.477C126.833 28.955 125.5 27.6219 125.5 25.9775Z" fill="white" stroke="#1B311C"/>
<path d="M122 25.9775H125.5V28.9326H124.955C123.323 28.9326 122 27.6096 122 25.9775Z" fill="#1B311C" stroke="#1B311C"/>
<path d="M125.5 84.5338C125.5 82.8894 126.833 81.5564 128.477 81.5564H133.023C134.667 81.5564 136 82.8894 136 84.5338H125.5Z" fill="white" stroke="#1B311C"/>
<path d="M122 84.5115C122 82.8794 123.323 81.5564 124.955 81.5564H125.5V84.5115H122Z" fill="#1B311C" stroke="#1B311C"/>
<rect x="167" y="25.9775" width="6" height="63.0226" fill="white" stroke="#1B311C"/>
<rect x="165" y="25.9775" width="2" height="62.5487" fill="#1B311C" stroke="#1B311C"/>
<rect x="167" y="25.9775" width="6" height="58.5564" fill="white" stroke="#1B311C"/>
<rect x="165" y="25.9775" width="2" height="62.5487" fill="#1B311C" stroke="#1B311C"/>
<path d="M165.5 25.9775H176C176 27.6219 174.667 28.955 173.023 28.955H168.477C166.833 28.955 165.5 27.6219 165.5 25.9775Z" fill="white" stroke="#1B311C"/>
<path d="M162 25.9775H165.5V28.9326H164.955C163.323 28.9326 162 27.6096 162 25.9775Z" fill="#1B311C" stroke="#1B311C"/>
<path d="M165.5 84.5338C165.5 82.8894 166.833 81.5564 168.477 81.5564H173.023C174.667 81.5564 176 82.8894 176 84.5338H165.5Z" fill="white" stroke="#1B311C"/>
<path d="M162 84.5115C162 82.8794 163.323 81.5564 164.955 81.5564H165.5V84.5115H162Z" fill="#1B311C" stroke="#1B311C"/>
<rect x="202" y="25.9775" width="6" height="63.0226" fill="white" stroke="#1B311C"/>
<rect x="200" y="25.9775" width="2" height="62.5487" fill="#1B311C" stroke="#1B311C"/>
<rect x="202" y="25.9775" width="6" height="58.5564" fill="white" stroke="#1B311C"/>
<rect x="200" y="25.9775" width="2" height="62.5487" fill="#1B311C" stroke="#1B311C"/>
<path d="M200.5 25.9775H211C211 27.6219 209.667 28.955 208.023 28.955H203.477C201.833 28.955 200.5 27.6219 200.5 25.9775Z" fill="white" stroke="#1B311C"/>
<path d="M197 25.9775H200.5V28.9326H199.955C198.323 28.9326 197 27.6096 197 25.9775Z" fill="#1B311C" stroke="#1B311C"/>
<path d="M200.5 84.5338C200.5 82.8894 201.833 81.5564 203.477 81.5564H208.023C209.667 81.5564 211 82.8894 211 84.5338H200.5Z" fill="white" stroke="#1B311C"/>
<path d="M197 84.5115C197 82.8794 198.323 81.5564 199.955 81.5564H200.5V84.5115H197Z" fill="#1B311C" stroke="#1B311C"/>
<rect x="91" y="25.9775" width="6" height="63.0226" fill="white" stroke="#1B311C"/>
<rect x="89" y="25.9775" width="2" height="62.5487" fill="#1B311C" stroke="#1B311C"/>
<rect x="91" y="25.9775" width="6" height="58.5564" fill="white" stroke="#1B311C"/>
<rect x="89" y="25.9775" width="2" height="62.5487" fill="#1B311C" stroke="#1B311C"/>
<path d="M89.5 25.9775H100C100 27.6219 98.667 28.955 97.0226 28.955H92.4774C90.833 28.955 89.5 27.6219 89.5 25.9775Z" fill="white" stroke="#1B311C"/>
<path d="M86 25.9775H89.5V28.9326H88.9551C87.323 28.9326 86 27.6096 86 25.9775Z" fill="#1B311C" stroke="#1B311C"/>
<path d="M89.5 84.5338C89.5 82.8894 90.833 81.5564 92.4774 81.5564H97.0226C98.667 81.5564 100 82.8894 100 84.5338H89.5Z" fill="white" stroke="#1B311C"/>
<path d="M86 84.5115C86 82.8794 87.323 81.5564 88.9551 81.5564H89.5V84.5115H86Z" fill="#1B311C" stroke="#1B311C"/>
<rect x="91" y="85" width="114" height="4" fill="white" stroke="#1B311C"/>
<rect x="138" y="46" width="16.1838" height="36.0221" fill="#00300D" stroke="#1B311C"/>
<rect x="140.086" y="52.2656" width="9.91912" height="27.6691" fill="white"/>
<rect x="143.133" y="55.0078" width="4" height="9" fill="#E0F6F7" stroke="#1B311C"/>
<rect x="144" y="81" width="15" height="4" fill="white" stroke="#1B311C"/>
<rect x="148" y="85" width="15" height="4" fill="white" stroke="#1B311C"/>
<rect x="138" y="82" width="6" height="3" fill="#00300D" stroke="#1B311C"/>
<rect x="138" y="86" width="10" height="3" fill="#00300D" stroke="#1B311C"/>
<g filter="url(#filter0_i_4712_23858)">
<path d="M138 41.5C138 36.8056 141.806 33 146.5 33C151.194 33 155 36.8056 155 41.5V42H138V41.5Z" fill="#E0FCE8"/>
</g>
<path d="M138.5 41.5C138.5 37.0817 142.082 33.5 146.5 33.5C150.918 33.5 154.5 37.0817 154.5 41.5H138.5Z" stroke="#1B311C"/>
<line x1="146.646" y1="41.3536" x2="140.646" y2="35.3536" stroke="#1B311C"/>
<line y1="-0.5" x2="8.48528" y2="-0.5" transform="matrix(0.707107 -0.707107 -0.707107 -0.707107 146 41)" stroke="#1B311C"/>
<line x1="146.5" y1="41" x2="146.5" y2="34" stroke="#1B311C"/>
<path fill-rule="evenodd" clip-rule="evenodd" d="M18.9735 85C19.0605 84.6019 19.1063 84.1883 19.1063 83.7641C19.1063 80.5807 16.5257 78 13.3422 78C11.1641 78 9.26818 79.2081 8.28793 80.9908C7.73071 80.7407 7.11287 80.6016 6.46253 80.6016C3.99794 80.6016 2 82.5995 2 85.0641C2 87.3725 3.75275 89.2715 6 89.5029V90H19V85H18.9735Z" fill="#1B311C"/>
<path fill-rule="evenodd" clip-rule="evenodd" d="M214.109 89.5029C216.357 89.2715 218.109 87.3725 218.109 85.0641C218.109 82.5995 216.111 80.6016 213.647 80.6016C212.997 80.6016 212.379 80.7407 211.821 80.9908C210.841 79.2081 208.945 78 206.767 78C204.523 78 202.579 79.2823 201.626 81.1542C201.254 81.0536 200.863 81 200.459 81C197.995 81 195.997 82.9979 195.997 85.4625C195.997 87.9271 197.995 89.9251 200.459 89.9251C200.68 89.9251 200.897 89.909 201.109 89.8781V90H214.109V89.5029Z" fill="#1B311C"/>
<path fill-rule="evenodd" clip-rule="evenodd" d="M104.109 89.5029C106.357 89.2715 108.109 87.3725 108.109 85.0641C108.109 82.5995 106.111 80.6016 103.647 80.6016C102.997 80.6016 102.379 80.7407 101.821 80.9908C100.841 79.2081 98.9453 78 96.7671 78C94.5231 78 92.5786 79.2823 91.6264 81.1542C91.2544 81.0536 90.8631 81 90.4593 81C87.9948 81 85.9968 82.9979 85.9968 85.4625C85.9968 87.9271 87.9948 89.9251 90.4593 89.9251C90.6801 89.9251 90.8972 89.909 91.1094 89.8781V90H104.109V89.5029Z" fill="#1B311C"/>
<path d="M9 26H86V21H9V26Z" fill="#1B311C"/>
<path d="M12.6442 22.1484H81.8199H85.5813L48.2619 2.00138L8.88281 21.1484L12.6442 22.1484Z" fill="#1B311C"/>
<path d="M10.5 22L48 3.5V6L10.5 24V22Z" fill="#D1EEF0"/>
<line x1="190.33" y1="30.275" x2="185.274" y2="35.3305" stroke="#1B311C" stroke-width="0.777778"/>
<line x1="193.052" y1="30.275" x2="187.997" y2="35.3305" stroke="#1B311C" stroke-width="0.777778"/>
<line x1="40.3297" y1="30.275" x2="35.2741" y2="35.3305" stroke="#1B311C" stroke-width="0.777778"/>
<line x1="43.0523" y1="30.275" x2="37.9968" y2="35.3305" stroke="#1B311C" stroke-width="0.777778"/>
<path d="M0 89.5H220" stroke="#1B311C"/>
<defs>
<filter id="filter0_i_4712_23858" x="138" y="33" width="17" height="9" filterUnits="userSpaceOnUse" color-interpolation-filters="sRGB">
<feFlood flood-opacity="0" result="BackgroundImageFix"/>
<feBlend mode="normal" in="SourceGraphic" in2="BackgroundImageFix" result="shape"/>
<feColorMatrix in="SourceAlpha" type="matrix" values="0 0 0 0 0 0 0 0 0 0 0 0 0 0 0 0 0 0 127 0" result="hardAlpha"/>
<feOffset dx="-2" dy="1"/>
<feComposite in2="hardAlpha" operator="arithmetic" k2="-1" k3="1"/>
<feColorMatrix type="matrix" values="0 0 0 0 0.105882 0 0 0 0 0.192157 0 0 0 0 0.109804 0 0 0 1 0"/>
<feBlend mode="normal" in2="shape" result="effect1_innerShadow_4712_23858"/>
</filter>
</defs>
</svg>
