<svg width="445" height="255" viewBox="0 0 445 255" fill="none" xmlns="http://www.w3.org/2000/svg">
<g filter="url(#filter0_d_4254_13715)">
<rect x="25" y="1" width="419" height="253" rx="40" fill="white"/>
<rect x="24.5" y="0.5" width="420" height="254" rx="40.5" stroke="#1B311C"/>
</g>
<path d="M98.2634 76.0282V104H93.8952V80.8179H93.7803L85.8485 104H81.327L73.2037 80.8179H73.0888V104H68.9505V76.0282H75.8093L83.5495 98.7122H83.8177L91.4046 76.0282H98.2634ZM108.583 104.421C104.407 104.421 101.954 102.007 101.954 99.057C101.954 96.0299 104.253 94.7655 107.472 93.8075L116.055 91.3169C115.978 88.7879 114.101 87.4468 111.534 87.4468C109.273 87.4468 106.859 88.3664 105.479 91.815L101.992 90.4356C103.947 85.6842 107.855 84.2664 111.878 84.2664C117.358 84.2664 120.347 87.1019 120.347 91.5468V98.4439C120.347 100.015 120.806 100.935 122.109 100.935C122.684 100.935 123.374 100.743 123.872 100.398V103.655C123.067 104.038 121.726 104.383 120.538 104.383C117.511 104.383 116.477 102.85 116.208 101.011H116.17C114.599 103.234 111.878 104.421 108.583 104.421ZM106.399 98.7505C106.399 99.9383 107.434 101.088 109.733 101.088C112.53 101.088 115.519 99.7084 116.055 96.6813V94.2673L109.273 96.5281C107.434 97.1412 106.399 97.5243 106.399 98.7505ZM138.562 84.6879H143.084L134.73 106.337C133.236 110.131 130.86 111.893 126.722 111.893C125.381 111.893 123.848 111.625 123.044 111.28V107.947C124.231 108.33 125.496 108.483 126.492 108.483C127.833 108.483 128.446 108.292 129.098 107.793C129.941 107.219 130.362 106.146 130.362 105.073C130.362 104.192 130.056 103.119 129.404 101.509L122.584 84.6879H127.258L132.968 100.551H133.159L138.562 84.6879ZM153.186 85.6459C154.297 78.6721 158.282 75.6067 164.413 75.6067C170.084 75.6067 174.184 78.9403 174.184 84.5347C174.184 88.9029 171.693 91.1253 168.513 93.0028L163.685 95.8C161.233 97.2178 159.393 98.4056 158.474 100.245H174.759V104H153.722V102.697C153.722 99.2103 155.217 96.6047 160.543 93.4627L165.141 90.8187C167.67 89.3627 169.663 87.7533 169.663 84.6496C169.663 81.3543 167.478 79.2851 164.145 79.2851C160.466 79.2851 158.167 81.1244 157.286 86.144L153.186 85.6459ZM198.965 93.7692V97.4094H194.367V104H189.96V97.4094H175.4V93.1944L187.891 76.0282H194.367V93.7692H198.965ZM179.385 93.7692H189.96V79.2085L179.385 93.7692ZM216.202 104.421C212.025 104.421 209.573 102.007 209.573 99.057C209.573 96.0299 211.872 94.7655 215.09 93.8075L223.674 91.3169C223.597 88.7879 221.719 87.4468 219.152 87.4468C216.891 87.4468 214.477 88.3664 213.098 91.815L209.611 90.4356C211.565 85.6842 215.474 84.2664 219.497 84.2664C224.976 84.2664 227.965 87.1019 227.965 91.5468V98.4439C227.965 100.015 228.425 100.935 229.728 100.935C230.303 100.935 230.992 100.743 231.49 100.398V103.655C230.686 104.038 229.345 104.383 228.157 104.383C225.13 104.383 224.095 102.85 223.827 101.011H223.789C222.218 103.234 219.497 104.421 216.202 104.421ZM214.018 98.7505C214.018 99.9383 215.052 101.088 217.351 101.088C220.148 101.088 223.137 99.7084 223.674 96.6813V94.2673L216.891 96.5281C215.052 97.1412 214.018 97.5243 214.018 98.7505ZM231.516 84.6879H235.041L236.075 79.0169H238.911V84.6879H244.467V87.9449H238.911V97.8692C238.911 100.245 239.601 101.011 241.746 101.011C242.551 101.011 243.432 100.896 244.544 100.628V103.808C243.049 104.153 241.861 104.307 240.214 104.307C236.42 104.307 234.543 102.659 234.543 99.2103V87.9449H231.516V84.6879ZM255.38 96.1832L259.671 95.6084C260.514 99.4019 262.89 100.743 266.53 100.743C270.553 100.743 273.044 99.0953 273.044 95.6468C273.044 92.5814 270.822 91.4701 267.756 91.4701H263.618V87.8683H267.258C269.749 87.8683 272.201 87.0253 272.201 84.1132C272.201 81.316 269.979 79.2851 266.645 79.2851C262.852 79.2851 260.553 81.1627 259.939 84.9562L255.763 84.4197C256.567 78.787 260.591 75.6067 266.913 75.6067C273.006 75.6067 276.684 79.0552 276.684 83.5001C276.684 86.1823 275.458 88.5963 272.661 89.401V89.5159C275.535 90.129 277.566 92.1982 277.566 96.1066C277.566 101.739 272.852 104.421 266.492 104.421C260.323 104.421 256.376 101.854 255.38 96.1832ZM281.745 84.6879H286.649V90.3973H281.745V84.6879ZM281.745 104V98.2907H286.649V104H281.745ZM290.853 96.1832L295.145 95.6084C295.988 99.4019 298.364 100.743 302.004 100.743C306.027 100.743 308.518 99.0953 308.518 95.6468C308.518 92.5814 306.295 91.4701 303.23 91.4701H299.092V87.8683H302.732C305.222 87.8683 307.675 87.0253 307.675 84.1132C307.675 81.316 305.452 79.2851 302.119 79.2851C298.325 79.2851 296.026 81.1627 295.413 84.9562L291.237 84.4197C292.041 78.787 296.065 75.6067 302.387 75.6067C308.479 75.6067 312.158 79.0552 312.158 83.5001C312.158 86.1823 310.932 88.5963 308.135 89.401V89.5159C311.008 90.129 313.039 92.1982 313.039 96.1066C313.039 101.739 308.326 104.421 301.965 104.421C295.796 104.421 291.85 101.854 290.853 96.1832ZM327.994 104.421C320.523 104.421 315.924 98.9421 315.924 90.0141C315.924 81.0861 320.523 75.6067 327.994 75.6067C335.505 75.6067 340.103 81.0861 340.103 90.0141C340.103 98.9421 335.505 104.421 327.994 104.421ZM320.523 90.0141C320.523 97.1028 323.281 100.743 327.994 100.743C332.746 100.743 335.505 97.1028 335.505 90.0141C335.505 82.9253 332.746 79.2851 327.994 79.2851C323.281 79.2851 320.523 82.9253 320.523 90.0141ZM354.635 84.2664C360 84.2664 363.985 88.0216 363.985 94.344C363.985 100.666 359.962 104.421 354.635 104.421C351.685 104.421 349.156 103.004 347.815 101.126V111.587H343.447V84.6879H347.777V87.715C349.003 85.6842 351.685 84.2664 354.635 84.2664ZM347.777 94.8038C347.777 98.4056 350.267 101.164 353.716 101.164C357.203 101.164 359.502 98.3673 359.502 94.344C359.502 90.3206 357.164 87.5234 353.754 87.5234C350.267 87.5234 347.777 90.2823 347.777 93.8458V94.8038ZM366.946 104V84.6496H371.199V87.5618H371.238C372.579 85.4543 374.763 84.2664 377.445 84.2664C380.242 84.2664 382.58 85.4926 383.806 87.7917C385.224 85.5692 387.638 84.2664 390.741 84.2664C395.186 84.2664 398.29 87.0636 398.29 92.0066V104H393.922V92.6197C393.922 89.5159 392.427 87.7917 389.783 87.7917C386.795 87.7917 384.802 90.0524 384.802 93.6159V104H380.434V92.6197C380.434 89.5159 379.016 87.7917 376.296 87.7917C373.345 87.7917 371.314 90.0524 371.314 93.6159V104H366.946Z" fill="#0E150E"/>
<g filter="url(#filter1_d_4254_13715)">
<rect x="63" y="137" width="239" height="89" rx="44.5" fill="#7DFFB9"/>
<rect x="62.5" y="136.5" width="240" height="90" rx="45" stroke="#1B311C"/>
</g>
<g filter="url(#filter2_d_4254_13715)">
<rect x="325" y="137" width="89" height="89" rx="44.5" fill="#F4CDAB"/>
<rect x="324.5" y="136.5" width="90" height="90" rx="45" stroke="#1B311C"/>
</g>
<path d="M158 181.958C163.953 186.083 173.112 198 174.028 198C174.944 198 181.355 184.708 207 165" stroke="#1B311C" stroke-width="4"/>
<line x1="350.414" y1="162.586" x2="388.414" y2="200.586" stroke="#1B311C" stroke-width="4"/>
<line y1="-2" x2="53.7401" y2="-2" transform="matrix(-0.707107 0.707107 0.707107 0.707107 390 164)" stroke="#1B311C" stroke-width="4"/>
<circle cx="72" cy="46.5" r="8.5" fill="#7DFFB9" stroke="#1B311C"/>
<path d="M101.195 38.4364H103.498V54H100.47L93.9036 43.2121L92.9655 41.5918V54H90.6416V38.4364H93.6478L100.236 49.3096L101.195 50.9726V38.4364ZM116.007 50.9939C115.154 53.2325 113.022 54.2132 110.677 54.2132C107.202 54.2132 105.198 51.9959 105.198 48.7766C105.198 45.408 107.266 43.0202 110.805 43.0202C114.131 43.0202 116.22 45.408 116.071 49.0964H107.607C107.756 51.2284 108.972 52.401 110.89 52.401C112.447 52.401 113.555 51.7614 113.982 50.3969L116.007 50.9939ZM107.671 47.4974H113.662C113.449 45.7492 112.319 44.7898 110.762 44.7898C109.142 44.7898 108.012 45.7492 107.671 47.4974ZM131.511 43.2547H133.878L130.594 54H127.674L125.137 45.8558H125.051L122.408 54H119.572L116.289 43.2547H118.826L121.171 51.6335H121.235L123.943 43.2547H126.352L129.017 51.6335H129.123L131.511 43.2547ZM140.437 49.7786C141.801 51.5695 143.294 52.1665 145.234 52.1665C147.707 52.1665 148.837 51.1218 148.837 49.6934C148.837 48.2436 147.771 47.7532 145.959 47.4548L143.315 46.9857C140.778 46.538 139.115 45.3867 139.115 42.8283C139.115 39.9075 141.674 38.2019 144.936 38.2019C147.131 38.2019 149.391 38.8628 150.969 41.0588L149.263 42.4232C148.027 40.7816 146.471 40.2486 144.914 40.2486C142.867 40.2486 141.482 41.2293 141.482 42.6578C141.482 43.9796 142.313 44.5126 144.019 44.7898L146.492 45.2162C149.178 45.6639 151.225 46.6233 151.225 49.4588C151.225 52.4863 148.794 54.2345 145.17 54.2345C142.271 54.2345 140.501 53.5736 138.71 51.2284L140.437 49.7786ZM152.725 38.4364H155.155V44.8111H155.177C155.774 43.7877 157.01 43.0202 158.737 43.0202C161.381 43.0202 162.895 44.5766 162.895 47.3055V54H160.464V47.668C160.464 45.9197 159.633 44.9816 158.055 44.9816C156.307 44.9816 155.155 46.2395 155.155 48.2223V54H152.725V38.4364ZM169.901 54.2345C166.404 54.2345 164.166 51.9106 164.166 48.6274C164.166 45.3441 166.404 43.0202 169.901 43.0202C173.419 43.0202 175.657 45.3441 175.657 48.6274C175.657 51.9106 173.419 54.2345 169.901 54.2345ZM166.66 48.6274C166.66 50.8873 167.875 52.4436 169.901 52.4436C171.926 52.4436 173.163 50.8873 173.163 48.6274C173.163 46.3674 171.926 44.8111 169.901 44.8111C167.875 44.8111 166.66 46.3674 166.66 48.6274ZM191.02 43.2547H193.387L190.103 54H187.183L184.646 45.8558H184.56L181.917 54H179.081L175.798 43.2547H178.335L180.68 51.6335H180.744L183.452 43.2547H185.861L188.526 51.6335H188.632L191.02 43.2547ZM194.277 54V43.2547H196.707V54H194.277ZM194.277 41.3999V38.4364H196.707V41.3999H194.277ZM198.758 43.2547H201.125V44.8537C201.892 43.6811 203.171 43.0202 204.77 43.0202C207.414 43.0202 208.928 44.5552 208.928 47.3055V54H206.497V47.668C206.497 45.9197 205.666 44.9816 204.088 44.9816C202.34 44.9816 201.189 46.2182 201.189 48.201V54H198.758V43.2547ZM215.529 58.4559C211.926 58.4559 210.647 57.0914 210.647 55.7269C210.647 54.6396 211.457 54.1706 212.395 53.9147V53.8081C211.009 53.6376 210.241 52.9127 210.241 51.6761C210.241 50.6101 211.073 49.7147 212.651 49.267V49.139C211.585 48.5208 210.988 47.5827 210.988 46.4527C210.988 44.47 212.843 43.0202 215.955 43.0202C216.723 43.0202 217.426 43.1055 218.045 43.276L219.047 40.0141H221.712V40.0994L219.111 43.7024C220.219 44.3207 220.838 45.2588 220.838 46.4527C220.838 48.4994 218.961 49.9066 215.955 49.9066C215.337 49.9066 214.761 49.8426 214.228 49.736C213.205 49.8852 212.523 50.2477 212.523 50.9086C212.523 51.5269 213.077 51.8254 213.994 51.8254H217.81C220.177 51.8254 221.818 52.6995 221.818 54.6183C221.818 57.0274 219.281 58.4559 215.529 58.4559ZM212.949 55.2152C212.949 56.2812 213.866 57.0061 215.977 57.0061C217.917 57.0061 219.601 56.4305 219.601 55.13C219.601 54.1919 218.727 53.9147 217.064 53.9147H214.996C213.93 53.9147 212.949 54.3198 212.949 55.2152ZM213.461 46.4527C213.461 47.6466 214.292 48.4568 215.891 48.4568C217.448 48.4568 218.386 47.6893 218.386 46.4527C218.386 45.2375 217.448 44.47 215.934 44.47C214.442 44.47 213.461 45.2375 213.461 46.4527Z" fill="#0E150E"/>
<defs>
<filter id="filter0_d_4254_13715" x="0" y="0" width="445" height="255" filterUnits="userSpaceOnUse" color-interpolation-filters="sRGB">
<feFlood flood-opacity="0" result="BackgroundImageFix"/>
<feColorMatrix in="SourceAlpha" type="matrix" values="0 0 0 0 0 0 0 0 0 0 0 0 0 0 0 0 0 0 127 0" result="hardAlpha"/>
<feOffset dx="-24"/>
<feComposite in2="hardAlpha" operator="out"/>
<feColorMatrix type="matrix" values="0 0 0 0 0.105882 0 0 0 0 0.192157 0 0 0 0 0.109804 0 0 0 1 0"/>
<feBlend mode="normal" in2="BackgroundImageFix" result="effect1_dropShadow_4254_13715"/>
<feBlend mode="normal" in="SourceGraphic" in2="effect1_dropShadow_4254_13715" result="shape"/>
</filter>
<filter id="filter1_d_4254_13715" x="57" y="136" width="246" height="91" filterUnits="userSpaceOnUse" color-interpolation-filters="sRGB">
<feFlood flood-opacity="0" result="BackgroundImageFix"/>
<feColorMatrix in="SourceAlpha" type="matrix" values="0 0 0 0 0 0 0 0 0 0 0 0 0 0 0 0 0 0 127 0" result="hardAlpha"/>
<feOffset dx="-5"/>
<feComposite in2="hardAlpha" operator="out"/>
<feColorMatrix type="matrix" values="0 0 0 0 0.105882 0 0 0 0 0.192157 0 0 0 0 0.109804 0 0 0 1 0"/>
<feBlend mode="normal" in2="BackgroundImageFix" result="effect1_dropShadow_4254_13715"/>
<feBlend mode="normal" in="SourceGraphic" in2="effect1_dropShadow_4254_13715" result="shape"/>
</filter>
<filter id="filter2_d_4254_13715" x="319" y="136" width="96" height="91" filterUnits="userSpaceOnUse" color-interpolation-filters="sRGB">
<feFlood flood-opacity="0" result="BackgroundImageFix"/>
<feColorMatrix in="SourceAlpha" type="matrix" values="0 0 0 0 0 0 0 0 0 0 0 0 0 0 0 0 0 0 127 0" result="hardAlpha"/>
<feOffset dx="-5"/>
<feComposite in2="hardAlpha" operator="out"/>
<feColorMatrix type="matrix" values="0 0 0 0 0.105882 0 0 0 0 0.192157 0 0 0 0 0.109804 0 0 0 1 0"/>
<feBlend mode="normal" in2="BackgroundImageFix" result="effect1_dropShadow_4254_13715"/>
<feBlend mode="normal" in="SourceGraphic" in2="effect1_dropShadow_4254_13715" result="shape"/>
</filter>
</defs>
</svg>
