<svg width="538" height="433" viewBox="0 0 538 433" fill="none" xmlns="http://www.w3.org/2000/svg">
<g filter="url(#filter0_d_5393_14564)">
<path d="M11.6174 111.979C10.7932 100.483 19.4447 90.4952 30.9411 89.6709L492.019 56.6142C503.515 55.7899 513.503 64.4414 514.327 75.9379L535.818 375.69C536.642 387.187 527.99 397.175 516.494 397.999L55.4166 431.056C43.9202 431.88 33.9323 423.228 33.108 411.732L11.6174 111.979Z" fill="white"/>
<path d="M491.981 56.0937L30.9038 89.1505C19.12 89.9954 10.2522 100.233 11.097 112.017L32.5876 411.769C33.4325 423.553 43.6701 432.421 55.4539 431.576L516.531 398.519C528.315 397.674 537.183 387.437 536.338 375.653L514.847 75.9006C514.003 64.1167 503.765 55.2489 491.981 56.0937Z" stroke="#308546" stroke-width="1.04348"/>
</g>
<line x1="20.7169" y1="326.427" x2="529.671" y2="289.938" stroke="#308546" stroke-width="0.815264"/>
<g filter="url(#filter1_d_5393_14564)">
<rect x="52.2695" y="343.404" width="373.565" height="72" rx="36" transform="rotate(-4.10078 52.2695 343.404)" fill="#7DFFB9"/>
<rect x="51.8338" y="343.026" width="374.38" height="72.8153" rx="36.4076" transform="rotate(-4.10078 51.8338 343.026)" stroke="#1B311C" stroke-width="0.815264"/>
</g>
<path d="M211.03 369.032C216.111 372.039 224.254 381.195 224.999 381.142C225.743 381.089 230.182 369.906 249.887 352.385" stroke="#1B311C" stroke-width="3.26106"/>
<g filter="url(#filter2_d_5393_14564)">
<rect x="445.695" y="315.197" width="72.5585" height="72.5585" rx="36.2793" transform="rotate(-4.10078 445.695 315.197)" fill="#F4CDAB"/>
<rect x="445.26" y="314.82" width="73.3738" height="73.3738" rx="36.6869" transform="rotate(-4.10078 445.26 314.82)" stroke="#1B311C" stroke-width="0.815264"/>
</g>
<line x1="467.851" y1="334.521" x2="500.967" y2="363.207" stroke="#1B311C" stroke-width="3.26106"/>
<line y1="-1.63053" x2="43.8124" y2="-1.63053" transform="matrix(-0.65473 0.755862 0.755862 0.65473 500.121 333.364)" stroke="#1B311C" stroke-width="3.26106"/>
<path d="M293.895 220.419L445.852 209.525" stroke="#308546" stroke-width="4.17391" stroke-linecap="round"/>
<path d="M295.686 245.399L401.848 237.787" stroke="#308546" stroke-width="4.17391" stroke-linecap="round"/>
<path d="M297.477 270.378L414.047 262.021" stroke="#308546" stroke-width="4.17391" stroke-linecap="round"/>
<path d="M55.1426 237.537L207.1 226.642" stroke="#308546" stroke-width="4.17391" stroke-linecap="round"/>
<path d="M56.9336 262.516L163.096 254.905" stroke="#308546" stroke-width="4.17391" stroke-linecap="round"/>
<path d="M58.7246 287.495L175.295 279.138" stroke="#308546" stroke-width="4.17391" stroke-linecap="round"/>
<g filter="url(#filter3_d_5393_14564)">
<circle cx="66.2082" cy="202.22" r="16.6957" transform="rotate(-4.10078 66.2082 202.22)" fill="white"/>
<circle cx="66.2082" cy="202.22" r="17.0435" transform="rotate(-4.10078 66.2082 202.22)" stroke="#308546" stroke-width="0.695652"/>
</g>
<mask id="path-22-outside-1_5393_14564" maskUnits="userSpaceOnUse" x="56.375" y="191.482" width="19.3126" height="20.2386" fill="black">
<rect fill="white" x="56.375" y="191.482" width="19.3126" height="20.2386"/>
<path d="M58.3 203.926L58.0921 201.025L64.4427 200.57L63.9436 193.608L67.0579 193.385L67.557 200.346L73.9077 199.891L74.1156 202.792L67.765 203.247L68.264 210.208L65.1498 210.432L64.6507 203.47L58.3 203.926Z"/>
</mask>
<path d="M58.3 203.926L58.0921 201.025L64.4427 200.57L63.9436 193.608L67.0579 193.385L67.557 200.346L73.9077 199.891L74.1156 202.792L67.765 203.247L68.264 210.208L65.1498 210.432L64.6507 203.47L58.3 203.926Z" fill="#308546"/>
<path d="M58.3 203.926L57.6509 203.972L57.6974 204.621L58.3466 204.575L58.3 203.926ZM58.0921 201.025L58.0455 200.376L57.3964 200.422L57.4429 201.071L58.0921 201.025ZM64.4427 200.57L64.4893 201.219L65.1384 201.172L65.0919 200.523L64.4427 200.57ZM63.9436 193.608L63.8971 192.959L63.248 193.006L63.2945 193.655L63.9436 193.608ZM67.0579 193.385L67.7071 193.339L67.6605 192.689L67.0114 192.736L67.0579 193.385ZM67.557 200.346L66.9079 200.393L66.9544 201.042L67.6035 200.996L67.557 200.346ZM73.9077 199.891L74.5568 199.845L74.5103 199.195L73.8611 199.242L73.9077 199.891ZM74.1156 202.792L74.1622 203.441L74.8113 203.394L74.7648 202.745L74.1156 202.792ZM67.765 203.247L67.7184 202.598L67.0693 202.644L67.1158 203.293L67.765 203.247ZM68.264 210.208L68.3106 210.857L68.9597 210.811L68.9132 210.162L68.264 210.208ZM65.1498 210.432L64.5006 210.478L64.5472 211.127L65.1963 211.081L65.1498 210.432ZM64.6507 203.47L65.2998 203.424L65.2533 202.775L64.6041 202.821L64.6507 203.47ZM58.9492 203.879L58.7412 200.978L57.4429 201.071L57.6509 203.972L58.9492 203.879ZM58.1386 201.674L64.4893 201.219L64.3962 199.92L58.0455 200.376L58.1386 201.674ZM65.0919 200.523L64.5928 193.562L63.2945 193.655L63.7936 200.616L65.0919 200.523ZM63.9902 194.257L67.1045 194.034L67.0114 192.736L63.8971 192.959L63.9902 194.257ZM66.4088 193.432L66.9079 200.393L68.2062 200.3L67.7071 193.339L66.4088 193.432ZM67.6035 200.996L73.9542 200.54L73.8611 199.242L67.5105 199.697L67.6035 200.996ZM73.2585 199.938L73.4665 202.838L74.7648 202.745L74.5568 199.845L73.2585 199.938ZM74.0691 202.142L67.7184 202.598L67.8115 203.896L74.1622 203.441L74.0691 202.142ZM67.1158 203.293L67.6149 210.255L68.9132 210.162L68.4141 203.2L67.1158 203.293ZM68.2175 209.559L65.1032 209.782L65.1963 211.081L68.3106 210.857L68.2175 209.559ZM65.7989 210.385L65.2998 203.424L64.0015 203.517L64.5006 210.478L65.7989 210.385ZM64.6041 202.821L58.2535 203.276L58.3466 204.575L64.6972 204.119L64.6041 202.821Z" fill="#308546" mask="url(#path-22-outside-1_5393_14564)"/>
<g filter="url(#filter4_d_5393_14564)">
<circle cx="303.441" cy="184.166" r="16.6957" transform="rotate(-4.10078 303.441 184.166)" fill="white"/>
<circle cx="303.441" cy="184.166" r="17.0435" transform="rotate(-4.10078 303.441 184.166)" stroke="#308546" stroke-width="0.695652"/>
</g>
<mask id="path-26-outside-2_5393_14564" maskUnits="userSpaceOnUse" x="297.339" y="181.45" width="13.3243" height="5.91684" fill="black">
<rect fill="white" x="297.339" y="181.45" width="13.3243" height="5.91684"/>
<path d="M298.709 186.374L298.504 183.504L309.617 182.708L309.823 185.578L298.709 186.374Z"/>
</mask>
<path d="M298.709 186.374L298.504 183.504L309.617 182.708L309.823 185.578L298.709 186.374Z" fill="#308546"/>
<path d="M298.709 186.374L298.06 186.421L298.107 187.07L298.756 187.023L298.709 186.374ZM298.504 183.504L298.457 182.855L297.808 182.902L297.854 183.551L298.504 183.504ZM309.617 182.708L310.266 182.661L310.22 182.012L309.571 182.058L309.617 182.708ZM309.823 185.578L309.87 186.227L310.519 186.18L310.472 185.531L309.823 185.578ZM299.359 186.328L299.153 183.458L297.854 183.551L298.06 186.421L299.359 186.328ZM298.55 184.153L309.664 183.357L309.571 182.058L298.457 182.855L298.55 184.153ZM308.968 182.754L309.174 185.624L310.472 185.531L310.266 182.661L308.968 182.754ZM309.777 184.928L298.663 185.725L298.756 187.023L309.87 186.227L309.777 184.928Z" fill="#308546" mask="url(#path-26-outside-2_5393_14564)"/>
<mask id="path-28-outside-3_5393_14564" maskUnits="userSpaceOnUse" x="-0.88096" y="-1.13798" width="521.198" height="169.345" fill="black">
<rect fill="white" x="-0.88096" y="-1.13798" width="521.198" height="169.345"/>
<path d="M7.24189 50.9582C6.69085 43.2722 12.4749 36.5948 20.1609 36.0438L495.037 1.99767C502.723 1.44663 509.401 7.23065 509.952 14.9166L518.207 130.06L15.4971 166.102L7.24189 50.9582Z"/>
</mask>
<path d="M7.24189 50.9582C6.69085 43.2722 12.4749 36.5948 20.1609 36.0438L495.037 1.99767C502.723 1.44663 509.401 7.23065 509.952 14.9166L518.207 130.06L15.4971 166.102L7.24189 50.9582Z" fill="#F5FEF6"/>
<path d="M0.283536 51.4571C-0.313428 43.1306 5.95259 35.8967 14.2791 35.2998L494.954 0.837946C503.28 0.240981 510.514 6.507 511.111 14.8335L508.792 14.9998C508.287 7.95429 502.166 2.65227 495.12 3.1574L20.244 37.2035C16.401 37.479 13.6951 43.4139 14.2003 50.4593L0.283536 51.4571ZM519.45 131.137L8.62184 167.76L22.3723 164.443L516.964 128.983L519.45 131.137ZM8.62184 167.76L0.283536 51.4571C-0.313428 43.1306 5.95259 35.8967 14.2791 35.2998L20.244 37.2035C16.401 37.479 13.6951 43.4139 14.2003 50.4593L22.3723 164.443L8.62184 167.76ZM494.954 0.837946C503.28 0.240981 510.514 6.507 511.111 14.8335L519.45 131.137L516.964 128.983L508.792 14.9998C508.287 7.95429 502.166 2.65227 495.12 3.1574L494.954 0.837946Z" fill="#308546" mask="url(#path-28-outside-3_5393_14564)"/>
<path d="M56.2354 71.9557C55.9621 75.6109 53.7962 78.688 49.1807 79.0189C44.4098 79.3609 41.2595 76.1743 40.9191 71.4256C40.55 66.2775 43.4354 62.6582 48.1175 62.3225C52.0673 62.0393 54.7006 64.237 55.6683 67.4687L53.2688 68.2206C52.4725 65.8242 50.7159 64.3443 48.2972 64.5177C45.2349 64.7372 43.2543 67.2881 43.5311 71.1491C43.8016 74.9214 46.0275 77.0369 49.1563 76.8125C51.9967 76.6089 53.5415 74.5131 53.7072 71.847L56.2354 71.9557ZM61.4902 78.1364C59.0714 78.3098 57.5511 77.0136 57.4286 75.305C57.3029 73.552 58.5818 72.7243 60.406 72.0359L65.2731 70.2372C65.1237 68.7758 63.9807 68.0771 62.494 68.1837C61.1848 68.2776 59.825 68.9104 59.1694 70.9647L57.0928 70.3107C58.0272 67.478 60.2317 66.4947 62.5617 66.3276C65.7349 66.1001 67.5834 67.6181 67.7679 70.1921L68.0543 74.1863C68.1195 75.0961 68.424 75.6096 69.1785 75.5555C69.5113 75.5316 69.9028 75.392 70.1769 75.1717L70.3121 77.0578C69.8621 77.3131 69.0997 77.5685 68.4118 77.6178C66.6588 77.7435 65.9961 76.8989 65.7644 75.8449L65.7422 75.8465C64.9247 77.1987 63.3985 77.9996 61.4902 78.1364ZM59.9899 74.9429C60.0392 75.6308 60.686 76.2536 62.0174 76.1581C63.6373 76.042 65.3109 75.1191 65.4958 73.3438L65.3956 71.9458L61.5619 73.5366C60.5222 73.968 59.939 74.2329 59.9899 74.9429ZM71.8991 73.643C72.7633 74.8078 74.0346 75.4304 75.9208 75.2951C77.4741 75.1838 78.6754 74.5178 78.6006 73.4748C78.5306 72.4985 77.5114 72.2816 76.4161 72.2486L73.823 72.1669C72.1238 72.1102 70.3357 71.4355 70.2052 69.3037C70.0699 67.1053 72.0397 65.6481 74.8578 65.4461C76.8549 65.3029 78.895 65.7588 80.1634 67.2738L78.7182 68.5818C77.751 67.5359 76.429 67.14 74.9867 67.2434C73.4777 67.3516 72.3652 68.0113 72.4305 68.9211C72.4957 69.8309 73.3136 70.0399 74.3645 70.0761L76.7801 70.1705C78.5696 70.243 80.6572 70.7401 80.8259 73.0922C80.9977 75.4888 78.9565 76.8841 76.0053 77.0957C73.1428 77.3009 71.3419 76.4487 70.14 74.6167L71.8991 73.643ZM81.2658 60.1913L83.7954 60.0099L84.2711 66.6447L84.2933 66.6431C84.8382 65.5335 86.068 64.6423 87.8654 64.5135C90.6169 64.3162 92.3086 65.8231 92.5122 68.6634L93.0117 75.6311L90.4821 75.8125L90.0096 69.222C89.8791 67.4025 88.9437 66.4881 87.3017 66.6059C85.4821 66.7363 84.3777 68.1314 84.5256 70.1951L84.9568 76.2086L82.4271 76.39L81.2658 60.1913ZM107.42 74.8434C102.672 75.1839 99.1663 72.0227 98.8115 67.0743C98.4568 62.1259 101.475 58.497 106.224 58.1565C110.995 57.8145 114.5 60.9757 114.855 65.9241C115.21 70.8725 112.191 74.5014 107.42 74.8434ZM101.43 66.8866C101.689 70.5035 103.979 72.8821 107.263 72.6466C110.569 72.4096 112.496 69.7288 112.236 66.1118C111.977 62.4948 109.688 60.1163 106.381 60.3534C103.097 60.5888 101.171 63.2696 101.43 66.8866ZM123.342 59.9626C123.21 58.1209 124.413 56.8525 126.609 56.695C127.319 56.6441 127.903 56.6915 128.559 56.8229L128.686 58.5981C128.26 58.5618 127.723 58.5334 127.323 58.562C126.125 58.6479 125.827 59.16 125.886 59.981L126.032 62.0225L128.895 61.8172L129.03 63.7034L126.167 63.9086L126.834 73.2062L124.304 73.3876L123.638 64.09L119.666 64.3747L120.332 73.6724L117.803 73.8537L117.136 64.5561L115.339 64.685L115.204 62.7988L117.001 62.67L116.84 60.4288C116.708 58.587 117.911 57.3187 120.108 57.1612C120.818 57.1103 121.423 57.1561 122.057 57.289L122.185 59.0642C121.78 59.0263 121.243 58.9979 120.821 59.0281C119.645 59.1125 119.325 59.6261 119.384 60.4471L119.531 62.4886L123.503 62.2038L123.342 59.9626ZM140.634 69.072C139.913 71.4656 137.767 72.6454 135.326 72.8204C131.709 73.0797 129.458 70.9215 129.218 67.5708C128.966 64.0648 130.941 61.4252 134.624 61.1611C138.086 60.9129 140.439 63.2423 140.559 67.0923L131.749 67.7239C132.064 69.9318 133.416 71.0615 135.413 70.9184C137.033 70.8022 138.139 70.0538 138.481 68.6018L140.634 69.072ZM131.696 66.0549L137.932 65.6078C137.579 63.8042 136.332 62.8899 134.712 63.0061C133.025 63.127 131.921 64.2099 131.696 66.0549ZM148.959 62.5645C148.688 62.517 148.351 62.4743 148.04 62.4966C145.688 62.6652 144.341 64.4123 144.575 67.6742L144.879 71.9125L142.349 72.0939L141.547 60.9101L144.01 60.7335L144.189 63.2188L144.211 63.2172C144.459 62.3295 145.049 61.5289 145.772 61.031C146.366 60.6093 147.084 60.3571 147.794 60.3061C148.215 60.2759 148.529 60.298 148.8 60.3455L148.959 62.5645Z" fill="#0E150E"/>
<rect x="292.908" y="81.084" width="36.272" height="36.272" rx="18.136" transform="rotate(-4.10078 292.908 81.084)" fill="#219653" fill-opacity="0.1"/>
<path d="M312.728 103.906L311.864 91.8466M311.864 91.8466L307.666 96.6932M311.864 91.8466L316.71 96.0448M327.371 96.7957C327.968 105.121 321.702 112.354 313.377 112.951C305.051 113.548 297.818 107.283 297.221 98.9572C296.625 90.6317 302.89 83.3987 311.215 82.8018C319.541 82.2049 326.774 88.4702 327.371 96.7957Z" stroke="#219653" stroke-width="2.267" stroke-linecap="round" stroke-linejoin="round"/>
<path d="M346.883 76.7406L348.325 76.6372L348.453 78.417C349.968 78.5343 351.46 79.1241 352.654 80.545L351.241 81.8514C350.421 80.9122 349.521 80.4494 348.586 80.2717L348.887 84.4682L348.982 84.4803C351.37 84.7044 353.229 85.4186 353.408 87.9102C353.576 90.2521 352.015 91.8516 349.452 92.3555L349.573 94.0416L348.13 94.145L348.014 92.5151C345.687 92.6254 344.162 92.1133 342.522 90.2536L343.949 88.8709C345.157 90.2342 346.378 90.7116 347.882 90.6791L347.573 86.3702L346.302 86.2354C344.044 86.0018 342.51 85.0949 342.349 82.8467C342.169 80.3363 344.216 78.6831 347.004 78.4267L346.883 76.7406ZM344.418 82.5478C344.501 83.7093 345.265 84.1253 346.782 84.2614L347.427 84.3281L347.132 80.2253C345.413 80.405 344.331 81.33 344.418 82.5478ZM349.321 90.5195C350.783 90.1698 351.4 89.3159 351.325 88.2668C351.241 87.1052 350.421 86.6933 349.034 86.529L349.321 90.5195ZM354.944 87.9696L357.022 87.5381C357.567 89.3633 358.776 89.9357 360.556 89.8081C362.523 89.6671 363.683 88.7742 363.562 87.0881C363.454 85.5894 362.329 85.124 360.83 85.2314L358.807 85.3765L358.681 83.6154L360.46 83.4878C361.678 83.4005 362.848 82.9024 362.745 81.4786C362.647 80.111 361.49 79.1959 359.86 79.3128C358.005 79.4458 356.947 80.4443 356.78 82.3205L354.719 82.2047C354.915 79.4225 356.771 77.7265 359.862 77.5049C362.841 77.2913 364.76 78.8485 364.916 81.0217C365.01 82.3331 364.495 83.5563 363.156 84.0478L363.16 84.104C364.586 84.303 365.652 85.2435 365.789 87.1544C365.986 89.9084 363.776 91.385 360.666 91.608C357.65 91.8243 355.63 90.7074 354.944 87.9696ZM373.685 90.6746C370.032 90.9365 367.591 88.4187 367.278 84.0535C366.966 79.6884 369.022 76.8482 372.675 76.5862C376.347 76.323 378.787 78.8408 379.1 83.206C379.413 87.5711 377.357 90.4113 373.685 90.6746ZM369.527 83.8923C369.775 87.3582 371.252 89.0413 373.556 88.8761C375.879 88.7095 377.1 86.8331 376.852 83.3672C376.603 79.9013 375.127 78.2182 372.804 78.3848C370.499 78.55 369.278 80.4265 369.527 83.8923ZM380.537 76.2297L382.673 76.0766L383.28 84.5446L387.829 79.9627L390.433 79.776L386.62 83.5895L391.297 89.2048L388.824 89.3821L385.227 84.9134L383.436 86.7178L383.654 89.7528L381.518 89.9059L380.537 76.2297ZM347.642 113.596C345.6 113.742 344.316 112.648 344.213 111.205C344.107 109.725 345.186 109.026 346.727 108.445L350.836 106.927C350.71 105.693 349.745 105.103 348.489 105.193C347.384 105.272 346.236 105.806 345.682 107.541L343.929 106.989C344.718 104.597 346.579 103.767 348.547 103.626C351.226 103.434 352.786 104.715 352.942 106.889L353.184 110.261C353.239 111.029 353.496 111.462 354.133 111.417C354.414 111.397 354.744 111.279 354.976 111.093L355.09 112.685C354.71 112.901 354.066 113.116 353.486 113.158C352.006 113.264 351.446 112.551 351.251 111.661L351.232 111.662C350.542 112.804 349.253 113.48 347.642 113.596ZM346.375 110.9C346.417 111.48 346.963 112.006 348.087 111.925C349.455 111.827 350.868 111.048 351.024 109.549L350.939 108.369L347.702 109.712C346.825 110.076 346.332 110.3 346.375 110.9ZM361.16 102.721C363.746 102.536 365.863 104.23 366.085 107.321C366.306 110.412 364.489 112.388 361.867 112.576C360.162 112.698 358.912 112.072 358.265 111.196L358.246 111.197L358.124 112.637L356.381 112.762L355.401 99.0857L357.537 98.9326L357.944 104.609C358.473 103.592 359.736 102.824 361.16 102.721ZM358.176 108.114C358.302 109.875 359.617 111.136 361.303 111.016C363.026 110.892 364.031 109.408 363.891 107.459C363.749 105.473 362.492 104.227 360.825 104.346C359.139 104.467 358.02 105.941 358.142 107.646L358.176 108.114ZM372.692 111.8C369.62 112.02 367.506 110.119 367.299 107.234C367.092 104.349 368.913 102.166 371.986 101.945C375.077 101.724 377.19 103.625 377.397 106.51C377.604 109.395 375.783 111.578 372.692 111.8ZM369.491 107.077C369.634 109.063 370.8 110.354 372.579 110.226C374.359 110.098 375.348 108.653 375.205 106.667C375.063 104.681 373.878 103.391 372.098 103.519C370.319 103.647 369.349 105.091 369.491 107.077ZM385.188 101.206L387.324 101.053L384.254 110.764L381.819 110.938L377.432 101.762L379.68 101.601L382.875 108.866L382.988 108.858L385.188 101.206ZM397.712 107.144C397.104 109.164 395.292 110.161 393.231 110.308C390.178 110.527 388.277 108.705 388.074 105.876C387.862 102.916 389.529 100.688 392.639 100.465C395.561 100.255 397.548 102.222 397.649 105.472L390.211 106.005C390.477 107.869 391.618 108.823 393.304 108.702C394.672 108.604 395.606 107.973 395.895 106.747L397.712 107.144ZM390.167 104.596L395.431 104.219C395.134 102.696 394.08 101.924 392.713 102.022C391.289 102.124 390.356 103.039 390.167 104.596ZM407.12 109.331C405.078 109.478 403.795 108.383 403.691 106.941C403.585 105.461 404.665 104.762 406.205 104.181L410.314 102.662C410.188 101.428 409.223 100.839 407.968 100.929C406.863 101.008 405.714 101.542 405.161 103.277L403.408 102.724C404.197 100.333 406.058 99.5025 408.025 99.3615C410.704 99.1694 412.265 100.451 412.421 102.624L412.662 105.996C412.717 106.765 412.974 107.198 413.611 107.152C413.892 107.132 414.223 107.014 414.454 106.828L414.569 108.421C414.189 108.636 413.545 108.852 412.964 108.894C411.484 109 410.925 108.287 410.729 107.397L410.71 107.398C410.02 108.54 408.732 109.216 407.12 109.331ZM405.854 106.635C405.895 107.216 406.441 107.742 407.566 107.661C408.933 107.563 410.346 106.784 410.502 105.285L410.418 104.105L407.181 105.448C406.303 105.812 405.811 106.036 405.854 106.635ZM416.435 105.5C417.164 106.483 418.237 107.009 419.83 106.895C421.141 106.801 422.156 106.239 422.092 105.358C422.033 104.534 421.173 104.351 420.248 104.323L418.059 104.254C416.624 104.206 415.115 103.636 415.004 101.836C414.89 99.9803 416.553 98.7501 418.932 98.5795C420.619 98.4586 422.341 98.8436 423.412 100.123L422.192 101.227C421.375 100.344 420.259 100.01 419.041 100.097C417.767 100.188 416.828 100.745 416.883 101.513C416.938 102.281 417.629 102.458 418.516 102.488L420.555 102.568C422.066 102.629 423.829 103.049 423.971 105.035C424.116 107.058 422.393 108.236 419.901 108.415C417.484 108.588 415.964 107.869 414.949 106.322L416.435 105.5ZM424.869 94.1053L427.004 93.9522L427.611 102.42L432.16 97.8383L434.764 97.6516L430.951 101.465L435.629 107.08L433.156 107.258L429.559 102.789L427.767 104.593L427.985 107.628L425.849 107.781L424.869 94.1053ZM436.826 106.994L436.149 97.5523L438.285 97.3991L438.962 106.841L436.826 106.994ZM436.033 95.9224L435.846 93.3183L437.982 93.1651L438.168 95.7692L436.033 95.9224ZM440.614 97.2322L442.693 97.0831L442.794 98.4882C443.394 97.4095 444.477 96.7481 445.882 96.6474C448.205 96.4808 449.632 97.7343 449.805 100.151L450.227 106.034L448.091 106.187L447.692 100.623C447.582 99.0865 446.792 98.3145 445.406 98.4139C443.87 98.5241 442.936 99.6832 443.061 101.426L443.426 106.521L441.291 106.674L440.614 97.2322ZM456.834 109.496C453.668 109.723 452.458 108.604 452.372 107.405C452.304 106.45 452.986 105.987 453.794 105.703L453.788 105.609C452.559 105.546 451.839 104.958 451.761 103.871C451.694 102.934 452.368 102.095 453.726 101.602L453.718 101.49C452.742 101.014 452.159 100.227 452.088 99.2342C451.963 97.4919 453.501 96.1011 456.237 95.905C456.911 95.8566 457.535 95.8872 458.089 95.9982L458.764 93.0687L461.105 92.9008L461.111 92.9757L459.052 96.3057C460.065 96.7792 460.668 97.5645 460.743 98.6137C460.872 100.412 459.312 101.767 456.67 101.956C456.127 101.995 455.617 101.975 455.142 101.915C454.252 102.111 453.676 102.472 453.717 103.053C453.756 103.596 454.262 103.824 455.068 103.766L458.421 103.525C460.501 103.376 461.998 104.041 462.119 105.727C462.271 107.844 460.132 109.259 456.834 109.496ZM454.363 106.811C454.43 107.747 455.282 108.326 457.136 108.193C458.841 108.071 460.285 107.459 460.203 106.317C460.144 105.492 459.358 105.304 457.897 105.408L456.08 105.539C455.143 105.606 454.307 106.024 454.363 106.811ZM454.261 99.0784C454.336 100.128 455.118 100.787 456.523 100.686C457.89 100.588 458.666 99.8547 458.589 98.7681C458.512 97.7003 457.639 97.0849 456.309 97.1803C454.998 97.2743 454.184 98.0105 454.261 99.0784Z" fill="#219653"/>
<path d="M55.3745 95.8244L58.7405 95.5831L59.0382 99.7359C62.573 100.01 66.0549 101.386 68.841 104.701L65.5445 107.75C63.6298 105.558 61.5312 104.478 59.3485 104.064L60.0505 113.856L60.2722 113.884C65.846 114.407 70.1836 116.073 70.6004 121.887C70.9922 127.351 67.3492 131.083 61.37 132.259L61.652 136.193L58.2861 136.435L58.0134 132.632C52.5835 132.889 49.0267 131.694 45.2005 127.355L48.5282 124.128C51.3486 127.309 54.1966 128.423 57.7063 128.348L56.9854 118.293L54.019 117.979C48.7512 117.434 45.1723 115.318 44.7962 110.072C44.3763 104.214 49.1526 100.357 55.6566 99.7587L55.3745 95.8244ZM49.6234 109.374C49.8177 112.085 51.6009 113.055 55.1387 113.373L56.6438 113.529L55.9575 103.955C51.9452 104.375 49.4197 106.533 49.6234 109.374ZM61.0628 127.975C64.4755 127.159 65.9144 125.167 65.7389 122.719C65.5446 120.008 63.6303 119.047 60.3953 118.664L61.0628 127.975ZM85.5637 108.687C92.1645 108.214 96.8368 112.097 97.2881 118.392C97.7832 125.299 92.8572 130.133 85.557 130.657C80.4425 131.023 75.8333 129.245 73.6057 124.527L77.9766 122.369C79.3325 125.347 82.0213 126.692 85.3873 126.451C89.6713 126.144 92.4089 123.267 92.1018 118.983C91.7978 114.743 88.912 112.489 84.7592 112.787C81.6992 113.006 79.0361 114.472 77.4976 117.526L73.4538 116.893L74.8853 98.8634L93.9446 97.497L94.2517 101.781L78.6459 102.9L77.902 112.136C79.8999 109.972 82.5474 108.903 85.5637 108.687ZM98.7988 108.178C99.4961 100.131 103.792 96.3077 110.786 95.8062C117.256 95.3424 122.206 98.8101 122.663 105.192C123.02 110.176 120.361 112.915 116.886 115.317L111.607 118.903C108.925 120.721 106.924 122.227 106.025 124.4L124.604 123.068L124.911 127.352L100.912 129.073L100.805 127.586C100.52 123.608 102.012 120.514 107.831 116.493L112.861 113.101C115.627 111.233 117.768 109.234 117.514 105.693C117.245 101.934 114.584 99.752 110.781 100.025C106.584 100.326 104.112 102.612 103.517 108.41L98.7988 108.178ZM141.871 126.619C133.346 127.231 127.653 121.356 126.922 111.17C126.192 100.985 130.99 94.3577 139.514 93.7466C148.082 93.1323 153.776 99.0073 154.506 109.193C155.236 119.378 150.439 126.005 141.871 126.619ZM132.168 110.794C132.748 118.881 136.193 122.808 141.57 122.423C146.99 122.034 149.84 117.656 149.26 109.569C148.68 101.482 145.235 97.5545 139.815 97.9431C134.438 98.3286 131.588 102.707 132.168 110.794ZM158.207 118.418L163.715 118.023L164.204 124.843C164.451 128.296 162.772 130.613 159.987 131.604L158.815 129.359C160.389 128.631 161.191 127.563 161.078 125.989L160.99 124.765L158.674 124.931L158.207 118.418ZM181.008 123.813C172.484 124.425 166.79 118.55 166.06 108.364C165.33 98.1789 170.127 91.5517 178.652 90.9406C187.22 90.3263 192.913 96.2013 193.644 106.387C194.374 116.572 189.576 123.199 181.008 123.813ZM171.306 107.988C171.886 116.075 175.331 120.002 180.708 119.617C186.128 119.228 188.978 114.85 188.398 106.763C187.818 98.6757 184.373 94.7485 178.953 95.1371C173.576 95.5226 170.726 99.9011 171.306 107.988ZM211.975 121.593C203.451 122.204 197.757 116.329 197.027 106.144C196.297 95.9587 201.094 89.3316 209.619 88.7204C218.187 88.1062 223.88 93.9812 224.611 104.166C225.341 114.352 220.543 120.979 211.975 121.593ZM202.273 105.768C202.853 113.855 206.298 117.782 211.675 117.397C217.095 117.008 219.945 112.63 219.365 104.543C218.785 96.4555 215.34 92.5283 209.92 92.917C204.543 93.3025 201.693 97.6809 202.273 105.768ZM242.942 119.373C234.418 119.984 228.724 114.109 227.994 103.924C227.264 93.7386 232.061 87.1114 240.586 86.5003C249.154 85.886 254.847 91.761 255.578 101.946C256.308 112.132 251.51 118.759 242.942 119.373ZM233.24 103.548C233.82 111.635 237.265 115.562 242.642 115.177C248.062 114.788 250.912 110.409 250.332 102.322C249.752 94.2353 246.307 90.3082 240.886 90.6968C235.51 91.0823 232.66 95.4608 233.24 103.548Z" fill="#308546"/>
<defs>
<filter id="filter0_d_5393_14564" x="4.25866" y="55.5164" width="532.657" height="376.637" filterUnits="userSpaceOnUse" color-interpolation-filters="sRGB">
<feFlood flood-opacity="0" result="BackgroundImageFix"/>
<feColorMatrix in="SourceAlpha" type="matrix" values="0 0 0 0 0 0 0 0 0 0 0 0 0 0 0 0 0 0 127 0" result="hardAlpha"/>
<feOffset dx="-6.26087"/>
<feComposite in2="hardAlpha" operator="out"/>
<feColorMatrix type="matrix" values="0 0 0 0 0.1872 0 0 0 0 0.52 0 0 0 0 0.275947 0 0 0 1 0"/>
<feBlend mode="normal" in2="BackgroundImageFix" result="effect1_dropShadow_5393_14564"/>
<feBlend mode="normal" in="SourceGraphic" in2="effect1_dropShadow_5393_14564" result="shape"/>
</filter>
<filter id="filter1_d_5393_14564" x="49.8592" y="318.355" width="378.502" height="95.199" filterUnits="userSpaceOnUse" color-interpolation-filters="sRGB">
<feFlood flood-opacity="0" result="BackgroundImageFix"/>
<feColorMatrix in="SourceAlpha" type="matrix" values="0 0 0 0 0 0 0 0 0 0 0 0 0 0 0 0 0 0 127 0" result="hardAlpha"/>
<feOffset dx="-4.07632"/>
<feComposite in2="hardAlpha" operator="out"/>
<feColorMatrix type="matrix" values="0 0 0 0 0.105882 0 0 0 0 0.192157 0 0 0 0 0.109804 0 0 0 1 0"/>
<feBlend mode="normal" in2="BackgroundImageFix" result="effect1_dropShadow_5393_14564"/>
<feBlend mode="normal" in="SourceGraphic" in2="effect1_dropShadow_5393_14564" result="shape"/>
</filter>
<filter id="filter2_d_5393_14564" x="443.305" y="311.693" width="78.2677" height="74.1924" filterUnits="userSpaceOnUse" color-interpolation-filters="sRGB">
<feFlood flood-opacity="0" result="BackgroundImageFix"/>
<feColorMatrix in="SourceAlpha" type="matrix" values="0 0 0 0 0 0 0 0 0 0 0 0 0 0 0 0 0 0 127 0" result="hardAlpha"/>
<feOffset dx="-4.07632"/>
<feComposite in2="hardAlpha" operator="out"/>
<feColorMatrix type="matrix" values="0 0 0 0 0.105882 0 0 0 0 0.192157 0 0 0 0 0.109804 0 0 0 1 0"/>
<feBlend mode="normal" in2="BackgroundImageFix" result="effect1_dropShadow_5393_14564"/>
<feBlend mode="normal" in="SourceGraphic" in2="effect1_dropShadow_5393_14564" result="shape"/>
</filter>
<filter id="filter3_d_5393_14564" x="47.4251" y="184.828" width="36.1745" height="34.7842" filterUnits="userSpaceOnUse" color-interpolation-filters="sRGB">
<feFlood flood-opacity="0" result="BackgroundImageFix"/>
<feColorMatrix in="SourceAlpha" type="matrix" values="0 0 0 0 0 0 0 0 0 0 0 0 0 0 0 0 0 0 127 0" result="hardAlpha"/>
<feOffset dx="-1.3913"/>
<feComposite in2="hardAlpha" operator="out"/>
<feColorMatrix type="matrix" values="0 0 0 0 0.1872 0 0 0 0 0.52 0 0 0 0 0.275947 0 0 0 1 0"/>
<feBlend mode="normal" in2="BackgroundImageFix" result="effect1_dropShadow_5393_14564"/>
<feBlend mode="normal" in="SourceGraphic" in2="effect1_dropShadow_5393_14564" result="shape"/>
</filter>
<filter id="filter4_d_5393_14564" x="284.658" y="166.773" width="36.1745" height="34.7842" filterUnits="userSpaceOnUse" color-interpolation-filters="sRGB">
<feFlood flood-opacity="0" result="BackgroundImageFix"/>
<feColorMatrix in="SourceAlpha" type="matrix" values="0 0 0 0 0 0 0 0 0 0 0 0 0 0 0 0 0 0 127 0" result="hardAlpha"/>
<feOffset dx="-1.3913"/>
<feComposite in2="hardAlpha" operator="out"/>
<feColorMatrix type="matrix" values="0 0 0 0 0.1872 0 0 0 0 0.52 0 0 0 0 0.275947 0 0 0 1 0"/>
<feBlend mode="normal" in2="BackgroundImageFix" result="effect1_dropShadow_5393_14564"/>
<feBlend mode="normal" in="SourceGraphic" in2="effect1_dropShadow_5393_14564" result="shape"/>
</filter>
</defs>
</svg>
