<svg width="538" height="433" viewBox="0 0 538 433" fill="none" xmlns="http://www.w3.org/2000/svg">
<g filter="url(#filter0_d_5396_41992)">
<path d="M11.6174 111.979C10.7932 100.483 19.4447 90.4952 30.9411 89.6709L492.019 56.6142C503.515 55.7899 513.503 64.4414 514.327 75.9379L535.818 375.69C536.642 387.187 527.99 397.175 516.494 397.999L55.4166 431.056C43.9202 431.88 33.9323 423.228 33.108 411.732L11.6174 111.979Z" fill="white"/>
<path d="M491.981 56.0937L30.9038 89.1505C19.12 89.9954 10.2522 100.233 11.097 112.017L32.5876 411.769C33.4325 423.553 43.6701 432.421 55.4539 431.576L516.531 398.519C528.315 397.674 537.183 387.437 536.338 375.653L514.847 75.9006C514.003 64.1167 503.765 55.2489 491.981 56.0937Z" stroke="#308546" stroke-width="1.04348"/>
</g>
<line x1="20.7169" y1="326.427" x2="529.671" y2="289.938" stroke="#308546" stroke-width="0.815264"/>
<g filter="url(#filter1_d_5396_41992)">
<rect x="52.2695" y="343.404" width="373.565" height="72" rx="36" transform="rotate(-4.10078 52.2695 343.404)" fill="#7DFFB9"/>
<rect x="51.8338" y="343.026" width="374.38" height="72.8153" rx="36.4076" transform="rotate(-4.10078 51.8338 343.026)" stroke="#1B311C" stroke-width="0.815264"/>
</g>
<path d="M211.03 369.032C216.111 372.039 224.254 381.195 224.999 381.142C225.743 381.089 230.182 369.906 249.887 352.385" stroke="#1B311C" stroke-width="3.26106"/>
<g filter="url(#filter2_d_5396_41992)">
<rect x="445.695" y="315.197" width="72.5585" height="72.5585" rx="36.2793" transform="rotate(-4.10078 445.695 315.197)" fill="#F4CDAB"/>
<rect x="445.26" y="314.82" width="73.3738" height="73.3738" rx="36.6869" transform="rotate(-4.10078 445.26 314.82)" stroke="#1B311C" stroke-width="0.815264"/>
</g>
<line x1="467.851" y1="334.521" x2="500.967" y2="363.207" stroke="#1B311C" stroke-width="3.26106"/>
<line y1="-1.63053" x2="43.8124" y2="-1.63053" transform="matrix(-0.65473 0.755862 0.755862 0.65473 500.121 333.364)" stroke="#1B311C" stroke-width="3.26106"/>
<path d="M293.895 220.419L445.852 209.525" stroke="#308546" stroke-width="4.17391" stroke-linecap="round"/>
<path d="M295.686 245.399L401.848 237.787" stroke="#308546" stroke-width="4.17391" stroke-linecap="round"/>
<path d="M297.477 270.378L414.047 262.021" stroke="#308546" stroke-width="4.17391" stroke-linecap="round"/>
<path d="M55.1426 237.537L207.1 226.642" stroke="#308546" stroke-width="4.17391" stroke-linecap="round"/>
<path d="M56.9336 262.516L163.096 254.905" stroke="#308546" stroke-width="4.17391" stroke-linecap="round"/>
<path d="M58.7246 287.495L175.295 279.138" stroke="#308546" stroke-width="4.17391" stroke-linecap="round"/>
<g filter="url(#filter3_d_5396_41992)">
<circle cx="66.2082" cy="202.22" r="16.6957" transform="rotate(-4.10078 66.2082 202.22)" fill="white"/>
<circle cx="66.2082" cy="202.22" r="17.0435" transform="rotate(-4.10078 66.2082 202.22)" stroke="#308546" stroke-width="0.695652"/>
</g>
<mask id="path-22-outside-1_5396_41992" maskUnits="userSpaceOnUse" x="56.375" y="191.482" width="19.3126" height="20.2386" fill="black">
<rect fill="white" x="56.375" y="191.482" width="19.3126" height="20.2386"/>
<path d="M58.3 203.926L58.0921 201.025L64.4427 200.57L63.9436 193.608L67.0579 193.385L67.557 200.346L73.9077 199.891L74.1156 202.792L67.765 203.247L68.264 210.208L65.1498 210.432L64.6507 203.47L58.3 203.926Z"/>
</mask>
<path d="M58.3 203.926L58.0921 201.025L64.4427 200.57L63.9436 193.608L67.0579 193.385L67.557 200.346L73.9077 199.891L74.1156 202.792L67.765 203.247L68.264 210.208L65.1498 210.432L64.6507 203.47L58.3 203.926Z" fill="#308546"/>
<path d="M58.3 203.926L57.6509 203.972L57.6974 204.621L58.3466 204.575L58.3 203.926ZM58.0921 201.025L58.0455 200.376L57.3964 200.422L57.4429 201.071L58.0921 201.025ZM64.4427 200.57L64.4893 201.219L65.1384 201.172L65.0919 200.523L64.4427 200.57ZM63.9436 193.608L63.8971 192.959L63.248 193.006L63.2945 193.655L63.9436 193.608ZM67.0579 193.385L67.7071 193.339L67.6605 192.689L67.0114 192.736L67.0579 193.385ZM67.557 200.346L66.9079 200.393L66.9544 201.042L67.6035 200.996L67.557 200.346ZM73.9077 199.891L74.5568 199.845L74.5103 199.195L73.8611 199.242L73.9077 199.891ZM74.1156 202.792L74.1622 203.441L74.8113 203.394L74.7648 202.745L74.1156 202.792ZM67.765 203.247L67.7184 202.598L67.0693 202.644L67.1158 203.293L67.765 203.247ZM68.264 210.208L68.3106 210.857L68.9597 210.811L68.9132 210.162L68.264 210.208ZM65.1498 210.432L64.5006 210.478L64.5472 211.127L65.1963 211.081L65.1498 210.432ZM64.6507 203.47L65.2998 203.424L65.2533 202.775L64.6041 202.821L64.6507 203.47ZM58.9492 203.879L58.7412 200.978L57.4429 201.071L57.6509 203.972L58.9492 203.879ZM58.1386 201.674L64.4893 201.219L64.3962 199.92L58.0455 200.376L58.1386 201.674ZM65.0919 200.523L64.5928 193.562L63.2945 193.655L63.7936 200.616L65.0919 200.523ZM63.9902 194.257L67.1045 194.034L67.0114 192.736L63.8971 192.959L63.9902 194.257ZM66.4088 193.432L66.9079 200.393L68.2062 200.3L67.7071 193.339L66.4088 193.432ZM67.6035 200.996L73.9542 200.54L73.8611 199.242L67.5105 199.697L67.6035 200.996ZM73.2585 199.938L73.4665 202.838L74.7648 202.745L74.5568 199.845L73.2585 199.938ZM74.0691 202.142L67.7184 202.598L67.8115 203.896L74.1622 203.441L74.0691 202.142ZM67.1158 203.293L67.6149 210.255L68.9132 210.162L68.4141 203.2L67.1158 203.293ZM68.2175 209.559L65.1032 209.782L65.1963 211.081L68.3106 210.857L68.2175 209.559ZM65.7989 210.385L65.2998 203.424L64.0015 203.517L64.5006 210.478L65.7989 210.385ZM64.6041 202.821L58.2535 203.276L58.3466 204.575L64.6972 204.119L64.6041 202.821Z" fill="#308546" mask="url(#path-22-outside-1_5396_41992)"/>
<g filter="url(#filter4_d_5396_41992)">
<circle cx="303.441" cy="184.166" r="16.6957" transform="rotate(-4.10078 303.441 184.166)" fill="white"/>
<circle cx="303.441" cy="184.166" r="17.0435" transform="rotate(-4.10078 303.441 184.166)" stroke="#308546" stroke-width="0.695652"/>
</g>
<mask id="path-26-outside-2_5396_41992" maskUnits="userSpaceOnUse" x="297.339" y="181.45" width="13.3243" height="5.91684" fill="black">
<rect fill="white" x="297.339" y="181.45" width="13.3243" height="5.91684"/>
<path d="M298.709 186.374L298.504 183.504L309.617 182.708L309.823 185.578L298.709 186.374Z"/>
</mask>
<path d="M298.709 186.374L298.504 183.504L309.617 182.708L309.823 185.578L298.709 186.374Z" fill="#308546"/>
<path d="M298.709 186.374L298.06 186.421L298.107 187.07L298.756 187.023L298.709 186.374ZM298.504 183.504L298.457 182.855L297.808 182.902L297.854 183.551L298.504 183.504ZM309.617 182.708L310.266 182.661L310.22 182.012L309.571 182.058L309.617 182.708ZM309.823 185.578L309.87 186.227L310.519 186.18L310.472 185.531L309.823 185.578ZM299.359 186.328L299.153 183.458L297.854 183.551L298.06 186.421L299.359 186.328ZM298.55 184.153L309.664 183.357L309.571 182.058L298.457 182.855L298.55 184.153ZM308.968 182.754L309.174 185.624L310.472 185.531L310.266 182.661L308.968 182.754ZM309.777 184.928L298.663 185.725L298.756 187.023L309.87 186.227L309.777 184.928Z" fill="#308546" mask="url(#path-26-outside-2_5396_41992)"/>
<mask id="path-28-outside-3_5396_41992" maskUnits="userSpaceOnUse" x="-0.88096" y="-1.13798" width="521.198" height="169.345" fill="black">
<rect fill="white" x="-0.88096" y="-1.13798" width="521.198" height="169.345"/>
<path d="M7.24189 50.9582C6.69085 43.2722 12.4749 36.5948 20.1609 36.0438L495.037 1.99767C502.723 1.44663 509.401 7.23065 509.952 14.9166L518.207 130.06L15.4971 166.102L7.24189 50.9582Z"/>
</mask>
<path d="M7.24189 50.9582C6.69085 43.2722 12.4749 36.5948 20.1609 36.0438L495.037 1.99767C502.723 1.44663 509.401 7.23065 509.952 14.9166L518.207 130.06L15.4971 166.102L7.24189 50.9582Z" fill="#F5FEF6"/>
<path d="M0.283536 51.4571C-0.313428 43.1306 5.95259 35.8967 14.2791 35.2998L494.954 0.837946C503.28 0.240981 510.514 6.507 511.111 14.8335L508.792 14.9998C508.287 7.95429 502.166 2.65227 495.12 3.1574L20.244 37.2035C16.401 37.479 13.6951 43.4139 14.2003 50.4593L0.283536 51.4571ZM519.45 131.137L8.62184 167.76L22.3723 164.443L516.964 128.983L519.45 131.137ZM8.62184 167.76L0.283536 51.4571C-0.313428 43.1306 5.95259 35.8967 14.2791 35.2998L20.244 37.2035C16.401 37.479 13.6951 43.4139 14.2003 50.4593L22.3723 164.443L8.62184 167.76ZM494.954 0.837946C503.28 0.240981 510.514 6.507 511.111 14.8335L519.45 131.137L516.964 128.983L508.792 14.9998C508.287 7.95429 502.166 2.65227 495.12 3.1574L494.954 0.837946Z" fill="#308546" mask="url(#path-28-outside-3_5396_41992)"/>
<path d="M56.2354 71.9557C55.9621 75.6109 53.7962 78.688 49.1807 79.0189C44.4098 79.3609 41.2595 76.1743 40.9191 71.4256C40.55 66.2775 43.4354 62.6582 48.1175 62.3225C52.0673 62.0393 54.7006 64.237 55.6683 67.4687L53.2688 68.2206C52.4725 65.8242 50.7159 64.3443 48.2972 64.5177C45.2349 64.7372 43.2543 67.2881 43.5311 71.1491C43.8016 74.9214 46.0275 77.0369 49.1563 76.8125C51.9967 76.6089 53.5415 74.5131 53.7072 71.847L56.2354 71.9557ZM61.4902 78.1364C59.0714 78.3098 57.5511 77.0136 57.4286 75.305C57.3029 73.552 58.5818 72.7243 60.406 72.0359L65.2731 70.2372C65.1237 68.7758 63.9807 68.0771 62.494 68.1837C61.1848 68.2776 59.825 68.9104 59.1694 70.9647L57.0928 70.3107C58.0272 67.478 60.2317 66.4947 62.5617 66.3276C65.7349 66.1001 67.5834 67.6181 67.7679 70.1921L68.0543 74.1863C68.1195 75.0961 68.424 75.6096 69.1785 75.5555C69.5113 75.5316 69.9028 75.392 70.1769 75.1717L70.3121 77.0578C69.8621 77.3131 69.0997 77.5685 68.4118 77.6178C66.6588 77.7435 65.9961 76.8989 65.7644 75.8449L65.7422 75.8465C64.9247 77.1987 63.3985 77.9996 61.4902 78.1364ZM59.9899 74.9429C60.0392 75.6308 60.686 76.2536 62.0174 76.1581C63.6373 76.042 65.3109 75.1191 65.4958 73.3438L65.3956 71.9458L61.5619 73.5366C60.5222 73.968 59.939 74.2329 59.9899 74.9429ZM71.8991 73.643C72.7633 74.8078 74.0346 75.4304 75.9208 75.2951C77.4741 75.1838 78.6754 74.5178 78.6006 73.4748C78.5306 72.4985 77.5114 72.2816 76.4161 72.2486L73.823 72.1669C72.1238 72.1102 70.3357 71.4355 70.2052 69.3037C70.0699 67.1053 72.0397 65.6481 74.8578 65.4461C76.8549 65.3029 78.895 65.7588 80.1634 67.2738L78.7182 68.5818C77.751 67.5359 76.429 67.14 74.9867 67.2434C73.4777 67.3516 72.3652 68.0113 72.4305 68.9211C72.4957 69.8309 73.3136 70.0399 74.3645 70.0761L76.7801 70.1705C78.5696 70.243 80.6572 70.7401 80.8259 73.0922C80.9977 75.4888 78.9565 76.8841 76.0053 77.0957C73.1428 77.3009 71.3419 76.4487 70.14 74.6167L71.8991 73.643ZM81.2658 60.1913L83.7954 60.0099L84.2711 66.6447L84.2933 66.6431C84.8382 65.5335 86.068 64.6423 87.8654 64.5135C90.6169 64.3162 92.3086 65.8231 92.5122 68.6634L93.0117 75.6311L90.4821 75.8125L90.0096 69.222C89.8791 67.4025 88.9437 66.4881 87.3017 66.6059C85.4821 66.7363 84.3777 68.1314 84.5256 70.1951L84.9568 76.2086L82.4271 76.39L81.2658 60.1913ZM107.42 74.8434C102.672 75.1839 99.1663 72.0227 98.8115 67.0743C98.4568 62.1259 101.475 58.497 106.224 58.1565C110.995 57.8145 114.5 60.9757 114.855 65.9241C115.21 70.8725 112.191 74.5014 107.42 74.8434ZM101.43 66.8866C101.689 70.5035 103.979 72.8821 107.263 72.6466C110.569 72.4096 112.496 69.7288 112.236 66.1118C111.977 62.4948 109.688 60.1163 106.381 60.3534C103.097 60.5888 101.171 63.2696 101.43 66.8866ZM123.342 59.9626C123.21 58.1209 124.413 56.8525 126.609 56.695C127.319 56.6441 127.903 56.6915 128.559 56.8229L128.686 58.5981C128.26 58.5618 127.723 58.5334 127.323 58.562C126.125 58.6479 125.827 59.16 125.886 59.981L126.032 62.0225L128.895 61.8172L129.03 63.7034L126.167 63.9086L126.834 73.2062L124.304 73.3876L123.638 64.09L119.666 64.3747L120.332 73.6724L117.803 73.8537L117.136 64.5561L115.339 64.685L115.204 62.7988L117.001 62.67L116.84 60.4288C116.708 58.587 117.911 57.3187 120.108 57.1612C120.818 57.1103 121.423 57.1561 122.057 57.289L122.185 59.0642C121.78 59.0263 121.243 58.9979 120.821 59.0281C119.645 59.1125 119.325 59.6261 119.384 60.4471L119.531 62.4886L123.503 62.2038L123.342 59.9626ZM140.634 69.072C139.913 71.4656 137.767 72.6454 135.326 72.8204C131.709 73.0797 129.458 70.9215 129.218 67.5708C128.966 64.0648 130.941 61.4252 134.624 61.1611C138.086 60.9129 140.439 63.2423 140.559 67.0923L131.749 67.7239C132.064 69.9318 133.416 71.0615 135.413 70.9184C137.033 70.8022 138.139 70.0538 138.481 68.6018L140.634 69.072ZM131.696 66.0549L137.932 65.6078C137.579 63.8042 136.332 62.8899 134.712 63.0061C133.025 63.127 131.921 64.2099 131.696 66.0549ZM148.959 62.5645C148.688 62.517 148.351 62.4743 148.04 62.4966C145.688 62.6652 144.341 64.4123 144.575 67.6742L144.879 71.9125L142.349 72.0939L141.547 60.9101L144.01 60.7335L144.189 63.2188L144.211 63.2172C144.459 62.3295 145.049 61.5289 145.772 61.031C146.366 60.6093 147.084 60.3571 147.794 60.3061C148.215 60.2759 148.529 60.298 148.8 60.3455L148.959 62.5645Z" fill="#0E150E"/>
<path d="M294.23 99.1453C293.652 90.8813 299.883 83.7134 308.147 83.1355C316.411 82.5577 323.579 88.7886 324.157 97.0527C324.735 105.317 318.504 112.485 310.24 113.062C301.976 113.64 294.808 107.409 294.23 99.1453Z" fill="#F3EEEB"/>
<path d="M308.775 92.1136L309.612 104.084M309.612 104.084L313.787 99.2814M309.612 104.084L304.809 99.9093M294.23 99.1453C293.652 90.8813 299.883 83.7134 308.147 83.1355C316.411 82.5577 323.579 88.7886 324.157 97.0527C324.735 105.317 318.504 112.485 310.24 113.062C301.976 113.64 294.808 107.409 294.23 99.1453Z" stroke="#E0650D" stroke-width="2.25" stroke-linecap="round" stroke-linejoin="round"/>
<path d="M340.68 77.1855L342.122 77.082L342.25 78.8618C343.765 78.9792 345.257 79.5689 346.451 80.9898L345.038 82.2962C344.218 81.357 343.318 80.8943 342.383 80.7165L342.684 84.9131L342.779 84.9251C345.167 85.1493 347.026 85.8634 347.205 88.3551C347.373 90.6969 345.812 92.2965 343.249 92.8003L343.37 94.4864L341.927 94.5898L341.81 92.9599C339.483 93.0703 337.959 92.5581 336.319 90.6985L337.745 89.3157C338.954 90.679 340.175 91.1565 341.679 91.1239L341.37 86.815L340.099 86.6802C337.841 86.4466 336.307 85.5397 336.146 83.2916C335.966 80.7811 338.013 79.1279 340.8 78.8716L340.68 77.1855ZM338.215 82.9926C338.298 84.1541 339.062 84.5701 340.578 84.7062L341.224 84.7729L340.929 80.6701C339.21 80.8499 338.127 81.7748 338.215 82.9926ZM343.117 90.9643C344.58 90.6147 345.197 89.7607 345.121 88.7116C345.038 87.55 344.218 87.1381 342.831 86.9739L343.117 90.9643ZM348.353 83.2638C348.652 79.8151 350.493 78.1767 353.49 77.9618C356.263 77.763 358.384 79.2492 358.58 81.9844C358.734 84.1202 357.594 85.2941 356.105 86.3235L353.842 87.8604C352.693 88.6395 351.835 89.2848 351.45 90.2163L359.412 89.6454L359.544 91.4814L349.258 92.2188L349.213 91.5818C349.091 89.877 349.73 88.5507 352.224 86.8277L354.379 85.3739C355.565 84.5733 356.483 83.7166 356.374 82.1991C356.258 80.5879 355.118 79.6528 353.488 79.7697C351.689 79.8986 350.63 80.8785 350.375 83.3636L348.353 83.2638ZM367.079 91.1483C363.426 91.4102 360.986 88.8923 360.673 84.5272C360.36 80.1621 362.416 77.3218 366.069 77.0599C369.741 76.7967 372.181 79.3145 372.494 83.6797C372.807 88.0448 370.751 90.885 367.079 91.1483ZM362.921 84.366C363.169 87.8319 364.646 89.515 366.95 89.3498C369.273 89.1832 370.495 87.3067 370.246 83.8408C369.998 80.375 368.521 78.6919 366.198 78.8584C363.894 79.0237 362.673 80.9001 362.921 84.366ZM373.932 76.7034L376.067 76.5502L376.675 85.0183L381.223 80.4364L383.827 80.2497L380.014 84.0632L384.692 89.6784L382.219 89.8557L378.622 85.3871L376.83 87.1915L377.048 90.2264L374.912 90.3796L373.932 76.7034ZM347.531 113.397L345.471 113.544L345.37 112.139L345.351 112.141C344.751 113.219 343.687 113.879 342.282 113.98C339.94 114.148 338.512 112.876 338.339 110.459L337.918 104.595L340.054 104.442L340.453 110.006C340.562 111.524 341.353 112.314 342.739 112.215C344.275 112.105 345.208 110.927 345.084 109.203L344.719 104.107L346.854 103.954L347.531 113.397ZM349.172 103.788L351.252 103.639L351.352 105.044C351.953 103.965 353.035 103.304 354.44 103.203C356.763 103.037 358.19 104.29 358.364 106.707L358.785 112.59L356.65 112.743L356.251 107.179C356.141 105.642 355.351 104.87 353.964 104.97C352.428 105.08 351.494 106.239 351.619 107.981L351.985 113.077L349.849 113.23L349.172 103.788ZM365.014 112.35C362.392 112.538 360.312 110.842 360.09 107.751C359.868 104.66 361.704 102.683 364.308 102.496C365.75 102.392 367.035 102.978 367.758 103.868L367.354 98.2289L369.49 98.0757L370.47 111.752L368.334 111.905L368.231 110.463C367.681 111.462 366.438 112.248 365.014 112.35ZM362.282 107.594C362.423 109.561 363.645 110.848 365.331 110.727C367.036 110.605 368.157 109.168 368.032 107.426L367.999 106.958C367.872 105.197 366.558 103.935 364.853 104.057C363.148 104.18 362.141 105.627 362.282 107.594ZM381.52 108.305C380.911 110.325 379.1 111.322 377.039 111.469C373.985 111.688 372.084 109.866 371.882 107.037C371.669 104.077 373.336 101.849 376.446 101.626C379.369 101.416 381.355 103.383 381.456 106.633L374.019 107.166C374.284 109.03 375.426 109.984 377.112 109.863C378.48 109.765 379.414 109.134 379.702 107.908L381.52 108.305ZM373.974 105.757L379.239 105.38C378.941 103.857 377.888 103.085 376.52 103.183C375.096 103.285 374.164 104.2 373.974 105.757ZM389.075 102.773C388.846 102.733 388.561 102.697 388.299 102.715C386.313 102.858 385.176 104.333 385.373 107.087L385.63 110.665L383.494 110.818L382.817 101.376L384.897 101.227L385.047 103.325L385.066 103.324C385.276 102.574 385.774 101.898 386.384 101.478C386.885 101.122 387.492 100.909 388.091 100.866C388.447 100.841 388.712 100.859 388.941 100.899L389.075 102.773ZM398.392 109.957C396.35 110.104 395.067 109.009 394.963 107.567C394.857 106.087 395.937 105.388 397.477 104.807L401.586 103.288C401.46 102.054 400.495 101.464 399.24 101.554C398.135 101.634 396.987 102.168 396.433 103.902L394.68 103.35C395.469 100.959 397.33 100.128 399.297 99.9873C401.976 99.7953 403.537 101.077 403.693 103.25L403.934 106.622C403.989 107.39 404.247 107.824 404.884 107.778C405.165 107.758 405.495 107.64 405.726 107.454L405.841 109.047C405.461 109.262 404.817 109.478 404.236 109.519C402.756 109.626 402.197 108.912 402.001 108.023L401.982 108.024C401.292 109.166 400.004 109.842 398.392 109.957ZM397.126 107.261C397.167 107.842 397.714 108.368 398.838 108.287C400.205 108.189 401.618 107.41 401.774 105.911L401.69 104.731L398.453 106.074C397.575 106.438 397.083 106.662 397.126 107.261ZM407.707 106.126C408.436 107.109 409.51 107.635 411.102 107.521C412.413 107.427 413.428 106.864 413.365 105.984C413.305 105.16 412.445 104.976 411.52 104.949L409.331 104.88C407.896 104.832 406.387 104.262 406.276 102.462C406.162 100.606 407.825 99.3759 410.205 99.2053C411.891 99.0844 413.613 99.4694 414.684 100.748L413.464 101.853C412.647 100.97 411.531 100.636 410.313 100.723C409.039 100.814 408.1 101.371 408.155 102.139C408.21 102.907 408.901 103.084 409.788 103.114L411.828 103.194C413.338 103.255 415.101 103.675 415.243 105.661C415.388 107.684 413.665 108.862 411.173 109.041C408.757 109.214 407.236 108.495 406.221 106.948L407.707 106.126ZM416.141 94.7311L418.276 94.578L418.884 103.046L423.432 98.4641L426.036 98.2774L422.224 102.091L426.901 107.706L424.428 107.883L420.831 103.415L419.039 105.219L419.257 108.254L417.121 108.407L416.141 94.7311ZM428.099 107.62L427.422 98.1781L429.557 98.025L430.234 107.467L428.099 107.62ZM427.305 96.5482L427.118 93.9441L429.254 93.791L429.44 96.3951L427.305 96.5482ZM431.886 97.858L433.965 97.709L434.066 99.114C434.666 98.0353 435.749 97.3739 437.154 97.2732C439.477 97.1066 440.904 98.3602 441.077 100.777L441.499 106.66L439.363 106.813L438.964 101.249C438.854 99.7123 438.064 98.9404 436.678 99.0398C435.142 99.1499 434.208 100.309 434.333 102.051L434.698 107.147L432.563 107.3L431.886 97.858ZM448.106 110.121C444.94 110.348 443.73 109.23 443.644 108.031C443.576 107.076 444.258 106.612 445.066 106.328L445.06 106.235C443.831 106.172 443.111 105.584 443.033 104.497C442.966 103.56 443.64 102.721 444.998 102.228L444.99 102.116C444.015 101.64 443.431 100.853 443.36 99.86C443.235 98.1177 444.773 96.7269 447.509 96.5308C448.183 96.4825 448.807 96.5131 449.361 96.624L450.036 93.6945L452.378 93.5266L452.383 93.6015L450.324 96.9315C451.337 97.405 451.94 98.1904 452.015 99.2395C452.144 101.038 450.584 102.393 447.942 102.582C447.399 102.621 446.889 102.601 446.414 102.541C445.524 102.737 444.948 103.098 444.989 103.679C445.028 104.222 445.534 104.45 446.34 104.392L449.693 104.151C451.773 104.002 453.27 104.667 453.391 106.353C453.543 108.47 451.404 109.885 448.106 110.121ZM445.635 107.436C445.703 108.373 446.554 108.952 448.408 108.819C450.113 108.697 451.557 108.085 451.475 106.942C451.416 106.118 450.63 105.93 449.169 106.034L447.352 106.165C446.415 106.232 445.579 106.65 445.635 107.436ZM445.533 99.7042C445.608 100.753 446.39 101.413 447.795 101.312C449.163 101.214 449.939 100.481 449.861 99.394C449.784 98.3261 448.911 97.7108 447.581 97.8061C446.27 97.9001 445.456 98.6364 445.533 99.7042Z" fill="#E0650D"/>
<path d="M55.3745 95.8244L58.7405 95.5831L59.0382 99.7359C62.573 100.01 66.0549 101.386 68.841 104.701L65.5445 107.75C63.6298 105.558 61.5312 104.478 59.3485 104.064L60.0505 113.856L60.2722 113.884C65.846 114.407 70.1836 116.073 70.6004 121.887C70.9922 127.351 67.3492 131.083 61.37 132.259L61.652 136.193L58.2861 136.435L58.0134 132.632C52.5835 132.889 49.0267 131.694 45.2005 127.355L48.5282 124.128C51.3486 127.309 54.1966 128.423 57.7063 128.348L56.9854 118.293L54.019 117.979C48.7512 117.434 45.1723 115.318 44.7962 110.072C44.3763 104.214 49.1526 100.357 55.6566 99.7587L55.3745 95.8244ZM49.6234 109.374C49.8177 112.085 51.6009 113.055 55.1387 113.373L56.6438 113.529L55.9575 103.955C51.9452 104.375 49.4197 106.533 49.6234 109.374ZM61.0628 127.975C64.4755 127.159 65.9144 125.167 65.7389 122.719C65.5446 120.008 63.6303 119.047 60.3953 118.664L61.0628 127.975ZM99.6766 117.43L99.9743 121.582L94.7286 121.958L95.2677 129.477L90.2406 129.838L89.7015 122.319L73.0902 123.51L72.7455 118.701L85.5922 98.0958L92.9798 97.5661L94.4309 117.806L99.6766 117.43ZM77.3388 119.031L89.4038 118.166L88.2128 101.555L77.3388 119.031ZM96.7964 97.2925L120.664 95.5813L120.934 99.3407C115.25 107.086 110.721 115.627 111.149 128.339L105.904 128.715C105.542 117.536 110.179 107.45 115.507 100.257L97.1035 101.576L96.7964 97.2925ZM136.919 126.974C128.394 127.586 122.701 121.711 121.97 111.525C121.24 101.34 126.038 94.7127 134.562 94.1016C143.13 93.4873 148.824 99.3623 149.554 109.548C150.284 119.733 145.487 126.36 136.919 126.974ZM127.216 111.149C127.796 119.236 131.241 123.163 136.618 122.778C142.038 122.389 144.888 118.011 144.308 109.924C143.728 101.837 140.283 97.9095 134.863 98.2981C129.486 98.6836 126.636 103.062 127.216 111.149ZM153.255 118.773L158.763 118.378L159.252 125.198C159.499 128.651 157.82 130.968 155.035 131.959L153.863 129.714C155.437 128.986 156.239 127.918 156.126 126.344L156.039 125.12L153.722 125.286L153.255 118.773ZM176.057 124.168C167.532 124.78 161.838 118.905 161.108 108.719C160.378 98.5339 165.176 91.9068 173.7 91.2956C182.268 90.6814 187.961 96.5564 188.692 106.742C189.422 116.927 184.624 123.554 176.057 124.168ZM166.354 108.343C166.934 116.43 170.379 120.357 175.756 119.972C181.176 119.583 184.026 115.205 183.446 107.118C182.866 99.0307 179.421 95.1035 174.001 95.4922C168.624 95.8777 165.774 100.256 166.354 108.343ZM207.023 121.948C198.499 122.559 192.805 116.684 192.075 106.499C191.345 96.3138 196.142 89.6866 204.667 89.0755C213.235 88.4612 218.928 94.3362 219.659 104.522C220.389 114.707 215.591 121.334 207.023 121.948ZM197.321 106.123C197.901 114.21 201.346 118.137 206.723 117.752C212.143 117.363 214.993 112.985 214.413 104.898C213.833 96.8105 210.388 92.8834 204.968 93.272C199.591 93.6575 196.741 98.036 197.321 106.123ZM237.99 119.728C229.466 120.339 223.772 114.464 223.042 104.279C222.312 94.0936 227.109 87.4664 235.634 86.8553C244.202 86.241 249.895 92.116 250.626 102.301C251.356 112.487 246.558 119.114 237.99 119.728ZM228.288 103.903C228.868 111.99 232.313 115.917 237.69 115.532C243.11 115.143 245.96 110.765 245.38 102.677C244.8 94.5904 241.355 90.6632 235.935 91.0518C230.558 91.4373 227.708 95.8158 228.288 103.903Z" fill="#308546"/>
<defs>
<filter id="filter0_d_5396_41992" x="4.25866" y="55.5164" width="532.657" height="376.637" filterUnits="userSpaceOnUse" color-interpolation-filters="sRGB">
<feFlood flood-opacity="0" result="BackgroundImageFix"/>
<feColorMatrix in="SourceAlpha" type="matrix" values="0 0 0 0 0 0 0 0 0 0 0 0 0 0 0 0 0 0 127 0" result="hardAlpha"/>
<feOffset dx="-6.26087"/>
<feComposite in2="hardAlpha" operator="out"/>
<feColorMatrix type="matrix" values="0 0 0 0 0.1872 0 0 0 0 0.52 0 0 0 0 0.275947 0 0 0 1 0"/>
<feBlend mode="normal" in2="BackgroundImageFix" result="effect1_dropShadow_5396_41992"/>
<feBlend mode="normal" in="SourceGraphic" in2="effect1_dropShadow_5396_41992" result="shape"/>
</filter>
<filter id="filter1_d_5396_41992" x="49.8592" y="318.355" width="378.502" height="95.199" filterUnits="userSpaceOnUse" color-interpolation-filters="sRGB">
<feFlood flood-opacity="0" result="BackgroundImageFix"/>
<feColorMatrix in="SourceAlpha" type="matrix" values="0 0 0 0 0 0 0 0 0 0 0 0 0 0 0 0 0 0 127 0" result="hardAlpha"/>
<feOffset dx="-4.07632"/>
<feComposite in2="hardAlpha" operator="out"/>
<feColorMatrix type="matrix" values="0 0 0 0 0.105882 0 0 0 0 0.192157 0 0 0 0 0.109804 0 0 0 1 0"/>
<feBlend mode="normal" in2="BackgroundImageFix" result="effect1_dropShadow_5396_41992"/>
<feBlend mode="normal" in="SourceGraphic" in2="effect1_dropShadow_5396_41992" result="shape"/>
</filter>
<filter id="filter2_d_5396_41992" x="443.305" y="311.693" width="78.2677" height="74.1924" filterUnits="userSpaceOnUse" color-interpolation-filters="sRGB">
<feFlood flood-opacity="0" result="BackgroundImageFix"/>
<feColorMatrix in="SourceAlpha" type="matrix" values="0 0 0 0 0 0 0 0 0 0 0 0 0 0 0 0 0 0 127 0" result="hardAlpha"/>
<feOffset dx="-4.07632"/>
<feComposite in2="hardAlpha" operator="out"/>
<feColorMatrix type="matrix" values="0 0 0 0 0.105882 0 0 0 0 0.192157 0 0 0 0 0.109804 0 0 0 1 0"/>
<feBlend mode="normal" in2="BackgroundImageFix" result="effect1_dropShadow_5396_41992"/>
<feBlend mode="normal" in="SourceGraphic" in2="effect1_dropShadow_5396_41992" result="shape"/>
</filter>
<filter id="filter3_d_5396_41992" x="47.4251" y="184.828" width="36.1745" height="34.7842" filterUnits="userSpaceOnUse" color-interpolation-filters="sRGB">
<feFlood flood-opacity="0" result="BackgroundImageFix"/>
<feColorMatrix in="SourceAlpha" type="matrix" values="0 0 0 0 0 0 0 0 0 0 0 0 0 0 0 0 0 0 127 0" result="hardAlpha"/>
<feOffset dx="-1.3913"/>
<feComposite in2="hardAlpha" operator="out"/>
<feColorMatrix type="matrix" values="0 0 0 0 0.1872 0 0 0 0 0.52 0 0 0 0 0.275947 0 0 0 1 0"/>
<feBlend mode="normal" in2="BackgroundImageFix" result="effect1_dropShadow_5396_41992"/>
<feBlend mode="normal" in="SourceGraphic" in2="effect1_dropShadow_5396_41992" result="shape"/>
</filter>
<filter id="filter4_d_5396_41992" x="284.658" y="166.773" width="36.1745" height="34.7842" filterUnits="userSpaceOnUse" color-interpolation-filters="sRGB">
<feFlood flood-opacity="0" result="BackgroundImageFix"/>
<feColorMatrix in="SourceAlpha" type="matrix" values="0 0 0 0 0 0 0 0 0 0 0 0 0 0 0 0 0 0 127 0" result="hardAlpha"/>
<feOffset dx="-1.3913"/>
<feComposite in2="hardAlpha" operator="out"/>
<feColorMatrix type="matrix" values="0 0 0 0 0.1872 0 0 0 0 0.52 0 0 0 0 0.275947 0 0 0 1 0"/>
<feBlend mode="normal" in2="BackgroundImageFix" result="effect1_dropShadow_5396_41992"/>
<feBlend mode="normal" in="SourceGraphic" in2="effect1_dropShadow_5396_41992" result="shape"/>
</filter>
</defs>
</svg>
