<svg width="538" height="433" viewBox="0 0 538 433" fill="none" xmlns="http://www.w3.org/2000/svg">
<g filter="url(#filter0_d_5393_14612)">
<path d="M11.6174 111.979C10.7932 100.483 19.4447 90.4952 30.9411 89.6709L492.019 56.6142C503.515 55.7899 513.503 64.4414 514.327 75.9379L535.818 375.69C536.642 387.187 527.99 397.175 516.494 397.999L55.4166 431.056C43.9202 431.88 33.9323 423.228 33.108 411.732L11.6174 111.979Z" fill="white"/>
<path d="M491.981 56.0937L30.9038 89.1505C19.12 89.9954 10.2522 100.233 11.097 112.017L32.5876 411.769C33.4325 423.553 43.6701 432.421 55.4539 431.576L516.531 398.519C528.315 397.674 537.183 387.437 536.338 375.653L514.847 75.9006C514.003 64.1167 503.765 55.2489 491.981 56.0937Z" stroke="#308546" stroke-width="1.04348"/>
</g>
<line x1="20.7169" y1="326.427" x2="529.671" y2="289.938" stroke="#308546" stroke-width="0.815264"/>
<g filter="url(#filter1_d_5393_14612)">
<rect x="52.2695" y="343.404" width="373.565" height="72" rx="36" transform="rotate(-4.10078 52.2695 343.404)" fill="#7DFFB9"/>
<rect x="51.8338" y="343.026" width="374.38" height="72.8153" rx="36.4076" transform="rotate(-4.10078 51.8338 343.026)" stroke="#1B311C" stroke-width="0.815264"/>
</g>
<path d="M211.03 369.032C216.111 372.039 224.254 381.195 224.999 381.142C225.743 381.089 230.182 369.906 249.887 352.385" stroke="#1B311C" stroke-width="3.26106"/>
<g filter="url(#filter2_d_5393_14612)">
<rect x="445.695" y="315.197" width="72.5585" height="72.5585" rx="36.2793" transform="rotate(-4.10078 445.695 315.197)" fill="#F4CDAB"/>
<rect x="445.26" y="314.82" width="73.3738" height="73.3738" rx="36.6869" transform="rotate(-4.10078 445.26 314.82)" stroke="#1B311C" stroke-width="0.815264"/>
</g>
<line x1="467.851" y1="334.521" x2="500.967" y2="363.207" stroke="#1B311C" stroke-width="3.26106"/>
<line y1="-1.63053" x2="43.8124" y2="-1.63053" transform="matrix(-0.65473 0.755862 0.755862 0.65473 500.121 333.364)" stroke="#1B311C" stroke-width="3.26106"/>
<path d="M293.895 220.419L445.852 209.525" stroke="#308546" stroke-width="4.17391" stroke-linecap="round"/>
<path d="M295.686 245.399L401.848 237.787" stroke="#308546" stroke-width="4.17391" stroke-linecap="round"/>
<path d="M297.477 270.378L414.047 262.021" stroke="#308546" stroke-width="4.17391" stroke-linecap="round"/>
<path d="M55.1426 237.537L207.1 226.642" stroke="#308546" stroke-width="4.17391" stroke-linecap="round"/>
<path d="M56.9336 262.516L163.096 254.905" stroke="#308546" stroke-width="4.17391" stroke-linecap="round"/>
<path d="M58.7246 287.495L175.295 279.138" stroke="#308546" stroke-width="4.17391" stroke-linecap="round"/>
<g filter="url(#filter3_d_5393_14612)">
<circle cx="66.2082" cy="202.22" r="16.6957" transform="rotate(-4.10078 66.2082 202.22)" fill="white"/>
<circle cx="66.2082" cy="202.22" r="17.0435" transform="rotate(-4.10078 66.2082 202.22)" stroke="#308546" stroke-width="0.695652"/>
</g>
<mask id="path-22-outside-1_5393_14612" maskUnits="userSpaceOnUse" x="56.375" y="191.482" width="19.3126" height="20.2386" fill="black">
<rect fill="white" x="56.375" y="191.482" width="19.3126" height="20.2386"/>
<path d="M58.3 203.926L58.0921 201.025L64.4427 200.57L63.9436 193.608L67.0579 193.385L67.557 200.346L73.9077 199.891L74.1156 202.792L67.765 203.247L68.264 210.208L65.1498 210.432L64.6507 203.47L58.3 203.926Z"/>
</mask>
<path d="M58.3 203.926L58.0921 201.025L64.4427 200.57L63.9436 193.608L67.0579 193.385L67.557 200.346L73.9077 199.891L74.1156 202.792L67.765 203.247L68.264 210.208L65.1498 210.432L64.6507 203.47L58.3 203.926Z" fill="#308546"/>
<path d="M58.3 203.926L57.6509 203.972L57.6974 204.621L58.3466 204.575L58.3 203.926ZM58.0921 201.025L58.0455 200.376L57.3964 200.422L57.4429 201.071L58.0921 201.025ZM64.4427 200.57L64.4893 201.219L65.1384 201.172L65.0919 200.523L64.4427 200.57ZM63.9436 193.608L63.8971 192.959L63.248 193.006L63.2945 193.655L63.9436 193.608ZM67.0579 193.385L67.7071 193.339L67.6605 192.689L67.0114 192.736L67.0579 193.385ZM67.557 200.346L66.9079 200.393L66.9544 201.042L67.6035 200.996L67.557 200.346ZM73.9077 199.891L74.5568 199.845L74.5103 199.195L73.8611 199.242L73.9077 199.891ZM74.1156 202.792L74.1622 203.441L74.8113 203.394L74.7648 202.745L74.1156 202.792ZM67.765 203.247L67.7184 202.598L67.0693 202.644L67.1158 203.293L67.765 203.247ZM68.264 210.208L68.3106 210.857L68.9597 210.811L68.9132 210.162L68.264 210.208ZM65.1498 210.432L64.5006 210.478L64.5472 211.127L65.1963 211.081L65.1498 210.432ZM64.6507 203.47L65.2998 203.424L65.2533 202.775L64.6041 202.821L64.6507 203.47ZM58.9492 203.879L58.7412 200.978L57.4429 201.071L57.6509 203.972L58.9492 203.879ZM58.1386 201.674L64.4893 201.219L64.3962 199.92L58.0455 200.376L58.1386 201.674ZM65.0919 200.523L64.5928 193.562L63.2945 193.655L63.7936 200.616L65.0919 200.523ZM63.9902 194.257L67.1045 194.034L67.0114 192.736L63.8971 192.959L63.9902 194.257ZM66.4088 193.432L66.9079 200.393L68.2062 200.3L67.7071 193.339L66.4088 193.432ZM67.6035 200.996L73.9542 200.54L73.8611 199.242L67.5105 199.697L67.6035 200.996ZM73.2585 199.938L73.4665 202.838L74.7648 202.745L74.5568 199.845L73.2585 199.938ZM74.0691 202.142L67.7184 202.598L67.8115 203.896L74.1622 203.441L74.0691 202.142ZM67.1158 203.293L67.6149 210.255L68.9132 210.162L68.4141 203.2L67.1158 203.293ZM68.2175 209.559L65.1032 209.782L65.1963 211.081L68.3106 210.857L68.2175 209.559ZM65.7989 210.385L65.2998 203.424L64.0015 203.517L64.5006 210.478L65.7989 210.385ZM64.6041 202.821L58.2535 203.276L58.3466 204.575L64.6972 204.119L64.6041 202.821Z" fill="#308546" mask="url(#path-22-outside-1_5393_14612)"/>
<g filter="url(#filter4_d_5393_14612)">
<circle cx="303.441" cy="184.166" r="16.6957" transform="rotate(-4.10078 303.441 184.166)" fill="white"/>
<circle cx="303.441" cy="184.166" r="17.0435" transform="rotate(-4.10078 303.441 184.166)" stroke="#308546" stroke-width="0.695652"/>
</g>
<mask id="path-26-outside-2_5393_14612" maskUnits="userSpaceOnUse" x="297.339" y="181.45" width="13.3243" height="5.91684" fill="black">
<rect fill="white" x="297.339" y="181.45" width="13.3243" height="5.91684"/>
<path d="M298.709 186.374L298.504 183.504L309.617 182.708L309.823 185.578L298.709 186.374Z"/>
</mask>
<path d="M298.709 186.374L298.504 183.504L309.617 182.708L309.823 185.578L298.709 186.374Z" fill="#308546"/>
<path d="M298.709 186.374L298.06 186.421L298.107 187.07L298.756 187.023L298.709 186.374ZM298.504 183.504L298.457 182.855L297.808 182.902L297.854 183.551L298.504 183.504ZM309.617 182.708L310.266 182.661L310.22 182.012L309.571 182.058L309.617 182.708ZM309.823 185.578L309.87 186.227L310.519 186.18L310.472 185.531L309.823 185.578ZM299.359 186.328L299.153 183.458L297.854 183.551L298.06 186.421L299.359 186.328ZM298.55 184.153L309.664 183.357L309.571 182.058L298.457 182.855L298.55 184.153ZM308.968 182.754L309.174 185.624L310.472 185.531L310.266 182.661L308.968 182.754ZM309.777 184.928L298.663 185.725L298.756 187.023L309.87 186.227L309.777 184.928Z" fill="#308546" mask="url(#path-26-outside-2_5393_14612)"/>
<mask id="path-28-outside-3_5393_14612" maskUnits="userSpaceOnUse" x="-0.88096" y="-1.13798" width="521.198" height="169.345" fill="black">
<rect fill="white" x="-0.88096" y="-1.13798" width="521.198" height="169.345"/>
<path d="M7.24189 50.9582C6.69085 43.2722 12.4749 36.5948 20.1609 36.0438L495.037 1.99767C502.723 1.44663 509.401 7.23065 509.952 14.9166L518.207 130.06L15.4971 166.102L7.24189 50.9582Z"/>
</mask>
<path d="M7.24189 50.9582C6.69085 43.2722 12.4749 36.5948 20.1609 36.0438L495.037 1.99767C502.723 1.44663 509.401 7.23065 509.952 14.9166L518.207 130.06L15.4971 166.102L7.24189 50.9582Z" fill="#F5FEF6"/>
<path d="M0.283536 51.4571C-0.313428 43.1306 5.95259 35.8967 14.2791 35.2998L494.954 0.837946C503.28 0.240981 510.514 6.507 511.111 14.8335L508.792 14.9998C508.287 7.95429 502.166 2.65227 495.12 3.1574L20.244 37.2035C16.401 37.479 13.6951 43.4139 14.2003 50.4593L0.283536 51.4571ZM519.45 131.137L8.62184 167.76L22.3723 164.443L516.964 128.983L519.45 131.137ZM8.62184 167.76L0.283536 51.4571C-0.313428 43.1306 5.95259 35.8967 14.2791 35.2998L20.244 37.2035C16.401 37.479 13.6951 43.4139 14.2003 50.4593L22.3723 164.443L8.62184 167.76ZM494.954 0.837946C503.28 0.240981 510.514 6.507 511.111 14.8335L519.45 131.137L516.964 128.983L508.792 14.9998C508.287 7.95429 502.166 2.65227 495.12 3.1574L494.954 0.837946Z" fill="#308546" mask="url(#path-28-outside-3_5393_14612)"/>
<path d="M56.2354 71.9557C55.9621 75.6109 53.7962 78.688 49.1807 79.0189C44.4098 79.3609 41.2595 76.1743 40.9191 71.4256C40.55 66.2775 43.4354 62.6582 48.1175 62.3225C52.0673 62.0393 54.7006 64.237 55.6683 67.4687L53.2688 68.2206C52.4725 65.8242 50.7159 64.3443 48.2972 64.5177C45.2349 64.7372 43.2543 67.2881 43.5311 71.1491C43.8016 74.9214 46.0275 77.0369 49.1563 76.8125C51.9967 76.6089 53.5415 74.5131 53.7072 71.847L56.2354 71.9557ZM61.4902 78.1364C59.0714 78.3098 57.5511 77.0136 57.4286 75.305C57.3029 73.552 58.5818 72.7243 60.406 72.0359L65.2731 70.2372C65.1237 68.7758 63.9807 68.0771 62.494 68.1837C61.1848 68.2776 59.825 68.9104 59.1694 70.9647L57.0928 70.3107C58.0272 67.478 60.2317 66.4947 62.5617 66.3276C65.7349 66.1001 67.5834 67.6181 67.7679 70.1921L68.0543 74.1863C68.1195 75.0961 68.424 75.6096 69.1785 75.5555C69.5113 75.5316 69.9028 75.392 70.1769 75.1717L70.3121 77.0578C69.8621 77.3131 69.0997 77.5685 68.4118 77.6178C66.6588 77.7435 65.9961 76.8989 65.7644 75.8449L65.7422 75.8465C64.9247 77.1987 63.3985 77.9996 61.4902 78.1364ZM59.9899 74.9429C60.0392 75.6308 60.686 76.2536 62.0174 76.1581C63.6373 76.042 65.3109 75.1191 65.4958 73.3438L65.3956 71.9458L61.5619 73.5366C60.5222 73.968 59.939 74.2329 59.9899 74.9429ZM71.8991 73.643C72.7633 74.8078 74.0346 75.4304 75.9208 75.2951C77.4741 75.1838 78.6754 74.5178 78.6006 73.4748C78.5306 72.4985 77.5114 72.2816 76.4161 72.2486L73.823 72.1669C72.1238 72.1102 70.3357 71.4355 70.2052 69.3037C70.0699 67.1053 72.0397 65.6481 74.8578 65.4461C76.8549 65.3029 78.895 65.7588 80.1634 67.2738L78.7182 68.5818C77.751 67.5359 76.429 67.14 74.9867 67.2434C73.4777 67.3516 72.3652 68.0113 72.4305 68.9211C72.4957 69.8309 73.3136 70.0399 74.3645 70.0761L76.7801 70.1705C78.5696 70.243 80.6572 70.7401 80.8259 73.0922C80.9977 75.4888 78.9565 76.8841 76.0053 77.0957C73.1428 77.3009 71.3419 76.4487 70.14 74.6167L71.8991 73.643ZM81.2658 60.1913L83.7954 60.0099L84.2711 66.6447L84.2933 66.6431C84.8382 65.5335 86.068 64.6423 87.8654 64.5135C90.6169 64.3162 92.3086 65.8231 92.5122 68.6634L93.0117 75.6311L90.4821 75.8125L90.0096 69.222C89.8791 67.4025 88.9437 66.4881 87.3017 66.6059C85.4821 66.7363 84.3777 68.1314 84.5256 70.1951L84.9568 76.2086L82.4271 76.39L81.2658 60.1913ZM107.42 74.8434C102.672 75.1839 99.1663 72.0227 98.8115 67.0743C98.4568 62.1259 101.475 58.497 106.224 58.1565C110.995 57.8145 114.5 60.9757 114.855 65.9241C115.21 70.8725 112.191 74.5014 107.42 74.8434ZM101.43 66.8866C101.689 70.5035 103.979 72.8821 107.263 72.6466C110.569 72.4096 112.496 69.7288 112.236 66.1118C111.977 62.4948 109.688 60.1163 106.381 60.3534C103.097 60.5888 101.171 63.2696 101.43 66.8866ZM123.342 59.9626C123.21 58.1209 124.413 56.8525 126.609 56.695C127.319 56.6441 127.903 56.6915 128.559 56.8229L128.686 58.5981C128.26 58.5618 127.723 58.5334 127.323 58.562C126.125 58.6479 125.827 59.16 125.886 59.981L126.032 62.0225L128.895 61.8172L129.03 63.7034L126.167 63.9086L126.834 73.2062L124.304 73.3876L123.638 64.09L119.666 64.3747L120.332 73.6724L117.803 73.8537L117.136 64.5561L115.339 64.685L115.204 62.7988L117.001 62.67L116.84 60.4288C116.708 58.587 117.911 57.3187 120.108 57.1612C120.818 57.1103 121.423 57.1561 122.057 57.289L122.185 59.0642C121.78 59.0263 121.243 58.9979 120.821 59.0281C119.645 59.1125 119.325 59.6261 119.384 60.4471L119.531 62.4886L123.503 62.2038L123.342 59.9626ZM140.634 69.072C139.913 71.4656 137.767 72.6454 135.326 72.8204C131.709 73.0797 129.458 70.9215 129.218 67.5708C128.966 64.0648 130.941 61.4252 134.624 61.1611C138.086 60.9129 140.439 63.2423 140.559 67.0923L131.749 67.7239C132.064 69.9318 133.416 71.0615 135.413 70.9184C137.033 70.8022 138.139 70.0538 138.481 68.6018L140.634 69.072ZM131.696 66.0549L137.932 65.6078C137.579 63.8042 136.332 62.8899 134.712 63.0061C133.025 63.127 131.921 64.2099 131.696 66.0549ZM148.959 62.5645C148.688 62.517 148.351 62.4743 148.04 62.4966C145.688 62.6652 144.341 64.4123 144.575 67.6742L144.879 71.9125L142.349 72.0939L141.547 60.9101L144.01 60.7335L144.189 63.2188L144.211 63.2172C144.459 62.3295 145.049 61.5289 145.772 61.031C146.366 60.6093 147.084 60.3571 147.794 60.3061C148.215 60.2759 148.529 60.298 148.8 60.3455L148.959 62.5645Z" fill="#0E150E"/>
<path d="M55.3745 95.8244L58.7405 95.5831L59.0382 99.7359C62.573 100.01 66.0549 101.386 68.841 104.701L65.5445 107.75C63.6298 105.558 61.5312 104.478 59.3485 104.064L60.0505 113.856L60.2722 113.884C65.846 114.407 70.1836 116.073 70.6004 121.887C70.9922 127.351 67.3492 131.083 61.37 132.259L61.652 136.193L58.2861 136.435L58.0134 132.632C52.5835 132.889 49.0267 131.694 45.2005 127.355L48.5282 124.128C51.3486 127.309 54.1966 128.423 57.7063 128.348L56.9854 118.293L54.019 117.979C48.7512 117.434 45.1723 115.318 44.7962 110.072C44.3763 104.214 49.1526 100.357 55.6566 99.7587L55.3745 95.8244ZM49.6234 109.374C49.8177 112.085 51.6009 113.055 55.1387 113.373L56.6438 113.529L55.9575 103.955C51.9452 104.375 49.4197 106.533 49.6234 109.374ZM61.0628 127.975C64.4755 127.159 65.9144 125.167 65.7389 122.719C65.5446 120.008 63.6303 119.047 60.3953 118.664L61.0628 127.975ZM99.6766 117.43L99.9743 121.582L94.7286 121.958L95.2677 129.477L90.2406 129.838L89.7015 122.319L73.0902 123.51L72.7455 118.701L85.5922 98.0958L92.9798 97.5661L94.4309 117.806L99.6766 117.43ZM77.3388 119.031L89.4038 118.166L88.2128 101.555L77.3388 119.031ZM101.683 107.663C101.203 100.975 106.042 96.1463 113.342 95.6229C122.303 94.9805 127.079 101.536 127.744 110.804C128.477 121.033 123.655 127.925 114.825 128.558C109.841 128.916 105.207 127.403 102.904 122.251L107.672 120.723C109.193 123.558 111.77 124.559 114.83 124.34C120.469 123.936 123.069 119.136 122.495 111.136L122.473 110.83C120.978 114.496 117.447 116.727 113.12 117.037C106.956 117.479 102.131 113.914 101.683 107.663ZM106.866 107.028C107.145 110.918 110.087 113.344 114.109 113.056C118.48 112.742 121.314 109.375 121.213 104.901C119.717 101.186 117.053 99.575 113.643 99.8195C109.49 100.117 106.571 102.919 106.866 107.028ZM146.225 126.307C137.701 126.918 132.007 121.043 131.277 110.858C130.546 100.673 135.344 94.0455 143.868 93.4344C152.436 92.8201 158.13 98.6951 158.86 108.88C159.59 119.066 154.793 125.693 146.225 126.307ZM136.522 110.482C137.102 118.569 140.547 122.496 145.924 122.111C151.345 121.722 154.194 117.344 153.614 109.257C153.035 101.169 149.59 97.2423 144.169 97.6309C138.792 98.0164 135.943 102.395 136.522 110.482ZM162.561 118.106L168.069 117.711L168.558 124.53C168.805 127.984 167.126 130.301 164.341 131.292L163.17 129.047C164.743 128.319 165.545 127.251 165.433 125.677L165.345 124.453L163.028 124.619L162.561 118.106ZM185.363 123.501C176.839 124.112 171.145 118.237 170.415 108.052C169.684 97.8667 174.482 91.2396 183.006 90.6284C191.574 90.0141 197.268 95.8891 197.998 106.074C198.728 116.26 193.931 122.887 185.363 123.501ZM175.66 107.676C176.24 115.763 179.685 119.69 185.062 119.305C190.482 118.916 193.332 114.538 192.752 106.451C192.173 98.3635 188.727 94.4363 183.307 94.825C177.93 95.2104 175.08 99.5889 175.66 107.676ZM216.33 121.281C207.806 121.892 202.112 116.017 201.381 105.832C200.651 95.6466 205.449 89.0194 213.973 88.4083C222.541 87.794 228.235 93.669 228.965 103.854C229.695 114.04 224.898 120.667 216.33 121.281ZM206.627 105.456C207.207 113.543 210.652 117.47 216.029 117.085C221.449 116.696 224.299 112.317 223.719 104.23C223.139 96.1433 219.694 92.2162 214.274 92.6048C208.897 92.9903 206.047 97.3687 206.627 105.456ZM247.297 119.061C238.773 119.672 233.079 113.797 232.348 103.612C231.618 93.4264 236.416 86.7992 244.94 86.1881C253.508 85.5738 259.202 91.4488 259.932 101.634C260.662 111.819 255.865 118.447 247.297 119.061ZM237.594 103.236C238.174 111.323 241.619 115.25 246.996 114.864C252.416 114.476 255.266 110.097 254.686 102.01C254.106 93.9232 250.661 89.996 245.241 90.3846C239.864 90.7701 237.014 95.1486 237.594 103.236Z" fill="#308546"/>
<defs>
<filter id="filter0_d_5393_14612" x="4.25866" y="55.5164" width="532.657" height="376.637" filterUnits="userSpaceOnUse" color-interpolation-filters="sRGB">
<feFlood flood-opacity="0" result="BackgroundImageFix"/>
<feColorMatrix in="SourceAlpha" type="matrix" values="0 0 0 0 0 0 0 0 0 0 0 0 0 0 0 0 0 0 127 0" result="hardAlpha"/>
<feOffset dx="-6.26087"/>
<feComposite in2="hardAlpha" operator="out"/>
<feColorMatrix type="matrix" values="0 0 0 0 0.1872 0 0 0 0 0.52 0 0 0 0 0.275947 0 0 0 1 0"/>
<feBlend mode="normal" in2="BackgroundImageFix" result="effect1_dropShadow_5393_14612"/>
<feBlend mode="normal" in="SourceGraphic" in2="effect1_dropShadow_5393_14612" result="shape"/>
</filter>
<filter id="filter1_d_5393_14612" x="49.8592" y="318.355" width="378.502" height="95.199" filterUnits="userSpaceOnUse" color-interpolation-filters="sRGB">
<feFlood flood-opacity="0" result="BackgroundImageFix"/>
<feColorMatrix in="SourceAlpha" type="matrix" values="0 0 0 0 0 0 0 0 0 0 0 0 0 0 0 0 0 0 127 0" result="hardAlpha"/>
<feOffset dx="-4.07632"/>
<feComposite in2="hardAlpha" operator="out"/>
<feColorMatrix type="matrix" values="0 0 0 0 0.105882 0 0 0 0 0.192157 0 0 0 0 0.109804 0 0 0 1 0"/>
<feBlend mode="normal" in2="BackgroundImageFix" result="effect1_dropShadow_5393_14612"/>
<feBlend mode="normal" in="SourceGraphic" in2="effect1_dropShadow_5393_14612" result="shape"/>
</filter>
<filter id="filter2_d_5393_14612" x="443.305" y="311.693" width="78.2677" height="74.1924" filterUnits="userSpaceOnUse" color-interpolation-filters="sRGB">
<feFlood flood-opacity="0" result="BackgroundImageFix"/>
<feColorMatrix in="SourceAlpha" type="matrix" values="0 0 0 0 0 0 0 0 0 0 0 0 0 0 0 0 0 0 127 0" result="hardAlpha"/>
<feOffset dx="-4.07632"/>
<feComposite in2="hardAlpha" operator="out"/>
<feColorMatrix type="matrix" values="0 0 0 0 0.105882 0 0 0 0 0.192157 0 0 0 0 0.109804 0 0 0 1 0"/>
<feBlend mode="normal" in2="BackgroundImageFix" result="effect1_dropShadow_5393_14612"/>
<feBlend mode="normal" in="SourceGraphic" in2="effect1_dropShadow_5393_14612" result="shape"/>
</filter>
<filter id="filter3_d_5393_14612" x="47.4251" y="184.828" width="36.1745" height="34.7842" filterUnits="userSpaceOnUse" color-interpolation-filters="sRGB">
<feFlood flood-opacity="0" result="BackgroundImageFix"/>
<feColorMatrix in="SourceAlpha" type="matrix" values="0 0 0 0 0 0 0 0 0 0 0 0 0 0 0 0 0 0 127 0" result="hardAlpha"/>
<feOffset dx="-1.3913"/>
<feComposite in2="hardAlpha" operator="out"/>
<feColorMatrix type="matrix" values="0 0 0 0 0.1872 0 0 0 0 0.52 0 0 0 0 0.275947 0 0 0 1 0"/>
<feBlend mode="normal" in2="BackgroundImageFix" result="effect1_dropShadow_5393_14612"/>
<feBlend mode="normal" in="SourceGraphic" in2="effect1_dropShadow_5393_14612" result="shape"/>
</filter>
<filter id="filter4_d_5393_14612" x="284.658" y="166.773" width="36.1745" height="34.7842" filterUnits="userSpaceOnUse" color-interpolation-filters="sRGB">
<feFlood flood-opacity="0" result="BackgroundImageFix"/>
<feColorMatrix in="SourceAlpha" type="matrix" values="0 0 0 0 0 0 0 0 0 0 0 0 0 0 0 0 0 0 127 0" result="hardAlpha"/>
<feOffset dx="-1.3913"/>
<feComposite in2="hardAlpha" operator="out"/>
<feColorMatrix type="matrix" values="0 0 0 0 0.1872 0 0 0 0 0.52 0 0 0 0 0.275947 0 0 0 1 0"/>
<feBlend mode="normal" in2="BackgroundImageFix" result="effect1_dropShadow_5393_14612"/>
<feBlend mode="normal" in="SourceGraphic" in2="effect1_dropShadow_5393_14612" result="shape"/>
</filter>
</defs>
</svg>
