<svg width="353" height="146" viewBox="0 0 353 146" fill="none" xmlns="http://www.w3.org/2000/svg">
<g filter="url(#filter0_d_4254_13727)">
<rect x="17" y="1" width="335" height="144" rx="20" fill="white"/>
<rect x="16.5" y="0.5" width="336" height="145" rx="20.5" stroke="#1B311C"/>
</g>
<path d="M63.7934 30.7064V47H61.249V33.4964H61.182L56.5618 47H53.928L49.1962 33.4964H49.1292V47H46.7186V30.7064H50.7139L55.2226 43.9198H55.3788L59.7982 30.7064H63.7934ZM69.5547 47.2455C67.1218 47.2455 65.6933 45.8394 65.6933 44.1207C65.6933 42.3574 67.0325 41.6209 68.9074 41.0629L73.9071 39.6121C73.8625 38.139 72.7688 37.3578 71.2733 37.3578C69.9565 37.3578 68.5503 37.8934 67.7468 39.9022L65.7157 39.0987C66.854 36.331 69.1306 35.5052 71.4742 35.5052C74.666 35.5052 76.4069 37.1569 76.4069 39.746V43.7636C76.4069 44.6787 76.6748 45.2144 77.4337 45.2144C77.7685 45.2144 78.1702 45.1028 78.4604 44.9019V46.7991C77.9917 47.0223 77.2105 47.2232 76.5185 47.2232C74.7553 47.2232 74.1526 46.3304 73.9964 45.259H73.9741C73.0589 46.5536 71.4742 47.2455 69.5547 47.2455ZM68.2825 43.9422C68.2825 44.6341 68.8851 45.3037 70.2243 45.3037C71.8537 45.3037 73.5946 44.5002 73.9071 42.7369V41.3307L69.9565 42.6476C68.8851 43.0047 68.2825 43.2279 68.2825 43.9422ZM86.7675 35.7507H89.4013L84.5355 48.3615C83.665 50.5712 82.2812 51.5979 79.8706 51.5979C79.0894 51.5979 78.1966 51.4417 77.7279 51.2408V49.299C78.4198 49.5222 79.1564 49.6114 79.7367 49.6114C80.5179 49.6114 80.875 49.4998 81.2545 49.2097C81.7455 48.8749 81.991 48.2499 81.991 47.625C81.991 47.1116 81.8125 46.4866 81.433 45.5492L77.4601 35.7507H80.1831L83.5088 44.9912H83.6204L86.7675 35.7507ZM94.786 36.3087C95.4333 32.2465 97.7546 30.4609 101.326 30.4609C104.629 30.4609 107.017 32.4027 107.017 35.6614C107.017 38.2059 105.567 39.5005 103.714 40.5942L100.902 42.2235C99.4732 43.0494 98.4018 43.7413 97.8662 44.8126H107.352V47H95.0985V46.2411C95.0985 44.21 95.969 42.6922 99.0714 40.862L101.75 39.3219C103.223 38.4738 104.384 37.5363 104.384 35.7284C104.384 33.8089 103.111 32.6036 101.17 32.6036C99.0268 32.6036 97.6876 33.675 97.1742 36.5989L94.786 36.3087ZM111.624 30.7064H113.633V47H111.066V35.5052H108.343V33.7642C110.865 33.7196 111.289 33.1616 111.624 30.7064ZM124.443 47.2455C122.011 47.2455 120.582 45.8394 120.582 44.1207C120.582 42.3574 121.921 41.6209 123.796 41.0629L128.796 39.6121C128.751 38.139 127.658 37.3578 126.162 37.3578C124.845 37.3578 123.439 37.8934 122.636 39.9022L120.604 39.0987C121.743 36.331 124.019 35.5052 126.363 35.5052C129.555 35.5052 131.296 37.1569 131.296 39.746V43.7636C131.296 44.6787 131.564 45.2144 132.322 45.2144C132.657 45.2144 133.059 45.1028 133.349 44.9019V46.7991C132.88 47.0223 132.099 47.2232 131.407 47.2232C129.644 47.2232 129.041 46.3304 128.885 45.259H128.863C127.948 46.5536 126.363 47.2455 124.443 47.2455ZM123.171 43.9422C123.171 44.6341 123.774 45.3037 125.113 45.3037C126.742 45.3037 128.483 44.5002 128.796 42.7369V41.3307L124.845 42.6476C123.774 43.0047 123.171 43.2279 123.171 43.9422ZM133.114 35.7507H135.167L135.77 32.4474H137.422V35.7507H140.658V37.6479H137.422V43.4288C137.422 44.8126 137.823 45.259 139.073 45.259C139.542 45.259 140.055 45.1921 140.703 45.0358V46.8884C139.832 47.0893 139.14 47.1786 138.18 47.1786C135.971 47.1786 134.877 46.2188 134.877 44.21V37.6479H133.114V35.7507ZM146.515 42.4467L149.015 42.1119C149.506 44.3216 150.889 45.1028 153.01 45.1028C155.353 45.1028 156.804 44.143 156.804 42.1342C156.804 40.3486 155.51 39.7014 153.724 39.7014H151.314V37.6033H153.434C154.885 37.6033 156.313 37.1122 156.313 35.4159C156.313 33.7866 155.019 32.6036 153.077 32.6036C150.867 32.6036 149.528 33.6973 149.171 35.907L146.738 35.5945C147.207 32.3134 149.55 30.4609 153.233 30.4609C156.782 30.4609 158.925 32.4697 158.925 35.0588C158.925 36.6212 158.21 38.0274 156.581 38.4961V38.563C158.255 38.9202 159.438 40.1254 159.438 42.4021C159.438 45.6831 156.693 47.2455 152.988 47.2455C149.394 47.2455 147.095 45.7501 146.515 42.4467ZM161.622 35.7507H164.479V39.0764H161.622V35.7507ZM161.622 47V43.6743H164.479V47H161.622ZM166.678 42.4467L169.178 42.1119C169.669 44.3216 171.053 45.1028 173.173 45.1028C175.517 45.1028 176.968 44.143 176.968 42.1342C176.968 40.3486 175.673 39.7014 173.888 39.7014H171.477V37.6033H173.597C175.048 37.6033 176.477 37.1122 176.477 35.4159C176.477 33.7866 175.182 32.6036 173.24 32.6036C171.031 32.6036 169.691 33.6973 169.334 35.907L166.901 35.5945C167.37 32.3134 169.714 30.4609 173.397 30.4609C176.945 30.4609 179.088 32.4697 179.088 35.0588C179.088 36.6212 178.374 38.0274 176.745 38.4961V38.563C178.419 38.9202 179.602 40.1254 179.602 42.4021C179.602 45.6831 176.856 47.2455 173.151 47.2455C169.558 47.2455 167.259 45.7501 166.678 42.4467ZM188.063 47.2455C183.711 47.2455 181.032 44.0538 181.032 38.8532C181.032 33.6526 183.711 30.4609 188.063 30.4609C192.438 30.4609 195.116 33.6526 195.116 38.8532C195.116 44.0538 192.438 47.2455 188.063 47.2455ZM183.711 38.8532C183.711 42.9824 185.318 45.1028 188.063 45.1028C190.831 45.1028 192.438 42.9824 192.438 38.8532C192.438 34.724 190.831 32.6036 188.063 32.6036C185.318 32.6036 183.711 34.724 183.711 38.8532ZM203.331 35.5052C206.456 35.5052 208.777 37.6926 208.777 41.3754C208.777 45.0582 206.434 47.2455 203.331 47.2455C201.613 47.2455 200.14 46.4197 199.358 45.326V51.4194H196.814V35.7507H199.336V37.514C200.05 36.331 201.613 35.5052 203.331 35.5052ZM199.336 41.6432C199.336 43.7413 200.787 45.3483 202.796 45.3483C204.827 45.3483 206.166 43.719 206.166 41.3754C206.166 39.0318 204.804 37.4024 202.818 37.4024C200.787 37.4024 199.336 39.0094 199.336 41.0852V41.6432ZM210.252 47V35.7284H212.73V37.4247H212.752C213.533 36.1971 214.806 35.5052 216.368 35.5052C217.997 35.5052 219.359 36.2194 220.073 37.5586C220.899 36.2641 222.305 35.5052 224.113 35.5052C226.702 35.5052 228.51 37.1346 228.51 40.0138V47H225.966V40.371C225.966 38.563 225.095 37.5586 223.555 37.5586C221.814 37.5586 220.653 38.8755 220.653 40.9513V47H218.109V40.371C218.109 38.563 217.283 37.5586 215.698 37.5586C213.98 37.5586 212.797 38.8755 212.797 40.9513V47H210.252Z" fill="#0E150E"/>
<g filter="url(#filter1_d_4254_13727)">
<rect x="42" y="72.8169" width="285" height="55.3662" rx="27.6831" fill="#F0FFF7"/>
<rect x="41.5" y="72.3169" width="286" height="56.3662" rx="28.1831" stroke="#1B311C"/>
</g>
<path d="M120.179 101.439V99.4592H123.434C123.929 99.4592 124.367 99.3767 124.748 99.2118C125.128 99.0341 125.427 98.793 125.642 98.4884C125.858 98.1711 125.966 97.8094 125.966 97.4033C125.966 97.0099 125.871 96.6736 125.68 96.3944C125.49 96.1152 125.23 95.8995 124.9 95.7472C124.57 95.5949 124.196 95.5188 123.777 95.5188H120.179V93.52H123.777C124.678 93.52 125.477 93.6723 126.175 93.9769C126.886 94.2814 127.444 94.7256 127.851 95.3094C128.257 95.8805 128.46 96.5784 128.46 97.4033C128.46 97.911 128.339 98.4059 128.098 98.8882C127.857 99.3704 127.514 99.8082 127.07 100.202C126.626 100.582 126.087 100.887 125.452 101.115C124.817 101.331 124.1 101.439 123.301 101.439H120.179ZM118.466 106.807V93.52H120.864V106.807H118.466ZM125.966 106.807C125.915 106.223 125.776 105.646 125.547 105.075C125.319 104.491 124.995 103.933 124.576 103.4C124.17 102.867 123.669 102.378 123.072 101.934C122.476 101.477 121.778 101.084 120.979 100.754L123.644 100.183C124.443 100.589 125.135 101.046 125.718 101.553C126.302 102.061 126.785 102.607 127.165 103.19C127.559 103.761 127.857 104.358 128.06 104.98C128.263 105.589 128.384 106.198 128.422 106.807H125.966ZM132.807 106.807V93.52H142.44V95.5188H135.187V98.9262H140.079V100.925H135.187V104.808H142.516V106.807H132.807ZM151.908 107.036C150.855 107.036 149.941 106.839 149.167 106.445C148.405 106.039 147.815 105.468 147.396 104.732C146.99 103.983 146.787 103.089 146.787 102.048H149.148C149.148 103.013 149.382 103.755 149.852 104.275C150.334 104.783 151.013 105.037 151.889 105.037C152.625 105.037 153.209 104.872 153.64 104.542C154.084 104.212 154.306 103.749 154.306 103.152C154.306 102.721 154.173 102.384 153.907 102.143C153.653 101.889 153.304 101.68 152.86 101.515C152.428 101.35 151.952 101.204 151.432 101.077C150.912 100.938 150.391 100.785 149.871 100.62C149.351 100.443 148.868 100.214 148.424 99.9351C147.993 99.6559 147.644 99.2943 147.377 98.8501C147.111 98.3932 146.978 97.8158 146.978 97.1178C146.978 96.3817 147.174 95.7282 147.568 95.1571C147.961 94.586 148.513 94.1355 149.224 93.8055C149.934 93.4629 150.766 93.2916 151.718 93.2916C152.631 93.2916 153.456 93.4629 154.192 93.8055C154.941 94.1482 155.537 94.6368 155.982 95.2713C156.438 95.8932 156.673 96.6546 156.686 97.5556H154.287C154.275 97.0734 154.148 96.6673 153.907 96.3373C153.678 95.9947 153.367 95.7345 152.974 95.5569C152.593 95.3792 152.174 95.2903 151.718 95.2903C151.07 95.2903 150.531 95.449 150.099 95.7662C149.681 96.0708 149.471 96.5023 149.471 97.0607C149.471 97.4541 149.605 97.765 149.871 97.9935C150.138 98.2219 150.487 98.4123 150.918 98.5645C151.362 98.7041 151.844 98.8374 152.365 98.9643C152.885 99.0912 153.399 99.2435 153.907 99.4212C154.427 99.5861 154.903 99.8209 155.334 100.125C155.779 100.417 156.134 100.804 156.4 101.287C156.667 101.769 156.8 102.384 156.8 103.133C156.8 103.92 156.584 104.605 156.153 105.189C155.734 105.773 155.157 106.23 154.421 106.56C153.685 106.877 152.847 107.036 151.908 107.036ZM166.23 107.036C165.05 107.036 164.029 106.75 163.166 106.179C162.315 105.595 161.655 104.783 161.186 103.742C160.716 102.702 160.482 101.509 160.482 100.164C160.482 98.7676 160.723 97.5556 161.205 96.5277C161.687 95.4997 162.366 94.7066 163.242 94.1482C164.117 93.5771 165.145 93.2916 166.326 93.2916C167.265 93.2916 168.115 93.4756 168.876 93.8436C169.651 94.2116 170.279 94.7383 170.761 95.4236C171.256 96.0962 171.535 96.9148 171.599 97.8792H168.991C168.902 97.0924 168.623 96.4642 168.153 95.9947C167.683 95.5251 167.068 95.2903 166.307 95.2903C165.659 95.2903 165.082 95.4871 164.574 95.8805C164.067 96.2612 163.673 96.8196 163.394 97.5556C163.115 98.279 162.975 99.1483 162.975 100.164C162.975 101.192 163.115 102.067 163.394 102.791C163.686 103.514 164.073 104.072 164.555 104.466C165.05 104.846 165.609 105.037 166.23 105.037C166.763 105.037 167.227 104.929 167.62 104.713C168.026 104.485 168.356 104.167 168.61 103.761C168.864 103.355 169.01 102.879 169.048 102.334H171.675C171.586 103.285 171.307 104.117 170.837 104.827C170.38 105.525 169.758 106.071 168.972 106.464C168.197 106.845 167.284 107.036 166.23 107.036ZM183.028 106.807V93.52H185.426V106.807H183.028ZM175.242 106.807V93.52H177.64V106.807H175.242ZM177.336 100.925V98.9262H183.313V100.925H177.336ZM189.945 106.807V93.52H199.577V95.5188H192.325V98.9262H197.217V100.925H192.325V104.808H199.653V106.807H189.945ZM203.925 106.807V93.52H208.132C209.122 93.52 210.004 93.6786 210.778 93.9959C211.565 94.3005 212.231 94.7446 212.777 95.3284C213.322 95.8995 213.741 96.5911 214.033 97.4033C214.325 98.2155 214.471 99.1229 214.471 100.125C214.471 101.141 214.325 102.061 214.033 102.886C213.741 103.698 213.322 104.402 212.777 104.999C212.231 105.582 211.565 106.033 210.778 106.35C210.004 106.655 209.122 106.807 208.132 106.807H203.925ZM206.304 104.808H208.132C208.944 104.808 209.636 104.618 210.207 104.237C210.778 103.844 211.216 103.298 211.52 102.6C211.838 101.889 211.996 101.065 211.996 100.125C211.996 99.1864 211.838 98.3742 211.52 97.6889C211.216 96.9909 210.778 96.4579 210.207 96.0899C209.636 95.7091 208.944 95.5188 208.132 95.5188H206.304V104.808ZM223.178 107.036C222.099 107.036 221.166 106.833 220.379 106.426C219.593 106.008 218.984 105.43 218.552 104.694C218.133 103.945 217.924 103.076 217.924 102.086V93.52H220.322V102.086C220.322 102.683 220.437 103.203 220.665 103.647C220.906 104.079 221.242 104.415 221.674 104.656C222.105 104.897 222.607 105.018 223.178 105.018C223.762 105.018 224.263 104.897 224.682 104.656C225.113 104.415 225.443 104.079 225.671 103.647C225.913 103.203 226.033 102.683 226.033 102.086V93.52H228.451V102.086C228.451 103.076 228.235 103.945 227.804 104.694C227.372 105.43 226.763 106.008 225.976 106.426C225.189 106.833 224.256 107.036 223.178 107.036ZM233.198 106.807V93.52H235.597V104.808H242.374V106.807H233.198ZM247.083 106.807V93.52H256.715V95.5188H249.462V98.9262H254.355V100.925H249.462V104.808H256.791V106.807H247.083Z" fill="black"/>
<defs>
<filter id="filter0_d_4254_13727" x="0" y="0" width="353" height="146" filterUnits="userSpaceOnUse" color-interpolation-filters="sRGB">
<feFlood flood-opacity="0" result="BackgroundImageFix"/>
<feColorMatrix in="SourceAlpha" type="matrix" values="0 0 0 0 0 0 0 0 0 0 0 0 0 0 0 0 0 0 127 0" result="hardAlpha"/>
<feOffset dx="-16"/>
<feComposite in2="hardAlpha" operator="out"/>
<feColorMatrix type="matrix" values="0 0 0 0 0.105882 0 0 0 0 0.192157 0 0 0 0 0.109804 0 0 0 1 0"/>
<feBlend mode="normal" in2="BackgroundImageFix" result="effect1_dropShadow_4254_13727"/>
<feBlend mode="normal" in="SourceGraphic" in2="effect1_dropShadow_4254_13727" result="shape"/>
</filter>
<filter id="filter1_d_4254_13727" x="36" y="71.8169" width="292" height="57.3662" filterUnits="userSpaceOnUse" color-interpolation-filters="sRGB">
<feFlood flood-opacity="0" result="BackgroundImageFix"/>
<feColorMatrix in="SourceAlpha" type="matrix" values="0 0 0 0 0 0 0 0 0 0 0 0 0 0 0 0 0 0 127 0" result="hardAlpha"/>
<feOffset dx="-5"/>
<feComposite in2="hardAlpha" operator="out"/>
<feColorMatrix type="matrix" values="0 0 0 0 0.105882 0 0 0 0 0.192157 0 0 0 0 0.109804 0 0 0 1 0"/>
<feBlend mode="normal" in2="BackgroundImageFix" result="effect1_dropShadow_4254_13727"/>
<feBlend mode="normal" in="SourceGraphic" in2="effect1_dropShadow_4254_13727" result="shape"/>
</filter>
</defs>
</svg>
