<svg width="165" height="164" viewBox="0 0 165 164" fill="none" xmlns="http://www.w3.org/2000/svg">
<path d="M147.774 82.0002C147.775 72.2584 145.596 62.6398 141.396 53.8499C137.196 45.06 131.081 37.3216 123.501 31.2024C115.921 25.0832 107.067 20.7383 97.5895 18.4863C88.1115 16.2343 78.2497 16.1323 68.7272 18.1879C59.2047 20.2435 50.2631 24.4045 42.5581 30.3657C34.8531 36.327 28.5801 43.9372 24.1992 52.6384C19.8183 61.3397 17.4406 70.9111 17.2405 80.6509C17.0404 90.3907 19.0229 100.052 23.0426 108.926H141.958C145.798 100.469 147.781 91.2877 147.774 82.0002Z" fill="#E9FFF3"/>
<path d="M18.8579 108.925H146.141" stroke="#1B311C" stroke-width="1.5" stroke-linecap="round" stroke-linejoin="round"/>
<path d="M11.5147 108.925H15.5943" stroke="#1B311C" stroke-width="1.5" stroke-linecap="round" stroke-linejoin="round"/>
<path d="M149.405 108.925H153.485" stroke="#1B311C" stroke-width="1.5" stroke-linecap="round" stroke-linejoin="round"/>
<path d="M113.49 77.7019H103.061L105.554 56.1616C105.616 55.6322 105.87 55.1439 106.268 54.7895C106.666 54.4351 107.18 54.2393 107.713 54.2393H108.837C109.37 54.2393 109.885 54.4351 110.283 54.7895C110.681 55.1439 110.935 55.6322 110.996 56.1616L113.49 77.7019Z" fill="#B0FFD4" stroke="#1B311C" stroke-width="1.5" stroke-linecap="round" stroke-linejoin="round"/>
<path d="M116.75 67.2742C116.75 66.9888 116.694 66.7062 116.585 66.4425C116.476 66.1788 116.316 65.9392 116.114 65.7373C115.912 65.5355 115.673 65.3753 115.409 65.2661C115.146 65.1568 114.863 65.1006 114.578 65.1006H101.104V77.9203H116.745L116.75 67.2742Z" fill="#B0FFD4" stroke="#1B311C" stroke-width="1.5" stroke-linecap="round" stroke-linejoin="round"/>
<path d="M74.3887 59.8477V122.67H118.923V82.1158L74.3887 59.8477Z" fill="white"/>
<path d="M74.3887 59.8477V122.67H118.923V82.1158L74.3887 59.8477Z" stroke="#1B311C" stroke-width="1.5" stroke-linecap="round" stroke-linejoin="round"/>
<path d="M109.147 104.205C109.147 103.629 108.918 103.077 108.512 102.67C108.105 102.263 107.554 102.034 106.978 102.033H85.2501C84.6741 102.033 84.1216 102.262 83.7143 102.669C83.307 103.076 83.0781 103.629 83.0781 104.205V122.633H109.147V104.205Z" fill="#B0FFD4"/>
<path d="M109.147 104.205C109.147 103.629 108.918 103.077 108.512 102.67C108.105 102.263 107.554 102.034 106.978 102.033H85.2501C84.6741 102.033 84.1216 102.262 83.7143 102.669C83.307 103.076 83.0781 103.629 83.0781 104.205V122.633H109.147V104.205Z" stroke="#1B311C" stroke-width="1.5" stroke-linecap="round" stroke-linejoin="round"/>
<path d="M124.352 81.3164C124.352 81.6867 124.257 82.0508 124.077 82.3742C123.897 82.6976 123.637 82.9695 123.322 83.1642C123.007 83.3589 122.647 83.4699 122.277 83.4866C121.907 83.5034 121.539 83.4253 121.208 83.2599L70.8085 58.0594C70.4477 57.8787 70.1443 57.6013 69.9322 57.258C69.7201 56.9148 69.6077 56.5194 69.6074 56.1159V53.1525C69.6071 52.7822 69.7016 52.418 69.8818 52.0945C70.062 51.7711 70.322 51.4991 70.637 51.3045C70.952 51.1098 71.3115 50.999 71.6815 50.9826C72.0514 50.9662 72.4193 51.0447 72.7504 51.2106L123.151 76.4095C123.512 76.5902 123.816 76.8676 124.028 77.2109C124.24 77.5541 124.352 77.9495 124.352 78.353V81.3164Z" fill="#B0FFD4" stroke="#1B311C" stroke-width="1.5" stroke-linecap="round" stroke-linejoin="round"/>
<path d="M81.9902 83.5665C81.9902 84.2797 82.1307 84.9859 82.4036 85.6448C82.6766 86.3037 83.0766 86.9023 83.5809 87.4066C84.0852 87.9109 84.6838 88.311 85.3427 88.5839C86.0016 88.8568 86.7078 88.9973 87.421 88.9973C88.1342 88.9973 88.8404 88.8568 89.4993 88.5839C90.1582 88.311 90.7568 87.9109 91.2611 87.4066C91.7654 86.9023 92.1655 86.3037 92.4384 85.6448C92.7113 84.9859 92.8518 84.2797 92.8518 83.5665C92.8518 82.8533 92.7113 82.1471 92.4384 81.4882C92.1655 80.8294 91.7654 80.2307 91.2611 79.7264C90.7568 79.2221 90.1582 78.8221 89.4993 78.5491C88.8404 78.2762 88.1342 78.1357 87.421 78.1357C86.7078 78.1357 86.0016 78.2762 85.3427 78.5491C84.6838 78.8221 84.0852 79.2221 83.5809 79.7264C83.0766 80.2307 82.6766 80.8294 82.4036 81.4882C82.1307 82.1471 81.9902 82.8533 81.9902 83.5665Z" fill="#B0FFD4"/>
<path d="M96.1113 102.033V122.631" stroke="#1B311C" stroke-width="1.5" stroke-linecap="round" stroke-linejoin="round"/>
<path d="M37.457 122.67H74.3889V78.3135L37.457 96.44V122.67Z" fill="white"/>
<path d="M37.457 122.67H74.3889V78.3135L37.457 96.44V122.67Z" stroke="#1B311C" stroke-width="1.5" stroke-linecap="round" stroke-linejoin="round"/>
<path d="M74.388 70.4941L33.2264 90.7485C32.8656 90.9287 32.5621 91.2058 32.3499 91.5488C32.1378 91.8918 32.0254 92.2871 32.0254 92.6904V95.6539C32.0246 96.0252 32.119 96.3906 32.2996 96.7151C32.4803 97.0396 32.7411 97.3123 33.0572 97.5072C33.3733 97.7022 33.734 97.8128 34.1051 97.8286C34.4761 97.8444 34.845 97.7648 35.1765 97.5974L74.388 78.3139V70.4941Z" fill="#B0FFD4" stroke="#1B311C" stroke-width="1.5" stroke-linecap="round" stroke-linejoin="round"/>
<path d="M68.9554 104.205C68.9554 103.629 68.7265 103.076 68.3192 102.669C67.9119 102.262 67.3594 102.033 66.7834 102.033H45.0603C44.775 102.033 44.4924 102.089 44.2286 102.198C43.9649 102.307 43.7253 102.467 43.5235 102.668C43.3216 102.87 43.1615 103.11 43.0522 103.373C42.943 103.637 42.8867 103.919 42.8867 104.205V122.671H68.9554V104.205Z" fill="#B0FFD4" stroke="#1B311C" stroke-width="1.5" stroke-linecap="round" stroke-linejoin="round"/>
<path d="M42.8867 107.463H68.9554" stroke="#1B311C" stroke-width="1.5" stroke-linecap="round" stroke-linejoin="round"/>
<path d="M42.8867 112.894H68.9554" stroke="#1B311C" stroke-width="1.5" stroke-linecap="round" stroke-linejoin="round"/>
<path d="M42.8867 118.325H68.9554" stroke="#1B311C" stroke-width="1.5" stroke-linecap="round" stroke-linejoin="round"/>
<path d="M81.9902 83.5665C81.9902 84.2797 82.1307 84.9859 82.4036 85.6448C82.6766 86.3037 83.0766 86.9023 83.5809 87.4066C84.0852 87.9109 84.6838 88.311 85.3427 88.5839C86.0016 88.8568 86.7078 88.9973 87.421 88.9973C88.1342 88.9973 88.8404 88.8568 89.4993 88.5839C90.1582 88.311 90.7568 87.9109 91.2611 87.4066C91.7654 86.9023 92.1655 86.3037 92.4384 85.6448C92.7113 84.9859 92.8518 84.2797 92.8518 83.5665C92.8518 82.8533 92.7113 82.1471 92.4384 81.4882C92.1655 80.8294 91.7654 80.2307 91.2611 79.7264C90.7568 79.2221 90.1582 78.8221 89.4993 78.5491C88.8404 78.2762 88.1342 78.1357 87.421 78.1357C86.7078 78.1357 86.0016 78.2762 85.3427 78.5491C84.6838 78.8221 84.0852 79.2221 83.5809 79.7264C83.0766 80.2307 82.6766 80.8294 82.4036 81.4882C82.1307 82.1471 81.9902 82.8533 81.9902 83.5665Z" stroke="#1B311C" stroke-width="1.5"/>
<path d="M133.841 112.863V106.272" stroke="#1B311C" stroke-width="1.5" stroke-linecap="round" stroke-linejoin="round"/>
<path d="M140.41 100.665C140.41 101.528 140.241 102.382 139.91 103.179C139.58 103.976 139.097 104.7 138.487 105.31C137.877 105.919 137.153 106.403 136.356 106.733C135.559 107.063 134.705 107.233 133.842 107.233C132.98 107.233 132.126 107.063 131.329 106.733C130.532 106.403 129.808 105.919 129.198 105.31C128.588 104.7 128.104 103.976 127.774 103.179C127.444 102.382 127.274 101.528 127.274 100.665C127.274 97.8796 131.146 84.4332 132.945 78.3416C133 78.1465 133.118 77.9749 133.28 77.8528C133.442 77.7306 133.639 77.6646 133.842 77.6646C134.045 77.6646 134.242 77.7306 134.404 77.8528C134.566 77.9749 134.684 78.1465 134.74 78.3416C136.536 84.4332 140.41 97.8796 140.41 100.665Z" fill="#B0FFD4"/>
<path d="M140.41 100.665C140.41 101.528 140.241 102.382 139.91 103.179C139.58 103.976 139.097 104.7 138.487 105.31C137.877 105.919 137.153 106.403 136.356 106.733C135.559 107.063 134.705 107.233 133.842 107.233C132.98 107.233 132.126 107.063 131.329 106.733C130.532 106.403 129.808 105.919 129.198 105.31C128.588 104.7 128.104 103.976 127.774 103.179C127.444 102.382 127.274 101.528 127.274 100.665C127.274 97.8796 131.146 84.4332 132.945 78.3416C133 78.1465 133.118 77.9749 133.28 77.8528C133.442 77.7306 133.639 77.6646 133.842 77.6646C134.045 77.6646 134.242 77.7306 134.404 77.8528C134.566 77.9749 134.684 78.1465 134.74 78.3416C136.536 84.4332 140.41 97.8796 140.41 100.665Z" stroke="#1B311C" stroke-width="1.5" stroke-linecap="round" stroke-linejoin="round"/>
<path d="M46.5099 43.1867C45.835 43.1905 45.1666 43.3194 44.5386 43.5669C44.1992 41.4306 43.1089 39.4855 41.4638 38.0812C39.8186 36.6768 37.7265 35.9053 35.5635 35.9053C33.4005 35.9053 31.3084 36.6768 29.6632 38.0812C28.0181 39.4855 26.9278 41.4306 26.5884 43.5669C25.8389 43.276 25.0344 43.154 24.2324 43.2095C23.4303 43.265 22.6503 43.4965 21.9479 43.8878C21.2456 44.279 20.6381 44.8203 20.1687 45.473C19.6994 46.1257 19.3796 46.8739 19.2324 47.6643C19.0851 48.4547 19.1138 49.2678 19.3166 50.0458C19.5193 50.8238 19.8911 51.5475 20.4054 52.1655C20.9197 52.7834 21.5639 53.2804 22.2921 53.6211C23.0204 53.9617 23.8148 54.1376 24.6188 54.1363H46.5099C47.9619 54.1363 49.3545 53.5595 50.3812 52.5328C51.4079 51.506 51.9847 50.1135 51.9847 48.6615C51.9847 47.2095 51.4079 45.8169 50.3812 44.7902C49.3545 43.7635 47.9619 43.1867 46.5099 43.1867Z" fill="white" stroke="#1B311C" stroke-width="1.5" stroke-linejoin="round"/>
</svg>
