<svg width="34" height="39" viewBox="0 0 34 39" fill="none" xmlns="http://www.w3.org/2000/svg">
<path d="M2 12.9824L2 2.57198" stroke="#E0650D" stroke-width="3.7435"/>
<mask id="mask0_150_1098" style="mask-type:alpha" maskUnits="userSpaceOnUse" x="2" y="1" width="30" height="35">
<path d="M2 11.3844L16.9171 1L31.8341 11.3844V35.5106H2V11.3844Z" fill="black"/>
</mask>
<g mask="url(#mask0_150_1098)">
<path d="M41.4015 32.8116C38.6893 31.0939 32.2704 28.0879 24.6763 28.0879C15.1836 28.0879 11.5673 34.0999 2.97869 34.0999C-5.60993 34.0999 -9.22619 30.6645 -9.22619 30.6645" stroke="#E0650D" stroke-width="3.7435"/>
<path d="M41.4015 20.7579C38.6893 19.0402 32.2704 16.0342 24.6763 16.0342C15.1836 16.0342 11.5673 22.0462 2.97869 22.0462C-5.60993 22.0462 -9.22619 18.6108 -9.22619 18.6108" stroke="#E0650D" stroke-width="3.7435"/>
<path d="M-8.32108 28.0892C-6.21159 26.0852 -0.0940818 22.0771 7.50007 22.0771C16.9927 22.0771 20.609 28.0892 29.1976 28.0892C37.7862 28.0892 42.3066 24.6537 42.3066 24.6537" stroke="#E0650D" stroke-width="3.7435"/>
<path d="M-8.32022 28.0892C-6.21074 26.0852 -0.0932274 22.0771 7.50092 22.0771C16.9936 22.0771 20.6099 28.0892 29.1985 28.0892C37.7871 28.0892 42.3074 24.6537 42.3074 24.6537" stroke="#E0650D" stroke-width="3.7435"/>
</g>
<path d="M2 12.8024L16.9171 2.49609L31.8341 12.8024V36.8506H2V12.8024Z" stroke="#E0650D" stroke-width="3.7435"/>
</svg>
