<svg width="301" height="200" viewBox="0 0 301 200" fill="none" xmlns="http://www.w3.org/2000/svg">
<rect width="300" height="200" transform="translate(0.693359)" fill="white"/>
<g filter="url(#filter0_d_4078_23288)">
<rect x="18.6934" y="20" width="225" height="159" fill="white"/>
<rect x="17.6934" y="19" width="227" height="161" stroke="#1B311C" stroke-width="2"/>
</g>
<g filter="url(#filter1_i_4078_23288)">
<path d="M43.6934 44H219.693V155H43.6934V44Z" fill="white"/>
</g>
<path d="M43.6934 43.4324H43.1258V44V155V155.568H43.6934H219.693H220.261V155V44V43.4324H219.693H43.6934Z" stroke="#1B311C" stroke-width="1.13511"/>
<g clip-path="url(#clip0_4078_23288)">
<path d="M149.547 -69.4307C130.572 -74.9213 111.874 -80.5616 91.8527 -81.2375C68.4334 -82.0282 51.4389 -80.7891 31.8792 -67.2249C20.8652 -59.587 13.9519 -49.4736 14.6701 -36.0951C17.043 8.11003 102.327 25.7649 137.944 33.7909C155.187 37.6766 172.512 41.006 188.773 48.1971C200.129 53.2193 210.042 59.6211 217.613 69.5641C221.867 75.1513 226.697 82.2861 227.114 89.5669C227.361 93.8663 225.138 97.0382 221.506 99.2463C209.92 106.291 194.994 105.119 182.238 103.376C160.396 100.392 138.786 94.8315 117.959 87.692C98.2992 80.9528 79.8272 71.5783 60.7043 63.5568C49.0082 58.6506 37.0044 54.0963 24.6109 51.2527C18.0578 49.7492 8.40496 47.6338 2.74958 52.9616C-3.62237 58.9645 -3.08184 69.0436 -0.657505 76.6532C4.8844 94.0485 17.8228 109.2 30.6473 121.682C62.8053 152.98 103.364 173.324 146.886 183.454C159.061 186.287 171.409 187.759 183.706 189.881C194.033 191.664 205.54 193.418 214.368 199.562C217.75 201.917 221.001 205.466 221.235 209.794C221.58 216.173 215.02 220.357 210.145 222.891C198.246 229.076 184.844 230.747 171.611 231.094C153.91 231.558 136.312 229.323 118.816 226.941C105.23 225.092 91.5781 222.649 77.8751 221.781C70.8923 221.339 62.2943 221.422 56.9619 226.883C53.4523 230.478 53.1798 235.655 53.6582 240.335C54.6617 250.152 59.1875 259.373 65.0967 267.152C76.4381 282.082 92.2471 291.505 109.991 296.756C110.667 296.956 123.092 300.072 122.625 300.779" stroke="#1B311C" stroke-linecap="round"/>
<path d="M149.547 -69.4307C130.572 -74.9213 111.874 -80.5616 91.8527 -81.2375C68.4334 -82.0282 51.4389 -80.7891 31.8792 -67.2249C20.8652 -59.587 13.9519 -49.4736 14.6701 -36.0951C17.043 8.11003 102.327 25.7649 137.944 33.7909C155.187 37.6766 172.512 41.006 188.773 48.1971C200.129 53.2193 210.042 59.6211 217.613 69.5641C221.867 75.1513 226.697 82.2861 227.114 89.5669C227.361 93.8663 225.138 97.0382 221.506 99.2463C209.92 106.291 194.994 105.119 182.238 103.376C160.396 100.392 138.786 94.8315 117.959 87.692C98.2992 80.9528 79.8272 71.5783 60.7043 63.5568C49.0082 58.6506 37.0044 54.0963 24.6109 51.2527C18.0578 49.7492 8.40496 47.6338 2.74958 52.9616C-3.62237 58.9645 -3.08184 69.0436 -0.657505 76.6532C4.8844 94.0485 17.8228 109.2 30.6473 121.682C62.8053 152.98 103.364 173.324 146.886 183.454C159.061 186.287 171.409 187.759 183.706 189.881C194.033 191.664 205.54 193.418 214.368 199.562C217.75 201.917 221.001 205.466 221.235 209.794C221.58 216.173 215.02 220.357 210.145 222.891C198.246 229.076 184.844 230.747 171.611 231.094C153.91 231.558 136.312 229.323 118.816 226.941C105.23 225.092 91.5781 222.649 77.8751 221.781C70.8923 221.339 62.2943 221.422 56.9619 226.883C53.4523 230.478 53.1798 235.655 53.6582 240.335C54.6617 250.152 59.1875 259.373 65.0967 267.152C76.4381 282.082 92.2471 291.505 109.991 296.756C110.667 296.956 123.092 300.072 122.625 300.779" stroke="#1B311C" stroke-linecap="round"/>
<path d="M209.531 -29.4346C190.556 -34.9252 171.859 -40.5655 151.837 -41.2415C128.418 -42.0321 111.423 -40.793 91.8635 -27.2288C80.8496 -19.5909 73.9363 -9.47755 74.6545 3.90095C77.0274 48.1061 162.311 65.761 197.928 73.787C215.172 77.6727 232.497 81.0021 248.757 88.1932C260.113 93.2154 270.027 99.6172 277.597 109.56C281.852 115.147 286.681 122.282 287.099 129.563C287.345 133.862 285.123 137.034 281.491 139.242C269.904 146.287 254.978 145.115 242.223 143.372C220.381 140.388 198.771 134.828 177.943 127.688C158.284 120.949 139.812 111.574 120.689 103.553C108.993 98.6467 96.9888 94.0924 84.5953 91.2488C78.0422 89.7453 68.3893 87.6298 62.734 92.9577C56.362 98.9606 56.9025 109.04 59.3269 116.649C64.8688 134.045 77.8071 149.196 90.6317 161.678C122.79 192.976 163.348 213.32 206.87 223.45C219.045 226.283 231.394 227.755 243.691 229.878C254.018 231.66 265.525 233.414 274.352 239.558C277.734 241.913 280.986 245.462 281.22 249.79C281.565 256.17 275.005 260.353 270.129 262.887C258.231 269.072 244.828 270.743 231.595 271.09C213.895 271.554 196.296 269.319 178.801 266.938C165.214 265.088 151.562 262.645 137.86 261.777C130.877 261.335 122.279 261.418 116.946 266.88C113.437 270.474 113.164 275.652 113.643 280.331C114.646 290.148 119.172 299.369 125.081 307.148C136.422 322.078 152.231 331.501 169.975 336.752C170.651 336.952 183.076 340.068 182.609 340.775" stroke="#1B311C" stroke-linecap="round"/>
<path d="M159.691 -59.3466C149.63 -60.4089 140.168 -63.9745 130.08 -64.7336C113.631 -65.9714 39.4147 -67.7089 48.8491 -36.3808C59.2397 -1.87729 110.782 -6.04989 138.696 1.14929C144.046 2.52912 149.533 3.40161 154.816 5.03139C159.902 6.60024 164.931 8.28899 169.903 10.1801C179.703 13.9081 189.633 18.2863 198.666 23.6247C208.047 29.1687 217.569 35.5637 225.515 43.0653C232.439 49.6028 237.31 57.2944 241.992 65.4902C247.011 74.2735 252.036 83.8189 252.358 94.1631C252.541 100.065 250.621 105.589 246.27 109.731C241.854 113.934 236.108 117.957 230.402 120.17C222.399 123.275 213.291 123.796 204.862 124.75C200.451 125.25 195.972 125.774 191.589 126.468C186.276 127.31 180.798 127.831 175.578 129.137C168.798 130.835 158.519 134.291 156.114 141.816C155.194 144.695 155.75 148.326 156.966 151.023C159.94 157.623 165.764 160.522 171.952 163.555C179.202 167.108 186.42 170.72 193.657 174.298C201.181 178.018 209.439 180.239 217.564 182.247C227.973 184.821 239.127 186.24 249.16 190.16C253.477 191.847 256.292 196.291 256.836 200.785C257.389 205.34 255.55 211.11 253.107 214.849C243.426 229.665 227.533 237.752 211.848 244.818C199.912 250.195 186.92 251.084 173.958 251.272C164.641 251.408 155.521 250.11 146.237 249.827C138.099 249.578 129.961 247.465 121.803 248.695C114.014 249.87 107.639 252.474 101.47 257.411C98.1471 260.07 95.4001 263.154 93.2645 266.815C93.0982 267.1 93.0909 267.46 93.1641 267.766C93.664 269.858 93.3372 271.939 93.0525 274.04C92.2159 280.215 91.0655 287.949 96.2081 292.509" stroke="#1B311C" stroke-linecap="round"/>
<line x1="64.6934" y1="121.5" x2="193.693" y2="121.5" stroke="black"/>
<path d="M105.173 93.5C98.1571 107.645 95.2892 112.35 87.2845 125.972C86.0334 128.101 84.6912 130.175 83.3956 132.278C82.7282 133.361 82.0179 134.418 81.3956 135.528C81.1642 135.94 80.3686 136.796 80.84 136.833C82.0068 136.927 88.1763 128.314 88.3956 128.056C93.748 121.761 99.2633 115.612 105.173 109.833C105.527 109.488 111.079 103.234 112.562 103.778C113.708 104.198 111.506 111.81 111.479 111.944C111.088 113.856 109.335 118.844 111.951 120.333C116.4 122.867 124.912 120.127 129.34 119.167C136.504 117.613 143.772 115.008 151.062 114.111C159.53 113.069 169.353 118.5 178.173 118.5" stroke="#1B311C" stroke-linecap="round"/>
<rect x="193.963" y="112.793" width="45.3773" height="14.4591" transform="rotate(-45 193.963 112.793)" fill="#7DFFB9" stroke="black"/>
<rect x="141.4" y="160.715" width="45.3773" height="14.4591" transform="rotate(-45 141.4 160.715)" fill="#7DFFB9" stroke="black"/>
<path d="M193.234 106.544L200.242 101.355L199.952 110.07L199.932 110.674L200.529 110.581L209.145 109.243L204.838 116.825L204.54 117.349L205.111 117.545L213.363 120.364L206.026 125.076L205.518 125.402L205.933 125.841L211.929 132.172L203.243 132.934L202.641 132.987L202.805 133.568L205.172 141.96L197.127 138.599L196.57 138.366L196.445 138.957L194.641 147.488L189.078 140.772L188.693 140.308L188.308 140.772L182.746 147.488L180.942 138.957L180.817 138.366L180.26 138.599L172.214 141.96L174.581 133.568L174.745 132.987L174.144 132.934L165.458 132.172L171.454 125.841L171.869 125.402L171.361 125.076L164.024 120.364L172.275 117.545L172.847 117.349L172.548 116.825L168.242 109.243L176.858 110.581L177.455 110.674L177.435 110.07L177.145 101.355L184.152 106.544L184.637 106.904L184.9 106.36L188.693 98.5087L192.487 106.36L192.749 106.904L193.234 106.544Z" fill="#7DFFB9" stroke="black"/>
</g>
<line x1="19.0469" y1="19.6464" x2="43.0885" y2="43.6881" stroke="black"/>
<line x1="44.0079" y1="155.397" x2="19.0079" y2="180.397" stroke="black"/>
<line y1="-0.5" x2="33.9411" y2="-0.5" transform="matrix(-0.707107 0.707107 0.707107 0.707107 243.693 20)" stroke="black"/>
<line x1="220.047" y1="155.646" x2="244.047" y2="179.646" stroke="black"/>
<rect x="110.126" y="56.4324" width="39.1351" height="10.0018" rx="4.56756" fill="white" stroke="#1B311C" stroke-width="1.13511"/>
<rect x="99.1258" y="73.2991" width="61.1351" height="10.1351" rx="4.56756" fill="white" stroke="#1B311C" stroke-width="1.13511"/>
<defs>
<filter id="filter0_d_4078_23288" x="1.69336" y="18" width="244" height="163" filterUnits="userSpaceOnUse" color-interpolation-filters="sRGB">
<feFlood flood-opacity="0" result="BackgroundImageFix"/>
<feColorMatrix in="SourceAlpha" type="matrix" values="0 0 0 0 0 0 0 0 0 0 0 0 0 0 0 0 0 0 127 0" result="hardAlpha"/>
<feOffset dx="-15"/>
<feComposite in2="hardAlpha" operator="out"/>
<feColorMatrix type="matrix" values="0 0 0 0 0.105882 0 0 0 0 0.192157 0 0 0 0 0.109804 0 0 0 1 0"/>
<feBlend mode="normal" in2="BackgroundImageFix" result="effect1_dropShadow_4078_23288"/>
<feBlend mode="normal" in="SourceGraphic" in2="effect1_dropShadow_4078_23288" result="shape"/>
</filter>
<filter id="filter1_i_4078_23288" x="42.5586" y="42.8649" width="178.27" height="113.27" filterUnits="userSpaceOnUse" color-interpolation-filters="sRGB">
<feFlood flood-opacity="0" result="BackgroundImageFix"/>
<feBlend mode="normal" in="SourceGraphic" in2="BackgroundImageFix" result="shape"/>
<feColorMatrix in="SourceAlpha" type="matrix" values="0 0 0 0 0 0 0 0 0 0 0 0 0 0 0 0 0 0 127 0" result="hardAlpha"/>
<feOffset dx="-5.93696"/>
<feComposite in2="hardAlpha" operator="arithmetic" k2="-1" k3="1"/>
<feColorMatrix type="matrix" values="0 0 0 0 0.105882 0 0 0 0 0.192157 0 0 0 0 0.109804 0 0 0 1 0"/>
<feBlend mode="normal" in2="shape" result="effect1_innerShadow_4078_23288"/>
</filter>
<clipPath id="clip0_4078_23288">
<rect width="172" height="112" fill="white" transform="translate(42.6934 43)"/>
</clipPath>
</defs>
</svg>
