<svg width="32" height="32" viewBox="0 0 32 32" fill="none" xmlns="http://www.w3.org/2000/svg">
	<path d="M7.27273 11.7273C7.27273 6.90734 11.1801 3 16 3V3C20.8199 3 24.7273 6.90734 24.7273 11.7273V16.4884C24.7273 17.7058 25.2414 18.8665 26.1429 19.6847L27.005 20.4671C28.7686 22.0675 27.6364 25 25.2548 25H16H6.74517C4.3636 25 3.23136 22.0675 4.99498 20.4671L5.85711 19.6847C6.75862 18.8666 7.27273 17.7058 7.27273 16.4884V11.7273Z" stroke="#0E150E" stroke-width="2" stroke-linecap="round" stroke-linejoin="round"/>
	<path d="M12 26C12.6586 27.8111 14.3784 29 16 29C17.6216 29 19.3414 27.8111 20 26" stroke="#0E150E" stroke-width="2" stroke-linecap="round" stroke-linejoin="round"/>
</svg>
