<svg width="24" height="24" viewBox="0 0 24 24" fill="none" xmlns="http://www.w3.org/2000/svg">
<path fill-rule="evenodd" clip-rule="evenodd" d="M20.6663 9.9043H2.84229C2.42829 9.9043 2.09229 9.5683 2.09229 9.1543C2.09229 8.7403 2.42829 8.4043 2.84229 8.4043H20.6663C21.0803 8.4043 21.4163 8.7403 21.4163 9.1543C21.4163 9.5683 21.0803 9.9043 20.6663 9.9043Z" fill="#303831"/>
<path fill-rule="evenodd" clip-rule="evenodd" d="M16.2013 13.8105C15.7873 13.8105 15.4473 13.4745 15.4473 13.0605C15.4473 12.6465 15.7783 12.3105 16.1923 12.3105H16.2013C16.6153 12.3105 16.9513 12.6465 16.9513 13.0605C16.9513 13.4745 16.6153 13.8105 16.2013 13.8105Z" fill="#303831"/>
<path fill-rule="evenodd" clip-rule="evenodd" d="M11.7638 13.8105C11.3498 13.8105 11.0098 13.4745 11.0098 13.0605C11.0098 12.6465 11.3408 12.3105 11.7548 12.3105H11.7638C12.1778 12.3105 12.5138 12.6465 12.5138 13.0605C12.5138 13.4745 12.1778 13.8105 11.7638 13.8105Z" fill="#303831"/>
<path fill-rule="evenodd" clip-rule="evenodd" d="M7.31701 13.8105C6.90301 13.8105 6.56201 13.4745 6.56201 13.0605C6.56201 12.6465 6.89401 12.3105 7.30801 12.3105H7.31701C7.73101 12.3105 8.06701 12.6465 8.06701 13.0605C8.06701 13.4745 7.73101 13.8105 7.31701 13.8105Z" fill="#303831"/>
<path fill-rule="evenodd" clip-rule="evenodd" d="M16.2013 17.6973C15.7873 17.6973 15.4473 17.3613 15.4473 16.9473C15.4473 16.5333 15.7783 16.1973 16.1923 16.1973H16.2013C16.6153 16.1973 16.9513 16.5333 16.9513 16.9473C16.9513 17.3613 16.6153 17.6973 16.2013 17.6973Z" fill="#303831"/>
<path fill-rule="evenodd" clip-rule="evenodd" d="M11.7638 17.6973C11.3498 17.6973 11.0098 17.3613 11.0098 16.9473C11.0098 16.5333 11.3408 16.1973 11.7548 16.1973H11.7638C12.1778 16.1973 12.5138 16.5333 12.5138 16.9473C12.5138 17.3613 12.1778 17.6973 11.7638 17.6973Z" fill="#303831"/>
<path fill-rule="evenodd" clip-rule="evenodd" d="M7.31701 17.6973C6.90301 17.6973 6.56201 17.3613 6.56201 16.9473C6.56201 16.5333 6.89401 16.1973 7.30801 16.1973H7.31701C7.73101 16.1973 8.06701 16.5333 8.06701 16.9473C8.06701 17.3613 7.73101 17.6973 7.31701 17.6973Z" fill="#303831"/>
<path fill-rule="evenodd" clip-rule="evenodd" d="M15.7935 5.791C15.3795 5.791 15.0435 5.455 15.0435 5.041V1.75C15.0435 1.336 15.3795 1 15.7935 1C16.2075 1 16.5435 1.336 16.5435 1.75V5.041C16.5435 5.455 16.2075 5.791 15.7935 5.791Z" fill="#303831"/>
<path fill-rule="evenodd" clip-rule="evenodd" d="M7.71533 5.791C7.30133 5.791 6.96533 5.455 6.96533 5.041V1.75C6.96533 1.336 7.30133 1 7.71533 1C8.12933 1 8.46533 1.336 8.46533 1.75V5.041C8.46533 5.455 8.12933 5.791 7.71533 5.791Z" fill="#303831"/>
<mask id="mask0_1770_26512" style="mask-type:luminance" maskUnits="userSpaceOnUse" x="2" y="2" width="20" height="21">
<path fill-rule="evenodd" clip-rule="evenodd" d="M2 2.57812H21.5V22.499H2V2.57812Z" fill="white"/>
</mask>
<g mask="url(#mask0_1770_26512)">
<path fill-rule="evenodd" clip-rule="evenodd" d="M7.521 4.07812C4.928 4.07812 3.5 5.46113 3.5 7.97213V17.0211C3.5 19.5871 4.928 20.9991 7.521 20.9991H15.979C18.572 20.9991 20 19.6131 20 17.0971V7.97213C20.004 6.73712 19.672 5.77713 19.013 5.11713C18.335 4.43712 17.29 4.07812 15.988 4.07812H7.521ZM15.979 22.4991H7.521C4.116 22.4991 2 20.4001 2 17.0211V7.97213C2 4.64412 4.116 2.57812 7.521 2.57812H15.988C17.697 2.57812 19.11 3.09012 20.075 4.05712C21.012 4.99813 21.505 6.35112 21.5 7.97412V17.0971C21.5 20.4291 19.384 22.4991 15.979 22.4991Z" fill="#303831"/>
</g>
</svg>
