<svg width="37" height="36" viewBox="0 0 37 36" fill="none" xmlns="http://www.w3.org/2000/svg">
<g id="Iconly/Light/Camera">
<g id="Camera">
<path id="Stroke 1" fill-rule="evenodd" clip-rule="evenodd" d="M23.06 6.07676C24.575 6.67976 25.0385 8.77976 25.658 9.45476C26.2775 10.1298 27.164 10.3593 27.6545 10.3593C30.2615 10.3593 32.375 12.4728 32.375 15.0783V23.7708C32.375 27.2658 29.54 30.1008 26.045 30.1008H10.955C7.4585 30.1008 4.625 27.2658 4.625 23.7708V15.0783C4.625 12.4728 6.7385 10.3593 9.3455 10.3593C9.8345 10.3593 10.721 10.1298 11.342 9.45476C11.9615 8.77976 12.4235 6.67976 13.9385 6.07676C15.455 5.47376 21.545 5.47376 23.06 6.07676Z" stroke="#FFFFFF" stroke-width="2" stroke-linecap="round" stroke-linejoin="round"/>
<path id="Stroke 13" d="M26.7432 14.25H26.7567" stroke="#FFFFFF" stroke-width="2" stroke-linecap="round" stroke-linejoin="round"/>
<path id="Stroke 5" fill-rule="evenodd" clip-rule="evenodd" d="M23.2684 19.6918C23.2684 17.0578 21.1339 14.9233 18.4999 14.9233C15.8659 14.9233 13.7314 17.0578 13.7314 19.6918C13.7314 22.3258 15.8659 24.4603 18.4999 24.4603C21.1339 24.4603 23.2684 22.3258 23.2684 19.6918Z" stroke="#FFFFFF" stroke-width="2" stroke-linecap="round" stroke-linejoin="round"/>
</g>
</g>
</svg>
