<svg width="268" height="156" viewBox="0 0 268 156" fill="none" xmlns="http://www.w3.org/2000/svg">
<path d="M62.8631 140.703L78.4186 131.723L77.0728 130.946C72.5552 133.245 71.3297 133.576 67.2426 131.216L41.6418 116.437C37.4954 114.043 38.1272 113.37 42.1104 110.762L40.7744 109.991L25.2189 118.971L26.5648 119.748C31.0824 117.448 32.2485 117.084 36.3949 119.477L47.1518 125.687L29.2512 136.021L18.4844 129.806C14.338 127.412 14.9698 126.739 18.953 124.131L17.617 123.359L2.06152 132.34L3.40737 133.116C7.92497 130.817 9.0911 130.452 13.2375 132.846L38.8383 147.625C42.9253 149.985 42.3529 150.692 38.3697 153.3L39.7156 154.077L55.2711 145.097L53.9252 144.32C49.4077 146.62 48.1821 146.95 44.0951 144.591L31.6658 137.415L49.5664 127.081L61.9957 134.257C66.0827 136.616 65.5104 137.323 61.5271 139.931L62.873 140.708L62.8631 140.703Z" fill="#0E150E"/>
<path d="M65.444 110.269C58.0118 114.56 58.6449 120.65 65.958 124.872C73.2711 129.094 83.8798 129.494 91.312 125.203C98.7442 120.912 98.1693 114.789 90.7968 110.533C83.4244 106.276 72.8859 105.973 65.444 110.269ZM89.2141 123.992C83.8873 127.067 77.2671 125.553 71.0228 121.948C64.7785 118.343 62.2249 114.55 67.5419 111.481C72.859 108.411 79.4976 109.857 85.732 113.457C91.9665 117.056 94.5408 120.917 89.2141 123.992Z" fill="#0E150E"/>
<path d="M127.685 85.8322C122.529 87.7574 118.887 88.9229 116.195 87.3689C114.206 86.2206 114.444 84.3468 116.938 82.9071C123.37 79.1937 128.17 82.193 132.247 79.8393L133.028 79.388C129.505 77.3542 124.765 76.0231 115.711 81.2504C109.802 84.6615 109.634 88.4258 113.504 90.6596C118.61 93.6075 124.558 91.6708 130.198 89.6484C135.354 87.7231 139.926 86.0207 143.102 87.8545C146.279 89.6884 144.171 92.2649 141.321 93.9102C133.345 98.5149 129.555 92.3849 123.984 95.6013L122.519 96.4468C128.278 99.7717 135.681 99.5889 143.587 95.0243C149.07 91.8593 150.465 87.5232 145.616 84.7239C140.233 81.616 133.573 83.7812 127.665 85.8322L127.685 85.8322Z" fill="#0E150E"/>
<path d="M145.625 75.9096L163.102 65.8205C156.481 61.9986 148.466 62.3414 142.172 65.9748C134.591 70.3509 135.611 76.2181 142.924 80.4399C150.237 84.6618 160.519 85.2502 169.118 80.2857C174.225 77.3378 174.601 73.5787 172.018 69.9167L169.118 70.5394C171.325 73.6758 170.682 76.7779 167.179 78.8003C160.994 82.3709 154.324 81.0683 148.08 77.4635C147.219 76.9664 146.407 76.4409 145.606 75.9096L145.625 75.9096ZM143.745 74.5156C140.737 71.9676 140.193 69.5511 144.339 67.1573C147.624 65.2607 152.246 65.0721 156.175 67.3402L143.745 74.5156Z" fill="#0E150E"/>
<path d="M209.413 39.0849L226.9 28.9901C220.279 25.1682 212.263 25.511 205.97 29.1444C198.389 33.5205 199.409 39.3877 206.722 43.6095C214.035 47.8314 224.307 48.4255 232.916 43.4553C238.023 40.5074 238.399 36.7483 235.816 33.0863L232.916 33.709C235.123 36.8454 234.47 39.9532 230.977 41.9699C224.792 45.5405 218.122 44.2379 211.877 40.6331C211.017 40.136 210.205 39.6105 209.403 39.0792L209.413 39.0849ZM207.533 37.6909C204.525 35.1429 203.981 32.7264 208.127 30.3327C211.402 28.4417 216.024 28.2532 219.953 30.5212L207.533 37.6909Z" fill="#0E150E"/>
<path d="M243.27 36.5542L255.264 29.6301L253.918 28.8532C250.742 30.3785 249.455 30.4356 247.515 29.3159L213.206 9.50919C213.206 9.50919 212.325 10.0176 211.544 10.469C211.544 10.469 209.406 15.9619 209.02 16.7703L210.099 17.393L212.088 16.2447C213.275 15.5592 214.235 15.5649 215.522 16.3076L242.795 32.0524C244.735 33.1721 244.616 33.9148 241.934 35.783L243.28 36.5599L243.27 36.5542Z" fill="#0E150E"/>
<path d="M182.174 52.6969L205.676 58.2555L208.902 56.3931L199.897 45.7557C198.423 43.7161 195.592 40.4826 196.018 36.2265L195.672 36.0265L185.508 41.8937C187.725 44.2132 192.396 40.7854 194.543 43.6362L202.727 53.2624L184.974 49.1605C180.343 47.9837 179.215 47.3895 182.767 45.0301L181.421 44.2531L169.21 51.3029L170.556 52.0799C172.753 50.9944 174.643 50.9658 177.76 51.6457L186.528 62.4774L168.883 58.4383C164.311 57.2843 163.183 56.6331 166.726 54.2793L165.38 53.5024L153.495 60.3636L154.841 61.1406C157.632 59.838 159.304 60.2436 163.767 61.3919L189.694 67.4819L192.871 65.6481L182.164 52.7026L182.174 52.6969Z" fill="#0E150E"/>
<path d="M170.655 50.4688L163.342 54.6906L164.747 55.5018L172.06 51.28L170.655 50.4688Z" fill="#0E150E"/>
<path d="M254.502 30.0699L266.495 23.1459L265.15 22.3689C261.973 23.8943 260.686 23.9514 258.747 22.8317L224.438 3.02494C224.438 3.02494 223.557 3.5334 222.775 3.98472C222.775 3.98472 220.638 9.47764 220.252 10.2861L221.33 10.9088L223.319 9.76048C224.507 9.07493 225.467 9.08064 226.753 9.82332L254.027 25.5682C255.966 26.6879 255.847 27.4306 253.166 29.2987L254.511 30.0757L254.502 30.0699Z" fill="#0E150E"/>
<path d="M94.8659 94.2919L96.2018 95.0632L98.2515 94.2153C99.8633 93.5974 100.653 93.4862 101.939 94.2289L118.388 103.725C117.618 105.78 116.268 107.622 113.841 109.023C111.415 110.424 108.331 110.65 105.155 108.816L87.4312 98.584L85.8491 99.4973L79.2786 103.313L80.5848 104.067L82.7876 103.143C84.1497 102.57 84.7808 102.411 86.0772 103.159L100.525 111.5C106.552 114.979 112.166 113.166 115.282 111.368C118.126 109.726 120.051 107.061 120.822 105.13C123.443 106.003 124.787 105.697 127.13 104.345L129.007 103.261L128.215 102.804C127.157 103.415 126.292 102.92 123.155 101.109L103.106 89.5348L94.8756 94.2863L94.8659 94.2919Z" fill="#0E150E"/>
</svg>
