<svg width="32" height="33" viewBox="0 0 32 33" fill="none" xmlns="http://www.w3.org/2000/svg">
<path d="M30.532 8.91523H23.5841V3.22796C23.5841 2.87887 23.3029 2.59766 22.9538 2.59766H9.05318C8.70409 2.59766 8.42287 2.87887 8.42287 3.22796V8.91523H1.47015C1.12106 8.91523 0.839844 9.19644 0.839844 9.54554V29.7637C0.839844 30.1128 1.12106 30.394 1.47015 30.394H9.05318H30.5368C30.8859 30.394 31.1671 30.1128 31.1671 29.7637V9.54554C31.1623 9.20129 30.8811 8.91523 30.532 8.91523ZM8.41803 29.1334H2.10045V10.1807H8.41803V29.1334ZM18.5271 29.1334H13.4701V21.5552H18.5223V29.1334H18.5271ZM22.3186 9.55038V29.1383H19.7877V20.9249C19.7877 20.5758 19.5065 20.2946 19.1574 20.2946H12.8398C12.4908 20.2946 12.2095 20.5758 12.2095 20.9249V29.1383H9.68348V9.55038V3.86311H22.3186V9.55038ZM29.9017 29.1334H23.5841V10.1807H29.9017V29.1334Z" fill="#202626"/>
<path d="M11.5737 8.91948H14.0997C14.4488 8.91948 14.73 8.63827 14.73 8.28918V5.76312C14.73 5.41402 14.4488 5.13281 14.0997 5.13281H11.5737C11.2246 5.13281 10.9434 5.41402 10.9434 5.76312V8.28918C10.9434 8.63342 11.2246 8.91948 11.5737 8.91948ZM12.2088 6.38857H13.4743V7.65402H12.2088V6.38857Z" fill="#202626"/>
<path d="M17.896 8.91948H20.422C20.7711 8.91948 21.0524 8.63827 21.0524 8.28918V5.76312C21.0524 5.41402 20.7711 5.13281 20.422 5.13281H17.896C17.5469 5.13281 17.2657 5.41402 17.2657 5.76312V8.28918C17.2608 8.63342 17.5469 8.91948 17.896 8.91948ZM18.5263 6.38857H19.7917V7.65402H18.5263V6.38857Z" fill="#202626"/>
<path d="M11.5737 13.9703H14.0997C14.4488 13.9703 14.73 13.689 14.73 13.34V10.8139C14.73 10.4648 14.4488 10.1836 14.0997 10.1836H11.5737C11.2246 10.1836 10.9434 10.4648 10.9434 10.8139V13.34C10.9434 13.689 11.2246 13.9703 11.5737 13.9703ZM12.2088 11.4442H13.4743V12.7097H12.2088V11.4442Z" fill="#202626"/>
<path d="M17.896 13.9703H20.422C20.7711 13.9703 21.0524 13.689 21.0524 13.34V10.8139C21.0524 10.4648 20.7711 10.1836 20.422 10.1836H17.896C17.5469 10.1836 17.2657 10.4648 17.2657 10.8139V13.34C17.2608 13.689 17.5469 13.9703 17.896 13.9703ZM18.5263 11.4442H19.7917V12.7097H18.5263V11.4442Z" fill="#202626"/>
<path d="M11.5737 19.0298H14.0997C14.4488 19.0298 14.73 18.7486 14.73 18.3995V15.8686C14.73 15.5195 14.4488 15.2383 14.0997 15.2383H11.5737C11.2246 15.2383 10.9434 15.5195 10.9434 15.8686V18.3946C10.9434 18.7437 11.2246 19.0298 11.5737 19.0298ZM12.2088 16.4989H13.4743V17.7643H12.2088V16.4989Z" fill="#202626"/>
<path d="M17.896 19.0298H20.422C20.7711 19.0298 21.0524 18.7486 21.0524 18.3995V15.8686C21.0524 15.5195 20.7711 15.2383 20.422 15.2383H17.896C17.5469 15.2383 17.2657 15.5195 17.2657 15.8686V18.3946C17.2608 18.7437 17.5469 19.0298 17.896 19.0298ZM18.5263 16.4989H19.7917V17.7643H18.5263V16.4989Z" fill="#202626"/>
<path d="M25.4741 15.8687H28.0001C28.3492 15.8687 28.6304 15.5875 28.6304 15.2384V12.7123C28.6304 12.3632 28.3492 12.082 28.0001 12.082H25.4741C25.125 12.082 24.8438 12.3632 24.8438 12.7123V15.2384C24.8438 15.5875 25.125 15.8687 25.4741 15.8687ZM26.1092 13.3426H27.3747V14.6081H26.1092V13.3426Z" fill="#202626"/>
<path d="M28.006 17.7656H25.4799C25.1308 17.7656 24.8496 18.0468 24.8496 18.3959V20.922C24.8496 21.2711 25.1308 21.5523 25.4799 21.5523H28.006C28.3551 21.5523 28.6363 21.2711 28.6363 20.922V18.3959C28.6363 18.0468 28.3551 17.7656 28.006 17.7656ZM27.3757 20.2917H26.1102V19.0262H27.3757V20.2917Z" fill="#202626"/>
<path d="M3.99554 15.8687H6.5216C6.87069 15.8687 7.1519 15.5875 7.1519 15.2384V12.7123C7.1519 12.3632 6.87069 12.082 6.5216 12.082H3.99554C3.64645 12.082 3.36523 12.3632 3.36523 12.7123V15.2384C3.36523 15.5875 3.64645 15.8687 3.99554 15.8687ZM4.62584 13.3426H5.89129V14.6081H4.62584V13.3426Z" fill="#202626"/>
<path d="M6.5216 17.7656H3.99554C3.64645 17.7656 3.36523 18.0468 3.36523 18.3959V20.922C3.36523 21.2711 3.64645 21.5523 3.99554 21.5523H6.5216C6.87069 21.5523 7.1519 21.2711 7.1519 20.922V18.3959C7.15675 18.0468 6.87554 17.7656 6.5216 17.7656ZM5.89129 20.2917H4.63069V19.0262H5.89614V20.2917H5.89129Z" fill="#202626"/>
<path d="M28.006 23.457H25.4799C25.1308 23.457 24.8496 23.7382 24.8496 24.0873V26.6134C24.8496 26.9625 25.1308 27.2437 25.4799 27.2437H28.006C28.3551 27.2437 28.6363 26.9625 28.6363 26.6134V24.0873C28.6363 23.7382 28.3551 23.457 28.006 23.457ZM27.3757 25.9831H26.1102V24.7176H27.3757V25.9831Z" fill="#202626"/>
<path d="M6.5216 23.457H3.99554C3.64645 23.457 3.36523 23.7382 3.36523 24.0873V26.6134C3.36523 26.9625 3.64645 27.2437 3.99554 27.2437H6.5216C6.87069 27.2437 7.1519 26.9625 7.1519 26.6134V24.0873C7.15675 23.7382 6.87554 23.457 6.5216 23.457ZM5.89129 25.9831H4.63069V24.7176H5.89614V25.9831H5.89129Z" fill="#202626"/>
</svg>
