<svg width="18" height="20" viewBox="0 0 18 20" fill="none" xmlns="http://www.w3.org/2000/svg">
<path d="M13.375 0C13.2975 0 5.875 0 5.875 0C4.55249 0 3.37501 1.21313 3.37501 2.50001L2.65251 2.51689C1.33063 2.51689 0.25 3.71312 0.25 5V17.5C0.25 18.7869 1.42751 20 2.75001 20H12.125C13.4475 20 14.625 18.7869 14.625 17.5H15.25C16.5725 17.5 17.75 16.2869 17.75 15V5.01501L13.375 0ZM12.125 18.75H2.75001C2.09376 18.75 1.50002 18.1369 1.50002 17.5V5C1.50002 4.36314 2.0344 3.77062 2.69065 3.77062L3.37501 3.75001V15C3.37501 16.2869 4.55249 17.5 5.875 17.5H13.375C13.375 18.1369 12.7812 18.75 12.125 18.75ZM16.5 15C16.5 15.6369 15.9063 16.25 15.25 16.25H5.875C5.21875 16.25 4.625 15.6369 4.625 15V2.50001C4.625 1.86315 5.21875 1.25002 5.875 1.25002H12.125C12.115 2.6894 12.125 3.76565 12.125 3.76565C12.125 5.0644 13.2937 6.25002 14.625 6.25002C14.625 6.25002 15.2888 6.25002 16.5 6.25002V15ZM14.625 5C13.9594 5 13.375 3.79064 13.375 3.14188C13.375 3.14188 13.375 2.48437 13.375 1.26938V1.26812L16.5 5H14.625ZM13.375 8.76127H7.75001C7.40502 8.76127 7.12502 9.04064 7.12502 9.38564C7.12502 9.73064 7.40502 10.01 7.75001 10.01H13.375C13.72 10.01 14 9.73061 14 9.38564C14 9.04064 13.72 8.76127 13.375 8.76127ZM13.375 11.8831H7.75001C7.40502 11.8831 7.12502 12.1625 7.12502 12.5075C7.12502 12.8525 7.40502 13.1319 7.75001 13.1319H13.375C13.72 13.1319 14 12.8525 14 12.5075C14 12.1625 13.72 11.8831 13.375 11.8831Z" fill="#202626"/>
</svg>
