<svg width="232" height="89" viewBox="0 0 232 89" fill="none" xmlns="http://www.w3.org/2000/svg">
<path d="M63.0328 50.8469H51.6328V29.3908L61.5328 18.5117H91.5328L84.0328 26.6711H63.0328V32.1106H79.8328L73.2328 39.9678H63.0328V50.8469Z" fill="#4BAE4F"/>
<path d="M94.2336 18.5117L66.9336 50.8469H78.0336L93.9336 32.1106V50.8469H102.934L112.534 36.0392V50.8469H121.234V18.5117H114.034L101.734 39.0612V18.5117H94.2336Z" fill="#4BAE4F"/>
<path d="M123.332 50.8469V18.5117H132.932V41.4788H139.532C140.268 46.3788 141.672 48.3068 145.532 50.8469H123.332Z" fill="#4BAE4F"/>
<path d="M175.234 26.9732H164.434C163.573 25.0944 163.234 24.2535 158.434 23.9513C155.134 23.9513 153.558 25.289 153.634 26.9732C154.464 29.2309 156.19 29.4819 161.734 30.5996C172.193 32.3728 176.434 34.8304 175.534 42.3853C174.778 48.7315 168.634 51.4513 159.334 51.7535C151.77 51.7051 148.572 50.8424 145.234 48.7315C142.682 46.1795 141.801 44.4729 141.334 40.8743H152.434C153.967 43.7658 155.332 44.7957 159.334 44.8029C163.283 44.4125 164.298 43.9636 164.734 41.4787C164.734 36.6436 154.834 39.0612 146.134 34.226C143.434 32.1106 142.659 30.1882 142.834 26.9732C144.034 20.3249 147.895 17.8905 159.334 17.3029C169.548 17.542 174.634 20.3249 175.234 26.9732Z" fill="#4BAE4F"/>
<path d="M46.0726 59.3382V68.978H44.8633V59.3382H46.0726ZM49.2997 63.6748V64.7209H45.8426V63.6748H49.2997ZM49.8453 59.3382V60.3843H45.8426V59.3382H49.8453Z" fill="#202626"/>
<path d="M52.4348 61.8144V68.978H51.2781V61.8144H52.4348ZM51.2124 59.9142C51.2124 59.7156 51.2671 59.5479 51.3767 59.4111C51.4862 59.2742 51.6505 59.2058 51.8696 59.2058C52.0887 59.2058 52.253 59.2742 52.3625 59.4111C52.4765 59.5479 52.5334 59.7156 52.5334 59.9142C52.5334 60.104 52.4765 60.2674 52.3625 60.4042C52.253 60.5366 52.0887 60.6028 51.8696 60.6028C51.6505 60.6028 51.4862 60.5366 51.3767 60.4042C51.2671 60.2674 51.2124 60.104 51.2124 59.9142Z" fill="#202626"/>
<path d="M55.4385 62.9399V68.978H54.2752V61.8144H55.3991L55.4385 62.9399ZM57.2065 61.7747L57.2131 62.9134C57.1167 62.8914 57.029 62.8781 56.9502 62.8737C56.8757 62.8649 56.7881 62.8605 56.6873 62.8605C56.4682 62.8605 56.2754 62.9046 56.1089 62.9929C55.9468 63.0811 55.8066 63.2047 55.6883 63.3636C55.5699 63.5225 55.4757 63.7123 55.4056 63.933C55.3355 64.1493 55.2873 64.3876 55.261 64.648L54.9587 64.8467C54.9587 64.4141 54.9916 64.008 55.0573 63.6285C55.1274 63.2489 55.2347 62.9134 55.3793 62.6221C55.5239 62.3264 55.708 62.0969 55.9314 61.9336C56.1593 61.7658 56.4309 61.682 56.7464 61.682C56.8165 61.682 56.902 61.693 57.0028 61.7151C57.1079 61.7327 57.1758 61.7526 57.2065 61.7747Z" fill="#202626"/>
<path d="M61.827 67.144C61.827 66.9631 61.7832 66.8042 61.6956 66.6674C61.6079 66.5305 61.4633 66.3981 61.2618 66.2701C61.0646 66.1421 60.7973 66.0053 60.4599 65.8596C60.1313 65.7228 59.8355 65.5882 59.5726 65.4558C59.3141 65.3189 59.095 65.1711 58.9154 65.0122C58.7357 64.8533 58.5977 64.6701 58.5013 64.4627C58.4093 64.2508 58.3633 64.0014 58.3633 63.7145C58.3633 63.4276 58.4159 63.1628 58.521 62.92C58.6306 62.6729 58.7839 62.4566 58.9811 62.2712C59.1783 62.0858 59.4149 61.9424 59.6909 61.8409C59.967 61.7349 60.2759 61.682 60.6177 61.682C61.104 61.682 61.5181 61.7769 61.8599 61.9667C62.2016 62.1565 62.4623 62.4169 62.642 62.7479C62.826 63.0745 62.918 63.4431 62.918 63.8536H61.7613C61.7613 63.6549 61.7175 63.4674 61.6298 63.2908C61.5422 63.1142 61.4129 62.9708 61.242 62.8605C61.0712 62.7457 60.863 62.6883 60.6177 62.6883C60.3591 62.6883 60.1488 62.7347 59.9867 62.8274C59.8246 62.92 59.7063 63.0414 59.6318 63.1915C59.5617 63.3371 59.5266 63.4982 59.5266 63.6748C59.5266 63.8072 59.5441 63.922 59.5792 64.0191C59.6186 64.1118 59.6844 64.2 59.7764 64.2839C59.8684 64.3634 59.9933 64.4472 60.151 64.5355C60.3131 64.6194 60.5191 64.7165 60.7688 64.8268C61.2508 65.0166 61.6561 65.2086 61.9847 65.4028C62.3134 65.597 62.5631 65.8243 62.734 66.0847C62.9049 66.3451 62.9903 66.6674 62.9903 67.0514C62.9903 67.3647 62.9334 67.6494 62.8195 67.9054C62.7099 68.157 62.5522 68.3733 62.3462 68.5542C62.1403 68.7352 61.8927 68.8742 61.6035 68.9714C61.3187 69.064 60.9989 69.1104 60.6439 69.1104C60.1094 69.1104 59.6559 69.0045 59.2834 68.7926C58.9154 68.5763 58.6349 68.296 58.4421 67.9518C58.2537 67.6031 58.1595 67.2301 58.1595 66.8329H59.3229C59.336 67.1683 59.4105 67.4287 59.5463 67.6141C59.6865 67.7995 59.8552 67.9275 60.0524 67.9981C60.2496 68.0687 60.4468 68.104 60.6439 68.104C60.9025 68.104 61.1194 68.0665 61.2946 67.9915C61.4699 67.912 61.6013 67.7995 61.689 67.6538C61.781 67.5082 61.827 67.3382 61.827 67.144Z" fill="#202626"/>
<path d="M67.1113 61.8144V62.7545H63.7922V61.8144H67.1113ZM64.8767 60.0731H66.04V67.2036C66.04 67.4464 66.0685 67.6296 66.1254 67.7531C66.1868 67.8767 66.2635 67.9584 66.3555 67.9981C66.4475 68.0378 66.5461 68.0577 66.6512 68.0577C66.7301 68.0577 66.8178 68.0489 66.9141 68.0312C67.0105 68.0091 67.0763 67.9915 67.1113 67.9782L67.1048 68.978C67.0259 69.0089 66.9207 69.0376 66.7893 69.064C66.6578 69.0949 66.4913 69.1104 66.2898 69.1104C66.04 69.1104 65.8078 69.0508 65.5931 68.9316C65.3784 68.8125 65.2053 68.6138 65.0738 68.3358C64.9424 68.0533 64.8767 67.6737 64.8767 67.197V60.0731Z" fill="#202626"/>
<path d="M72.836 61.8144V68.978H71.6792V61.8144H72.836ZM71.6135 59.9142C71.6135 59.7156 71.6683 59.5479 71.7778 59.4111C71.8874 59.2742 72.0517 59.2058 72.2708 59.2058C72.4898 59.2058 72.6542 59.2742 72.7637 59.4111C72.8776 59.5479 72.9346 59.7156 72.9346 59.9142C72.9346 60.104 72.8776 60.2674 72.7637 60.4042C72.6542 60.5366 72.4898 60.6028 72.2708 60.6028C72.0517 60.6028 71.8874 60.5366 71.7778 60.4042C71.6683 60.2674 71.6135 60.104 71.6135 59.9142Z" fill="#202626"/>
<path d="M75.8397 63.3438V68.978H74.6763V61.8144H75.7739L75.8397 63.3438ZM75.557 65.1247L75.0838 65.1049C75.0794 64.6149 75.1342 64.1625 75.2481 63.7476C75.3664 63.3283 75.5329 62.9642 75.7476 62.6552C75.9667 62.3462 76.2274 62.1079 76.5298 61.9402C76.8321 61.768 77.1673 61.682 77.5354 61.682C77.8246 61.682 78.0875 61.7305 78.3241 61.8276C78.5607 61.9203 78.7622 62.0704 78.9287 62.2778C79.0953 62.4853 79.2223 62.7545 79.31 63.0856C79.402 63.4122 79.448 63.8116 79.448 64.2839V68.978H78.2846V64.2707C78.2846 63.8955 78.243 63.5954 78.1598 63.3702C78.0809 63.1407 77.9582 62.9752 77.7917 62.8737C77.6296 62.7678 77.4236 62.7148 77.1739 62.7148C76.946 62.7148 76.7335 62.7788 76.5363 62.9068C76.3392 63.0348 76.1661 63.2114 76.0171 63.4365C75.8725 63.6616 75.7586 63.9198 75.6753 64.2111C75.5965 64.498 75.557 64.8025 75.557 65.1247Z" fill="#202626"/>
<path d="M90.4373 64.178V67.773C90.3321 67.9142 90.1722 68.0908 89.9575 68.3027C89.7471 68.5145 89.4514 68.7021 89.0702 68.8654C88.689 69.0287 88.1894 69.1104 87.5716 69.1104C87.0765 69.1104 86.623 69.0265 86.2111 68.8588C85.8036 68.6911 85.4509 68.4395 85.1529 68.104C84.8594 67.7642 84.6315 67.3427 84.4694 66.8395C84.3073 66.3319 84.2262 65.7382 84.2262 65.0585V63.2511C84.2262 62.5758 84.2941 61.9843 84.43 61.4767C84.5658 60.9691 84.7673 60.5476 85.0346 60.2122C85.3063 59.8767 85.6415 59.6251 86.0402 59.4574C86.4433 59.2897 86.9122 59.2058 87.4468 59.2058C88.0646 59.2058 88.5904 59.3228 89.0242 59.5567C89.458 59.7907 89.7932 60.1283 90.0298 60.5697C90.2708 61.0111 90.4066 61.5407 90.4373 62.1587H89.2279C89.1972 61.7614 89.114 61.4216 88.9782 61.1391C88.8423 60.8522 88.6495 60.6337 88.3998 60.4836C88.15 60.3291 87.8323 60.2519 87.4468 60.2519C87.0787 60.2519 86.7676 60.3137 86.5135 60.4373C86.2593 60.5609 86.0512 60.7462 85.8891 60.9934C85.7313 61.2406 85.6152 61.5518 85.5407 61.9269C85.4706 62.3021 85.4356 62.7391 85.4356 63.2378V65.0585C85.4356 65.5705 85.4859 66.0163 85.5867 66.3959C85.6875 66.7755 85.8299 67.0889 86.0139 67.336C86.2024 67.5832 86.428 67.7686 86.6909 67.8922C86.9538 68.0114 87.2496 68.0709 87.5782 68.0709C87.9506 68.0709 88.2442 68.0312 88.4589 67.9518C88.6736 67.8723 88.8379 67.7818 88.9519 67.6803C89.0702 67.5788 89.1644 67.4971 89.2345 67.4354V65.2108H87.4796V64.178H90.4373Z" fill="#202626"/>
<path d="M94.7817 69.1104C94.3567 69.1104 93.9733 69.0464 93.6315 68.9184C93.2897 68.7904 92.9984 68.5962 92.7574 68.3358C92.5164 68.0709 92.3323 67.7377 92.2053 67.336C92.0782 66.9344 92.0147 66.4599 92.0147 65.9126V65.1049C92.0147 64.4737 92.087 63.9396 92.2316 63.5027C92.3805 63.0657 92.5799 62.7148 92.8297 62.45C93.0794 62.1807 93.362 61.9865 93.6775 61.8674C93.993 61.7438 94.3172 61.682 94.6503 61.682C95.0972 61.682 95.4784 61.7548 95.7939 61.9005C96.1094 62.0461 96.3657 62.2624 96.5629 62.5493C96.76 62.8362 96.9046 63.1893 96.9967 63.6086C97.0931 64.0279 97.1413 64.5112 97.1413 65.0585V65.7405H92.6982V64.7407H95.9779V64.5752C95.9604 64.2045 95.91 63.8778 95.8267 63.5954C95.7479 63.3129 95.6164 63.0922 95.4324 62.9333C95.2484 62.77 94.9876 62.6883 94.6503 62.6883C94.4356 62.6883 94.2362 62.7258 94.0522 62.8009C93.8725 62.8715 93.717 62.9973 93.5855 63.1782C93.4584 63.3548 93.3577 63.5998 93.2832 63.9131C93.2131 64.2265 93.178 64.6238 93.178 65.1049V65.9126C93.178 66.2966 93.2131 66.6276 93.2832 66.9057C93.3577 67.1794 93.465 67.4067 93.6052 67.5876C93.7498 67.7642 93.9251 67.8966 94.131 67.9849C94.3413 68.0687 94.5802 68.1107 94.8474 68.1107C95.2374 68.1107 95.5595 68.0356 95.8136 67.8856C96.0677 67.7311 96.289 67.5347 96.4774 67.2963L97.0887 68.0312C96.9616 68.2122 96.7951 68.3865 96.5892 68.5542C96.3876 68.7176 96.1378 68.8522 95.8399 68.9581C95.5463 69.0596 95.1936 69.1104 94.7817 69.1104Z" fill="#202626"/>
<path d="M98.3046 65.7405V65.0585C98.3046 64.5024 98.3747 64.0147 98.5149 63.5954C98.6551 63.1716 98.8501 62.8185 99.0999 62.536C99.3496 62.2536 99.641 62.0417 99.974 61.9005C100.307 61.7548 100.664 61.682 101.045 61.682C101.435 61.682 101.797 61.7548 102.13 61.9005C102.463 62.0417 102.754 62.2536 103.004 62.536C103.258 62.8185 103.455 63.1716 103.595 63.5954C103.736 64.0147 103.806 64.5024 103.806 65.0585V65.7405C103.806 66.2966 103.736 66.7865 103.595 67.2102C103.455 67.6296 103.26 67.9805 103.011 68.2629C102.761 68.5454 102.469 68.7573 102.136 68.8985C101.803 69.0398 101.444 69.1104 101.058 69.1104C100.673 69.1104 100.314 69.0398 99.9806 68.8985C99.6476 68.7573 99.354 68.5454 99.0999 68.2629C98.8501 67.9805 98.6551 67.6296 98.5149 67.2102C98.3747 66.7865 98.3046 66.2966 98.3046 65.7405ZM99.4679 65.0585V65.7405C99.4679 66.1333 99.5074 66.4776 99.5862 66.7733C99.6651 67.069 99.7768 67.3162 99.9214 67.5148C100.066 67.7134 100.235 67.8635 100.428 67.965C100.62 68.0621 100.831 68.1107 101.058 68.1107C101.321 68.1107 101.551 68.0621 101.749 67.965C101.95 67.8635 102.117 67.7134 102.248 67.5148C102.38 67.3162 102.478 67.069 102.544 66.7733C102.61 66.4776 102.642 66.1333 102.642 65.7405V65.0585C102.642 64.6657 102.603 64.3236 102.524 64.0323C102.445 63.7366 102.334 63.4894 102.189 63.2908C102.044 63.0878 101.873 62.9377 101.676 62.8406C101.484 62.7391 101.273 62.6883 101.045 62.6883C100.822 62.6883 100.614 62.7391 100.421 62.8406C100.228 62.9377 100.059 63.0878 99.9149 63.2908C99.7746 63.4894 99.6651 63.7366 99.5862 64.0323C99.5074 64.3236 99.4679 64.6657 99.4679 65.0585Z" fill="#202626"/>
<path d="M106.468 62.9399V68.978H105.304V61.8144H106.428L106.468 62.9399ZM108.236 61.7747L108.242 62.9134C108.146 62.8914 108.058 62.8781 107.979 62.8737C107.905 62.8649 107.817 62.8605 107.716 62.8605C107.497 62.8605 107.305 62.9046 107.138 62.9929C106.976 63.0811 106.836 63.2047 106.717 63.3636C106.599 63.5225 106.505 63.7123 106.435 63.933C106.365 64.1493 106.317 64.3876 106.29 64.648L105.988 64.8467C105.988 64.4141 106.021 64.008 106.086 63.6285C106.157 63.2489 106.264 62.9134 106.409 62.6221C106.553 62.3264 106.737 62.0969 106.961 61.9336C107.188 61.7658 107.46 61.682 107.776 61.682C107.846 61.682 107.931 61.693 108.032 61.7151C108.137 61.7327 108.205 61.7526 108.236 61.7747Z" fill="#202626"/>
<path d="M113.126 61.8144H114.171V69.0376C114.171 69.6687 114.061 70.1896 113.842 70.6C113.627 71.0105 113.327 71.3129 112.942 71.5071C112.556 71.7057 112.111 71.805 111.607 71.805C111.428 71.805 111.202 71.7719 110.93 71.7057C110.659 71.6395 110.387 71.538 110.115 71.4011C109.844 71.2687 109.62 71.101 109.445 70.898L109.925 70.0836C110.175 70.3396 110.44 70.5228 110.72 70.6331C111.001 70.7435 111.268 70.7987 111.522 70.7987C111.824 70.7987 112.087 70.7435 112.311 70.6331C112.534 70.5228 112.707 70.3418 112.83 70.0902C112.953 69.8431 113.014 69.512 113.014 69.0971V63.3901L113.126 61.8144ZM109.038 65.7405V65.0718C109.038 64.4803 109.092 63.9727 109.202 63.549C109.311 63.1209 109.469 62.77 109.675 62.4963C109.885 62.2182 110.137 62.013 110.431 61.8806C110.724 61.7482 111.053 61.682 111.417 61.682C111.785 61.682 112.103 61.757 112.37 61.9071C112.637 62.0571 112.858 62.2756 113.034 62.5625C113.213 62.845 113.354 63.1893 113.454 63.5954C113.559 63.997 113.632 64.4516 113.671 64.9592V65.853C113.632 66.3562 113.559 66.8086 113.454 67.2102C113.354 67.6119 113.211 67.954 113.027 68.2365C112.847 68.5189 112.624 68.7352 112.357 68.8853C112.089 69.0354 111.772 69.1104 111.404 69.1104C111.044 69.1104 110.72 69.042 110.431 68.9051C110.142 68.7639 109.892 68.5542 109.682 68.2762C109.476 67.9937 109.316 67.6428 109.202 67.2235C109.092 66.7998 109.038 66.3054 109.038 65.7405ZM110.201 65.0718V65.7405C110.201 66.1377 110.229 66.4842 110.286 66.7799C110.343 67.0712 110.431 67.314 110.549 67.5082C110.672 67.698 110.827 67.8392 111.016 67.9319C111.209 68.0246 111.439 68.0709 111.706 68.0709C112.03 68.0709 112.295 67.9915 112.501 67.8326C112.707 67.6737 112.872 67.464 112.994 67.2036C113.121 66.9388 113.222 66.6541 113.297 66.3496V64.4693C113.253 64.2442 113.189 64.0279 113.106 63.8205C113.027 63.6086 112.924 63.421 112.797 63.2577C112.67 63.09 112.517 62.9576 112.337 62.8605C112.162 62.7634 111.956 62.7148 111.719 62.7148C111.452 62.7148 111.222 62.7634 111.029 62.8605C110.836 62.9576 110.678 63.1032 110.556 63.2974C110.433 63.4916 110.343 63.7366 110.286 64.0323C110.229 64.328 110.201 64.6745 110.201 65.0718Z" fill="#202626"/>
<path d="M117.161 61.8144V68.978H116.004V61.8144H117.161ZM115.939 59.9142C115.939 59.7156 115.993 59.5479 116.103 59.4111C116.213 59.2742 116.377 59.2058 116.596 59.2058C116.815 59.2058 116.979 59.2742 117.089 59.4111C117.203 59.5479 117.26 59.7156 117.26 59.9142C117.26 60.104 117.203 60.2674 117.089 60.4042C116.979 60.5366 116.815 60.6028 116.596 60.6028C116.377 60.6028 116.213 60.5366 116.103 60.4042C115.993 60.2674 115.939 60.104 115.939 59.9142Z" fill="#202626"/>
<path d="M122.485 67.7531V63.8668C122.485 63.5843 122.441 63.357 122.354 63.1849C122.27 63.0127 122.143 62.8869 121.972 62.8075C121.806 62.728 121.595 62.6883 121.341 62.6883C121.096 62.6883 120.883 62.7391 120.704 62.8406C120.529 62.9421 120.393 63.0767 120.296 63.2445C120.204 63.4122 120.158 63.5976 120.158 63.8006H118.995C118.995 63.5446 119.05 63.2908 119.159 63.0392C119.273 62.7876 119.435 62.5603 119.646 62.3573C119.856 62.1498 120.108 61.9865 120.401 61.8674C120.699 61.7438 121.032 61.682 121.4 61.682C121.839 61.682 122.226 61.7548 122.564 61.9005C122.901 62.0417 123.166 62.2734 123.359 62.5956C123.552 62.9178 123.648 63.346 123.648 63.88V67.4155C123.648 67.6538 123.666 67.9076 123.701 68.1769C123.74 68.4461 123.795 68.6778 123.865 68.872V68.978H122.662C122.605 68.8367 122.562 68.6491 122.531 68.4152C122.5 68.1769 122.485 67.9562 122.485 67.7531ZM122.669 64.6348L122.682 65.4955H121.874C121.598 65.4955 121.346 65.5264 121.118 65.5882C120.894 65.65 120.702 65.7405 120.539 65.8596C120.377 65.9744 120.252 66.1178 120.165 66.29C120.082 66.4621 120.04 66.6585 120.04 66.8792C120.04 67.1661 120.079 67.3956 120.158 67.5678C120.237 67.7355 120.355 67.8569 120.513 67.9319C120.671 68.0069 120.87 68.0445 121.111 68.0445C121.405 68.0445 121.663 67.976 121.887 67.8392C122.11 67.7024 122.283 67.5369 122.406 67.3427C122.533 67.1485 122.592 66.9675 122.584 66.7998L122.84 67.3493C122.822 67.5214 122.765 67.709 122.669 67.912C122.577 68.1107 122.448 68.3027 122.281 68.488C122.115 68.669 121.918 68.8191 121.69 68.9382C121.466 69.053 121.214 69.1104 120.934 69.1104C120.522 69.1104 120.16 69.0309 119.849 68.872C119.543 68.7131 119.304 68.4792 119.133 68.1702C118.962 67.8613 118.877 67.4795 118.877 67.0249C118.877 66.6806 118.936 66.3628 119.054 66.0715C119.172 65.7802 119.348 65.5286 119.58 65.3167C119.812 65.1005 120.104 64.9327 120.454 64.8136C120.809 64.6944 121.219 64.6348 121.683 64.6348H122.669Z" fill="#202626"/>
<path d="M128.709 59.3382H131.384C132.006 59.3382 132.528 59.4486 132.948 59.6693C133.373 59.89 133.693 60.2166 133.908 60.6491C134.127 61.0773 134.237 61.6047 134.237 62.2315C134.237 62.6729 134.164 63.0767 134.02 63.4431C133.875 63.805 133.665 64.114 133.389 64.37C133.113 64.6216 132.778 64.8091 132.383 64.9327L132.055 65.0718H129.669L129.656 64.0323H131.371C131.739 64.0323 132.046 63.9529 132.291 63.794C132.537 63.6307 132.721 63.4122 132.843 63.1385C132.966 62.8649 133.027 62.5625 133.027 62.2315C133.027 61.8607 132.973 61.5363 132.863 61.2582C132.753 60.9802 132.578 60.7661 132.337 60.616C132.101 60.4616 131.783 60.3843 131.384 60.3843H129.919V68.978H128.709V59.3382ZM133.303 68.978L131.397 64.6083L132.653 64.6017L134.598 68.8985V68.978H133.303Z" fill="#202626"/>
<path d="M138.239 69.1104C137.814 69.1104 137.431 69.0464 137.089 68.9184C136.747 68.7904 136.456 68.5962 136.215 68.3358C135.974 68.0709 135.79 67.7377 135.663 67.336C135.536 66.9344 135.472 66.4599 135.472 65.9126V65.1049C135.472 64.4737 135.545 63.9396 135.689 63.5027C135.838 63.0657 136.038 62.7148 136.287 62.45C136.537 62.1807 136.82 61.9865 137.135 61.8674C137.451 61.7438 137.775 61.682 138.108 61.682C138.555 61.682 138.936 61.7548 139.251 61.9005C139.567 62.0461 139.823 62.2624 140.02 62.5493C140.218 62.8362 140.362 63.1893 140.454 63.6086C140.551 64.0279 140.599 64.5112 140.599 65.0585V65.7405H136.156V64.7407H139.436V64.5752C139.418 64.2045 139.368 63.8778 139.284 63.5954C139.205 63.3129 139.074 63.0922 138.89 62.9333C138.706 62.77 138.445 62.6883 138.108 62.6883C137.893 62.6883 137.694 62.7258 137.51 62.8009C137.33 62.8715 137.175 62.9973 137.043 63.1782C136.916 63.3548 136.815 63.5998 136.741 63.9131C136.671 64.2265 136.636 64.6238 136.636 65.1049V65.9126C136.636 66.2966 136.671 66.6276 136.741 66.9057C136.815 67.1794 136.923 67.4067 137.063 67.5876C137.207 67.7642 137.383 67.8966 137.589 67.9849C137.799 68.0687 138.038 68.1107 138.305 68.1107C138.695 68.1107 139.017 68.0356 139.271 67.8856C139.525 67.7311 139.747 67.5347 139.935 67.2963L140.546 68.0312C140.419 68.2122 140.253 68.3865 140.047 68.5542C139.845 68.7176 139.595 68.8522 139.298 68.9581C139.004 69.0596 138.651 69.1104 138.239 69.1104Z" fill="#202626"/>
<path d="M145.489 67.7531V63.8668C145.489 63.5843 145.445 63.357 145.357 63.1849C145.274 63.0127 145.147 62.8869 144.976 62.8075C144.81 62.728 144.599 62.6883 144.345 62.6883C144.1 62.6883 143.887 62.7391 143.708 62.8406C143.532 62.9421 143.397 63.0767 143.3 63.2445C143.208 63.4122 143.162 63.5976 143.162 63.8006H141.999C141.999 63.5446 142.054 63.2908 142.163 63.0392C142.277 62.7876 142.439 62.5603 142.65 62.3573C142.86 62.1498 143.112 61.9865 143.405 61.8674C143.703 61.7438 144.036 61.682 144.404 61.682C144.843 61.682 145.23 61.7548 145.568 61.9005C145.905 62.0417 146.17 62.2734 146.363 62.5956C146.556 62.9178 146.652 63.346 146.652 63.88V67.4155C146.652 67.6538 146.67 67.9076 146.705 68.1769C146.744 68.4461 146.799 68.6778 146.869 68.872V68.978H145.666C145.609 68.8367 145.566 68.6491 145.535 68.4152C145.504 68.1769 145.489 67.9562 145.489 67.7531ZM145.673 64.6348L145.686 65.4955H144.878C144.602 65.4955 144.35 65.5264 144.122 65.5882C143.898 65.65 143.705 65.7405 143.543 65.8596C143.381 65.9744 143.256 66.1178 143.169 66.29C143.085 66.4621 143.044 66.6585 143.044 66.8792C143.044 67.1661 143.083 67.3956 143.162 67.5678C143.241 67.7355 143.359 67.8569 143.517 67.9319C143.675 68.0069 143.874 68.0445 144.115 68.0445C144.409 68.0445 144.667 67.976 144.891 67.8392C145.114 67.7024 145.287 67.5369 145.41 67.3427C145.537 67.1485 145.596 66.9675 145.587 66.7998L145.844 67.3493C145.826 67.5214 145.769 67.709 145.673 67.912C145.581 68.1107 145.452 68.3027 145.285 68.488C145.119 68.669 144.921 68.8191 144.694 68.9382C144.47 69.053 144.218 69.1104 143.938 69.1104C143.526 69.1104 143.164 69.0309 142.853 68.872C142.547 68.7131 142.308 68.4792 142.137 68.1702C141.966 67.8613 141.881 67.4795 141.881 67.0249C141.881 66.6806 141.94 66.3628 142.058 66.0715C142.176 65.7802 142.352 65.5286 142.584 65.3167C142.816 65.1005 143.107 64.9327 143.458 64.8136C143.813 64.6944 144.223 64.6348 144.687 64.6348H145.673Z" fill="#202626"/>
<path d="M149.708 58.8086V68.978H148.552V58.8086H149.708Z" fill="#202626"/>
<path d="M159.942 67.9385V68.978H155.788V67.9385H159.942ZM156.005 59.3382V68.978H154.796V59.3382H156.005ZM159.383 63.4828V64.5222H155.788V63.4828H159.383ZM159.876 59.3382V60.3843H155.788V59.3382H159.876Z" fill="#202626"/>
<path d="M164.779 67.144C164.779 66.9631 164.735 66.8042 164.648 66.6674C164.56 66.5305 164.416 66.3981 164.214 66.2701C164.017 66.1421 163.75 66.0053 163.412 65.8596C163.084 65.7228 162.788 65.5882 162.525 65.4558C162.266 65.3189 162.047 65.1711 161.868 65.0122C161.688 64.8533 161.55 64.6701 161.454 64.4627C161.362 64.2508 161.316 64.0014 161.316 63.7145C161.316 63.4276 161.368 63.1628 161.473 62.92C161.583 62.6729 161.736 62.4566 161.933 62.2712C162.131 62.0858 162.367 61.9424 162.643 61.8409C162.919 61.7349 163.228 61.682 163.57 61.682C164.056 61.682 164.47 61.7769 164.812 61.9667C165.154 62.1565 165.415 62.4169 165.594 62.7479C165.778 63.0745 165.87 63.4431 165.87 63.8536H164.714C164.714 63.6549 164.67 63.4674 164.582 63.2908C164.494 63.1142 164.365 62.9708 164.194 62.8605C164.023 62.7457 163.815 62.6883 163.57 62.6883C163.311 62.6883 163.101 62.7347 162.939 62.8274C162.777 62.92 162.659 63.0414 162.584 63.1915C162.514 63.3371 162.479 63.4982 162.479 63.6748C162.479 63.8072 162.496 63.922 162.531 64.0191C162.571 64.1118 162.637 64.2 162.729 64.2839C162.821 64.3634 162.946 64.4472 163.103 64.5355C163.265 64.6194 163.471 64.7165 163.721 64.8268C164.203 65.0166 164.608 65.2086 164.937 65.4028C165.266 65.597 165.515 65.8243 165.686 66.0847C165.857 66.3451 165.943 66.6674 165.943 67.0514C165.943 67.3647 165.886 67.6494 165.772 67.9054C165.662 68.157 165.504 68.3733 165.298 68.5542C165.093 68.7352 164.845 68.8742 164.556 68.9714C164.271 69.064 163.951 69.1104 163.596 69.1104C163.062 69.1104 162.608 69.0045 162.236 68.7926C161.868 68.5763 161.587 68.296 161.394 67.9518C161.206 67.6031 161.112 67.2301 161.112 66.8329H162.275C162.288 67.1683 162.363 67.4287 162.499 67.6141C162.639 67.7995 162.807 67.9275 163.005 67.9981C163.202 68.0687 163.399 68.104 163.596 68.104C163.855 68.104 164.072 68.0665 164.247 67.9915C164.422 67.912 164.554 67.7995 164.641 67.6538C164.733 67.5082 164.779 67.3382 164.779 67.144Z" fill="#202626"/>
<path d="M170.064 61.8144V62.7545H166.744V61.8144H170.064ZM167.829 60.0731H168.992V67.2036C168.992 67.4464 169.021 67.6296 169.078 67.7531C169.139 67.8767 169.216 67.9584 169.308 67.9981C169.4 68.0378 169.498 68.0577 169.603 68.0577C169.682 68.0577 169.77 68.0489 169.866 68.0312C169.963 68.0091 170.029 67.9915 170.064 67.9782L170.057 68.978C169.978 69.0089 169.873 69.0376 169.742 69.064C169.61 69.0949 169.444 69.1104 169.242 69.1104C168.992 69.1104 168.76 69.0508 168.545 68.9316C168.331 68.8125 168.158 68.6138 168.026 68.3358C167.895 68.0533 167.829 67.6737 167.829 67.197V60.0731Z" fill="#202626"/>
<path d="M174.934 67.7531V63.8668C174.934 63.5843 174.89 63.357 174.802 63.1849C174.719 63.0127 174.592 62.8869 174.421 62.8075C174.255 62.728 174.044 62.6883 173.79 62.6883C173.545 62.6883 173.332 62.7391 173.153 62.8406C172.977 62.9421 172.842 63.0767 172.745 63.2445C172.653 63.4122 172.607 63.5976 172.607 63.8006H171.444C171.444 63.5446 171.499 63.2908 171.608 63.0392C171.722 62.7876 171.884 62.5603 172.094 62.3573C172.305 62.1498 172.557 61.9865 172.85 61.8674C173.148 61.7438 173.481 61.682 173.849 61.682C174.288 61.682 174.675 61.7548 175.013 61.9005C175.35 62.0417 175.615 62.2734 175.808 62.5956C176.001 62.9178 176.097 63.346 176.097 63.88V67.4155C176.097 67.6538 176.115 67.9076 176.15 68.1769C176.189 68.4461 176.244 68.6778 176.314 68.872V68.978H175.111C175.054 68.8367 175.01 68.6491 174.98 68.4152C174.949 68.1769 174.934 67.9562 174.934 67.7531ZM175.118 64.6348L175.131 65.4955H174.323C174.047 65.4955 173.795 65.5264 173.567 65.5882C173.343 65.65 173.15 65.7405 172.988 65.8596C172.826 65.9744 172.701 66.1178 172.614 66.29C172.53 66.4621 172.489 66.6585 172.489 66.8792C172.489 67.1661 172.528 67.3956 172.607 67.5678C172.686 67.7355 172.804 67.8569 172.962 67.9319C173.12 68.0069 173.319 68.0445 173.56 68.0445C173.854 68.0445 174.112 67.976 174.336 67.8392C174.559 67.7024 174.732 67.5369 174.855 67.3427C174.982 67.1485 175.041 66.9675 175.032 66.7998L175.289 67.3493C175.271 67.5214 175.214 67.709 175.118 67.912C175.026 68.1107 174.897 68.3027 174.73 68.488C174.564 68.669 174.366 68.8191 174.139 68.9382C173.915 69.053 173.663 69.1104 173.383 69.1104C172.971 69.1104 172.609 69.0309 172.298 68.872C171.992 68.7131 171.753 68.4792 171.582 68.1702C171.411 67.8613 171.325 67.4795 171.325 67.0249C171.325 66.6806 171.385 66.3628 171.503 66.0715C171.621 65.7802 171.797 65.5286 172.029 65.3167C172.261 65.1005 172.552 64.9327 172.903 64.8136C173.258 64.6944 173.667 64.6348 174.132 64.6348H175.118Z" fill="#202626"/>
<path d="M180.501 61.8144V62.7545H177.182V61.8144H180.501ZM178.266 60.0731H179.429V67.2036C179.429 67.4464 179.458 67.6296 179.515 67.7531C179.576 67.8767 179.653 67.9584 179.745 67.9981C179.837 68.0378 179.936 68.0577 180.041 68.0577C180.12 68.0577 180.207 68.0489 180.304 68.0312C180.4 68.0091 180.466 67.9915 180.501 67.9782L180.494 68.978C180.415 69.0089 180.31 69.0376 180.179 69.064C180.047 69.0949 179.881 69.1104 179.679 69.1104C179.429 69.1104 179.197 69.0508 178.982 68.9316C178.768 68.8125 178.595 68.6138 178.463 68.3358C178.332 68.0533 178.266 67.6737 178.266 67.197V60.0731Z" fill="#202626"/>
<path d="M184.431 69.1104C184.006 69.1104 183.623 69.0464 183.281 68.9184C182.939 68.7904 182.648 68.5962 182.407 68.3358C182.166 68.0709 181.982 67.7377 181.855 67.336C181.728 66.9344 181.664 66.4599 181.664 65.9126V65.1049C181.664 64.4737 181.736 63.9396 181.881 63.5027C182.03 63.0657 182.229 62.7148 182.479 62.45C182.729 62.1807 183.011 61.9865 183.327 61.8674C183.642 61.7438 183.967 61.682 184.3 61.682C184.747 61.682 185.128 61.7548 185.443 61.9005C185.759 62.0461 186.015 62.2624 186.212 62.5493C186.409 62.8362 186.554 63.1893 186.646 63.6086C186.742 64.0279 186.791 64.5112 186.791 65.0585V65.7405H182.348V64.7407H185.627V64.5752C185.61 64.2045 185.559 63.8778 185.476 63.5954C185.397 63.3129 185.266 63.0922 185.082 62.9333C184.898 62.77 184.637 62.6883 184.3 62.6883C184.085 62.6883 183.886 62.7258 183.702 62.8009C183.522 62.8715 183.366 62.9973 183.235 63.1782C183.108 63.3548 183.007 63.5998 182.933 63.9131C182.862 64.2265 182.827 64.6238 182.827 65.1049V65.9126C182.827 66.2966 182.862 66.6276 182.933 66.9057C183.007 67.1794 183.114 67.4067 183.255 67.5876C183.399 67.7642 183.575 67.8966 183.78 67.9849C183.991 68.0687 184.23 68.1107 184.497 68.1107C184.887 68.1107 185.209 68.0356 185.463 67.8856C185.717 67.7311 185.938 67.5347 186.127 67.2963L186.738 68.0312C186.611 68.2122 186.445 68.3865 186.239 68.5542C186.037 68.7176 185.787 68.8522 185.489 68.9581C185.196 69.0596 184.843 69.1104 184.431 69.1104Z" fill="#202626"/>
<path d="M181.832 28V22H183.718C184.154 22 184.511 22.0801 184.791 22.2402C185.071 22.3984 185.278 22.6162 185.412 22.8936C185.547 23.1709 185.614 23.4863 185.614 23.8398C185.614 24.1934 185.547 24.5068 185.412 24.7803C185.278 25.0537 185.072 25.2686 184.794 25.4248C184.516 25.5791 184.161 25.6563 183.728 25.6563H182.203V25H183.707C184.005 25 184.244 24.9531 184.426 24.8594C184.61 24.7656 184.742 24.6328 184.824 24.4609C184.907 24.2871 184.949 24.0801 184.949 23.8398C184.949 23.5996 184.907 23.3896 184.824 23.21C184.74 23.0303 184.607 22.8916 184.423 22.7939C184.24 22.6943 183.997 22.6445 183.696 22.6445H182.508V28H181.832ZM184.459 25.3047L185.832 28H185.047L183.696 25.3047H184.459Z" fill="#4BAE4F"/>
<path fill-rule="evenodd" clip-rule="evenodd" d="M183.632 28.6703C185.724 28.6703 187.432 26.9602 187.432 24.8352C187.432 22.7102 185.724 21 183.632 21C181.54 21 179.832 22.7102 179.832 24.8352C179.832 26.9602 181.54 28.6703 183.632 28.6703ZM183.632 29.6703C186.283 29.6703 188.432 27.5056 188.432 24.8352C188.432 22.1648 186.283 20 183.632 20C180.981 20 178.832 22.1648 178.832 24.8352C178.832 27.5056 180.981 29.6703 183.632 29.6703Z" fill="#4BAE4F"/>
</svg>
