<svg width="234" height="70" viewBox="0 0 234 70" fill="none" xmlns="http://www.w3.org/2000/svg">
<path d="M64.0328 40.8469H52.6328V19.3908L62.5328 8.51172H92.5328L85.0328 16.6711H64.0328V22.1106H80.8328L74.2328 29.9678H64.0328V40.8469Z" fill="#4BAE4F"/>
<path d="M95.2336 8.51172L67.9336 40.8469H79.0336L94.9336 22.1106V40.8469H103.934L113.534 26.0392V40.8469H122.234V8.51172H115.034L102.734 29.0612V8.51172H95.2336Z" fill="#4BAE4F"/>
<path d="M124.332 40.8469V8.51172H133.932V31.4788H140.532C141.268 36.3788 142.672 38.3068 146.532 40.8469H124.332Z" fill="#4BAE4F"/>
<path d="M176.234 16.9732H165.434C164.573 15.0944 164.234 14.2534 159.434 13.9512C156.134 13.9512 154.558 15.289 154.634 16.9732C155.464 19.2308 157.19 19.4818 162.734 20.5996C173.193 22.3728 177.434 24.8304 176.534 32.3853C175.778 38.7315 169.634 41.4512 160.334 41.7534C152.77 41.7051 149.572 40.8424 146.234 38.7315C143.682 36.1795 142.801 34.4729 142.334 30.8743H153.434C154.967 33.7657 156.332 34.7957 160.334 34.8029C164.283 34.4124 165.298 33.9635 165.734 31.4787C165.734 26.6435 155.834 29.0611 147.134 24.226C144.434 22.1106 143.659 20.1882 143.834 16.9732C145.034 10.3249 148.895 7.89052 160.334 7.30289C170.548 7.54201 175.634 10.3249 176.234 16.9732Z" fill="#4BAE4F"/>
<path d="M181.023 20V10.1818H184.34C185.107 10.1818 185.737 10.3129 186.229 10.5749C186.721 10.8338 187.086 11.1902 187.322 11.644C187.559 12.0978 187.677 12.614 187.677 13.1925C187.677 13.771 187.559 14.2839 187.322 14.7314C187.086 15.1788 186.723 15.5304 186.234 15.786C185.745 16.0385 185.12 16.1648 184.36 16.1648H181.675V15.0909H184.321C184.845 15.0909 185.267 15.0142 185.587 14.8608C185.91 14.7074 186.143 14.4901 186.287 14.2088C186.434 13.9244 186.507 13.5856 186.507 13.1925C186.507 12.7994 186.434 12.4558 186.287 12.1618C186.14 11.8677 185.905 11.6408 185.582 11.481C185.259 11.318 184.833 11.2365 184.302 11.2365H182.212V20H181.023ZM185.644 15.5895L188.061 20H186.68L184.302 15.5895H185.644Z" fill="#4BAE4F"/>
<path d="M186.534 11.8352C186.534 14.2329 184.605 16.1703 182.234 16.1703C179.862 16.1703 177.934 14.2329 177.934 11.8352C177.934 9.43747 179.862 7.5 182.234 7.5C184.605 7.5 186.534 9.43747 186.534 11.8352Z" stroke="#4BAE4F"/>
<path d="M47.0726 49.3382V58.978H45.8633V49.3382H47.0726ZM50.2997 53.6748V54.7209H46.8426V53.6748H50.2997ZM50.8453 49.3382V50.3843H46.8426V49.3382H50.8453Z" fill="#202626"/>
<path d="M53.4348 51.8144V58.978H52.2781V51.8144H53.4348ZM52.2124 49.9142C52.2124 49.7156 52.2671 49.5479 52.3767 49.4111C52.4862 49.2742 52.6505 49.2058 52.8696 49.2058C53.0887 49.2058 53.253 49.2742 53.3625 49.4111C53.4765 49.5479 53.5334 49.7156 53.5334 49.9142C53.5334 50.104 53.4765 50.2674 53.3625 50.4042C53.253 50.5366 53.0887 50.6028 52.8696 50.6028C52.6505 50.6028 52.4862 50.5366 52.3767 50.4042C52.2671 50.2674 52.2124 50.104 52.2124 49.9142Z" fill="#202626"/>
<path d="M56.4385 52.9399V58.978H55.2752V51.8144H56.3991L56.4385 52.9399ZM58.2065 51.7747L58.2131 52.9134C58.1167 52.8914 58.029 52.8781 57.9502 52.8737C57.8757 52.8649 57.7881 52.8605 57.6873 52.8605C57.4682 52.8605 57.2754 52.9046 57.1089 52.9929C56.9468 53.0811 56.8066 53.2047 56.6883 53.3636C56.5699 53.5225 56.4757 53.7123 56.4056 53.933C56.3355 54.1493 56.2873 54.3876 56.261 54.648L55.9587 54.8467C55.9587 54.4141 55.9916 54.008 56.0573 53.6285C56.1274 53.2489 56.2347 52.9134 56.3793 52.6221C56.5239 52.3264 56.708 52.0969 56.9314 51.9336C57.1593 51.7658 57.4309 51.682 57.7464 51.682C57.8165 51.682 57.902 51.693 58.0028 51.7151C58.1079 51.7327 58.1758 51.7526 58.2065 51.7747Z" fill="#202626"/>
<path d="M62.827 57.144C62.827 56.9631 62.7832 56.8042 62.6956 56.6674C62.6079 56.5305 62.4633 56.3981 62.2618 56.2701C62.0646 56.1421 61.7973 56.0053 61.4599 55.8596C61.1313 55.7228 60.8355 55.5882 60.5726 55.4558C60.3141 55.3189 60.095 55.1711 59.9154 55.0122C59.7357 54.8533 59.5977 54.6701 59.5013 54.4627C59.4093 54.2508 59.3633 54.0014 59.3633 53.7145C59.3633 53.4276 59.4159 53.1628 59.521 52.92C59.6306 52.6729 59.7839 52.4566 59.9811 52.2712C60.1783 52.0858 60.4149 51.9424 60.6909 51.8409C60.967 51.7349 61.2759 51.682 61.6177 51.682C62.104 51.682 62.5181 51.7769 62.8599 51.9667C63.2016 52.1565 63.4623 52.4169 63.642 52.7479C63.826 53.0745 63.918 53.4431 63.918 53.8536H62.7613C62.7613 53.6549 62.7175 53.4674 62.6298 53.2908C62.5422 53.1142 62.4129 52.9708 62.242 52.8605C62.0712 52.7457 61.863 52.6883 61.6177 52.6883C61.3591 52.6883 61.1488 52.7347 60.9867 52.8274C60.8246 52.92 60.7063 53.0414 60.6318 53.1915C60.5617 53.3371 60.5266 53.4982 60.5266 53.6748C60.5266 53.8072 60.5441 53.922 60.5792 54.0191C60.6186 54.1118 60.6844 54.2 60.7764 54.2839C60.8684 54.3634 60.9933 54.4472 61.151 54.5355C61.3131 54.6194 61.5191 54.7165 61.7688 54.8268C62.2508 55.0166 62.6561 55.2086 62.9847 55.4028C63.3134 55.597 63.5631 55.8243 63.734 56.0847C63.9049 56.3451 63.9903 56.6674 63.9903 57.0514C63.9903 57.3647 63.9334 57.6494 63.8195 57.9054C63.7099 58.157 63.5522 58.3733 63.3462 58.5542C63.1403 58.7352 62.8927 58.8742 62.6035 58.9714C62.3187 59.064 61.9989 59.1104 61.6439 59.1104C61.1094 59.1104 60.6559 59.0045 60.2834 58.7926C59.9154 58.5763 59.6349 58.296 59.4421 57.9518C59.2537 57.6031 59.1595 57.2301 59.1595 56.8329H60.3229C60.336 57.1683 60.4105 57.4287 60.5463 57.6141C60.6865 57.7995 60.8552 57.9275 61.0524 57.9981C61.2496 58.0687 61.4468 58.104 61.6439 58.104C61.9025 58.104 62.1194 58.0665 62.2946 57.9915C62.4699 57.912 62.6013 57.7995 62.689 57.6538C62.781 57.5082 62.827 57.3382 62.827 57.144Z" fill="#202626"/>
<path d="M68.1113 51.8144V52.7545H64.7922V51.8144H68.1113ZM65.8767 50.0731H67.04V57.2036C67.04 57.4464 67.0685 57.6296 67.1254 57.7531C67.1868 57.8767 67.2635 57.9584 67.3555 57.9981C67.4475 58.0378 67.5461 58.0577 67.6512 58.0577C67.7301 58.0577 67.8178 58.0489 67.9141 58.0312C68.0105 58.0091 68.0763 57.9915 68.1113 57.9782L68.1048 58.978C68.0259 59.0089 67.9207 59.0376 67.7893 59.064C67.6578 59.0949 67.4913 59.1104 67.2898 59.1104C67.04 59.1104 66.8078 59.0508 66.5931 58.9316C66.3784 58.8125 66.2053 58.6138 66.0738 58.3358C65.9424 58.0533 65.8767 57.6737 65.8767 57.197V50.0731Z" fill="#202626"/>
<path d="M73.836 51.8144V58.978H72.6792V51.8144H73.836ZM72.6135 49.9142C72.6135 49.7156 72.6683 49.5479 72.7778 49.4111C72.8874 49.2742 73.0517 49.2058 73.2708 49.2058C73.4898 49.2058 73.6542 49.2742 73.7637 49.4111C73.8776 49.5479 73.9346 49.7156 73.9346 49.9142C73.9346 50.104 73.8776 50.2674 73.7637 50.4042C73.6542 50.5366 73.4898 50.6028 73.2708 50.6028C73.0517 50.6028 72.8874 50.5366 72.7778 50.4042C72.6683 50.2674 72.6135 50.104 72.6135 49.9142Z" fill="#202626"/>
<path d="M76.8397 53.3438V58.978H75.6763V51.8144H76.7739L76.8397 53.3438ZM76.557 55.1247L76.0838 55.1049C76.0794 54.6149 76.1342 54.1625 76.2481 53.7476C76.3664 53.3283 76.5329 52.9642 76.7476 52.6552C76.9667 52.3462 77.2274 52.1079 77.5298 51.9402C77.8321 51.768 78.1673 51.682 78.5354 51.682C78.8246 51.682 79.0875 51.7305 79.3241 51.8276C79.5607 51.9203 79.7622 52.0704 79.9287 52.2778C80.0953 52.4853 80.2223 52.7545 80.31 53.0856C80.402 53.4122 80.448 53.8116 80.448 54.2839V58.978H79.2846V54.2707C79.2846 53.8955 79.243 53.5954 79.1598 53.3702C79.0809 53.1407 78.9582 52.9752 78.7917 52.8737C78.6296 52.7678 78.4236 52.7148 78.1739 52.7148C77.946 52.7148 77.7335 52.7788 77.5363 52.9068C77.3392 53.0348 77.1661 53.2114 77.0171 53.4365C76.8725 53.6616 76.7586 53.9198 76.6753 54.2111C76.5965 54.498 76.557 54.8025 76.557 55.1247Z" fill="#202626"/>
<path d="M91.4373 54.178V57.773C91.3321 57.9142 91.1722 58.0908 90.9575 58.3027C90.7471 58.5145 90.4514 58.7021 90.0702 58.8654C89.689 59.0287 89.1894 59.1104 88.5716 59.1104C88.0765 59.1104 87.623 59.0265 87.2111 58.8588C86.8036 58.6911 86.4509 58.4395 86.1529 58.104C85.8594 57.7642 85.6315 57.3427 85.4694 56.8395C85.3073 56.3319 85.2262 55.7382 85.2262 55.0585V53.2511C85.2262 52.5758 85.2941 51.9843 85.43 51.4767C85.5658 50.9691 85.7673 50.5476 86.0346 50.2122C86.3063 49.8767 86.6415 49.6251 87.0402 49.4574C87.4433 49.2897 87.9122 49.2058 88.4468 49.2058C89.0646 49.2058 89.5904 49.3228 90.0242 49.5567C90.458 49.7907 90.7932 50.1283 91.0298 50.5697C91.2708 51.0111 91.4066 51.5407 91.4373 52.1587H90.2279C90.1972 51.7614 90.114 51.4216 89.9782 51.1391C89.8423 50.8522 89.6495 50.6337 89.3998 50.4836C89.15 50.3291 88.8323 50.2519 88.4468 50.2519C88.0787 50.2519 87.7676 50.3137 87.5135 50.4373C87.2593 50.5609 87.0512 50.7462 86.8891 50.9934C86.7313 51.2406 86.6152 51.5518 86.5407 51.9269C86.4706 52.3021 86.4356 52.7391 86.4356 53.2378V55.0585C86.4356 55.5705 86.4859 56.0163 86.5867 56.3959C86.6875 56.7755 86.8299 57.0889 87.0139 57.336C87.2024 57.5832 87.428 57.7686 87.6909 57.8922C87.9538 58.0114 88.2496 58.0709 88.5782 58.0709C88.9506 58.0709 89.2442 58.0312 89.4589 57.9518C89.6736 57.8723 89.8379 57.7818 89.9519 57.6803C90.0702 57.5788 90.1644 57.4971 90.2345 57.4354V55.2108H88.4796V54.178H91.4373Z" fill="#202626"/>
<path d="M95.7817 59.1104C95.3567 59.1104 94.9733 59.0464 94.6315 58.9184C94.2897 58.7904 93.9984 58.5962 93.7574 58.3358C93.5164 58.0709 93.3323 57.7377 93.2053 57.336C93.0782 56.9344 93.0147 56.4599 93.0147 55.9126V55.1049C93.0147 54.4737 93.087 53.9396 93.2316 53.5027C93.3805 53.0657 93.5799 52.7148 93.8297 52.45C94.0794 52.1807 94.362 51.9865 94.6775 51.8674C94.993 51.7438 95.3172 51.682 95.6503 51.682C96.0972 51.682 96.4784 51.7548 96.7939 51.9005C97.1094 52.0461 97.3657 52.2624 97.5629 52.5493C97.76 52.8362 97.9046 53.1893 97.9967 53.6086C98.0931 54.0279 98.1413 54.5112 98.1413 55.0585V55.7405H93.6982V54.7407H96.9779V54.5752C96.9604 54.2045 96.91 53.8778 96.8267 53.5954C96.7479 53.3129 96.6164 53.0922 96.4324 52.9333C96.2484 52.77 95.9876 52.6883 95.6503 52.6883C95.4356 52.6883 95.2362 52.7258 95.0522 52.8009C94.8725 52.8715 94.717 52.9973 94.5855 53.1782C94.4584 53.3548 94.3577 53.5998 94.2832 53.9131C94.2131 54.2265 94.178 54.6238 94.178 55.1049V55.9126C94.178 56.2966 94.2131 56.6276 94.2832 56.9057C94.3577 57.1794 94.465 57.4067 94.6052 57.5876C94.7498 57.7642 94.9251 57.8966 95.131 57.9849C95.3413 58.0687 95.5802 58.1107 95.8474 58.1107C96.2374 58.1107 96.5595 58.0356 96.8136 57.8856C97.0677 57.7311 97.289 57.5347 97.4774 57.2963L98.0887 58.0312C97.9616 58.2122 97.7951 58.3865 97.5892 58.5542C97.3876 58.7176 97.1378 58.8522 96.8399 58.9581C96.5463 59.0596 96.1936 59.1104 95.7817 59.1104Z" fill="#202626"/>
<path d="M99.3046 55.7405V55.0585C99.3046 54.5024 99.3747 54.0147 99.5149 53.5954C99.6551 53.1716 99.8501 52.8185 100.1 52.536C100.35 52.2536 100.641 52.0417 100.974 51.9005C101.307 51.7548 101.664 51.682 102.045 51.682C102.435 51.682 102.797 51.7548 103.13 51.9005C103.463 52.0417 103.754 52.2536 104.004 52.536C104.258 52.8185 104.455 53.1716 104.595 53.5954C104.736 54.0147 104.806 54.5024 104.806 55.0585V55.7405C104.806 56.2966 104.736 56.7865 104.595 57.2102C104.455 57.6296 104.26 57.9805 104.011 58.2629C103.761 58.5454 103.469 58.7573 103.136 58.8985C102.803 59.0398 102.444 59.1104 102.058 59.1104C101.673 59.1104 101.314 59.0398 100.981 58.8985C100.648 58.7573 100.354 58.5454 100.1 58.2629C99.8501 57.9805 99.6551 57.6296 99.5149 57.2102C99.3747 56.7865 99.3046 56.2966 99.3046 55.7405ZM100.468 55.0585V55.7405C100.468 56.1333 100.507 56.4776 100.586 56.7733C100.665 57.069 100.777 57.3162 100.921 57.5148C101.066 57.7134 101.235 57.8635 101.428 57.965C101.62 58.0621 101.831 58.1107 102.058 58.1107C102.321 58.1107 102.551 58.0621 102.749 57.965C102.95 57.8635 103.117 57.7134 103.248 57.5148C103.38 57.3162 103.478 57.069 103.544 56.7733C103.61 56.4776 103.642 56.1333 103.642 55.7405V55.0585C103.642 54.6657 103.603 54.3236 103.524 54.0323C103.445 53.7366 103.334 53.4894 103.189 53.2908C103.044 53.0878 102.873 52.9377 102.676 52.8406C102.484 52.7391 102.273 52.6883 102.045 52.6883C101.822 52.6883 101.614 52.7391 101.421 52.8406C101.228 52.9377 101.059 53.0878 100.915 53.2908C100.775 53.4894 100.665 53.7366 100.586 54.0323C100.507 54.3236 100.468 54.6657 100.468 55.0585Z" fill="#202626"/>
<path d="M107.468 52.9399V58.978H106.304V51.8144H107.428L107.468 52.9399ZM109.236 51.7747L109.242 52.9134C109.146 52.8914 109.058 52.8781 108.979 52.8737C108.905 52.8649 108.817 52.8605 108.716 52.8605C108.497 52.8605 108.305 52.9046 108.138 52.9929C107.976 53.0811 107.836 53.2047 107.717 53.3636C107.599 53.5225 107.505 53.7123 107.435 53.933C107.365 54.1493 107.317 54.3876 107.29 54.648L106.988 54.8467C106.988 54.4141 107.021 54.008 107.086 53.6285C107.157 53.2489 107.264 52.9134 107.409 52.6221C107.553 52.3264 107.737 52.0969 107.961 51.9336C108.188 51.7658 108.46 51.682 108.776 51.682C108.846 51.682 108.931 51.693 109.032 51.7151C109.137 51.7327 109.205 51.7526 109.236 51.7747Z" fill="#202626"/>
<path d="M114.126 51.8144H115.171V59.0376C115.171 59.6687 115.061 60.1896 114.842 60.6C114.627 61.0105 114.327 61.3129 113.942 61.5071C113.556 61.7057 113.111 61.805 112.607 61.805C112.428 61.805 112.202 61.7719 111.93 61.7057C111.659 61.6395 111.387 61.538 111.115 61.4011C110.844 61.2687 110.62 61.101 110.445 60.898L110.925 60.0836C111.175 60.3396 111.44 60.5228 111.72 60.6331C112.001 60.7435 112.268 60.7987 112.522 60.7987C112.824 60.7987 113.087 60.7435 113.311 60.6331C113.534 60.5228 113.707 60.3418 113.83 60.0902C113.953 59.8431 114.014 59.512 114.014 59.0971V53.3901L114.126 51.8144ZM110.038 55.7405V55.0718C110.038 54.4803 110.092 53.9727 110.202 53.549C110.311 53.1209 110.469 52.77 110.675 52.4963C110.885 52.2182 111.137 52.013 111.431 51.8806C111.724 51.7482 112.053 51.682 112.417 51.682C112.785 51.682 113.103 51.757 113.37 51.9071C113.637 52.0571 113.858 52.2756 114.034 52.5625C114.213 52.845 114.354 53.1893 114.454 53.5954C114.559 53.997 114.632 54.4516 114.671 54.9592V55.853C114.632 56.3562 114.559 56.8086 114.454 57.2102C114.354 57.6119 114.211 57.954 114.027 58.2365C113.847 58.5189 113.624 58.7352 113.357 58.8853C113.089 59.0354 112.772 59.1104 112.404 59.1104C112.044 59.1104 111.72 59.042 111.431 58.9051C111.142 58.7639 110.892 58.5542 110.682 58.2762C110.476 57.9937 110.316 57.6428 110.202 57.2235C110.092 56.7998 110.038 56.3054 110.038 55.7405ZM111.201 55.0718V55.7405C111.201 56.1377 111.229 56.4842 111.286 56.7799C111.343 57.0712 111.431 57.314 111.549 57.5082C111.672 57.698 111.827 57.8392 112.016 57.9319C112.209 58.0246 112.439 58.0709 112.706 58.0709C113.03 58.0709 113.295 57.9915 113.501 57.8326C113.707 57.6737 113.872 57.464 113.994 57.2036C114.121 56.9388 114.222 56.6541 114.297 56.3496V54.4693C114.253 54.2442 114.189 54.0279 114.106 53.8205C114.027 53.6086 113.924 53.421 113.797 53.2577C113.67 53.09 113.517 52.9576 113.337 52.8605C113.162 52.7634 112.956 52.7148 112.719 52.7148C112.452 52.7148 112.222 52.7634 112.029 52.8605C111.836 52.9576 111.678 53.1032 111.556 53.2974C111.433 53.4916 111.343 53.7366 111.286 54.0323C111.229 54.328 111.201 54.6745 111.201 55.0718Z" fill="#202626"/>
<path d="M118.161 51.8144V58.978H117.004V51.8144H118.161ZM116.939 49.9142C116.939 49.7156 116.993 49.5479 117.103 49.4111C117.213 49.2742 117.377 49.2058 117.596 49.2058C117.815 49.2058 117.979 49.2742 118.089 49.4111C118.203 49.5479 118.26 49.7156 118.26 49.9142C118.26 50.104 118.203 50.2674 118.089 50.4042C117.979 50.5366 117.815 50.6028 117.596 50.6028C117.377 50.6028 117.213 50.5366 117.103 50.4042C116.993 50.2674 116.939 50.104 116.939 49.9142Z" fill="#202626"/>
<path d="M123.485 57.7531V53.8668C123.485 53.5843 123.441 53.357 123.354 53.1849C123.27 53.0127 123.143 52.8869 122.972 52.8075C122.806 52.728 122.595 52.6883 122.341 52.6883C122.096 52.6883 121.883 52.7391 121.704 52.8406C121.529 52.9421 121.393 53.0767 121.296 53.2445C121.204 53.4122 121.158 53.5976 121.158 53.8006H119.995C119.995 53.5446 120.05 53.2908 120.159 53.0392C120.273 52.7876 120.435 52.5603 120.646 52.3573C120.856 52.1498 121.108 51.9865 121.401 51.8674C121.699 51.7438 122.032 51.682 122.4 51.682C122.839 51.682 123.226 51.7548 123.564 51.9005C123.901 52.0417 124.166 52.2734 124.359 52.5956C124.552 52.9178 124.648 53.346 124.648 53.88V57.4155C124.648 57.6538 124.666 57.9076 124.701 58.1769C124.74 58.4461 124.795 58.6778 124.865 58.872V58.978H123.662C123.605 58.8367 123.562 58.6491 123.531 58.4152C123.5 58.1769 123.485 57.9562 123.485 57.7531ZM123.669 54.6348L123.682 55.4955H122.874C122.598 55.4955 122.346 55.5264 122.118 55.5882C121.894 55.65 121.702 55.7405 121.539 55.8596C121.377 55.9744 121.252 56.1178 121.165 56.29C121.082 56.4621 121.04 56.6585 121.04 56.8792C121.04 57.1661 121.079 57.3956 121.158 57.5678C121.237 57.7355 121.355 57.8569 121.513 57.9319C121.671 58.0069 121.87 58.0445 122.111 58.0445C122.405 58.0445 122.663 57.976 122.887 57.8392C123.11 57.7024 123.283 57.5369 123.406 57.3427C123.533 57.1485 123.592 56.9675 123.584 56.7998L123.84 57.3493C123.822 57.5214 123.765 57.709 123.669 57.912C123.577 58.1107 123.448 58.3027 123.281 58.488C123.115 58.669 122.918 58.8191 122.69 58.9382C122.466 59.053 122.214 59.1104 121.934 59.1104C121.522 59.1104 121.16 59.0309 120.849 58.872C120.543 58.7131 120.304 58.4792 120.133 58.1702C119.962 57.8613 119.877 57.4795 119.877 57.0249C119.877 56.6806 119.936 56.3628 120.054 56.0715C120.172 55.7802 120.348 55.5286 120.58 55.3167C120.812 55.1005 121.104 54.9327 121.454 54.8136C121.809 54.6944 122.219 54.6348 122.683 54.6348H123.669Z" fill="#202626"/>
<path d="M129.709 49.3382H132.384C133.006 49.3382 133.528 49.4486 133.948 49.6693C134.373 49.89 134.693 50.2166 134.908 50.6491C135.127 51.0773 135.237 51.6047 135.237 52.2315C135.237 52.6729 135.164 53.0767 135.02 53.4431C134.875 53.805 134.665 54.114 134.389 54.37C134.113 54.6216 133.778 54.8091 133.383 54.9327L133.055 55.0718H130.669L130.656 54.0323H132.371C132.739 54.0323 133.046 53.9529 133.291 53.794C133.537 53.6307 133.721 53.4122 133.843 53.1385C133.966 52.8649 134.027 52.5625 134.027 52.2315C134.027 51.8607 133.973 51.5363 133.863 51.2582C133.753 50.9802 133.578 50.7661 133.337 50.616C133.101 50.4616 132.783 50.3843 132.384 50.3843H130.919V58.978H129.709V49.3382ZM134.303 58.978L132.397 54.6083L133.653 54.6017L135.598 58.8985V58.978H134.303Z" fill="#202626"/>
<path d="M139.239 59.1104C138.814 59.1104 138.431 59.0464 138.089 58.9184C137.747 58.7904 137.456 58.5962 137.215 58.3358C136.974 58.0709 136.79 57.7377 136.663 57.336C136.536 56.9344 136.472 56.4599 136.472 55.9126V55.1049C136.472 54.4737 136.545 53.9396 136.689 53.5027C136.838 53.0657 137.038 52.7148 137.287 52.45C137.537 52.1807 137.82 51.9865 138.135 51.8674C138.451 51.7438 138.775 51.682 139.108 51.682C139.555 51.682 139.936 51.7548 140.251 51.9005C140.567 52.0461 140.823 52.2624 141.02 52.5493C141.218 52.8362 141.362 53.1893 141.454 53.6086C141.551 54.0279 141.599 54.5112 141.599 55.0585V55.7405H137.156V54.7407H140.436V54.5752C140.418 54.2045 140.368 53.8778 140.284 53.5954C140.205 53.3129 140.074 53.0922 139.89 52.9333C139.706 52.77 139.445 52.6883 139.108 52.6883C138.893 52.6883 138.694 52.7258 138.51 52.8009C138.33 52.8715 138.175 52.9973 138.043 53.1782C137.916 53.3548 137.815 53.5998 137.741 53.9131C137.671 54.2265 137.636 54.6238 137.636 55.1049V55.9126C137.636 56.2966 137.671 56.6276 137.741 56.9057C137.815 57.1794 137.923 57.4067 138.063 57.5876C138.207 57.7642 138.383 57.8966 138.589 57.9849C138.799 58.0687 139.038 58.1107 139.305 58.1107C139.695 58.1107 140.017 58.0356 140.271 57.8856C140.525 57.7311 140.747 57.5347 140.935 57.2963L141.546 58.0312C141.419 58.2122 141.253 58.3865 141.047 58.5542C140.845 58.7176 140.595 58.8522 140.298 58.9581C140.004 59.0596 139.651 59.1104 139.239 59.1104Z" fill="#202626"/>
<path d="M146.489 57.7531V53.8668C146.489 53.5843 146.445 53.357 146.357 53.1849C146.274 53.0127 146.147 52.8869 145.976 52.8075C145.81 52.728 145.599 52.6883 145.345 52.6883C145.1 52.6883 144.887 52.7391 144.708 52.8406C144.532 52.9421 144.397 53.0767 144.3 53.2445C144.208 53.4122 144.162 53.5976 144.162 53.8006H142.999C142.999 53.5446 143.054 53.2908 143.163 53.0392C143.277 52.7876 143.439 52.5603 143.65 52.3573C143.86 52.1498 144.112 51.9865 144.405 51.8674C144.703 51.7438 145.036 51.682 145.404 51.682C145.843 51.682 146.23 51.7548 146.568 51.9005C146.905 52.0417 147.17 52.2734 147.363 52.5956C147.556 52.9178 147.652 53.346 147.652 53.88V57.4155C147.652 57.6538 147.67 57.9076 147.705 58.1769C147.744 58.4461 147.799 58.6778 147.869 58.872V58.978H146.666C146.609 58.8367 146.566 58.6491 146.535 58.4152C146.504 58.1769 146.489 57.9562 146.489 57.7531ZM146.673 54.6348L146.686 55.4955H145.878C145.602 55.4955 145.35 55.5264 145.122 55.5882C144.898 55.65 144.705 55.7405 144.543 55.8596C144.381 55.9744 144.256 56.1178 144.169 56.29C144.085 56.4621 144.044 56.6585 144.044 56.8792C144.044 57.1661 144.083 57.3956 144.162 57.5678C144.241 57.7355 144.359 57.8569 144.517 57.9319C144.675 58.0069 144.874 58.0445 145.115 58.0445C145.409 58.0445 145.667 57.976 145.891 57.8392C146.114 57.7024 146.287 57.5369 146.41 57.3427C146.537 57.1485 146.596 56.9675 146.587 56.7998L146.844 57.3493C146.826 57.5214 146.769 57.709 146.673 57.912C146.581 58.1107 146.452 58.3027 146.285 58.488C146.119 58.669 145.921 58.8191 145.694 58.9382C145.47 59.053 145.218 59.1104 144.938 59.1104C144.526 59.1104 144.164 59.0309 143.853 58.872C143.547 58.7131 143.308 58.4792 143.137 58.1702C142.966 57.8613 142.881 57.4795 142.881 57.0249C142.881 56.6806 142.94 56.3628 143.058 56.0715C143.176 55.7802 143.352 55.5286 143.584 55.3167C143.816 55.1005 144.107 54.9327 144.458 54.8136C144.813 54.6944 145.223 54.6348 145.687 54.6348H146.673Z" fill="#202626"/>
<path d="M150.708 48.8086V58.978H149.552V48.8086H150.708Z" fill="#202626"/>
<path d="M160.942 57.9385V58.978H156.788V57.9385H160.942ZM157.005 49.3382V58.978H155.796V49.3382H157.005ZM160.383 53.4828V54.5222H156.788V53.4828H160.383ZM160.876 49.3382V50.3843H156.788V49.3382H160.876Z" fill="#202626"/>
<path d="M165.779 57.144C165.779 56.9631 165.735 56.8042 165.648 56.6674C165.56 56.5305 165.416 56.3981 165.214 56.2701C165.017 56.1421 164.75 56.0053 164.412 55.8596C164.084 55.7228 163.788 55.5882 163.525 55.4558C163.266 55.3189 163.047 55.1711 162.868 55.0122C162.688 54.8533 162.55 54.6701 162.454 54.4627C162.362 54.2508 162.316 54.0014 162.316 53.7145C162.316 53.4276 162.368 53.1628 162.473 52.92C162.583 52.6729 162.736 52.4566 162.933 52.2712C163.131 52.0858 163.367 51.9424 163.643 51.8409C163.919 51.7349 164.228 51.682 164.57 51.682C165.056 51.682 165.47 51.7769 165.812 51.9667C166.154 52.1565 166.415 52.4169 166.594 52.7479C166.778 53.0745 166.87 53.4431 166.87 53.8536H165.714C165.714 53.6549 165.67 53.4674 165.582 53.2908C165.494 53.1142 165.365 52.9708 165.194 52.8605C165.023 52.7457 164.815 52.6883 164.57 52.6883C164.311 52.6883 164.101 52.7347 163.939 52.8274C163.777 52.92 163.659 53.0414 163.584 53.1915C163.514 53.3371 163.479 53.4982 163.479 53.6748C163.479 53.8072 163.496 53.922 163.531 54.0191C163.571 54.1118 163.637 54.2 163.729 54.2839C163.821 54.3634 163.946 54.4472 164.103 54.5355C164.265 54.6194 164.471 54.7165 164.721 54.8268C165.203 55.0166 165.608 55.2086 165.937 55.4028C166.266 55.597 166.515 55.8243 166.686 56.0847C166.857 56.3451 166.943 56.6674 166.943 57.0514C166.943 57.3647 166.886 57.6494 166.772 57.9054C166.662 58.157 166.504 58.3733 166.298 58.5542C166.093 58.7352 165.845 58.8742 165.556 58.9714C165.271 59.064 164.951 59.1104 164.596 59.1104C164.062 59.1104 163.608 59.0045 163.236 58.7926C162.868 58.5763 162.587 58.296 162.394 57.9518C162.206 57.6031 162.112 57.2301 162.112 56.8329H163.275C163.288 57.1683 163.363 57.4287 163.499 57.6141C163.639 57.7995 163.807 57.9275 164.005 57.9981C164.202 58.0687 164.399 58.104 164.596 58.104C164.855 58.104 165.072 58.0665 165.247 57.9915C165.422 57.912 165.554 57.7995 165.641 57.6538C165.733 57.5082 165.779 57.3382 165.779 57.144Z" fill="#202626"/>
<path d="M171.064 51.8144V52.7545H167.744V51.8144H171.064ZM168.829 50.0731H169.992V57.2036C169.992 57.4464 170.021 57.6296 170.078 57.7531C170.139 57.8767 170.216 57.9584 170.308 57.9981C170.4 58.0378 170.498 58.0577 170.603 58.0577C170.682 58.0577 170.77 58.0489 170.866 58.0312C170.963 58.0091 171.029 57.9915 171.064 57.9782L171.057 58.978C170.978 59.0089 170.873 59.0376 170.742 59.064C170.61 59.0949 170.444 59.1104 170.242 59.1104C169.992 59.1104 169.76 59.0508 169.545 58.9316C169.331 58.8125 169.158 58.6138 169.026 58.3358C168.895 58.0533 168.829 57.6737 168.829 57.197V50.0731Z" fill="#202626"/>
<path d="M175.934 57.7531V53.8668C175.934 53.5843 175.89 53.357 175.802 53.1849C175.719 53.0127 175.592 52.8869 175.421 52.8075C175.255 52.728 175.044 52.6883 174.79 52.6883C174.545 52.6883 174.332 52.7391 174.153 52.8406C173.977 52.9421 173.842 53.0767 173.745 53.2445C173.653 53.4122 173.607 53.5976 173.607 53.8006H172.444C172.444 53.5446 172.499 53.2908 172.608 53.0392C172.722 52.7876 172.884 52.5603 173.094 52.3573C173.305 52.1498 173.557 51.9865 173.85 51.8674C174.148 51.7438 174.481 51.682 174.849 51.682C175.288 51.682 175.675 51.7548 176.013 51.9005C176.35 52.0417 176.615 52.2734 176.808 52.5956C177.001 52.9178 177.097 53.346 177.097 53.88V57.4155C177.097 57.6538 177.115 57.9076 177.15 58.1769C177.189 58.4461 177.244 58.6778 177.314 58.872V58.978H176.111C176.054 58.8367 176.01 58.6491 175.98 58.4152C175.949 58.1769 175.934 57.9562 175.934 57.7531ZM176.118 54.6348L176.131 55.4955H175.323C175.047 55.4955 174.795 55.5264 174.567 55.5882C174.343 55.65 174.15 55.7405 173.988 55.8596C173.826 55.9744 173.701 56.1178 173.614 56.29C173.53 56.4621 173.489 56.6585 173.489 56.8792C173.489 57.1661 173.528 57.3956 173.607 57.5678C173.686 57.7355 173.804 57.8569 173.962 57.9319C174.12 58.0069 174.319 58.0445 174.56 58.0445C174.854 58.0445 175.112 57.976 175.336 57.8392C175.559 57.7024 175.732 57.5369 175.855 57.3427C175.982 57.1485 176.041 56.9675 176.032 56.7998L176.289 57.3493C176.271 57.5214 176.214 57.709 176.118 57.912C176.026 58.1107 175.897 58.3027 175.73 58.488C175.564 58.669 175.366 58.8191 175.139 58.9382C174.915 59.053 174.663 59.1104 174.383 59.1104C173.971 59.1104 173.609 59.0309 173.298 58.872C172.992 58.7131 172.753 58.4792 172.582 58.1702C172.411 57.8613 172.325 57.4795 172.325 57.0249C172.325 56.6806 172.385 56.3628 172.503 56.0715C172.621 55.7802 172.797 55.5286 173.029 55.3167C173.261 55.1005 173.552 54.9327 173.903 54.8136C174.258 54.6944 174.667 54.6348 175.132 54.6348H176.118Z" fill="#202626"/>
<path d="M181.501 51.8144V52.7545H178.182V51.8144H181.501ZM179.266 50.0731H180.429V57.2036C180.429 57.4464 180.458 57.6296 180.515 57.7531C180.576 57.8767 180.653 57.9584 180.745 57.9981C180.837 58.0378 180.936 58.0577 181.041 58.0577C181.12 58.0577 181.207 58.0489 181.304 58.0312C181.4 58.0091 181.466 57.9915 181.501 57.9782L181.494 58.978C181.415 59.0089 181.31 59.0376 181.179 59.064C181.047 59.0949 180.881 59.1104 180.679 59.1104C180.429 59.1104 180.197 59.0508 179.982 58.9316C179.768 58.8125 179.595 58.6138 179.463 58.3358C179.332 58.0533 179.266 57.6737 179.266 57.197V50.0731Z" fill="#202626"/>
<path d="M185.431 59.1104C185.006 59.1104 184.623 59.0464 184.281 58.9184C183.939 58.7904 183.648 58.5962 183.407 58.3358C183.166 58.0709 182.982 57.7377 182.855 57.336C182.728 56.9344 182.664 56.4599 182.664 55.9126V55.1049C182.664 54.4737 182.736 53.9396 182.881 53.5027C183.03 53.0657 183.229 52.7148 183.479 52.45C183.729 52.1807 184.011 51.9865 184.327 51.8674C184.642 51.7438 184.967 51.682 185.3 51.682C185.747 51.682 186.128 51.7548 186.443 51.9005C186.759 52.0461 187.015 52.2624 187.212 52.5493C187.409 52.8362 187.554 53.1893 187.646 53.6086C187.742 54.0279 187.791 54.5112 187.791 55.0585V55.7405H183.348V54.7407H186.627V54.5752C186.61 54.2045 186.559 53.8778 186.476 53.5954C186.397 53.3129 186.266 53.0922 186.082 52.9333C185.898 52.77 185.637 52.6883 185.3 52.6883C185.085 52.6883 184.886 52.7258 184.702 52.8009C184.522 52.8715 184.366 52.9973 184.235 53.1782C184.108 53.3548 184.007 53.5998 183.933 53.9131C183.862 54.2265 183.827 54.6238 183.827 55.1049V55.9126C183.827 56.2966 183.862 56.6276 183.933 56.9057C184.007 57.1794 184.114 57.4067 184.255 57.5876C184.399 57.7642 184.575 57.8966 184.78 57.9849C184.991 58.0687 185.23 58.1107 185.497 58.1107C185.887 58.1107 186.209 58.0356 186.463 57.8856C186.717 57.7311 186.938 57.5347 187.127 57.2963L187.738 58.0312C187.611 58.2122 187.445 58.3865 187.239 58.5542C187.037 58.7176 186.787 58.8522 186.489 58.9581C186.196 59.0596 185.843 59.1104 185.431 59.1104Z" fill="#202626"/>
</svg>
