<svg width="28" height="28" viewBox="0 0 28 28" fill="none" xmlns="http://www.w3.org/2000/svg">
<path d="M6.36364 10.2614C6.36364 6.04391 9.78255 2.625 14 2.625V2.625C18.2174 2.625 21.6364 6.04392 21.6364 10.2614V14.4273C21.6364 15.4925 22.0862 16.5082 22.875 17.2241L23.6294 17.9087C25.1726 19.3091 24.1818 21.875 22.098 21.875H14H5.90203C3.81815 21.875 2.82744 19.3091 4.37061 17.9087L5.12497 17.2241C5.91379 16.5082 6.36364 15.4925 6.36364 14.4273V10.2614Z" stroke="#B3B9B3" stroke-width="2" stroke-linecap="round" stroke-linejoin="round"/>
<path d="M10.5 22.75C11.0763 24.3347 12.5811 25.375 14 25.375C15.4189 25.375 16.9237 24.3347 17.5 22.75" stroke="#B3B9B3" stroke-width="2" stroke-linecap="round" stroke-linejoin="round"/>
</svg>
