<svg width="93" height="54" viewBox="0 0 93 54" fill="none" xmlns="http://www.w3.org/2000/svg">
<path d="M16.2744 32.295L2.4908 24.3378" stroke="#EE5605" stroke-width="5.48316"/>
<mask id="mask0_3231_5730" style="mask-type:alpha" maskUnits="userSpaceOnUse" x="14" y="8" width="72" height="42">
<path d="M23.0536 13.4047L52.5259 10.3566L80.855 26.711L46.1028 46.7735L17.7738 30.4191L23.0536 13.4047Z" fill="black" stroke="#E0650D" stroke-width="5.48316"/>
</mask>
<g mask="url(#mask0_3231_5730)">
<path d="M94.6957 17.3354C88.8304 18.0955 76.3517 20.7041 66.297 26.5088C53.7285 33.7645 56.9006 41.124 45.5291 47.6887C34.1577 54.2534 24.8211 54.3916 24.8211 54.3916" stroke="#EE5605" stroke-width="5.48316"/>
<path d="M78.7367 8.12231C72.8715 8.88243 60.3928 11.491 50.338 17.2957C37.7695 24.5514 40.9416 31.9109 29.5701 38.4756C18.1987 45.0404 8.86211 45.1786 8.86211 45.1786" stroke="#EE5605" stroke-width="5.48316"/>
<path d="M22.6124 51.7308C22.752 48.5866 25.545 40.8471 35.5998 35.0425C48.1682 27.7867 60.9162 29.6179 72.2877 23.0532C83.6592 16.4885 85.0955 10.4074 85.0955 10.4074" stroke="#EE5605" stroke-width="5.48316"/>
<path d="M22.6124 51.7308C22.752 48.5866 25.545 40.8471 35.5998 35.0425C48.1682 27.7867 60.9162 29.6179 72.2877 23.0532C83.6592 16.4885 85.0955 10.4074 85.0955 10.4074" stroke="#EE5605" stroke-width="5.48316"/>
</g>
<path d="M16.0364 32.1575L22.141 12.8779L55.5372 9.35365L87.3774 27.735L47.8765 50.5388L16.0364 32.1575Z" stroke="#EE5605" stroke-width="5.48316"/>
</svg>
