<svg width="23" height="24" viewBox="0 0 23 24" fill="none" xmlns="http://www.w3.org/2000/svg">
<g clip-path="url(#clip0_2654_8654)">
<path d="M19.7868 5.26499C19.3079 4.78593 18.7394 4.40591 18.1137 4.14663C17.4879 3.88736 16.8172 3.75391 16.1399 3.75391C15.4626 3.75391 14.7919 3.88736 14.1661 4.14663C13.5404 4.40591 12.9718 4.78593 12.493 5.26499L11.4993 6.25874L10.5055 5.26499C9.5383 4.29778 8.22648 3.75441 6.85863 3.75441C5.49079 3.75441 4.17897 4.29778 3.21176 5.26499C2.24455 6.2322 1.70117 7.54402 1.70117 8.91187C1.70117 10.2797 2.24455 11.5915 3.21176 12.5587L4.20551 13.5525L11.4993 20.8462L18.793 13.5525L19.7868 12.5587C20.2658 12.0799 20.6458 11.5114 20.9051 10.8856C21.1644 10.2599 21.2978 9.5892 21.2978 8.91187C21.2978 8.23454 21.1644 7.56384 20.9051 6.9381C20.6458 6.31235 20.2658 5.74383 19.7868 5.26499Z" fill="white" fill-opacity="0.25" stroke="white" stroke-width="2" stroke-linecap="round" stroke-linejoin="round"/>
</g>
<defs>
<clipPath id="clip0_2654_8654">
<rect width="22.5" height="22.5" fill="white" transform="translate(0.25 0.75)"/>
</clipPath>
</defs>
</svg>
