<svg width="40" height="40" viewBox="0 0 40 40" fill="none" xmlns="http://www.w3.org/2000/svg">
<circle cx="20" cy="20" r="18.5" fill="#1B311C" stroke="#1B311C" stroke-width="3"/>
<path d="M20.6665 25.3332C20.6665 25.7014 20.368 25.9998 19.9998 25.9998C19.6316 25.9998 19.3332 25.7014 19.3332 25.3332M20.6665 25.3332C20.6665 24.965 20.368 24.6665 19.9998 24.6665C19.6316 24.6665 19.3332 24.965 19.3332 25.3332M20.6665 25.3332H19.3332M17.3332 17.9998V17.3332C17.3332 15.8604 18.5271 14.6665 19.9998 14.6665C21.4726 14.6665 22.6665 15.8604 22.6665 17.3332V17.4949C22.6665 18.2451 22.3685 18.9645 21.8381 19.4949L19.9998 21.3332M33.3332 19.9998C33.3332 27.3636 27.3636 33.3332 19.9998 33.3332C18.4807 33.3332 17.1779 33.1168 15.9682 32.6841C14.8249 32.2751 14.2532 32.0706 14.0339 32.019C12.01 31.5431 11.1704 32.9302 9.42604 33.2208C8.56928 33.3635 7.80696 32.6621 7.87806 31.7964C7.94022 31.0395 8.46369 30.3237 8.67256 29.5968C9.1068 28.0858 8.51756 26.9401 7.89503 25.5962C7.1067 23.8945 6.6665 21.9985 6.6665 19.9998C6.6665 12.636 12.636 6.6665 19.9998 6.6665C27.3636 6.6665 33.3332 12.636 33.3332 19.9998Z" stroke="#0E150E" stroke-width="2" stroke-linecap="round" stroke-linejoin="round"/>
</svg>
