<svg width="42" height="37" viewBox="0 0 42 37" fill="none" xmlns="http://www.w3.org/2000/svg">
<path d="M30 1L12 19" stroke="white" stroke-width="1.5" stroke-linecap="round" stroke-linejoin="round"/>
<path d="M12 1L30 19" stroke="white" stroke-width="1.5" stroke-linecap="round" stroke-linejoin="round"/>
<path d="M5.136 33.144C5.744 33.144 6.288 33.036 6.768 32.82C7.256 32.604 7.664 32.328 7.992 31.992C8.328 31.648 8.568 31.292 8.712 30.924L7.812 30.528C7.588 31.048 7.244 31.464 6.78 31.776C6.324 32.088 5.776 32.244 5.136 32.244C4.48 32.244 3.896 32.092 3.384 31.788C2.872 31.476 2.472 31.04 2.184 30.48C1.896 29.92 1.752 29.272 1.752 28.536C1.752 27.792 1.896 27.144 2.184 26.592C2.472 26.032 2.872 25.596 3.384 25.284C3.896 24.972 4.48 24.816 5.136 24.816C5.776 24.816 6.324 24.976 6.78 25.296C7.244 25.608 7.588 26.024 7.812 26.544L8.712 26.148C8.568 25.772 8.328 25.416 7.992 25.08C7.664 24.736 7.256 24.456 6.768 24.24C6.288 24.024 5.744 23.916 5.136 23.916C4.504 23.916 3.924 24.032 3.396 24.264C2.868 24.488 2.408 24.808 2.016 25.224C1.632 25.64 1.332 26.128 1.116 26.688C0.9 27.248 0.792 27.864 0.792 28.536C0.792 29.208 0.9 29.824 1.116 30.384C1.332 30.944 1.632 31.432 2.016 31.848C2.408 32.256 2.868 32.576 3.396 32.808C3.924 33.032 4.504 33.144 5.136 33.144ZM10.431 33H15.351V32.1H11.391V24.06H10.431V33ZM20.7836 33.144C21.4076 33.144 21.9876 33.032 22.5236 32.808C23.0676 32.576 23.5436 32.256 23.9516 31.848C24.3596 31.432 24.6796 30.944 24.9116 30.384C25.1436 29.816 25.2596 29.196 25.2596 28.524C25.2596 27.852 25.1436 27.236 24.9116 26.676C24.6796 26.116 24.3596 25.632 23.9516 25.224C23.5436 24.808 23.0676 24.488 22.5236 24.264C21.9876 24.032 21.4076 23.916 20.7836 23.916C20.1596 23.916 19.5756 24.028 19.0316 24.252C18.4956 24.476 18.0236 24.796 17.6156 25.212C17.2076 25.62 16.8876 26.108 16.6556 26.676C16.4236 27.236 16.3076 27.852 16.3076 28.524C16.3076 29.196 16.4236 29.816 16.6556 30.384C16.8876 30.944 17.2076 31.432 17.6156 31.848C18.0236 32.256 18.4956 32.576 19.0316 32.808C19.5756 33.032 20.1596 33.144 20.7836 33.144ZM20.7836 32.244C20.0956 32.244 19.4876 32.076 18.9596 31.74C18.4316 31.404 18.0156 30.956 17.7116 30.396C17.4156 29.828 17.2676 29.204 17.2676 28.524C17.2676 28.02 17.3516 27.544 17.5196 27.096C17.6956 26.648 17.9396 26.252 18.2516 25.908C18.5636 25.564 18.9316 25.296 19.3556 25.104C19.7876 24.912 20.2636 24.816 20.7836 24.816C21.3036 24.816 21.7756 24.912 22.1996 25.104C22.6316 25.296 23.0036 25.564 23.3156 25.908C23.6276 26.252 23.8676 26.648 24.0356 27.096C24.2116 27.544 24.2996 28.02 24.2996 28.524C24.2996 29.204 24.1476 29.828 23.8436 30.396C23.5476 30.956 23.1356 31.404 22.6076 31.74C22.0796 32.076 21.4716 32.244 20.7836 32.244ZM30.1188 33.144C30.6868 33.144 31.1868 33.04 31.6188 32.832C32.0588 32.624 32.3988 32.34 32.6388 31.98C32.8868 31.612 33.0108 31.188 33.0108 30.708C33.0108 30.116 32.8308 29.624 32.4708 29.232C32.1108 28.84 31.5788 28.54 30.8748 28.332L29.4588 27.912C28.9788 27.768 28.6228 27.552 28.3908 27.264C28.1588 26.968 28.0428 26.636 28.0428 26.268C28.0428 25.812 28.2028 25.452 28.5228 25.188C28.8428 24.916 29.2588 24.78 29.7708 24.78C30.3148 24.78 30.7868 24.916 31.1868 25.188C31.5948 25.46 31.8948 25.86 32.0868 26.388L32.9268 26.052C32.7988 25.66 32.5868 25.304 32.2908 24.984C31.9948 24.664 31.6308 24.408 31.1988 24.216C30.7748 24.016 30.2948 23.916 29.7588 23.916C29.2468 23.916 28.7868 24.02 28.3788 24.228C27.9788 24.436 27.6628 24.724 27.4308 25.092C27.1988 25.452 27.0828 25.868 27.0828 26.34C27.0828 26.892 27.2508 27.384 27.5868 27.816C27.9308 28.248 28.4188 28.556 29.0508 28.74L30.6588 29.22C31.1068 29.348 31.4508 29.532 31.6908 29.772C31.9308 30.012 32.0508 30.352 32.0508 30.792C32.0508 31.24 31.8708 31.6 31.5108 31.872C31.1588 32.144 30.6948 32.28 30.1188 32.28C29.5108 32.28 28.9868 32.124 28.5468 31.812C28.1068 31.492 27.7828 31.028 27.5748 30.42L26.7108 30.744C26.8468 31.184 27.0748 31.588 27.3948 31.956C27.7148 32.316 28.1068 32.604 28.5708 32.82C29.0348 33.036 29.5508 33.144 30.1188 33.144ZM34.8646 33H40.6246V32.1H35.8246V28.968H40.3846V28.068H35.8246V24.96H40.6246V24.06H34.8646V33Z" fill="white"/>
</svg>
