<svg width="36" height="29" viewBox="0 0 36 29" fill="none" xmlns="http://www.w3.org/2000/svg">
<path d="M35 1H1" stroke="#202626" stroke-width="1.5" stroke-linecap="round" stroke-linejoin="round"/>
<path d="M35 9H1" stroke="#202626" stroke-width="1.5" stroke-linecap="round" stroke-linejoin="round"/>
<path d="M1.056 25H2.016V17.908L4.992 22.24H5.04L8.016 17.932V25H8.976V16.06H8.136L5.016 20.596L1.896 16.06H1.056V25ZM11.0873 25H16.8473V24.1H12.0473V20.968H16.6073V20.068H12.0473V16.96H16.8473V16.06H11.0873V25ZM18.4349 25H19.3949V17.896L24.3149 25H25.1549V16.06H24.1949V23.116L19.2749 16.06H18.4349V25ZM30.4148 25.144C31.0548 25.144 31.6108 25.012 32.0828 24.748C32.5628 24.484 32.9348 24.124 33.1988 23.668C33.4628 23.204 33.5948 22.676 33.5948 22.084V16.06H32.6348V22.084C32.6348 22.732 32.4308 23.256 32.0228 23.656C31.6148 24.048 31.0788 24.244 30.4148 24.244C29.7588 24.244 29.2228 24.048 28.8068 23.656C28.3988 23.256 28.1948 22.732 28.1948 22.084V16.06H27.2348V22.084C27.2348 22.676 27.3668 23.204 27.6308 23.668C27.8948 24.124 28.2668 24.484 28.7468 24.748C29.2268 25.012 29.7828 25.144 30.4148 25.144Z" fill="#202626"/>
</svg>
