<svg width="22" height="22" viewBox="0 0 22 22" fill="none" xmlns="http://www.w3.org/2000/svg">
<path d="M17 5V5C17.93 5 18.395 5 18.7765 5.10222C19.8117 5.37962 20.6204 6.18827 20.8978 7.22354C21 7.60504 21 8.07003 21 9V10.2C21 11.8802 21 12.7202 20.673 13.362C20.3854 13.9265 19.9265 14.3854 19.362 14.673C18.7202 15 17.8802 15 16.2 15L5.8 15C4.11984 15 3.27976 15 2.63803 14.673C2.07354 14.3854 1.6146 13.9265 1.32698 13.362C1 12.7202 1 11.8802 1 10.2L1 9C1 8.07003 1 7.60504 1.10222 7.22354C1.37962 6.18827 2.18827 5.37962 3.22354 5.10222C3.60504 5 4.07003 5 5 5V5M17 15V17.8C17 18.9201 17 19.4802 16.782 19.908C16.5903 20.2843 16.2843 20.5903 15.908 20.782C15.4802 21 14.9201 21 13.8 21H8.2C7.0799 21 6.51984 21 6.09202 20.782C5.71569 20.5903 5.40973 20.2843 5.21799 19.908C5 19.4802 5 18.9201 5 17.8L5 15M4 12H5M8 1H14C14.9319 1 15.3978 1 15.7654 1.15224C16.2554 1.35523 16.6448 1.74458 16.8478 2.23463C17 2.60218 17 3.06812 17 4V4C17 4.93188 17 5.39782 16.8478 5.76537C16.6448 6.25542 16.2554 6.64477 15.7654 6.84776C15.3978 7 14.9319 7 14 7L8 7C7.06812 7 6.60218 7 6.23463 6.84776C5.74458 6.64477 5.35523 6.25542 5.15224 5.76537C5 5.39782 5 4.93188 5 4V4C5 3.06812 5 2.60218 5.15224 2.23463C5.35523 1.74458 5.74458 1.35523 6.23463 1.15224C6.60218 1 7.06812 1 8 1Z" stroke="#0E150E" stroke-width="1.5" stroke-linecap="round" stroke-linejoin="round"/>
</svg>
