<svg width="232" height="89" viewBox="0 0 232 89" fill="none" xmlns="http://www.w3.org/2000/svg">
<g clip-path="url(#clip0_254_1964)">
<path d="M26.5707 44.4503C25.2939 44.4503 24.5692 43.9694 24.1896 43.0675C23.81 42.2258 23.9135 41.835 22.9472 41.835C21.981 41.835 19.7034 44.1497 19.3928 47.3362C19.3238 47.697 19.2893 49.8313 19.2893 51.0037V53.8896C19.2893 55.1522 19.1857 56.7454 19.4618 57.6773C19.7379 58.9399 20.1175 59.0902 21.2218 59.5111C21.6014 59.6614 21.7739 59.6914 22.0155 59.7516V59.8417H12.0078V59.7516C12.2149 59.6914 12.4219 59.6614 12.8015 59.5111C13.9403 59.0902 14.2509 58.9399 14.527 57.6773C14.8031 56.7454 14.6995 55.1522 14.6995 53.8896V45.743C14.6995 44.9614 14.7685 42.7068 14.6305 41.9853C14.458 41.0835 14.2164 40.8129 13.6988 40.4822C13.1466 40.1215 12.629 40.1215 12.2839 40.0614V39.9712H19.0132C19.3238 39.9712 19.3238 40.0614 19.3238 40.2417L19.2547 45.5927H19.3238C19.9794 43.2479 21.3598 41.7448 22.119 41.0835C22.8782 40.392 24.2586 39.5503 25.984 39.5503C26.7778 39.5503 27.7095 39.7307 28.2962 40.3019C28.7103 40.6626 29.0554 41.2939 29.0554 42.2859C29.0899 43.3681 28.2962 44.4503 26.5707 44.4503Z" fill="#D52331"/>
<path d="M127.511 44.4503C126.234 44.4503 125.509 43.9694 125.13 43.0675C124.75 42.2258 124.854 41.835 123.887 41.835C122.921 41.835 120.643 44.1497 120.333 47.3362C120.264 47.697 120.229 49.8313 120.229 51.0037V53.8896C120.229 55.1522 120.126 56.7454 120.402 57.6773C120.678 58.9399 121.058 59.0902 122.162 59.5111C122.541 59.6614 122.714 59.6914 122.956 59.7516V59.8417H112.879V59.7516C113.086 59.6914 113.293 59.6614 113.673 59.5111C114.811 59.0902 115.122 58.9399 115.398 57.6773C115.674 56.7454 115.571 55.1522 115.571 53.8896V45.743C115.571 44.9614 115.64 42.7068 115.502 41.9853C115.329 41.0835 115.087 40.8129 114.604 40.4822C114.052 40.1215 113.535 40.1215 113.189 40.0614V39.9712H119.988C120.298 39.9712 120.298 40.0614 120.298 40.2417L120.229 45.5927H120.298C120.954 43.2479 122.334 41.7448 123.094 41.0835C123.853 40.392 125.233 39.5503 126.959 39.5503C127.752 39.5503 128.684 39.7307 129.271 40.3019C129.685 40.6626 130.03 41.2939 130.03 42.2859C130.03 43.3681 129.236 44.4503 127.511 44.4503Z" fill="#252521"/>
<path d="M41.133 41.2946C40.2703 40.6634 39.4075 40.4529 38.1307 40.4529C36.9919 40.4529 36.1292 40.6934 35.3355 41.3548C34.1621 42.2867 33.5065 44.391 33.3339 47.4572H41.064C42.6169 47.4572 42.7894 47.4272 42.7894 45.7137C42.824 43.3388 41.9957 41.9259 41.133 41.2946ZM47.5517 48.3891H33.3339C33.3339 53.8603 34.1276 55.5437 35.7151 57.0769C36.9574 58.3094 38.0962 58.61 39.6491 58.61C43.9628 58.61 46.3094 56.7161 47.1376 53.4094L47.3447 53.4695C46.3784 57.5578 43.4106 60.2032 38.7864 60.2032C36.0947 60.2032 33.1959 59.6321 31.1944 57.8284C29.0548 55.8143 28.2266 53.3793 28.2266 50.0124C28.2266 43.7296 32.3677 39.521 38.0617 39.521C44.6875 39.521 47.5862 43.3989 47.5862 47.0664C47.6207 47.3971 47.6207 47.8781 47.5517 48.3891ZM56.6621 50.5836C55.1437 51.275 54.5226 51.756 54.0394 52.4173C53.4873 53.1689 53.1767 54.0106 53.1767 55.3333C53.1767 58.0088 54.35 58.5799 56.5241 58.5799C56.9382 58.5799 57.4213 58.5198 57.87 58.3394C59.0088 57.8284 60.6307 56.3253 60.6307 54.8222L60.6997 48.2689C59.9405 49.2609 58.1115 49.9222 56.6621 50.5836ZM64.6683 60.2333C63.3914 60.2333 62.3562 60.1732 61.7005 59.8726C61.0103 59.5419 60.5272 58.61 60.6307 56.8664H60.5617C60.0095 58.4597 57.5939 60.2333 54.143 60.2333C50.9681 60.2333 48.1729 58.64 48.1729 55.2732C48.1729 54.0106 48.587 53.0186 49.5187 52.267C51.1752 50.9143 53.4528 50.8241 55.7649 50.0124C58.8362 48.9903 60.8032 47.7278 60.8032 46.3149C60.8032 45.6235 60.8723 44.0002 60.8723 43.3088C60.8723 40.7836 59.5609 40.3627 57.2488 40.3627C56.11 40.3627 55.4198 40.5431 54.8677 41.0241C54.3155 41.5051 54.1085 41.9259 54.1085 43.3088C54.1085 44.7517 53.2112 45.383 51.6928 45.383C50.5195 45.383 49.5532 44.8118 49.5532 43.6094C49.5532 42.8278 49.8638 42.2566 50.416 41.6854C51.5893 40.3627 54.8677 39.5811 57.1798 39.5811C61.1483 39.5811 65.6 40.8437 65.6 44.1805C65.6 45.7137 65.4965 53.0787 65.4965 55.8744C65.4965 56.5057 65.4965 57.1069 65.531 57.7382C65.6 58.4897 65.8416 59.3615 66.8424 59.5719C67.291 59.6621 67.8776 59.5719 68.2572 59.3315V59.3916C67.7051 59.8124 66.3937 60.2333 64.6683 60.2333ZM68.3263 59.8124V59.7222C68.6023 59.6621 68.9819 59.5719 69.2235 59.4818C70.1552 59.1511 70.5694 58.8805 70.8454 57.648C71.0525 56.7462 71.0525 55.213 71.0525 53.8903V33.5087C71.0525 32.7272 71.1215 30.4726 70.949 29.7511C70.7764 28.8492 70.5348 28.5186 70.0517 28.248C69.4651 27.8572 69.0164 27.8572 68.6368 27.8272V27.767H75.4006C75.7112 27.767 75.7112 27.767 75.7112 28.0977C75.7112 28.7891 75.6422 29.7811 75.6422 31.0437V53.9204C75.6422 55.2431 75.5732 56.7462 75.8148 57.6781C76.1253 58.9407 76.5049 59.1811 77.6437 59.5419C77.9543 59.6321 78.0579 59.6922 78.3339 59.7222V59.8124H68.3263Z" fill="#D52331"/>
<path d="M93.1039 57.2564C92.3102 58.7896 89.9291 60.2626 87.6169 60.2626C85.5119 60.2626 84.1315 59.992 82.9237 59.0301C81.9574 58.2785 81.5088 57.3466 81.5088 55.6031C81.5088 54.6712 81.6814 42.5264 81.7159 40.2417C80.9222 40.1816 79.3347 40.1816 78.541 40.0914V40.0012C81.8884 39.3399 83.959 37.8368 86.2366 31.5239H86.4091V39.2798H91.7235V40.1816H86.4091L86.2021 55.9337C86.2021 57.7074 86.7887 59.2405 88.9283 59.2405C90.8263 59.2405 92.2757 58.2785 92.8968 57.1362L93.1039 57.2564Z" fill="#252521"/>
<path d="M105.769 41.807C104.699 40.6947 103.457 40.4542 102.215 40.4542C101.042 40.4542 99.7302 40.845 98.7294 41.7769C97.1075 43.2199 96.2102 46.2861 96.2102 49.8634C96.2102 53.5309 97.1765 56.3868 98.6949 57.9199C99.7647 59.0322 101.076 59.3328 102.249 59.3328C103.492 59.3328 104.665 59.0923 105.804 57.98C107.253 56.4469 108.288 53.5309 108.288 49.8634C108.219 46.226 107.253 43.3702 105.769 41.807ZM102.215 60.2346C96.9004 60.2346 91.1719 56.2665 91.1719 49.8334C91.1719 43.4003 96.8659 39.5223 102.215 39.5223C107.529 39.5223 113.292 43.4604 113.292 49.8334C113.292 56.2064 107.529 60.2346 102.215 60.2346ZM168.231 41.807C167.161 40.6947 165.919 40.4542 164.676 40.4542C163.503 40.4542 162.192 40.845 161.191 41.7769C159.569 43.2199 158.672 46.2861 158.672 49.8634C158.672 53.5309 159.638 56.3868 161.157 57.9199C162.226 59.0322 163.538 59.3328 164.711 59.3328C165.953 59.3328 167.127 59.0923 168.265 57.98C169.715 56.4469 170.75 53.5309 170.75 49.8634C170.681 46.226 169.715 43.3702 168.231 41.807ZM164.676 60.2346C159.362 60.2346 153.634 56.2665 153.634 49.8334C153.634 43.4003 159.328 39.5223 164.676 39.5223C169.991 39.5223 175.754 43.4604 175.754 49.8334C175.754 56.2064 169.991 60.2346 164.676 60.2346ZM130.236 60.5352C128.683 60.5352 127.372 59.453 127.372 57.9499C127.372 56.4469 128.649 55.3647 130.236 55.3647C131.789 55.3647 133.101 56.2966 133.101 57.9499C133.101 59.6033 131.789 60.5352 130.236 60.5352ZM145.179 60.2346C142.211 60.2346 139.588 59.2426 137.863 57.7395C135.654 55.7855 134.791 53.0199 134.791 49.623C134.791 43.25 140.382 39.4923 145.213 39.4923C148.561 39.4923 151.011 40.5745 151.977 41.5966C152.736 42.4082 153.116 43.0996 153.116 43.761C153.116 45.2039 151.874 45.7751 150.907 45.7751C149.078 45.7751 148.423 44.7831 148.216 43.28C147.801 40.6046 147.284 40.2739 144.972 40.2739C144.074 40.2739 142.591 40.6045 141.728 41.4463C140.486 42.6788 139.83 45.1739 139.83 48.8113C139.83 53.4107 140.486 55.2144 141.866 56.988C142.901 58.3107 144.178 58.6414 145.42 58.6414C150.252 58.6414 152.426 56.1763 153.15 53.4107L153.357 53.4708C152.495 57.1984 149.699 60.2346 145.179 60.2346Z" fill="#252521"/>
<path d="M203.293 59.8409V59.7507C203.569 59.6906 203.707 59.6606 204.087 59.5102C205.156 59.1495 205.536 58.909 205.812 57.6464C206.088 56.7145 206.019 55.2115 206.019 53.8888V45.7421C206.019 43.5777 205.812 42.5857 205.225 41.8642C204.535 41.0526 203.673 40.6317 202.258 40.6317C199.842 40.6317 197.15 44.2391 196.771 47.8464C196.702 48.5378 196.667 49.1391 196.667 50.0109V53.8888C196.667 55.2115 196.564 56.7145 196.84 57.6464C197.116 58.909 197.53 59.1495 198.6 59.5102C198.979 59.6606 199.152 59.6906 199.393 59.7507V59.8409H189.351V59.7507C189.627 59.6906 189.765 59.6606 190.145 59.5102C191.215 59.1495 191.594 58.909 191.87 57.6464C192.146 56.7145 192.077 55.2115 192.077 53.8888V45.7421C192.077 43.5777 191.801 42.5857 191.215 41.8642C190.525 41.0526 189.662 40.6317 188.247 40.6317C185.555 40.6317 183.14 44.3293 182.76 47.9366C182.656 49.0489 182.656 48.628 182.656 50.0409V53.8888C182.656 55.2115 182.553 56.7446 182.829 57.6765C183.105 58.9391 183.519 59.0894 184.658 59.5102L185.417 59.7507V59.8409H175.375V59.7507C175.582 59.6906 175.789 59.6606 176.169 59.5102C177.308 59.1495 177.584 58.9391 177.894 57.6765C178.17 56.7446 178.101 55.1814 178.101 53.8888V45.7722C178.101 44.9305 178.101 42.6759 177.998 41.9845C177.825 41.0826 177.618 40.8722 177.066 40.4814C176.514 40.1207 176.031 40.1207 175.651 40.0605V39.9704H182.415C182.725 39.9704 182.725 40.0305 182.725 40.2409L182.622 44.8403H182.691C183.347 42.7661 184.52 41.5937 185.693 40.8722C186.556 40.301 188.281 39.5495 190.145 39.5495C192.526 39.5495 194.183 40.1507 195.149 41.2029C195.701 41.7741 196.564 43.0667 196.564 44.9906H196.633C197.323 42.7961 198.634 41.5636 199.738 40.8722C200.912 40.1207 202.741 39.5495 204.156 39.5495C207.123 39.5495 208.469 40.3612 209.263 41.2329C209.953 41.9243 210.54 43.1869 210.54 45.5918V53.8888C210.54 55.2115 210.471 56.7145 210.747 57.6464C211.023 58.909 211.403 59.0894 212.507 59.5102L213.266 59.7507V59.8409H203.293ZM216.13 40.1507C216.337 40.1507 216.51 40.1207 216.614 40.0305C216.717 39.9403 216.786 39.8501 216.786 39.6998V39.6698C216.786 39.5194 216.717 39.3992 216.614 39.3391C216.51 39.2489 216.337 39.2188 216.13 39.2188H215.302V40.1207H216.13V40.1507ZM214.681 38.7379H216.165C216.579 38.7379 216.924 38.828 217.166 39.0385C217.338 39.1888 217.442 39.3992 217.442 39.6397C217.442 39.8802 217.373 40.0605 217.235 40.2109C217.097 40.3612 216.924 40.4513 216.683 40.5115L217.58 41.5937H216.821L216.027 40.6017H215.337V41.5937H214.715L214.681 38.7379ZM215.958 42.5857C216.337 42.5857 216.683 42.5256 217.028 42.4053C217.338 42.2851 217.649 42.1047 217.89 41.8943C218.132 41.6839 218.304 41.4434 218.442 41.1428C218.581 40.8722 218.65 40.5415 218.65 40.2409C218.65 39.9102 218.581 39.6096 218.442 39.3391C218.304 39.0685 218.132 38.798 217.89 38.5875C217.649 38.3771 217.373 38.1967 217.028 38.0765C216.717 37.9563 216.337 37.8961 215.958 37.8961C215.578 37.8961 215.233 37.9563 214.888 38.0765C214.577 38.1967 214.267 38.3771 214.025 38.5875C213.784 38.798 213.611 39.0385 213.473 39.3391C213.335 39.6096 213.266 39.9403 213.266 40.2409C213.266 40.5716 213.335 40.8722 213.473 41.1428C213.611 41.4133 213.784 41.6839 214.025 41.8943C214.267 42.1047 214.543 42.2851 214.888 42.4053C215.233 42.5256 215.578 42.5857 215.958 42.5857ZM215.958 42.9464C215.509 42.9464 215.13 42.8863 214.75 42.736C214.37 42.5857 214.06 42.4053 213.784 42.1648C213.508 41.9244 213.301 41.6538 213.128 41.3231C212.956 40.9925 212.887 40.6618 212.887 40.301C212.887 39.9403 212.956 39.5796 213.128 39.279C213.301 38.9483 213.508 38.6777 213.784 38.4372C214.06 38.1967 214.405 37.9863 214.75 37.8661C215.13 37.7158 215.544 37.6556 215.958 37.6556C216.406 37.6556 216.786 37.7158 217.166 37.8661C217.545 38.0164 217.856 38.1967 218.132 38.4372C218.408 38.6777 218.615 38.9483 218.788 39.279C218.96 39.6096 219.029 39.9403 219.029 40.301C219.029 40.6618 218.96 41.0225 218.788 41.3231C218.615 41.6538 218.408 41.9244 218.132 42.1648C217.856 42.4053 217.511 42.6158 217.166 42.736C216.786 42.8563 216.406 42.9464 215.958 42.9464Z" fill="#252521"/>
</g>
<defs>
<clipPath id="clip0_254_1964">
<rect width="232" height="89" fill="white"/>
</clipPath>
</defs>
</svg>
