<svg width="234" height="70" viewBox="0 0 234 70" fill="none" xmlns="http://www.w3.org/2000/svg">
<g clip-path="url(#clip0_254_2207)">
<path d="M25.4124 34.8882C24.0902 34.8882 23.3398 34.352 22.9467 33.3466C22.5536 32.4083 22.6608 31.9726 21.6602 31.9726C20.6596 31.9726 18.3011 34.5531 17.9794 38.1055C17.908 38.5076 17.8722 40.8871 17.8722 42.1941V45.4113C17.8722 46.8189 17.765 48.5951 18.0509 49.634C18.3368 51.0415 18.7299 51.2091 19.8734 51.6782C20.2665 51.8458 20.4452 51.8793 20.6953 51.9463V52.0469H10.332V51.9463C10.5464 51.8793 10.7609 51.8458 11.1539 51.6782C12.3332 51.2091 12.6548 51.0415 12.9407 49.634C13.2266 48.5951 13.1194 46.8189 13.1194 45.4113V36.3293C13.1194 35.458 13.1909 32.9445 13.0479 32.1402C12.8693 31.1348 12.6191 30.8332 12.0831 30.4645C11.5113 30.0624 10.9753 30.0624 10.6179 29.9953V29.8948H17.5863C17.908 29.8948 17.908 29.9953 17.908 30.1964L17.8365 36.1617H17.908C18.5869 33.5477 20.0164 31.8721 20.8025 31.1348C21.5887 30.364 23.0181 29.4256 24.8049 29.4256C25.6268 29.4256 26.5917 29.6267 27.1992 30.2635C27.628 30.6656 27.9854 31.3694 27.9854 32.4753C28.0211 33.6818 27.1992 34.8882 25.4124 34.8882Z" fill="#D52331"/>
<path d="M129.939 34.8882C128.617 34.8882 127.866 34.352 127.473 33.3466C127.08 32.4083 127.187 31.9726 126.187 31.9726C125.186 31.9726 122.828 34.5531 122.506 38.1055C122.435 38.5076 122.399 40.8871 122.399 42.1941V45.4113C122.399 46.8189 122.292 48.5951 122.577 49.634C122.863 51.0415 123.256 51.2091 124.4 51.6782C124.793 51.8458 124.972 51.8793 125.222 51.9463V52.0469H114.787V51.9463C115.002 51.8793 115.216 51.8458 115.609 51.6782C116.788 51.2091 117.11 51.0415 117.396 49.634C117.682 48.5951 117.574 46.8189 117.574 45.4113V36.3293C117.574 35.458 117.646 32.9445 117.503 32.1402C117.324 31.1348 117.074 30.8332 116.574 30.4645C116.002 30.0624 115.466 30.0624 115.109 29.9953V29.8948H122.149C122.47 29.8948 122.47 29.9953 122.47 30.1964L122.399 36.1617H122.47C123.149 33.5477 124.579 31.8721 125.365 31.1348C126.151 30.364 127.58 29.4256 129.367 29.4256C130.189 29.4256 131.154 29.6267 131.761 30.2635C132.19 30.6656 132.548 31.3694 132.548 32.4753C132.548 33.6818 131.726 34.8882 129.939 34.8882Z" fill="#252521"/>
<path d="M40.4901 31.37C39.5967 30.6662 38.7033 30.4316 37.3811 30.4316C36.2018 30.4316 35.3084 30.6997 34.4865 31.437C33.2715 32.4759 32.5925 34.8218 32.4139 38.2401H40.4186C42.0267 38.2401 42.2054 38.2066 42.2054 36.2964C42.2411 33.6489 41.3835 32.0737 40.4901 31.37ZM47.1369 39.279H32.4139C32.4139 45.3784 33.2358 47.2551 34.8796 48.9643C36.1661 50.3383 37.3454 50.6735 38.9535 50.6735C43.4204 50.6735 45.8504 48.5621 46.7081 44.8757L46.9225 44.9427C45.9219 49.5005 42.8486 52.4496 38.0601 52.4496C35.2727 52.4496 32.2709 51.8129 30.1983 49.8021C27.9827 47.5567 27.125 44.8422 27.125 41.0887C27.125 34.0845 31.4133 29.3927 37.3096 29.3927C44.1709 29.3927 47.1726 33.7159 47.1726 37.8045C47.2084 38.1731 47.2084 38.7093 47.1369 39.279ZM56.5711 41.7255C54.9987 42.4963 54.3555 43.0325 53.8552 43.7698C53.2834 44.6076 52.9618 45.546 52.9618 47.0205C52.9618 50.0032 54.1768 50.6399 56.4281 50.6399C56.857 50.6399 57.3573 50.5729 57.8218 50.3718C59.0011 49.8021 60.6807 48.1265 60.6807 46.4508L60.7521 39.145C59.966 40.2509 58.072 40.9882 56.5711 41.7255ZM64.8617 52.4832C63.5395 52.4832 62.4674 52.4161 61.7885 52.081C61.0738 51.7124 60.5735 50.6735 60.6807 48.7297H60.6092C60.0374 50.5059 57.5359 52.4832 53.9624 52.4832C50.6747 52.4832 47.7801 50.707 47.7801 46.9535C47.7801 45.546 48.209 44.44 49.1738 43.6022C50.8891 42.0941 53.2477 41.9936 55.642 41.0887C58.8224 39.9493 60.8593 38.5418 60.8593 36.9666C60.8593 36.1958 60.9308 34.3861 60.9308 33.6153C60.9308 30.8003 59.5729 30.3311 57.1786 30.3311C55.9993 30.3311 55.2846 30.5321 54.7128 31.0684C54.1411 31.6046 53.9267 32.0737 53.9267 33.6153C53.9267 35.224 52.9975 35.9277 51.4252 35.9277C50.2102 35.9277 49.2096 35.291 49.2096 33.9505C49.2096 33.0791 49.5312 32.4424 50.1029 31.8056C51.318 30.3311 54.7128 29.4597 57.1071 29.4597C61.2167 29.4597 65.8266 30.8673 65.8266 34.5872C65.8266 36.2964 65.7194 44.5071 65.7194 47.6238C65.7194 48.3275 65.7194 48.9978 65.7551 49.7016C65.8266 50.5394 66.0767 51.5113 67.1131 51.7459C67.5776 51.8464 68.1851 51.7459 68.5782 51.4778V51.5448C68.0065 52.014 66.6485 52.4832 64.8617 52.4832ZM68.6497 52.014V51.9134C68.9356 51.8464 69.3287 51.7459 69.5788 51.6453C70.5437 51.2767 70.9725 50.9751 71.2584 49.601C71.4728 48.5956 71.4728 46.8865 71.4728 45.4119V22.6901C71.4728 21.8188 71.5443 19.3053 71.3656 18.501C71.1869 17.4956 70.9368 17.127 70.4365 16.8253C69.829 16.3897 69.3644 16.3897 68.9713 16.3562V16.2891H75.9755C76.2971 16.2891 76.2971 16.2891 76.2971 16.6578C76.2971 17.4286 76.2256 18.5345 76.2256 19.942V45.4454C76.2256 46.92 76.1542 48.5956 76.4043 49.6346C76.7259 51.0421 77.119 51.3102 78.2983 51.7124C78.6199 51.8129 78.7271 51.8799 79.013 51.9134V52.014H68.6497Z" fill="#D52331"/>
<path d="M94.3089 49.1637C93.487 50.8729 91.0212 52.515 88.627 52.515C86.4471 52.515 85.0177 52.2134 83.7669 51.141C82.7663 50.3032 82.3018 49.2643 82.3018 47.3205C82.3018 46.2816 82.4805 32.7424 82.5162 30.1954C81.6943 30.1284 80.0504 30.1284 79.2285 30.0278V29.9273C82.6949 29.19 84.839 27.5144 87.1975 20.4766H87.3762V29.123H92.8795V30.1284H87.3762L87.1618 47.6892C87.1618 49.6664 87.7693 51.3756 89.9849 51.3756C91.9504 51.3756 93.4513 50.3032 94.0945 49.0297L94.3089 49.1637Z" fill="#252521"/>
<path d="M107.427 31.9419C106.319 30.7019 105.032 30.4338 103.746 30.4338C102.531 30.4338 101.173 30.8695 100.137 31.9084C98.4571 33.517 97.5279 36.9353 97.5279 40.9234C97.5279 45.012 98.5285 48.1957 100.101 49.9048C101.209 51.1448 102.567 51.48 103.782 51.48C105.068 51.48 106.283 51.2119 107.462 49.9719C108.963 48.2627 110.035 45.012 110.035 40.9234C109.964 36.8683 108.963 33.6846 107.427 31.9419ZM103.746 52.4854C98.2426 52.4854 92.3105 48.0616 92.3105 40.8899C92.3105 33.7181 98.2069 29.3949 103.746 29.3949C109.249 29.3949 115.217 33.7851 115.217 40.8899C115.217 47.9946 109.249 52.4854 103.746 52.4854ZM172.108 31.9419C171 30.7019 169.714 30.4338 168.427 30.4338C167.212 30.4338 165.854 30.8695 164.818 31.9084C163.138 33.517 162.209 36.9353 162.209 40.9234C162.209 45.012 163.21 48.1957 164.782 49.9048C165.89 51.1448 167.248 51.48 168.463 51.48C169.749 51.48 170.964 51.2119 172.144 49.9719C173.645 48.2627 174.717 45.012 174.717 40.9234C174.645 36.8683 173.645 33.6846 172.108 31.9419ZM168.427 52.4854C162.924 52.4854 156.992 48.0616 156.992 40.8899C156.992 33.7181 162.888 29.3949 168.427 29.3949C173.93 29.3949 179.898 33.7851 179.898 40.8899C179.898 47.9946 173.93 52.4854 168.427 52.4854ZM132.763 52.8205C131.155 52.8205 129.797 51.614 129.797 49.9384C129.797 48.2627 131.119 47.0562 132.763 47.0562C134.371 47.0562 135.729 48.0951 135.729 49.9384C135.729 51.7816 134.371 52.8205 132.763 52.8205ZM148.237 52.4854C145.163 52.4854 142.447 51.3794 140.661 49.7038C138.374 47.5254 137.48 44.4422 137.48 40.6553C137.48 33.5505 143.269 29.3614 148.272 29.3614C151.739 29.3614 154.276 30.5679 155.277 31.7073C156.063 32.6121 156.456 33.383 156.456 34.1202C156.456 35.7289 155.169 36.3656 154.169 36.3656C152.275 36.3656 151.596 35.2597 151.381 33.584C150.953 30.6014 150.417 30.2327 148.022 30.2327C147.093 30.2327 145.556 30.6014 144.663 31.5397C143.377 32.9138 142.698 35.6953 142.698 39.7504C142.698 44.8779 143.377 46.8887 144.806 48.866C145.878 50.3405 147.2 50.7092 148.487 50.7092C153.49 50.7092 155.741 47.9611 156.492 44.8779L156.706 44.9449C155.813 49.1005 152.918 52.4854 148.237 52.4854Z" fill="#252521"/>
<path d="M208.414 52.0452V51.9446C208.7 51.8776 208.843 51.8441 209.236 51.6765C210.344 51.2744 210.737 51.0062 211.023 49.5987C211.309 48.5598 211.237 46.8841 211.237 45.4096V36.3276C211.237 33.9146 211.023 32.8087 210.415 32.0044C209.7 31.0995 208.807 30.6303 207.342 30.6303C204.84 30.6303 202.053 34.6519 201.66 38.6735C201.588 39.4443 201.553 40.1145 201.553 41.0864V45.4096C201.553 46.8841 201.446 48.5598 201.731 49.5987C202.017 51.0062 202.446 51.2744 203.554 51.6765C203.947 51.8441 204.126 51.8776 204.376 51.9446V52.0452H193.977V51.9446C194.263 51.8776 194.406 51.8441 194.799 51.6765C195.907 51.2744 196.3 51.0062 196.585 49.5987C196.871 48.5598 196.8 46.8841 196.8 45.4096V36.3276C196.8 33.9146 196.514 32.8087 195.907 32.0044C195.192 31.0995 194.298 30.6303 192.833 30.6303C190.046 30.6303 187.544 34.7524 187.151 38.774C187.044 40.014 187.044 39.5448 187.044 41.1199V45.4096C187.044 46.8841 186.937 48.5933 187.223 49.6322C187.509 51.0398 187.938 51.2073 189.117 51.6765L189.903 51.9446V52.0452H179.504V51.9446C179.718 51.8776 179.933 51.8441 180.326 51.6765C181.505 51.2744 181.791 51.0398 182.113 49.6322C182.398 48.5933 182.327 46.8506 182.327 45.4096V36.3611C182.327 35.4227 182.327 32.9092 182.22 32.1384C182.041 31.133 181.827 30.8984 181.255 30.4628C180.683 30.0606 180.183 30.0606 179.79 29.9936V29.8931H186.794C187.116 29.8931 187.116 29.9601 187.116 30.1947L187.008 35.3222H187.08C187.759 33.0098 188.974 31.7028 190.189 30.8985C191.082 30.2617 192.869 29.4239 194.799 29.4239C197.264 29.4239 198.98 30.0941 199.98 31.2671C200.552 31.9038 201.446 33.3449 201.446 35.4897H201.517C202.232 33.0433 203.59 31.6693 204.733 30.8985C205.948 30.0606 207.842 29.4239 209.307 29.4239C212.381 29.4239 213.774 30.3287 214.596 31.3006C215.311 32.0714 215.918 33.4789 215.918 36.16V45.4096C215.918 46.8841 215.847 48.5598 216.133 49.5987C216.419 51.0062 216.812 51.2073 217.955 51.6765L218.742 51.9446V52.0452H208.414ZM221.708 30.0941C221.922 30.0941 222.101 30.0606 222.208 29.9601C222.315 29.8595 222.387 29.759 222.387 29.5915V29.5579C222.387 29.3904 222.315 29.2563 222.208 29.1893C222.101 29.0888 221.922 29.0552 221.708 29.0552H220.85V30.0606H221.708V30.0941ZM220.207 28.519H221.743C222.172 28.519 222.529 28.6196 222.78 28.8542C222.958 29.0217 223.066 29.2563 223.066 29.5244C223.066 29.7925 222.994 29.9936 222.851 30.1612C222.708 30.3287 222.53 30.4293 222.279 30.4963L223.208 31.7028H222.422L221.6 30.5968H220.886V31.7028H220.242L220.207 28.519ZM221.529 32.8087C221.922 32.8087 222.279 32.7417 222.637 32.6076C222.958 32.4736 223.28 32.2725 223.53 32.0379C223.78 31.8033 223.959 31.5352 224.102 31.2001C224.245 30.8985 224.316 30.5298 224.316 30.1947C224.316 29.826 224.245 29.4909 224.102 29.1893C223.959 28.8877 223.78 28.5861 223.53 28.3515C223.28 28.1169 222.994 27.9158 222.637 27.7817C222.315 27.6477 221.922 27.5807 221.529 27.5807C221.136 27.5807 220.778 27.6477 220.421 27.7817C220.099 27.9158 219.778 28.1169 219.528 28.3515C219.278 28.5861 219.099 28.8542 218.956 29.1893C218.813 29.4909 218.742 29.8596 218.742 30.1947C218.742 30.5633 218.813 30.8985 218.956 31.2001C219.099 31.5017 219.278 31.8033 219.528 32.0379C219.778 32.2725 220.064 32.4736 220.421 32.6076C220.778 32.7417 221.136 32.8087 221.529 32.8087ZM221.529 33.2108C221.064 33.2108 220.671 33.1438 220.278 32.9763C219.885 32.8087 219.563 32.6076 219.278 32.3395C218.992 32.0714 218.777 31.7698 218.599 31.4011C218.42 31.0325 218.348 30.6639 218.348 30.2617C218.348 29.8596 218.42 29.4574 218.599 29.1223C218.777 28.7536 218.992 28.452 219.278 28.1839C219.563 27.9158 219.921 27.6812 220.278 27.5472C220.671 27.3796 221.1 27.3126 221.529 27.3126C221.993 27.3126 222.387 27.3796 222.78 27.5472C223.173 27.7147 223.494 27.9158 223.78 28.1839C224.066 28.452 224.281 28.7536 224.459 29.1223C224.638 29.4909 224.709 29.8596 224.709 30.2617C224.709 30.6639 224.638 31.066 224.459 31.4011C224.281 31.7698 224.066 32.0714 223.78 32.3395C223.494 32.6076 223.137 32.8422 222.78 32.9763C222.387 33.1103 221.993 33.2108 221.529 33.2108Z" fill="#252521"/>
</g>
<defs>
<clipPath id="clip0_254_2207">
<rect width="234" height="70" fill="white"/>
</clipPath>
</defs>
</svg>
