<svg width="235" height="70" viewBox="0 0 235 70" fill="none" xmlns="http://www.w3.org/2000/svg">
<g clip-path="url(#clip0_254_2206)">
<path d="M121.461 23.5294C117.95 21.83 113.035 21.1764 106.716 21.1764H94.6038V51.1113H107.067C111.455 51.1113 115.317 50.7191 118.477 49.8041C121.636 48.889 124.094 47.3204 125.849 45.0982C127.605 42.8759 128.482 40.0001 128.482 36.3399C128.482 33.2026 127.956 30.5882 126.903 28.4967C125.323 26.2745 123.743 24.5751 121.461 23.5294ZM118.126 41.3073C117.599 42.7452 116.546 43.9217 115.142 44.706C113.562 45.621 111.104 46.0132 107.945 46.0132H103.556V25.8823H107.242C110.753 25.8823 113.562 26.2745 115.317 27.3202C116.546 28.1046 117.599 29.0196 118.126 30.4575C118.652 31.8954 119.003 33.5948 119.003 35.6863C119.003 38.0393 118.828 39.8694 118.126 41.3073ZM133.924 50.9806H143.052V38.3007H153.76V33.3334H143.052V26.013H159.377V21.0457H133.924V50.9806ZM165.345 50.9806H174.473V21.0457H165.345V50.9806ZM214.847 21.0457H205.543V38.3007L188.516 21.0457H181.144V50.9806H190.447V33.3334L207.299 50.9806H214.847V21.0457ZM59.8474 52.157C59.1453 51.8956 58.2676 51.5034 56.1611 48.889L51.9482 43.791L47.0332 37.7778L46.6821 37.255C46.8577 37.255 47.2087 37.1242 47.3843 37.1242C53.0015 35.6863 56.3367 31.8954 56.3367 26.4052C56.3367 23.6601 54.9324 21.1764 52.1238 19.3463C51.7727 19.0849 51.2461 18.8234 50.895 18.562C47.0332 16.7319 41.9426 16.0783 35.2722 16.0783H22.458C21.7559 16.0783 21.5803 16.4705 21.9314 16.7319C22.2825 16.9934 22.6335 17.3855 22.6335 18.4313V48.4969C22.458 49.6734 22.1069 50.0655 21.9314 50.327C21.5803 50.5884 21.7559 50.9806 22.6335 50.9806H31.937V38.3007H36.1499L39.134 42.0916L42.8203 46.7975L44.5757 49.1505C46.6821 51.7649 48.613 53.4642 51.9482 53.8564C52.2993 53.8564 54.0547 54.1178 54.7568 54.1178H55.459C56.8633 54.1178 58.2676 53.7257 59.1453 53.4642C59.1453 53.4642 59.3208 53.3335 59.4963 53.3335C60.7251 52.8106 60.374 52.2878 59.8474 52.157ZM37.9053 33.3334H31.937V21.0457H37.9053C40.8894 21.0457 43.1714 21.3071 44.7512 22.4836C45.4534 22.8758 45.8044 23.3986 46.1555 24.0522C46.5066 24.8366 46.8577 25.7516 46.8577 26.9281C46.8577 28.4967 46.6821 33.3334 37.9053 33.3334ZM71.7839 38.3007H82.4917V33.3334H71.7839V26.013H88.1089V21.0457H62.656V50.9806H88.1089V46.0132H71.7839V38.3007Z" fill="#C82021"/>
</g>
<defs>
<clipPath id="clip0_254_2206">
<rect width="193.091" height="39.216" fill="white" transform="translate(21.7559 16.0781)"/>
</clipPath>
</defs>
</svg>
