<svg width="232" height="89" viewBox="0 0 232 89" fill="none" xmlns="http://www.w3.org/2000/svg">
<g clip-path="url(#clip0_254_1965)">
<path d="M118.839 35.0524C116.069 33.6721 112.191 33.1412 107.204 33.1412H97.6472V57.4563H107.481C110.944 57.4563 113.991 57.1378 116.484 56.3945C118.978 55.6513 120.917 54.3771 122.302 52.5721C123.687 50.767 124.379 48.4311 124.379 45.458C124.379 42.9097 123.964 40.7861 123.133 39.0873C121.886 37.2822 120.64 35.9019 118.839 35.0524ZM116.207 49.4929C115.792 50.6608 114.961 51.6164 113.853 52.2535C112.606 52.9968 110.667 53.3153 108.174 53.3153H104.711V36.9637H107.62C110.39 36.9637 112.606 37.2822 113.991 38.1316C114.961 38.7687 115.792 39.512 116.207 40.68C116.623 41.8479 116.9 43.2283 116.9 44.9271C116.9 46.8384 116.761 48.3249 116.207 49.4929ZM128.673 57.3501H135.876V47.0507H144.325V43.0159H135.876V37.0699H148.757V33.035H128.673V57.3501ZM153.466 57.3501H160.669V33.035H153.466V57.3501ZM192.526 33.035H185.185V47.0507L171.75 33.035H165.932V57.3501H173.273V43.0159L186.57 57.3501H192.526V33.035ZM70.2225 58.3058C69.6684 58.0934 68.9759 57.7749 67.3138 55.6513L63.9896 51.5103L60.1113 46.626L59.8343 46.2013C59.9728 46.2013 60.2498 46.0951 60.3883 46.0951C64.8206 44.9271 67.4523 41.8479 67.4523 37.3884C67.4523 35.1586 66.3442 33.1412 64.1281 31.6547C63.851 31.4423 63.4355 31.23 63.1585 31.0176C60.1113 29.5311 56.0945 29.0002 50.8312 29.0002H40.7201C40.166 29.0002 40.0275 29.3187 40.3045 29.5311C40.5815 29.7435 40.8586 30.062 40.8586 30.9114V55.3327C40.7201 56.2883 40.443 56.6069 40.3045 56.8192C40.0275 57.0316 40.166 57.3501 40.8586 57.3501H48.1995V47.0507H51.5238L53.8784 50.1299L56.7871 53.9524L58.1722 55.8636C59.8343 57.9872 61.3579 59.3676 63.9896 59.6861C64.2666 59.6861 65.6517 59.8985 66.2057 59.8985H66.7597C67.8678 59.8985 68.9759 59.5799 69.6684 59.3676C69.6684 59.3676 69.8069 59.2614 69.9454 59.2614C70.915 58.8367 70.638 58.4119 70.2225 58.3058ZM52.9088 43.0159H48.1995V33.035H52.9088C55.2635 33.035 57.0641 33.2474 58.3107 34.203C58.8647 34.5215 59.1417 34.9463 59.4188 35.4772C59.6958 36.1142 59.9728 36.8575 59.9728 37.8131C59.9728 39.0873 59.8343 43.0159 52.9088 43.0159ZM79.6411 47.0507H88.0901V43.0159H79.6411V37.0699H92.5224V33.035H72.4386V57.3501H92.5224V53.3153H79.6411V47.0507Z" fill="#C82021"/>
</g>
<defs>
<clipPath id="clip0_254_1965">
<rect width="152.36" height="31.8539" fill="white" transform="translate(40.166 29)"/>
</clipPath>
</defs>
</svg>
