<svg width="32" height="32" viewBox="0 0 32 32" fill="none" xmlns="http://www.w3.org/2000/svg">
<g clip-path="url(#clip0_645_10864)">
<path d="M14.6668 17.3335L16.7129 22.6534C18.1193 26.3103 18.8225 28.1388 19.7668 28.5986C20.5835 28.9964 21.5465 28.951 22.3222 28.4783C23.2191 27.9317 23.7473 26.0452 24.8038 22.2723L28.6216 8.63781C29.2904 6.24912 29.6248 5.05477 29.3145 4.2352C29.0438 3.52063 28.4797 2.95648 27.7651 2.68585C26.9455 2.37546 25.7512 2.70987 23.3625 3.37871L9.72795 7.19638C5.95506 8.25279 4.06861 8.781 3.52198 9.67787C3.0492 10.4536 3.00383 11.4166 3.40157 12.2333C3.86145 13.1776 5.68988 13.8808 9.34673 15.2873L14.6668 17.3335ZM14.6668 17.3335L18.0002 14.0002" stroke="#9CA29C" stroke-width="2" stroke-linecap="round" stroke-linejoin="round"/>
</g>
<defs>
<clipPath id="clip0_645_10864">
<rect width="32" height="32" fill="white"/>
</clipPath>
</defs>
</svg>
