<svg width="29" height="29" viewBox="0 0 29 29" fill="none" xmlns="http://www.w3.org/2000/svg">
<path d="M12.6668 16.3335L14.7129 21.6534C16.1193 25.3103 16.8225 27.1388 17.7668 27.5986C18.5835 27.9964 19.5465 27.951 20.3222 27.4783C21.2191 26.9317 21.7473 25.0452 22.8038 21.2723L26.6216 7.63781C27.2904 5.24912 27.6248 4.05477 27.3145 3.2352C27.0438 2.52063 26.4797 1.95648 25.7651 1.68585C24.9455 1.37546 23.7512 1.70987 21.3625 2.37871L7.72795 6.19638C3.95506 7.25279 2.06861 7.781 1.52198 8.67787C1.0492 9.45356 1.00383 10.4166 1.40157 11.2333C1.86145 12.1776 3.68988 12.8808 7.34673 14.2873L12.6668 16.3335ZM12.6668 16.3335L16.0002 13.0002" stroke="#8AB39D" stroke-width="2" stroke-linecap="round" stroke-linejoin="round"/>
</svg>
