<svg width="25" height="24" viewBox="0 0 25 24" fill="none" xmlns="http://www.w3.org/2000/svg">
<g id="sms-edit">
<g id="vuesax/linear/sms-edit">
<g id="sms-edit_2">
<path id="Vector" d="M12.667 20.5H7.66699C4.66699 20.5 2.66699 19 2.66699 15.5V8.5C2.66699 5 4.66699 3.5 7.66699 3.5H17.667C20.667 3.5 22.667 5 22.667 8.5V11.5" stroke="#0E150E" stroke-width="2" stroke-miterlimit="10" stroke-linecap="round" stroke-linejoin="round"/>
<path id="Vector_2" d="M17.667 9L14.537 11.5C13.507 12.32 11.817 12.32 10.787 11.5L7.66699 9" stroke="#0E150E" stroke-width="2" stroke-miterlimit="10" stroke-linecap="round" stroke-linejoin="round"/>
<g id="Group">
<path id="Vector_3" d="M19.877 14.7703L16.337 18.3103C16.197 18.4503 16.067 18.7103 16.037 18.9003L15.847 20.2503C15.777 20.7403 16.117 21.0803 16.607 21.0103L17.957 20.8203C18.147 20.7903 18.417 20.6603 18.547 20.5203L22.087 16.9803C22.697 16.3703 22.987 15.6603 22.087 14.7603C21.197 13.8703 20.487 14.1603 19.877 14.7703Z" stroke="#0E150E" stroke-width="2" stroke-miterlimit="10" stroke-linecap="round" stroke-linejoin="round"/>
<path id="Vector_4" d="M19.3672 15.2812C19.6672 16.3613 20.5072 17.2013 21.5872 17.5013" stroke="#0E150E" stroke-width="2" stroke-miterlimit="10" stroke-linecap="round" stroke-linejoin="round"/>
</g>
</g>
</g>
</g>
</svg>
