<svg width="232" height="89" viewBox="0 0 232 89" fill="none" xmlns="http://www.w3.org/2000/svg">
<g clip-path="url(#clip0_254_1966)">
<path d="M67.0903 44.3706L63.9013 43.1204C61.9256 42.3831 60.1231 41.742 60.1231 40.0111C60.1231 38.3762 61.5789 37.4146 63.832 37.4146C65.8771 37.4146 67.5062 38.1198 68.9967 39.3058L71.1805 36.8055C69.2047 35.0104 66.5703 34.0167 63.832 34.0167C59.2219 34.0167 55.8596 36.7094 55.8596 40.2354C55.8596 43.473 58.3206 45.1719 60.6777 46.1015L63.9013 47.4158C66.0851 48.2492 67.6102 48.8262 67.6102 50.6534C67.6102 52.3844 66.1197 53.4742 63.4507 53.4742C61.2323 53.4742 58.9446 52.4485 57.2114 50.9739L54.7851 53.6345C57.0728 55.7181 60.1578 56.8721 63.3467 56.8721C68.6848 56.8721 71.9084 53.891 71.9084 50.3328C71.9084 47.1273 69.9326 45.4925 67.0903 44.3706ZM103.971 46.7426C104.353 43.9859 106.155 42.5434 108.269 42.5434C110.696 42.5434 111.909 44.1141 111.909 46.7426H103.971ZM108.131 39.5302C103.937 39.5302 99.9157 42.8319 99.9157 48.2172C99.9157 53.6666 103.763 56.8721 108.72 56.8721C110.973 56.8721 113.122 56.1348 114.821 55.077L113.399 52.6408C112.082 53.4101 110.765 53.8589 109.24 53.8589C106.363 53.8589 104.318 52.192 103.971 49.1788H115.341C115.445 48.7621 115.514 48.089 115.514 47.3517C115.549 42.7357 112.984 39.5302 108.131 39.5302ZM92.1167 42.864H91.978L91.7007 39.9469H88.2345V56.4874H92.4286V46.39C93.5032 43.8897 95.2363 42.9922 96.6575 42.9922C97.42 42.9922 97.9053 43.0884 98.4946 43.2486L99.2225 39.8828C98.6679 39.6584 98.0786 39.5623 97.1774 39.5623C95.3056 39.5302 93.3992 40.6842 92.1167 42.864ZM82.8271 53.7627C81.1286 53.7627 80.2967 52.8011 80.2967 50.8778V42.9922H84.8375V39.9149H80.2967V35.3951H76.7958L76.2759 39.9149L73.5029 40.0752V42.9601H76.0332V50.8457C76.0332 54.4038 77.5584 56.84 81.7179 56.84C83.1391 56.84 84.3869 56.5515 85.3575 56.231L84.6295 53.3781C84.0749 53.6345 83.451 53.7627 82.8271 53.7627ZM122.065 46.7426C122.412 43.9859 124.249 42.5434 126.363 42.5434C128.79 42.5434 130.003 44.1141 130.003 46.7426H122.065ZM126.225 39.5302C122.03 39.5302 118.01 42.8319 118.01 48.2172C118.01 53.6666 121.857 56.8721 126.814 56.8721C129.067 56.8721 131.216 56.1348 132.915 55.077L131.493 52.6408C130.176 53.4101 128.859 53.8589 127.334 53.8589C124.457 53.8589 122.412 52.192 122.065 49.1788H133.434C133.538 48.7621 133.608 48.089 133.608 47.3517C133.642 42.7357 131.077 39.5302 126.225 39.5302ZM214.164 39.9149L211.46 48.0249C211.009 49.4994 210.559 51.1663 210.108 52.6729H209.969C209.415 51.1342 208.93 49.4673 208.41 48.0249L205.325 39.9149H201.061L208.098 56.263L207.786 57.3209C207.196 58.9557 206.122 60.1417 204.215 60.1417C203.799 60.1417 203.28 60.0135 202.933 59.9173L202.17 62.9626C202.829 63.1549 203.522 63.2831 204.493 63.2831C208.375 63.2831 210.247 60.9431 211.737 57.2247L218.219 39.9469C218.184 39.9149 214.164 39.9149 214.164 39.9149ZM144.769 53.7627C143.071 53.7627 142.239 52.8011 142.239 50.8778V42.9922H146.78V39.9149H142.239V35.3951H138.738L138.218 39.9149L135.445 40.0752V42.9601H138.01V50.8457C138.01 54.4038 139.535 56.84 143.695 56.84C145.116 56.84 146.364 56.5515 147.334 56.231L146.606 53.3781C146.052 53.6345 145.393 53.7627 144.769 53.7627ZM194.753 46.7426C192.811 46.1015 191.044 45.5566 191.044 44.2744C191.044 43.2166 191.876 42.4473 193.678 42.4473C195.099 42.4473 196.382 43.0242 197.595 43.8577L199.536 41.4856C198.08 40.4278 196.07 39.4982 193.609 39.4982C189.588 39.4982 187.092 41.5497 187.092 44.4347C187.092 47.1914 189.761 48.4416 192.118 49.275C194.025 49.9482 195.931 50.5572 195.931 51.9356C195.931 53.0896 195.03 53.923 193.089 53.923C191.286 53.923 189.726 53.2178 188.132 52.0638L186.156 54.5641C187.889 55.8784 190.489 56.8721 192.915 56.8721C197.422 56.8721 199.883 54.5641 199.883 51.7433C199.883 48.6339 197.179 47.5761 194.753 46.7426ZM156.208 46.6465H164.769V43.3448H156.208V37.7031H166.295V34.4334H151.979V56.4874H166.641V53.1857H156.208V46.6465ZM179.744 52.0318C178.426 53.1857 177.317 53.8589 175.861 53.8589C174.371 53.8589 173.296 53.2178 173.296 51.7433C173.296 50.1084 174.891 48.9224 179.744 48.3454V52.0318ZM177.283 39.5302C174.44 39.5302 171.945 40.556 169.969 41.6779L171.494 44.2744C173.054 43.4089 174.718 42.6716 176.52 42.6716C178.912 42.6716 179.709 44.1462 179.744 45.9092C172.43 46.6465 169.241 48.5057 169.241 52.0318C169.241 54.9167 171.425 56.8721 174.544 56.8721C176.659 56.8721 178.461 55.9104 180.09 54.6603H180.194L180.506 56.4874H183.938V46.6785C183.938 42.0305 181.754 39.5302 177.283 39.5302ZM32.3584 42.1908H34.7154V39.5943H32.3584V42.1908ZM22.9995 42.1908H25.3565V39.5943H22.9995V42.1908ZM27.6789 46.5183H30.036V43.9218H27.6789V46.5183ZM27.6789 42.1908H30.036V39.5943H27.6789V42.1908ZM32.3584 50.8457H34.7154V48.2492H32.3584V50.8457ZM38.4243 37.8634L37.4884 38.7288V53.4422H30.0013V48.2492H27.6443V53.4422H20.1918V38.7288L19.2559 37.8634V36.1324H38.459L38.4243 37.8634ZM28.8228 27.4134C18.528 27.4134 10.209 35.1387 10.209 44.627C10.209 54.1153 18.5627 61.8407 28.8228 61.8407V68.9569L41.8906 56.8721C45.4608 53.6345 47.4713 49.2109 47.4366 44.595C47.4713 35.1066 39.1176 27.4134 28.8228 27.4134ZM32.3584 46.5183H34.7154V43.9218H32.3584V46.5183ZM22.9995 50.8457H25.3565V48.2492H22.9995V50.8457ZM22.9995 46.5183H25.3565V43.9218H22.9995V46.5183Z" fill="#032765"/>
</g>
<defs>
<clipPath id="clip0_254_1966">
<rect width="232" height="89" fill="white"/>
</clipPath>
</defs>
</svg>
