<svg width="234" height="70" viewBox="0 0 234 70" fill="none" xmlns="http://www.w3.org/2000/svg">
<g clip-path="url(#clip0_254_2205)">
<path d="M66.6975 29.8089L63.3957 28.5055C61.35 27.7368 59.4837 27.0683 59.4837 25.2636C59.4837 23.5591 60.9911 22.5564 63.3239 22.5564C65.4414 22.5564 67.1282 23.2917 68.6715 24.5283L70.9325 21.9214C68.8868 20.0498 66.1592 19.0137 63.3239 19.0137C58.5506 19.0137 55.0693 21.8212 55.0693 25.4975C55.0693 28.8731 57.6175 30.6444 60.058 31.6137L63.3957 32.984C65.6567 33.8529 67.2359 34.4545 67.2359 36.3595C67.2359 38.1643 65.6926 39.3006 62.9291 39.3006C60.6322 39.3006 58.2635 38.2311 56.469 36.6938L53.9567 39.4677C56.3254 41.6401 59.5196 42.8433 62.8215 42.8433C68.3484 42.8433 71.6862 39.7351 71.6862 36.0253C71.6862 32.6832 69.6405 30.9787 66.6975 29.8089ZM104.884 32.2821C105.279 29.4078 107.145 27.9039 109.334 27.9039C111.847 27.9039 113.103 29.5415 113.103 32.2821H104.884ZM109.191 24.7623C104.848 24.7623 100.685 28.2047 100.685 33.8195C100.685 39.5012 104.669 42.8433 109.801 42.8433C112.134 42.8433 114.359 42.0746 116.117 40.9717L114.646 38.4317C113.282 39.2338 111.918 39.7017 110.339 39.7017C107.36 39.7017 105.243 37.9638 104.884 34.8221H116.656C116.763 34.3877 116.835 33.6858 116.835 32.9171C116.871 28.1044 114.215 24.7623 109.191 24.7623ZM92.6098 28.2381H92.4662L92.1791 25.1967H88.5902V42.4423H92.9328V31.9145C94.0454 29.3076 95.8399 28.3718 97.3113 28.3718C98.1009 28.3718 98.6034 28.472 99.2135 28.6392L99.9672 25.1299C99.3929 24.8959 98.7828 24.7957 97.8497 24.7957C95.9116 24.7623 93.9377 25.9654 92.6098 28.2381ZM82.9914 39.6014C81.2328 39.6014 80.3715 38.5988 80.3715 36.5935V28.3718H85.073V25.1633H80.3715V20.4509H76.7466L76.2083 25.1633L73.3371 25.3304V28.3384H75.957V36.5601C75.957 40.2699 77.5362 42.8099 81.8429 42.8099C83.3144 42.8099 84.6064 42.5091 85.6113 42.1749L84.8577 39.2004C84.2834 39.4677 83.6374 39.6014 82.9914 39.6014ZM123.618 32.2821C123.977 29.4078 125.879 27.9039 128.069 27.9039C130.581 27.9039 131.837 29.5415 131.837 32.2821H123.618ZM127.925 24.7623C123.583 24.7623 119.419 28.2047 119.419 33.8195C119.419 39.5012 123.403 42.8433 128.535 42.8433C130.868 42.8433 133.093 42.0746 134.852 40.9717L133.38 38.4317C132.017 39.2338 130.653 39.7017 129.074 39.7017C126.095 39.7017 123.977 37.9638 123.618 34.8221H135.39C135.498 34.3877 135.57 33.6858 135.57 32.9171C135.606 28.1044 132.95 24.7623 127.925 24.7623ZM218.977 25.1633L216.178 33.619C215.711 35.1564 215.244 36.8943 214.778 38.4651H214.634C214.06 36.8609 213.558 35.1229 213.019 33.619L209.825 25.1633H205.411L212.696 42.2083L212.373 43.3112C211.763 45.0157 210.651 46.2523 208.677 46.2523C208.246 46.2523 207.708 46.1186 207.349 46.0184L206.559 49.1934C207.241 49.3939 207.959 49.5276 208.964 49.5276C212.983 49.5276 214.921 47.0879 216.465 43.211L223.176 25.1967C223.14 25.1633 218.977 25.1633 218.977 25.1633ZM147.126 39.6014C145.367 39.6014 144.506 38.5988 144.506 36.5935V28.3718H149.208V25.1633H144.506V20.4509H140.881L140.343 25.1633L137.472 25.3304V28.3384H140.128V36.5601C140.128 40.2699 141.707 42.8099 146.013 42.8099C147.485 42.8099 148.777 42.5091 149.782 42.1749L149.028 39.2004C148.454 39.4677 147.772 39.6014 147.126 39.6014ZM198.879 32.2821C196.869 31.6137 195.039 31.0455 195.039 29.7086C195.039 28.6057 195.9 27.8036 197.766 27.8036C199.238 27.8036 200.566 28.4052 201.822 29.2742L203.832 26.801C202.324 25.6981 200.243 24.7288 197.694 24.7288C193.531 24.7288 190.947 26.8678 190.947 29.8758C190.947 32.75 193.711 34.0534 196.151 34.9224C198.125 35.6243 200.099 36.2593 200.099 37.6964C200.099 38.8996 199.166 39.7685 197.156 39.7685C195.29 39.7685 193.675 39.0333 192.024 37.8301L189.978 40.437C191.773 41.8072 194.464 42.8433 196.977 42.8433C201.642 42.8433 204.19 40.437 204.19 37.4959C204.19 34.254 201.391 33.1511 198.879 32.2821ZM158.97 32.1818H167.834V28.7394H158.97V22.8572H169.413V19.4482H154.591V42.4423H169.772V38.9998H158.97V32.1818ZM183.339 37.7967C181.975 38.9998 180.826 39.7017 179.319 39.7017C177.776 39.7017 176.663 39.0333 176.663 37.4959C176.663 35.7914 178.314 34.5548 183.339 33.9532V37.7967ZM180.79 24.7623C177.848 24.7623 175.264 25.8317 173.218 27.0015L174.797 29.7086C176.412 28.8063 178.135 28.0376 180.001 28.0376C182.477 28.0376 183.303 29.575 183.339 31.4131C175.766 32.1818 172.464 34.1203 172.464 37.7967C172.464 40.8046 174.725 42.8433 177.955 42.8433C180.144 42.8433 182.011 41.8407 183.698 40.5372H183.805L184.128 42.4423H187.681V32.2153C187.681 27.3691 185.42 24.7623 180.79 24.7623ZM30.7362 27.5362H33.1767V24.8291H30.7362V27.5362ZM21.046 27.5362H23.4865V24.8291H21.046V27.5362ZM25.8911 32.0482H28.3316V29.341H25.8911V32.0482ZM25.8911 27.5362H28.3316V24.8291H25.8911V27.5362ZM30.7362 36.5601H33.1767V33.8529H30.7362V36.5601ZM37.0168 23.0243L36.0478 23.9267V39.2672H28.2957V33.8529H25.8552V39.2672H18.1389V23.9267L17.1699 23.0243V21.2196H37.0527L37.0168 23.0243ZM27.0754 12.1289C16.4162 12.1289 7.80273 20.1835 7.80273 30.0763C7.80273 39.9691 16.4521 48.0237 27.0754 48.0237V55.4432L40.6058 42.8433C44.3024 39.4677 46.384 34.8556 46.3481 30.0429C46.384 20.1501 37.7346 12.1289 27.0754 12.1289ZM30.7362 32.0482H33.1767V29.341H30.7362V32.0482ZM21.046 36.5601H23.4865V33.8529H21.046V36.5601ZM21.046 32.0482H23.4865V29.341H21.046V32.0482Z" fill="#032765"/>
</g>
<defs>
<clipPath id="clip0_254_2205">
<rect width="234" height="70" fill="white"/>
</clipPath>
</defs>
</svg>
