<svg width="235" height="70" viewBox="0 0 235 70" fill="none" xmlns="http://www.w3.org/2000/svg">
<g clip-path="url(#clip0_254_2204)">
<path d="M157.81 24.0502C158.721 24.0516 159.613 23.8159 160.371 23.3729C161.129 22.9299 161.721 22.2995 162.071 21.5615C162.421 20.8235 162.513 20.011 162.336 19.227C162.16 18.4429 161.722 17.7224 161.078 17.1567C160.434 16.591 159.614 16.2055 158.72 16.0491C157.827 15.8926 156.9 15.9722 156.058 16.2777C155.216 16.5832 154.497 17.101 153.99 17.7655C153.484 18.43 153.214 19.2113 153.214 20.0105C153.214 21.0806 153.698 22.107 154.559 22.8644C155.421 23.6218 156.59 24.0482 157.81 24.0502ZM161.981 45.7219V26.7188H149.026V33.5224H154.225V52.5255H167.171V45.7219H161.981ZM139.841 45.7219V17.8478H126.895V24.6514H132.085V45.7219H126.895V52.5255H145.031V45.7219H139.841ZM84.7131 26.6308H82.3646C80.6051 26.5505 78.8519 26.8725 77.277 27.5652C75.702 28.2579 74.3591 29.2976 73.3799 30.5825L71.8003 26.7188H64.1864V33.5224H67.7886V52.5255H75.5446V39.2409C75.5446 37.6543 76.2631 36.1326 77.5421 35.0107C78.8211 33.8888 80.5558 33.2585 82.3646 33.2585H84.7131V26.6308ZM120.635 40.0841V26.7188H112.921V40.326C112.921 41.9379 112.191 43.4838 110.891 44.6236C109.592 45.7634 107.83 46.4038 105.992 46.4038C104.154 46.4038 102.392 45.7634 101.093 44.6236C99.7934 43.4838 99.0634 41.9379 99.0634 40.326V26.7188H91.2656V40.0841C91.2656 43.5004 92.8127 46.7768 95.5666 49.1926C98.3205 51.6083 102.056 52.9654 105.95 52.9654C109.845 52.9654 113.58 51.6083 116.334 49.1926C119.088 46.7768 120.635 43.5004 120.635 40.0841ZM57.4249 33.5224V26.7188H47.3036V18.3903H39.556V26.7188H34.3574V33.5224H39.556V40.0621C39.5549 41.7533 39.9337 43.4282 40.6707 44.991C41.4078 46.5538 42.4887 47.9739 43.8516 49.1701C45.2145 50.3664 46.8328 51.3153 48.6139 51.9627C50.3951 52.6102 52.3042 52.9434 54.2322 52.9434C55.3057 52.9449 56.3762 52.8441 57.4249 52.6428V45.9199C56.5731 46.1919 55.6736 46.3309 54.7671 46.3305C52.8237 46.3599 50.9463 45.7118 49.5471 44.5283C48.1478 43.3449 47.341 41.7228 47.3036 40.0181V33.5224H57.4249ZM192.896 26.7188V29.2848C190.892 27.4604 188.145 26.406 185.257 26.3522H184.656C176.991 26.3522 170.782 32.3054 170.782 39.6588C170.782 47.0123 176.991 52.9947 184.656 52.9654H185.257C188.145 52.9116 190.892 51.8573 192.896 50.0328V52.5988H200.677V26.7188H192.896ZM185.533 46.3818C183.526 46.3471 181.617 45.6148 180.225 44.3459C178.834 43.077 178.073 41.3753 178.111 39.6148C178.078 38.7449 178.245 37.878 178.601 37.0657C178.958 36.2534 179.497 35.5123 180.186 34.8866C180.876 34.2608 181.702 33.7632 182.616 33.4234C183.529 33.0836 184.512 32.9084 185.504 32.9084C186.496 32.9084 187.478 33.0836 188.392 33.4234C189.305 33.7632 190.131 34.2608 190.821 34.8866C191.511 35.5123 192.05 36.2534 192.407 37.0657C192.763 37.878 192.93 38.7449 192.896 39.6148C192.922 40.4838 192.751 41.3487 192.395 42.1597C192.038 42.9707 191.502 43.7119 190.818 44.3407C190.134 44.9695 189.315 45.4736 188.408 45.8238C187.501 46.1741 186.524 46.3637 185.533 46.3818Z" fill="#202626"/>
</g>
<defs>
<clipPath id="clip0_254_2204">
<rect width="166.287" height="36.9798" fill="white" transform="translate(34.3574 15.9846)"/>
</clipPath>
</defs>
</svg>
