<svg width="232" height="89" viewBox="0 0 232 89" fill="none" xmlns="http://www.w3.org/2000/svg">
<g clip-path="url(#clip0_254_1968)">
<path d="M144.355 35.5713C144.994 35.5725 145.62 35.3804 146.152 35.0195C146.684 34.6585 147.099 34.1448 147.345 33.5435C147.59 32.9421 147.655 32.2801 147.531 31.6412C147.407 31.0023 147.1 30.4153 146.648 29.9543C146.196 29.4934 145.62 29.1793 144.993 29.0518C144.366 28.9243 143.716 28.9892 143.125 29.2381C142.534 29.4871 142.029 29.909 141.674 30.4504C141.318 30.9918 141.128 31.6284 141.128 32.2797C141.128 33.1517 141.468 33.988 142.073 34.6051C142.678 35.2222 143.498 35.5697 144.355 35.5713ZM147.282 53.23V37.7458H138.19V43.2895H141.838V58.7737H150.925V53.23H147.282ZM131.743 53.23V30.5174H122.657V36.0611H126.299V53.23H122.657V58.7737H135.386V53.23H131.743ZM93.0512 37.6741H91.4029C90.168 37.6086 88.9376 37.871 87.8322 38.4354C86.7267 38.9999 85.7843 39.847 85.097 40.894L83.9884 37.7458H78.6445V43.2895H81.1727V58.7737H86.6163V47.9491C86.6163 46.6562 87.1206 45.4164 88.0183 44.5022C88.9159 43.588 90.1334 43.0744 91.4029 43.0744H93.0512V37.6741ZM118.263 48.6361V37.7458H112.849V48.8332C112.849 50.1466 112.336 51.4063 111.424 52.335C110.512 53.2638 109.276 53.7855 107.986 53.7855C106.696 53.7855 105.459 53.2638 104.547 52.335C103.635 51.4063 103.123 50.1466 103.123 48.8332V37.7458H97.6501V48.6361C97.6501 51.4198 98.736 54.0895 100.669 56.0579C102.602 58.0263 105.223 59.1321 107.957 59.1321C110.69 59.1321 113.311 58.0263 115.244 56.0579C117.177 54.0895 118.263 51.4198 118.263 48.6361ZM73.899 43.2895V37.7458H66.7953V30.9595H61.3576V37.7458H57.709V43.2895H61.3576V48.6182C61.3568 49.9962 61.6227 51.361 62.14 52.6344C62.6573 53.9078 63.4159 55.0649 64.3725 56.0396C65.3291 57.0143 66.4649 57.7876 67.715 58.3151C68.9651 58.8426 70.305 59.1142 71.6582 59.1142C72.4116 59.1154 73.1629 59.0333 73.899 58.8693V53.3912C73.3011 53.6129 72.6698 53.7261 72.0336 53.7258C70.6696 53.7498 69.352 53.2217 68.3699 52.2574C67.3878 51.2931 66.8215 49.9714 66.7953 48.5823V43.2895H73.899ZM168.98 37.7458V39.8366C167.573 38.35 165.645 37.4909 163.618 37.4471H163.196C157.817 37.4471 153.459 42.2978 153.459 48.2896C153.459 54.2813 157.817 59.156 163.196 59.1321H163.618C165.645 59.0883 167.573 58.2292 168.98 56.7426V58.8334H174.441V37.7458H168.98ZM163.812 53.7676C162.403 53.7393 161.064 53.1427 160.087 52.1088C159.11 51.0748 158.576 49.6882 158.603 48.2537C158.58 47.5449 158.697 46.8385 158.947 46.1766C159.197 45.5148 159.575 44.9109 160.059 44.4011C160.544 43.8912 161.123 43.4857 161.765 43.2088C162.406 42.9319 163.095 42.7892 163.791 42.7892C164.488 42.7892 165.177 42.9319 165.818 43.2088C166.459 43.4857 167.039 43.8912 167.523 44.4011C168.008 44.9109 168.386 45.5148 168.636 46.1766C168.886 46.8385 169.003 47.5449 168.98 48.2537C168.998 48.9618 168.878 49.6665 168.628 50.3274C168.378 50.9882 168.001 51.5921 167.521 52.1045C167.041 52.6169 166.466 53.0276 165.83 53.313C165.193 53.5984 164.507 53.7529 163.812 53.7676Z" fill="#202626"/>
</g>
<defs>
<clipPath id="clip0_254_1968">
<rect width="116.709" height="30.132" fill="white" transform="translate(57.709 29)"/>
</clipPath>
</defs>
</svg>
