<svg width="234" height="70" viewBox="0 0 234 70" fill="none" xmlns="http://www.w3.org/2000/svg">
<g clip-path="url(#clip0_254_2203)">
<g clip-path="url(#clip1_254_2203)">
<path fill-rule="evenodd" clip-rule="evenodd" d="M29.7371 23.5595C29.9596 23.5069 30.0612 23.5829 30.1929 23.7232C30.9491 24.5341 33.3859 27.3606 34.0491 28.1344C34.0733 28.1618 34.0911 28.1934 34.1013 28.2272C34.1114 28.261 34.1139 28.2963 34.1084 28.331C34.103 28.3656 34.0897 28.3989 34.0695 28.4288C34.0493 28.4587 34.0225 28.4846 33.9908 28.5048C29.0782 32.1558 23.6125 37.3194 20.5665 41.0192C20.5016 41.0971 20.5556 41.103 20.5989 41.0854C25.9047 38.91 38.3655 35.4384 43.9867 34.4657V27.6939L22.016 11.1543L0 27.6939V35.0953C6.82452 31.2338 22.5907 25.2554 29.7349 23.5595H29.7371ZM131.878 13.4564H141.546V56.9876H131.878V13.4564ZM124.717 13.4564H115.049V56.9896H124.717V13.4564ZM188.907 28.5048H179.356L189.028 56.9935H197.922L200.35 49.7909C201.314 46.9294 202.921 41.5864 202.921 41.5864C202.925 41.572 202.934 41.5591 202.947 41.5499C202.96 41.5408 202.976 41.5357 202.992 41.5357C203.025 41.5357 203.053 41.5552 203.063 41.5864C203.063 41.5864 204.673 47.0327 205.587 49.8396L207.97 56.9876H216.706L226.309 28.5029H217.432L214.662 37.1206C213.817 39.8522 212.995 42.5897 212.197 45.3329C212.194 45.3474 212.184 45.3602 212.171 45.3694C212.159 45.3786 212.143 45.3836 212.126 45.3836C212.11 45.3836 212.094 45.3786 212.081 45.3694C212.068 45.3602 212.059 45.3474 212.055 45.3329C212.055 45.3329 210.564 40.0738 209.598 37.1206L206.747 28.5048H199.691L196.788 37.1206C195.878 39.8769 194.282 45.3368 194.282 45.3368C194.277 45.3502 194.267 45.3617 194.254 45.3698C194.241 45.3778 194.226 45.382 194.21 45.3816C194.195 45.3816 194.18 45.3772 194.168 45.3692C194.155 45.3612 194.146 45.3498 194.141 45.3368C194.141 45.3368 192.599 39.9763 191.674 37.1206L188.907 28.5048ZM146.331 42.8437C146.331 34.1889 153.661 27.7777 162.628 27.7777C171.507 27.7777 178.84 34.1908 178.84 42.8437C178.84 51.5238 171.512 57.9369 162.628 57.9369C153.663 57.9369 146.331 51.5238 146.331 42.8495V42.8437ZM169.563 42.8437C169.563 38.606 166.387 35.721 162.628 35.721C158.781 35.721 155.607 38.606 155.607 42.8437C155.607 47.1107 158.781 49.9663 162.628 49.9663C166.387 49.9663 169.563 47.1107 169.563 42.8437ZM59.1264 17.4836V25.8772H76.2125C76.2817 25.8772 76.3076 25.9396 76.273 25.9941L59.1199 53.7557L59.0897 53.8064C58.7008 54.4848 58.6079 54.6485 58.6079 55.3522V56.9896H91.8901V48.6116H73.4019C73.3872 48.6116 73.3729 48.6077 73.3606 48.6004C73.3483 48.5931 73.3387 48.5828 73.3328 48.5707C73.3262 48.5582 73.3236 48.5443 73.3251 48.5306C73.3266 48.5169 73.3323 48.5038 73.3414 48.4927L90.6933 20.3666L90.7408 20.2769C90.8618 20.043 90.9785 19.8247 90.9785 19.2399L90.9828 17.4855H59.1264V17.4836ZM102.88 14.2361C105.893 14.2361 108.384 16.5518 108.384 19.4036C108.384 22.2574 105.893 24.577 102.88 24.577C99.8661 24.577 97.3774 22.2613 97.3774 19.4075C97.3774 16.5538 99.8661 14.2381 102.88 14.2381V14.2361ZM98.0471 28.5048H107.712V56.9896H98.0471V28.5048ZM11.3872 51.9371C11.506 52.0696 11.7112 52.0969 11.8624 52.0033C20.0242 47.9995 37.9788 42.9178 43.9867 41.9451V57.1611H0.00216031V41.3525C4.52376 38.9159 16.7383 33.918 21.0374 32.5807C21.1238 32.5535 21.1433 32.6002 21.0698 32.6529C16.9436 35.5709 10.4755 42.4577 7.30627 46.8845C7.16153 47.0912 7.17017 47.1574 7.28467 47.2841L11.3872 51.9371ZM231.321 23.0527C232.157 23.0527 232.753 23.6258 232.753 24.4445C232.753 25.0643 232.401 25.5536 231.865 25.7466L232.688 27.0331H231.906L231.141 25.8363H230.467V27.0292H229.78V23.0527H231.321ZM230.467 25.2515H231.278C231.733 25.2515 232.068 24.9162 232.068 24.4503C232.068 23.9825 231.733 23.6414 231.28 23.6414H230.467V25.2515ZM231.113 21.6726C229.653 21.6726 228.337 22.5108 227.78 23.7934C227.505 24.4206 227.433 25.105 227.572 25.7676C227.71 26.4302 228.053 27.044 228.562 27.538C229.051 28.0148 229.692 28.3426 230.396 28.476C231.101 28.6094 231.834 28.5418 232.494 28.2826C233.842 27.7504 234.721 26.4971 234.721 25.1072C234.719 23.2106 233.105 21.6745 231.113 21.6726ZM231.113 27.883C229.934 27.883 228.871 27.2066 228.419 26.1696C228.198 25.6629 228.139 25.1101 228.251 24.5748C228.363 24.0395 228.64 23.5436 229.05 23.1443C229.884 22.349 231.139 22.1112 232.228 22.542C233.317 22.9708 234.028 23.9844 234.028 25.1072C234.025 26.6394 232.723 27.881 231.113 27.883Z" fill="#006AFF"/>
</g>
</g>
<defs>
<clipPath id="clip0_254_2203">
<rect width="234" height="70" fill="white"/>
</clipPath>
<clipPath id="clip1_254_2203">
<rect width="234.721" height="46.7826" fill="white" transform="translate(0 11.1543)"/>
</clipPath>
</defs>
</svg>
