<svg width="232" height="89" viewBox="0 0 232 89" fill="none" xmlns="http://www.w3.org/2000/svg">
<g clip-path="url(#clip0_254_1967)">
<path fill-rule="evenodd" clip-rule="evenodd" d="M37.1052 34.137C37.3042 34.0897 37.3951 34.158 37.513 34.284C38.1895 35.012 40.3697 37.5495 40.963 38.2443C40.9847 38.2688 41.0005 38.2972 41.0097 38.3275C41.0188 38.3578 41.021 38.3896 41.0161 38.4207C41.0112 38.4518 40.9993 38.4817 40.9813 38.5085C40.9632 38.5354 40.9392 38.5586 40.9109 38.5767C36.5156 41.8545 31.6256 46.4902 28.9004 49.8118C28.8424 49.8818 28.8907 49.887 28.9294 49.8713C33.6763 47.9182 44.8248 44.8015 49.854 43.9282V37.8487L30.1973 23L10.5 37.8487V44.4935C16.6058 41.0267 30.7114 35.6595 37.1032 34.137H37.1052ZM128.488 25.0668H137.138V64.1478H128.488V25.0668ZM122.081 25.0668H113.432V64.1495H122.081V25.0668ZM179.511 38.5767H170.966L179.619 64.153H187.576L189.749 57.6867C190.611 55.1177 192.049 50.321 192.049 50.321C192.052 50.308 192.061 50.2965 192.072 50.2883C192.084 50.28 192.098 50.2755 192.113 50.2755C192.142 50.2755 192.167 50.293 192.177 50.321C192.177 50.321 193.617 55.2105 194.434 57.7305L196.566 64.1478H204.382L212.974 38.575H205.032L202.554 46.3118C201.797 48.7641 201.062 51.2217 200.348 53.6845C200.345 53.6975 200.337 53.709 200.325 53.7172C200.314 53.7255 200.299 53.73 200.285 53.73C200.27 53.73 200.256 53.7255 200.244 53.7172C200.233 53.709 200.224 53.6975 200.221 53.6845C200.221 53.6845 198.887 48.963 198.023 46.3118L195.472 38.5767H189.159L186.562 46.3118C185.748 48.7863 184.32 53.688 184.32 53.688C184.315 53.7 184.307 53.7103 184.295 53.7176C184.284 53.7248 184.27 53.7286 184.256 53.7283C184.242 53.7282 184.229 53.7243 184.218 53.7171C184.207 53.7099 184.198 53.6997 184.194 53.688C184.194 53.688 182.814 48.8755 181.987 46.3118L179.511 38.5767ZM141.419 51.4497C141.419 43.6798 147.977 37.924 156 37.924C163.944 37.924 170.504 43.6815 170.504 51.4497C170.504 59.2425 163.948 65 156 65C147.979 65 141.419 59.2425 141.419 51.455V51.4497ZM162.204 51.4497C162.204 47.6453 159.363 45.0553 156 45.0553C152.558 45.0553 149.718 47.6453 149.718 51.4497C149.718 55.2805 152.558 57.8442 156 57.8442C159.363 57.8442 162.204 55.2805 162.204 51.4497ZM63.3991 28.6823V36.2177H78.6857C78.7476 36.2177 78.7708 36.2738 78.7399 36.3228L63.3933 61.2463L63.3663 61.2918C63.0184 61.9007 62.9352 62.0477 62.9352 62.6795V64.1495H92.7122V56.628H76.1712C76.158 56.628 76.1452 56.6245 76.1342 56.618C76.1232 56.6114 76.1145 56.6021 76.1093 56.5912C76.1034 56.58 76.1011 56.5676 76.1024 56.5553C76.1038 56.5429 76.1088 56.5312 76.117 56.5213L91.6414 31.2705L91.6839 31.19C91.7921 30.98 91.8965 30.784 91.8965 30.259L91.9004 28.684H63.3991V28.6823ZM102.544 25.7667C105.241 25.7667 107.469 27.8457 107.469 30.406C107.469 32.968 105.241 35.0505 102.544 35.0505C99.8481 35.0505 97.6215 32.9715 97.6215 30.4095C97.6215 27.8475 99.8481 25.7685 102.544 25.7685V25.7667ZM98.2207 38.5767H106.868V64.1495H98.2207V38.5767ZM20.6879 59.6135C20.7942 59.7325 20.9778 59.757 21.1131 59.673C28.4152 56.0785 44.4788 51.5162 49.854 50.643V64.3035H10.5019V50.111C14.5473 47.9235 25.4754 43.4365 29.3217 42.236C29.399 42.2115 29.4164 42.2535 29.3507 42.3008C25.659 44.9205 19.8722 51.1033 17.0368 55.0775C16.9073 55.263 16.915 55.3225 17.0174 55.4362L20.6879 59.6135ZM217.458 33.682C218.206 33.682 218.739 34.1965 218.739 34.9315C218.739 35.488 218.424 35.9272 217.945 36.1005L218.681 37.2555H217.982L217.297 36.181H216.694V37.252H216.08V33.682H217.458ZM216.694 35.656H217.419C217.827 35.656 218.126 35.355 218.126 34.9368C218.126 34.5168 217.827 34.2105 217.421 34.2105H216.694V35.656ZM217.272 32.443C215.966 32.443 214.789 33.1955 214.29 34.347C214.044 34.91 213.98 35.5245 214.103 36.1194C214.227 36.7143 214.534 37.2653 214.99 37.7087C215.427 38.1368 216 38.4311 216.631 38.5509C217.261 38.6707 217.917 38.61 218.507 38.3772C219.713 37.8995 220.5 36.7743 220.5 35.5265C220.498 33.8237 219.054 32.4447 217.272 32.443ZM217.272 38.0185C216.217 38.0185 215.266 37.4113 214.862 36.4803C214.664 36.0254 214.611 35.5291 214.711 35.0485C214.811 34.568 215.059 34.1227 215.426 33.7642C216.172 33.0503 217.295 32.8368 218.27 33.2235C219.244 33.6085 219.88 34.5185 219.88 35.5265C219.878 36.902 218.712 38.0167 217.272 38.0185Z" fill="#006AFF"/>
</g>
<defs>
<clipPath id="clip0_254_1967">
<rect width="210" height="42" fill="white" transform="translate(10.5 23)"/>
</clipPath>
</defs>
</svg>
