<svg width="24" height="24" viewBox="0 0 24 24" fill="none" xmlns="http://www.w3.org/2000/svg">
<path d="M22 12C22 17.5228 17.5228 22 12 22C6.47715 22 2 17.5228 2 12C2 6.47715 6.47715 2 12 2C17.5228 2 22 6.47715 22 12Z" fill="#308546" stroke="#308546" stroke-width="1.5" stroke-linecap="round" stroke-linejoin="round"/>
<path d="M8.64797 10.252C8.99597 8.068 10.244 7.108 12.164 7.108C13.94 7.108 15.224 8.152 15.224 9.904C15.224 11.272 14.444 11.968 13.448 12.556L11.936 13.432C11.168 13.876 10.592 14.248 10.304 14.824H15.404V16H8.81597V15.592C8.81597 14.5 9.28397 13.684 10.952 12.7L12.392 11.872C13.184 11.416 13.808 10.912 13.808 9.94C13.808 8.908 13.124 8.26 12.08 8.26C10.928 8.26 10.208 8.836 9.93197 10.408L8.64797 10.252Z" fill="white"/>
</svg>
