<svg width="24" height="24" viewBox="0 0 24 24" fill="none" xmlns="http://www.w3.org/2000/svg">
<path d="M22 12C22 17.5228 17.5228 22 12 22C6.47715 22 2 17.5228 2 12C2 6.47715 6.47715 2 12 2C17.5228 2 22 6.47715 22 12Z" fill="#308546" stroke="#308546" stroke-width="1.5" stroke-linecap="round" stroke-linejoin="round"/>
<path d="M8.53106 13.552L9.87506 13.372C10.1391 14.56 10.8831 14.98 12.0231 14.98C13.2831 14.98 14.0631 14.464 14.0631 13.384C14.0631 12.424 13.3671 12.076 12.4071 12.076H11.1111V10.948H12.2511C13.0311 10.948 13.7991 10.684 13.7991 9.772C13.7991 8.896 13.1031 8.26 12.0591 8.26C10.8711 8.26 10.1511 8.848 9.95906 10.036L8.65106 9.868C8.90306 8.104 10.1631 7.108 12.1431 7.108C14.0511 7.108 15.2031 8.188 15.2031 9.58C15.2031 10.42 14.8191 11.176 13.9431 11.428V11.464C14.8431 11.656 15.4791 12.304 15.4791 13.528C15.4791 15.292 14.0031 16.132 12.0111 16.132C10.0791 16.132 8.84306 15.328 8.53106 13.552Z" fill="white"/>
</svg>
