<svg width="348" height="138" preserveAspectRatio="none slice" viewBox="0 0 348 138" fill="none" xmlns="http://www.w3.org/2000/svg">
<path fill-rule="evenodd" clip-rule="evenodd" d="M255.323 19.3795C272.068 21.763 285.178 27.5787 298.262 33.9183C341.169 54.7305 354.543 80.8305 323.37 101.321C274.899 133.081 165.173 144.79 81.6241 123.769C63.1203 119.126 38.0093 114.009 20.1389 99.7708C3.51499 86.5312 4.91274 73.2545 13.4253 61.8031C22.0972 50.0554 38.1696 40.1849 50.8766 34.1166C106.429 7.65364 215.857 -9.53827 312.65 17.5041C314.641 18.0398 316.674 17.7536 317.296 16.8771C317.917 16.0006 316.964 14.8723 315.117 14.3533C215.481 -13.4798 102.581 3.95065 45.4034 31.1841C29.5925 38.7549 8.73418 52.0369 2.17798 67.5279C-2.25444 78.1212 -0.107772 89.7272 14.2955 101.282C33.2722 116.442 59.9425 122.083 79.5846 127.02C165.838 148.726 279.324 136.74 329.29 103.927C362.848 81.9097 348.71 53.8593 302.567 31.4863C288.501 24.6229 274.112 18.4316 255.936 15.8455C253.932 15.561 252.174 16.1225 252.124 17.1117C251.93 18.0842 253.463 19.1118 255.323 19.3795Z" fill="#EB5161"/>
</svg>
