<?xml version="1.0" encoding="utf-8"?>
<!-- Generator: Adobe Illustrator 27.2.0, SVG Export Plug-In . SVG Version: 6.00 Build 0)  -->
<svg version="1.1" id="Layer_1" xmlns="http://www.w3.org/2000/svg" xmlns:xlink="http://www.w3.org/1999/xlink" x="0px" y="0px"
	 viewBox="0 0 485 149.4" preserveAspectRatio="none slice" style="enable-background:new 0 0 485 149.4;" xml:space="preserve">
<style type="text/css">
	.st0{fill-rule:evenodd;clip-rule:evenodd;fill:#EB5161;}
</style>
<path class="st0" d="M355.5,25.2c22.3,3.8,39.4,11,56.5,18.8c55.9,25.6,71.5,54.9,27.7,75c-68.1,31.1-216.8,36.2-327.3,7.6
	c-24.5-6.3-57.8-13.6-80.6-30.3c-21.2-15.5-18.1-29.9-5.6-41.7C38.9,42.3,61.4,32.7,79.1,27C156.2,2.1,305-9,432.8,27.1
	c2.6,0.7,5.4,0.6,6.3-0.4c0.9-0.9-0.3-2.2-2.7-2.9C304.8-13.3,151.4-2.2,72,23.4c-22,7.1-51.2,20.1-61.4,36.5
	c-6.9,11.2-5.1,24,13.3,37.5c24.2,17.8,59.5,25.8,85.5,32.5c114.1,29.6,267.9,24.4,338.1-7.7c47.1-21.6,30.6-53-29.4-80.5
	c-18.3-8.4-37.1-16.2-61.3-20.2c-2.7-0.4-5.1,0-5.2,1.1C351,23.5,353,24.8,355.5,25.2z"/>
<path class="st0" d="M461.7,42.2c0-7.2-5.8-13-13-13c7.2,0,13-5.8,13-13c0,7.2,5.8,13,13,13C467.5,29.2,461.7,35,461.7,42.2z"/>
</svg>
